<?xml version="1.0" encoding="UTF-8" standalone="no"?>
<!DOCTYPE svg PUBLIC "-//W3C//DTD SVG 1.1//EN"
 "http://www.w3.org/Graphics/SVG/1.1/DTD/svg11.dtd">
<!-- Generated by graphviz version 2.38.0 (20140413.2041)
 -->
<!-- Title: G Pages: 1 -->
<svg width="1512pt" height="432pt"
 viewBox="0.00 0.00 1512.20 432.26" xmlns="http://www.w3.org/2000/svg" xmlns:xlink="http://www.w3.org/1999/xlink">
<g id="graph0" class="graph" transform="scale(1 1) rotate(0) translate(21.6 410.655)">
<title>G</title>
<polygon fill="#111111" stroke="none" points="-21.6,21.6 -21.6,-410.655 1490.6,-410.655 1490.6,21.6 -21.6,21.6"/>
<!-- app.js -->
<g id="node1" class="node"><title>app.js</title>
<path fill="none" stroke="#c6c5fe" d="M47.3333,-209.713C47.3333,-209.713 7.66667,-209.713 7.66667,-209.713 3.83333,-209.713 0,-205.879 0,-202.046 0,-202.046 0,-194.379 0,-194.379 0,-190.546 3.83333,-186.713 7.66667,-186.713 7.66667,-186.713 47.3333,-186.713 47.3333,-186.713 51.1667,-186.713 55,-190.546 55,-194.379 55,-194.379 55,-202.046 55,-202.046 55,-205.879 51.1667,-209.713 47.3333,-209.713"/>
<text text-anchor="middle" x="27.5" y="-194.513" font-family="Arial" font-size="14.00" fill="#c6c5fe">app.js</text>
</g>
<!-- bootstrap.js -->
<g id="node2" class="node"><title>bootstrap.js</title>
<path fill="none" stroke="#c6c5fe" d="M174.333,-209.713C174.333,-209.713 98.6667,-209.713 98.6667,-209.713 94.8333,-209.713 91,-205.879 91,-202.046 91,-202.046 91,-194.379 91,-194.379 91,-190.546 94.8333,-186.713 98.6667,-186.713 98.6667,-186.713 174.333,-186.713 174.333,-186.713 178.167,-186.713 182,-190.546 182,-194.379 182,-194.379 182,-202.046 182,-202.046 182,-205.879 178.167,-209.713 174.333,-209.713"/>
<text text-anchor="middle" x="136.5" y="-194.513" font-family="Arial" font-size="14.00" fill="#c6c5fe">bootstrap.js</text>
</g>
<!-- app.js&#45;&gt;bootstrap.js -->
<g id="edge1" class="edge"><title>app.js&#45;&gt;bootstrap.js</title>
<path fill="none" stroke="#757575" d="M55.2246,-198.213C63.0501,-198.213 71.9053,-198.213 80.8047,-198.213"/>
<polygon fill="#757575" stroke="#757575" points="80.8186,-201.713 90.8186,-198.213 80.8185,-194.713 80.8186,-201.713"/>
</g>
<!-- lib/consts/index.js -->
<g id="node3" class="node"><title>lib/consts/index.js</title>
<path fill="none" stroke="#c6c5fe" d="M1219.33,-228.713C1219.33,-228.713 1106.67,-228.713 1106.67,-228.713 1102.83,-228.713 1099,-224.879 1099,-221.046 1099,-221.046 1099,-213.379 1099,-213.379 1099,-209.546 1102.83,-205.713 1106.67,-205.713 1106.67,-205.713 1219.33,-205.713 1219.33,-205.713 1223.17,-205.713 1227,-209.546 1227,-213.379 1227,-213.379 1227,-221.046 1227,-221.046 1227,-224.879 1223.17,-228.713 1219.33,-228.713"/>
<text text-anchor="middle" x="1163" y="-213.513" font-family="Arial" font-size="14.00" fill="#c6c5fe">lib/consts/index.js</text>
</g>
<!-- bootstrap.js&#45;&gt;lib/consts/index.js -->
<g id="edge2" class="edge"><title>bootstrap.js&#45;&gt;lib/consts/index.js</title>
<path fill="none" stroke="#757575" d="M145.552,-209.992C158.709,-228.428 186.526,-264.164 218,-285.213 313.735,-349.235 345.831,-375.213 461,-375.213 461,-375.213 461,-375.213 701,-375.213 862.478,-375.213 921.062,-421.21 1063,-344.213 1106.96,-320.364 1137.83,-267.822 1152.43,-238.34"/>
<polygon fill="#757575" stroke="#757575" points="1155.76,-239.49 1156.92,-228.958 1149.45,-236.472 1155.76,-239.49"/>
</g>
<!-- lib/jobs/consumer.js -->
<g id="node4" class="node"><title>lib/jobs/consumer.js</title>
<path fill="none" stroke="#c6c5fe" d="M352.333,-209.713C352.333,-209.713 225.667,-209.713 225.667,-209.713 221.833,-209.713 218,-205.879 218,-202.046 218,-202.046 218,-194.379 218,-194.379 218,-190.546 221.833,-186.713 225.667,-186.713 225.667,-186.713 352.333,-186.713 352.333,-186.713 356.167,-186.713 360,-190.546 360,-194.379 360,-194.379 360,-202.046 360,-202.046 360,-205.879 356.167,-209.713 352.333,-209.713"/>
<text text-anchor="middle" x="289" y="-194.513" font-family="Arial" font-size="14.00" fill="#c6c5fe">lib/jobs/consumer.js</text>
</g>
<!-- bootstrap.js&#45;&gt;lib/jobs/consumer.js -->
<g id="edge3" class="edge"><title>bootstrap.js&#45;&gt;lib/jobs/consumer.js</title>
<path fill="none" stroke="#757575" d="M182.247,-198.213C190.281,-198.213 198.873,-198.213 207.558,-198.213"/>
<polygon fill="#757575" stroke="#757575" points="207.768,-201.713 217.768,-198.213 207.768,-194.713 207.768,-201.713"/>
</g>
<!-- lib/jobs/producer.js -->
<g id="node5" class="node"><title>lib/jobs/producer.js</title>
<path fill="none" stroke="#c6c5fe" d="M349.333,-110.713C349.333,-110.713 228.667,-110.713 228.667,-110.713 224.833,-110.713 221,-106.879 221,-103.046 221,-103.046 221,-95.3792 221,-95.3792 221,-91.5458 224.833,-87.7125 228.667,-87.7125 228.667,-87.7125 349.333,-87.7125 349.333,-87.7125 353.167,-87.7125 357,-91.5458 357,-95.3792 357,-95.3792 357,-103.046 357,-103.046 357,-106.879 353.167,-110.713 349.333,-110.713"/>
<text text-anchor="middle" x="289" y="-95.5125" font-family="Arial" font-size="14.00" fill="#c6c5fe">lib/jobs/producer.js</text>
</g>
<!-- bootstrap.js&#45;&gt;lib/jobs/producer.js -->
<g id="edge4" class="edge"><title>bootstrap.js&#45;&gt;lib/jobs/producer.js</title>
<path fill="none" stroke="#757575" d="M154.709,-186.528C170.964,-175.524 196.056,-158.624 218,-144.213 232.227,-134.869 248.184,-124.595 261.267,-116.226"/>
<polygon fill="#757575" stroke="#757575" points="263.264,-119.103 269.808,-110.771 259.496,-113.204 263.264,-119.103"/>
</g>
<!-- lib/metrics/aggregation&#45;metrics&#45;factory.js -->
<g id="node6" class="node"><title>lib/metrics/aggregation&#45;metrics&#45;factory.js</title>
<path fill="none" stroke="#c6c5fe" d="M828.333,-346.713C828.333,-346.713 571.667,-346.713 571.667,-346.713 567.833,-346.713 564,-342.879 564,-339.046 564,-339.046 564,-331.379 564,-331.379 564,-327.546 567.833,-323.713 571.667,-323.713 571.667,-323.713 828.333,-323.713 828.333,-323.713 832.167,-323.713 836,-327.546 836,-331.379 836,-331.379 836,-339.046 836,-339.046 836,-342.879 832.167,-346.713 828.333,-346.713"/>
<text text-anchor="middle" x="700" y="-331.513" font-family="Arial" font-size="14.00" fill="#c6c5fe">lib/metrics/aggregation&#45;metrics&#45;factory.js</text>
</g>
<!-- bootstrap.js&#45;&gt;lib/metrics/aggregation&#45;metrics&#45;factory.js -->
<g id="edge5" class="edge"><title>bootstrap.js&#45;&gt;lib/metrics/aggregation&#45;metrics&#45;factory.js</title>
<path fill="none" stroke="#757575" d="M158.141,-209.811C200.946,-233.236 303.144,-285.938 396,-309.213 446.653,-321.909 503.394,-328.676 553.959,-332.2"/>
<polygon fill="#757575" stroke="#757575" points="553.777,-335.695 563.986,-332.862 554.238,-328.71 553.777,-335.695"/>
</g>
<!-- lib/queue&#45;runner.js -->
<g id="node7" class="node"><title>lib/queue&#45;runner.js</title>
<path fill="none" stroke="#c6c5fe" d="M520.333,-169.713C520.333,-169.713 403.667,-169.713 403.667,-169.713 399.833,-169.713 396,-165.879 396,-162.046 396,-162.046 396,-154.379 396,-154.379 396,-150.546 399.833,-146.713 403.667,-146.713 403.667,-146.713 520.333,-146.713 520.333,-146.713 524.167,-146.713 528,-150.546 528,-154.379 528,-154.379 528,-162.046 528,-162.046 528,-165.879 524.167,-169.713 520.333,-169.713"/>
<text text-anchor="middle" x="462" y="-154.513" font-family="Arial" font-size="14.00" fill="#c6c5fe">lib/queue&#45;runner.js</text>
</g>
<!-- bootstrap.js&#45;&gt;lib/queue&#45;runner.js -->
<g id="edge6" class="edge"><title>bootstrap.js&#45;&gt;lib/queue&#45;runner.js</title>
<path fill="none" stroke="#757575" d="M176.097,-186.661C189.28,-183.114 204.184,-179.536 218,-177.213 273.809,-167.827 337.626,-163.063 385.852,-160.652"/>
<polygon fill="#757575" stroke="#757575" points="386.076,-164.146 395.898,-160.173 385.742,-157.154 386.076,-164.146"/>
</g>
<!-- lib/consts/component&#45;name.js -->
<g id="node8" class="node"><title>lib/consts/component&#45;name.js</title>
<path fill="none" stroke="#cfffac" d="M1461.33,-331.713C1461.33,-331.713 1270.67,-331.713 1270.67,-331.713 1266.83,-331.713 1263,-327.879 1263,-324.046 1263,-324.046 1263,-316.379 1263,-316.379 1263,-312.546 1266.83,-308.713 1270.67,-308.713 1270.67,-308.713 1461.33,-308.713 1461.33,-308.713 1465.17,-308.713 1469,-312.546 1469,-316.379 1469,-316.379 1469,-324.046 1469,-324.046 1469,-327.879 1465.17,-331.713 1461.33,-331.713"/>
<text text-anchor="middle" x="1366" y="-316.513" font-family="Arial" font-size="14.00" fill="#cfffac">lib/consts/component&#45;name.js</text>
</g>
<!-- lib/consts/index.js&#45;&gt;lib/consts/component&#45;name.js -->
<g id="edge7" class="edge"><title>lib/consts/index.js&#45;&gt;lib/consts/component&#45;name.js</title>
<path fill="none" stroke="#757575" d="M1174.3,-228.807C1191.03,-246.858 1225.98,-281.447 1263,-299.213 1267.94,-301.583 1273.14,-303.687 1278.47,-305.554"/>
<polygon fill="#757575" stroke="#757575" points="1277.59,-308.946 1288.18,-308.665 1279.72,-302.28 1277.59,-308.946"/>
</g>
<!-- lib/consts/heuristics&#45;name.js -->
<g id="node9" class="node"><title>lib/consts/heuristics&#45;name.js</title>
<path fill="none" stroke="#cfffac" d="M1455.33,-290.713C1455.33,-290.713 1276.67,-290.713 1276.67,-290.713 1272.83,-290.713 1269,-286.879 1269,-283.046 1269,-283.046 1269,-275.379 1269,-275.379 1269,-271.546 1272.83,-267.713 1276.67,-267.713 1276.67,-267.713 1455.33,-267.713 1455.33,-267.713 1459.17,-267.713 1463,-271.546 1463,-275.379 1463,-275.379 1463,-283.046 1463,-283.046 1463,-286.879 1459.17,-290.713 1455.33,-290.713"/>
<text text-anchor="middle" x="1366" y="-275.513" font-family="Arial" font-size="14.00" fill="#cfffac">lib/consts/heuristics&#45;name.js</text>
</g>
<!-- lib/consts/index.js&#45;&gt;lib/consts/heuristics&#45;name.js -->
<g id="edge8" class="edge"><title>lib/consts/index.js&#45;&gt;lib/consts/heuristics&#45;name.js</title>
<path fill="none" stroke="#757575" d="M1188.34,-228.817C1208.09,-237.86 1236.86,-250.187 1263,-258.213 1271.63,-260.862 1280.78,-263.277 1289.91,-265.448"/>
<polygon fill="#757575" stroke="#757575" points="1289.25,-268.889 1299.78,-267.708 1290.81,-262.065 1289.25,-268.889"/>
</g>
<!-- lib/consts/job&#45;state.js -->
<g id="node10" class="node"><title>lib/consts/job&#45;state.js</title>
<path fill="none" stroke="#cfffac" d="M1432.83,-249.713C1432.83,-249.713 1299.17,-249.713 1299.17,-249.713 1295.33,-249.713 1291.5,-245.879 1291.5,-242.046 1291.5,-242.046 1291.5,-234.379 1291.5,-234.379 1291.5,-230.546 1295.33,-226.713 1299.17,-226.713 1299.17,-226.713 1432.83,-226.713 1432.83,-226.713 1436.67,-226.713 1440.5,-230.546 1440.5,-234.379 1440.5,-234.379 1440.5,-242.046 1440.5,-242.046 1440.5,-245.879 1436.67,-249.713 1432.83,-249.713"/>
<text text-anchor="middle" x="1366" y="-234.513" font-family="Arial" font-size="14.00" fill="#cfffac">lib/consts/job&#45;state.js</text>
</g>
<!-- lib/consts/index.js&#45;&gt;lib/consts/job&#45;state.js -->
<g id="edge9" class="edge"><title>lib/consts/index.js&#45;&gt;lib/consts/job&#45;state.js</title>
<path fill="none" stroke="#757575" d="M1227.05,-223.799C1244.24,-225.596 1263.14,-227.571 1281.29,-229.467"/>
<polygon fill="#757575" stroke="#757575" points="1280.97,-232.952 1291.28,-230.51 1281.7,-225.99 1280.97,-232.952"/>
</g>
<!-- lib/consts/metrics&#45;name.js -->
<g id="node11" class="node"><title>lib/consts/metrics&#45;name.js</title>
<path fill="none" stroke="#cfffac" d="M1448.83,-208.713C1448.83,-208.713 1283.17,-208.713 1283.17,-208.713 1279.33,-208.713 1275.5,-204.879 1275.5,-201.046 1275.5,-201.046 1275.5,-193.379 1275.5,-193.379 1275.5,-189.546 1279.33,-185.713 1283.17,-185.713 1283.17,-185.713 1448.83,-185.713 1448.83,-185.713 1452.67,-185.713 1456.5,-189.546 1456.5,-193.379 1456.5,-193.379 1456.5,-201.046 1456.5,-201.046 1456.5,-204.879 1452.67,-208.713 1448.83,-208.713"/>
<text text-anchor="middle" x="1366" y="-193.513" font-family="Arial" font-size="14.00" fill="#cfffac">lib/consts/metrics&#45;name.js</text>
</g>
<!-- lib/consts/index.js&#45;&gt;lib/consts/metrics&#45;name.js -->
<g id="edge10" class="edge"><title>lib/consts/index.js&#45;&gt;lib/consts/metrics&#45;name.js</title>
<path fill="none" stroke="#757575" d="M1227.05,-210.939C1239.25,-209.725 1252.31,-208.425 1265.35,-207.128"/>
<polygon fill="#757575" stroke="#757575" points="1265.7,-210.61 1275.31,-206.137 1265.01,-203.645 1265.7,-210.61"/>
</g>
<!-- lib/consts/metrics&#45;types.js -->
<g id="node12" class="node"><title>lib/consts/metrics&#45;types.js</title>
<path fill="none" stroke="#cfffac" d="M1448.33,-167.713C1448.33,-167.713 1283.67,-167.713 1283.67,-167.713 1279.83,-167.713 1276,-163.879 1276,-160.046 1276,-160.046 1276,-152.379 1276,-152.379 1276,-148.546 1279.83,-144.713 1283.67,-144.713 1283.67,-144.713 1448.33,-144.713 1448.33,-144.713 1452.17,-144.713 1456,-148.546 1456,-152.379 1456,-152.379 1456,-160.046 1456,-160.046 1456,-163.879 1452.17,-167.713 1448.33,-167.713"/>
<text text-anchor="middle" x="1366" y="-152.513" font-family="Arial" font-size="14.00" fill="#cfffac">lib/consts/metrics&#45;types.js</text>
</g>
<!-- lib/consts/index.js&#45;&gt;lib/consts/metrics&#45;types.js -->
<g id="edge11" class="edge"><title>lib/consts/index.js&#45;&gt;lib/consts/metrics&#45;types.js</title>
<path fill="none" stroke="#757575" d="M1188.32,-205.541C1208.06,-196.46 1236.82,-184.114 1263,-176.213 1270.47,-173.958 1278.33,-171.894 1286.23,-170.021"/>
<polygon fill="#757575" stroke="#757575" points="1287.25,-173.377 1296.23,-167.751 1285.7,-166.551 1287.25,-173.377"/>
</g>
<!-- lib/consts/queue&#45;events.js -->
<g id="node13" class="node"><title>lib/consts/queue&#45;events.js</title>
<path fill="none" stroke="#cfffac" d="M1448.83,-126.713C1448.83,-126.713 1283.17,-126.713 1283.17,-126.713 1279.33,-126.713 1275.5,-122.879 1275.5,-119.046 1275.5,-119.046 1275.5,-111.379 1275.5,-111.379 1275.5,-107.546 1279.33,-103.713 1283.17,-103.713 1283.17,-103.713 1448.83,-103.713 1448.83,-103.713 1452.67,-103.713 1456.5,-107.546 1456.5,-111.379 1456.5,-111.379 1456.5,-119.046 1456.5,-119.046 1456.5,-122.879 1452.67,-126.713 1448.83,-126.713"/>
<text text-anchor="middle" x="1366" y="-111.513" font-family="Arial" font-size="14.00" fill="#cfffac">lib/consts/queue&#45;events.js</text>
</g>
<!-- lib/consts/index.js&#45;&gt;lib/consts/queue&#45;events.js -->
<g id="edge12" class="edge"><title>lib/consts/index.js&#45;&gt;lib/consts/queue&#45;events.js</title>
<path fill="none" stroke="#757575" d="M1174.28,-205.576C1190.98,-187.469 1225.89,-152.803 1263,-135.213 1267.1,-133.268 1271.38,-131.513 1275.76,-129.929"/>
<polygon fill="#757575" stroke="#757575" points="1277.09,-133.176 1285.5,-126.726 1274.9,-126.527 1277.09,-133.176"/>
</g>
<!-- lib/jobs/consumer.js&#45;&gt;lib/consts/index.js -->
<g id="edge18" class="edge"><title>lib/jobs/consumer.js&#45;&gt;lib/consts/index.js</title>
<path fill="none" stroke="#757575" d="M321.656,-209.796C428.379,-247.115 783.913,-357.291 1063,-278.213 1092.48,-269.86 1121.8,-249.974 1140.79,-235.164"/>
<polygon fill="#757575" stroke="#757575" points="1143.14,-237.764 1148.75,-228.776 1138.76,-232.304 1143.14,-237.764"/>
</g>
<!-- lib/jobs/consumer.js&#45;&gt;lib/queue&#45;runner.js -->
<g id="edge20" class="edge"><title>lib/jobs/consumer.js&#45;&gt;lib/queue&#45;runner.js</title>
<path fill="none" stroke="#757575" d="M339.46,-186.643C358.957,-182.082 381.513,-176.806 401.862,-172.046"/>
<polygon fill="#757575" stroke="#757575" points="402.711,-175.442 411.651,-169.756 401.117,-168.626 402.711,-175.442"/>
</g>
<!-- lib/persistency/persistence.js -->
<g id="node18" class="node"><title>lib/persistency/persistence.js</title>
<path fill="none" stroke="#cfffac" d="M792.333,-72.7125C792.333,-72.7125 607.667,-72.7125 607.667,-72.7125 603.833,-72.7125 600,-68.8792 600,-65.0458 600,-65.0458 600,-57.3792 600,-57.3792 600,-53.5458 603.833,-49.7125 607.667,-49.7125 607.667,-49.7125 792.333,-49.7125 792.333,-49.7125 796.167,-49.7125 800,-53.5458 800,-57.3792 800,-57.3792 800,-65.0458 800,-65.0458 800,-68.8792 796.167,-72.7125 792.333,-72.7125"/>
<text text-anchor="middle" x="700" y="-57.5125" font-family="Arial" font-size="14.00" fill="#cfffac">lib/persistency/persistence.js</text>
</g>
<!-- lib/jobs/consumer.js&#45;&gt;lib/persistency/persistence.js -->
<g id="edge19" class="edge"><title>lib/jobs/consumer.js&#45;&gt;lib/persistency/persistence.js</title>
<path fill="none" stroke="#757575" d="M306.89,-186.551C327.213,-172.987 362.763,-150.735 396,-137.213 439.029,-119.707 560.152,-91.5976 635.584,-74.9149"/>
<polygon fill="#757575" stroke="#757575" points="636.444,-78.3093 645.456,-72.7389 634.937,-71.4734 636.444,-78.3093"/>
</g>
<!-- lib/jobs/producer.js&#45;&gt;lib/consts/index.js -->
<g id="edge21" class="edge"><title>lib/jobs/producer.js&#45;&gt;lib/consts/index.js</title>
<path fill="none" stroke="#757575" d="M319.247,-87.6877C427.828,-46.935 814.331,79.8158 1063,-75.2125 1109.71,-104.336 1140.26,-164.484 1153.86,-196.347"/>
<polygon fill="#757575" stroke="#757575" points="1150.64,-197.709 1157.68,-205.624 1157.11,-195.044 1150.64,-197.709"/>
</g>
<!-- lib/jobs/producer.js&#45;&gt;lib/queue&#45;runner.js -->
<g id="edge23" class="edge"><title>lib/jobs/producer.js&#45;&gt;lib/queue&#45;runner.js</title>
<path fill="none" stroke="#757575" d="M323.376,-110.728C350.36,-120.038 388.543,-133.213 417.847,-143.324"/>
<polygon fill="#757575" stroke="#757575" points="416.821,-146.672 427.416,-146.625 419.104,-140.055 416.821,-146.672"/>
</g>
<!-- lib/jobs/producer.js&#45;&gt;lib/persistency/persistence.js -->
<g id="edge22" class="edge"><title>lib/jobs/producer.js&#45;&gt;lib/persistency/persistence.js</title>
<path fill="none" stroke="#757575" d="M357.08,-92.9801C420.066,-87.1282 515.421,-78.2687 589.445,-71.3912"/>
<polygon fill="#757575" stroke="#757575" points="590.109,-74.8446 599.743,-70.4345 589.462,-67.8747 590.109,-74.8446"/>
</g>
<!-- lib/metrics/aggregation&#45;metrics&#45;factory.js&#45;&gt;lib/consts/index.js -->
<g id="edge24" class="edge"><title>lib/metrics/aggregation&#45;metrics&#45;factory.js&#45;&gt;lib/consts/index.js</title>
<path fill="none" stroke="#757575" d="M799.006,-346.713C874.373,-351.454 979.406,-348.955 1063,-312.213 1099.77,-296.05 1131.05,-259.965 1148.12,-237.213"/>
<polygon fill="#757575" stroke="#757575" points="1151.09,-239.08 1154.15,-228.935 1145.43,-234.96 1151.09,-239.08"/>
</g>
<!-- lib/queue&#45;runner.js&#45;&gt;lib/consts/index.js -->
<g id="edge25" class="edge"><title>lib/queue&#45;runner.js&#45;&gt;lib/consts/index.js</title>
<path fill="none" stroke="#757575" d="M528.204,-153.293C662.237,-143.93 964.383,-126.881 1063,-155.213 1092.58,-163.71 1121.88,-183.921 1140.84,-198.971"/>
<polygon fill="#757575" stroke="#757575" points="1138.82,-201.847 1148.78,-205.463 1143.25,-196.425 1138.82,-201.847"/>
</g>
<!-- lib/queue&#45;runner.js&#45;&gt;lib/metrics/aggregation&#45;metrics&#45;factory.js -->
<g id="edge28" class="edge"><title>lib/queue&#45;runner.js&#45;&gt;lib/metrics/aggregation&#45;metrics&#45;factory.js</title>
<path fill="none" stroke="#757575" d="M477.592,-169.892C497.115,-185.458 532.889,-213.765 564,-237.213 602.192,-265.997 647.283,-298.422 674.482,-317.815"/>
<polygon fill="#757575" stroke="#757575" points="672.477,-320.684 682.653,-323.632 676.537,-314.981 672.477,-320.684"/>
</g>
<!-- lib/heuristic&#45;runner.js -->
<g id="node14" class="node"><title>lib/heuristic&#45;runner.js</title>
<path fill="none" stroke="#c6c5fe" d="M1032.33,-107.713C1032.33,-107.713 902.667,-107.713 902.667,-107.713 898.833,-107.713 895,-103.879 895,-100.046 895,-100.046 895,-92.3792 895,-92.3792 895,-88.5458 898.833,-84.7125 902.667,-84.7125 902.667,-84.7125 1032.33,-84.7125 1032.33,-84.7125 1036.17,-84.7125 1040,-88.5458 1040,-92.3792 1040,-92.3792 1040,-100.046 1040,-100.046 1040,-103.879 1036.17,-107.713 1032.33,-107.713"/>
<text text-anchor="middle" x="967.5" y="-92.5125" font-family="Arial" font-size="14.00" fill="#c6c5fe">lib/heuristic&#45;runner.js</text>
</g>
<!-- lib/queue&#45;runner.js&#45;&gt;lib/heuristic&#45;runner.js -->
<g id="edge26" class="edge"><title>lib/queue&#45;runner.js&#45;&gt;lib/heuristic&#45;runner.js</title>
<path fill="none" stroke="#757575" d="M492.107,-146.606C512.019,-139.19 539.201,-130.081 564,-125.213 673.604,-103.694 802.801,-97.7304 884.676,-96.293"/>
<polygon fill="#757575" stroke="#757575" points="884.973,-99.7889 894.917,-96.1326 884.863,-92.7898 884.973,-99.7889"/>
</g>
<!-- lib/heuristic/index.js -->
<g id="node16" class="node"><title>lib/heuristic/index.js</title>
<path fill="none" stroke="#c6c5fe" d="M761.833,-228.713C761.833,-228.713 638.167,-228.713 638.167,-228.713 634.333,-228.713 630.5,-224.879 630.5,-221.046 630.5,-221.046 630.5,-213.379 630.5,-213.379 630.5,-209.546 634.333,-205.713 638.167,-205.713 638.167,-205.713 761.833,-205.713 761.833,-205.713 765.667,-205.713 769.5,-209.546 769.5,-213.379 769.5,-213.379 769.5,-221.046 769.5,-221.046 769.5,-224.879 765.667,-228.713 761.833,-228.713"/>
<text text-anchor="middle" x="700" y="-213.513" font-family="Arial" font-size="14.00" fill="#c6c5fe">lib/heuristic/index.js</text>
</g>
<!-- lib/queue&#45;runner.js&#45;&gt;lib/heuristic/index.js -->
<g id="edge27" class="edge"><title>lib/queue&#45;runner.js&#45;&gt;lib/heuristic/index.js</title>
<path fill="none" stroke="#757575" d="M494.991,-169.806C514.705,-176.663 540.604,-185.163 564,-191.213 582.119,-195.898 601.803,-200.152 620.394,-203.799"/>
<polygon fill="#757575" stroke="#757575" points="619.814,-207.252 630.296,-205.706 621.138,-200.378 619.814,-207.252"/>
</g>
<!-- lib/queue&#45;runner.js&#45;&gt;lib/persistency/persistence.js -->
<g id="edge29" class="edge"><title>lib/queue&#45;runner.js&#45;&gt;lib/persistency/persistence.js</title>
<path fill="none" stroke="#757575" d="M501.512,-146.597C510.683,-142.835 520.093,-138.078 528,-132.213 548.57,-116.952 542.074,-100.45 564,-87.2125 572.113,-82.3142 580.958,-78.3099 590.111,-75.0401"/>
<polygon fill="#757575" stroke="#757575" points="591.326,-78.3253 599.744,-71.8919 589.151,-71.6716 591.326,-78.3253"/>
</g>
<!-- lib/queue.js -->
<g id="node19" class="node"><title>lib/queue.js</title>
<path fill="none" stroke="#c6c5fe" d="M1004.33,-187.713C1004.33,-187.713 930.667,-187.713 930.667,-187.713 926.833,-187.713 923,-183.879 923,-180.046 923,-180.046 923,-172.379 923,-172.379 923,-168.546 926.833,-164.713 930.667,-164.713 930.667,-164.713 1004.33,-164.713 1004.33,-164.713 1008.17,-164.713 1012,-168.546 1012,-172.379 1012,-172.379 1012,-180.046 1012,-180.046 1012,-183.879 1008.17,-187.713 1004.33,-187.713"/>
<text text-anchor="middle" x="967.5" y="-172.513" font-family="Arial" font-size="14.00" fill="#c6c5fe">lib/queue.js</text>
</g>
<!-- lib/queue&#45;runner.js&#45;&gt;lib/queue.js -->
<g id="edge30" class="edge"><title>lib/queue&#45;runner.js&#45;&gt;lib/queue.js</title>
<path fill="none" stroke="#757575" d="M528.05,-160.538C628.495,-164.129 819.465,-170.956 912.651,-174.287"/>
<polygon fill="#757575" stroke="#757575" points="912.59,-177.787 922.709,-174.647 912.84,-170.792 912.59,-177.787"/>
</g>
<!-- lib/heuristic&#45;runner.js&#45;&gt;lib/consts/index.js -->
<g id="edge13" class="edge"><title>lib/heuristic&#45;runner.js&#45;&gt;lib/consts/index.js</title>
<path fill="none" stroke="#757575" d="M1028.27,-107.821C1040.21,-111.457 1052.35,-116.161 1063,-122.213 1097.56,-141.845 1129.12,-176.242 1146.92,-197.817"/>
<polygon fill="#757575" stroke="#757575" points="1144.25,-200.081 1153.25,-205.667 1149.7,-195.686 1144.25,-200.081"/>
</g>
<!-- lib/heuristic/entrance&#45;time.js -->
<g id="node15" class="node"><title>lib/heuristic/entrance&#45;time.js</title>
<path fill="none" stroke="#c6c5fe" d="M1055.33,-269.713C1055.33,-269.713 879.667,-269.713 879.667,-269.713 875.833,-269.713 872,-265.879 872,-262.046 872,-262.046 872,-254.379 872,-254.379 872,-250.546 875.833,-246.713 879.667,-246.713 879.667,-246.713 1055.33,-246.713 1055.33,-246.713 1059.17,-246.713 1063,-250.546 1063,-254.379 1063,-254.379 1063,-262.046 1063,-262.046 1063,-265.879 1059.17,-269.713 1055.33,-269.713"/>
<text text-anchor="middle" x="967.5" y="-254.513" font-family="Arial" font-size="14.00" fill="#c6c5fe">lib/heuristic/entrance&#45;time.js</text>
</g>
<!-- lib/heuristic/entrance&#45;time.js&#45;&gt;lib/consts/index.js -->
<g id="edge14" class="edge"><title>lib/heuristic/entrance&#45;time.js&#45;&gt;lib/consts/index.js</title>
<path fill="none" stroke="#757575" d="M1022.92,-246.683C1046.2,-241.749 1073.56,-235.952 1097.82,-230.811"/>
<polygon fill="#757575" stroke="#757575" points="1098.6,-234.224 1107.66,-228.727 1097.15,-227.376 1098.6,-234.224"/>
</g>
<!-- lib/heuristic/index.js&#45;&gt;lib/heuristic/entrance&#45;time.js -->
<g id="edge15" class="edge"><title>lib/heuristic/index.js&#45;&gt;lib/heuristic/entrance&#45;time.js</title>
<path fill="none" stroke="#757575" d="M769.718,-227.824C803.986,-233.116 845.739,-239.564 881.954,-245.156"/>
<polygon fill="#757575" stroke="#757575" points="881.594,-248.642 892.011,-246.709 882.662,-241.724 881.594,-248.642"/>
</g>
<!-- lib/heuristic/priority.js -->
<g id="node17" class="node"><title>lib/heuristic/priority.js</title>
<path fill="none" stroke="#c6c5fe" d="M1032.83,-228.713C1032.83,-228.713 902.167,-228.713 902.167,-228.713 898.333,-228.713 894.5,-224.879 894.5,-221.046 894.5,-221.046 894.5,-213.379 894.5,-213.379 894.5,-209.546 898.333,-205.713 902.167,-205.713 902.167,-205.713 1032.83,-205.713 1032.83,-205.713 1036.67,-205.713 1040.5,-209.546 1040.5,-213.379 1040.5,-213.379 1040.5,-221.046 1040.5,-221.046 1040.5,-224.879 1036.67,-228.713 1032.83,-228.713"/>
<text text-anchor="middle" x="967.5" y="-213.513" font-family="Arial" font-size="14.00" fill="#c6c5fe">lib/heuristic/priority.js</text>
</g>
<!-- lib/heuristic/index.js&#45;&gt;lib/heuristic/priority.js -->
<g id="edge16" class="edge"><title>lib/heuristic/index.js&#45;&gt;lib/heuristic/priority.js</title>
<path fill="none" stroke="#757575" d="M769.718,-217.213C804.688,-217.213 847.454,-217.213 884.173,-217.213"/>
<polygon fill="#757575" stroke="#757575" points="884.358,-220.713 894.358,-217.213 884.358,-213.713 884.358,-220.713"/>
</g>
<!-- lib/heuristic/priority.js&#45;&gt;lib/consts/index.js -->
<g id="edge17" class="edge"><title>lib/heuristic/priority.js&#45;&gt;lib/consts/index.js</title>
<path fill="none" stroke="#757575" d="M1040.55,-217.213C1056.24,-217.213 1072.86,-217.213 1088.6,-217.213"/>
<polygon fill="#757575" stroke="#757575" points="1088.8,-220.713 1098.8,-217.213 1088.8,-213.713 1088.8,-220.713"/>
</g>
<!-- lib/queue.js&#45;&gt;lib/consts/index.js -->
<g id="edge31" class="edge"><title>lib/queue.js&#45;&gt;lib/consts/index.js</title>
<path fill="none" stroke="#757575" d="M1012.26,-185.469C1028.23,-188.848 1046.43,-192.702 1063,-196.213 1074.23,-198.593 1086.18,-201.126 1097.75,-203.58"/>
<polygon fill="#757575" stroke="#757575" points="1097.28,-207.058 1107.79,-205.709 1098.74,-200.211 1097.28,-207.058"/>
</g>
</g>
</svg>
