<?xml version="1.0" encoding="UTF-8" standalone="no"?>
<!DOCTYPE svg PUBLIC "-//W3C//DTD SVG 1.1//EN"
 "http://www.w3.org/Graphics/SVG/1.1/DTD/svg11.dtd">
<!-- Generated by graphviz version 2.38.0 (20140413.2041)
 -->
<!-- Title: G Pages: 1 -->
<svg width="1294pt" height="587pt"
 viewBox="0.00 0.00 1294.20 586.74" xmlns="http://www.w3.org/2000/svg" xmlns:xlink="http://www.w3.org/1999/xlink">
<g id="graph0" class="graph" transform="scale(1 1) rotate(0) translate(21.6 565.137)">
<title>G</title>
<polygon fill="#111111" stroke="none" points="-21.6,21.6 -21.6,-565.137 1272.6,-565.137 1272.6,21.6 -21.6,21.6"/>
<!-- app.js -->
<g id="node1" class="node"><title>app.js</title>
<path fill="none" stroke="#c6c5fe" d="M47.3333,-51.5367C47.3333,-51.5367 7.66667,-51.5367 7.66667,-51.5367 3.83333,-51.5367 0,-47.7034 0,-43.8701 0,-43.8701 0,-36.2034 0,-36.2034 0,-32.3701 3.83333,-28.5367 7.66667,-28.5367 7.66667,-28.5367 47.3333,-28.5367 47.3333,-28.5367 51.1667,-28.5367 55,-32.3701 55,-36.2034 55,-36.2034 55,-43.8701 55,-43.8701 55,-47.7034 51.1667,-51.5367 47.3333,-51.5367"/>
<text text-anchor="middle" x="27.5" y="-36.3367" font-family="Arial" font-size="14.00" fill="#c6c5fe">app.js</text>
</g>
<!-- bootstrap.js -->
<g id="node2" class="node"><title>bootstrap.js</title>
<path fill="none" stroke="#c6c5fe" d="M174.333,-51.5367C174.333,-51.5367 98.6667,-51.5367 98.6667,-51.5367 94.8333,-51.5367 91,-47.7034 91,-43.8701 91,-43.8701 91,-36.2034 91,-36.2034 91,-32.3701 94.8333,-28.5367 98.6667,-28.5367 98.6667,-28.5367 174.333,-28.5367 174.333,-28.5367 178.167,-28.5367 182,-32.3701 182,-36.2034 182,-36.2034 182,-43.8701 182,-43.8701 182,-47.7034 178.167,-51.5367 174.333,-51.5367"/>
<text text-anchor="middle" x="136.5" y="-36.3367" font-family="Arial" font-size="14.00" fill="#c6c5fe">bootstrap.js</text>
</g>
<!-- app.js&#45;&gt;bootstrap.js -->
<g id="edge1" class="edge"><title>app.js&#45;&gt;bootstrap.js</title>
<path fill="none" stroke="#757575" d="M55.2246,-40.0367C63.0501,-40.0367 71.9053,-40.0367 80.8047,-40.0367"/>
<polygon fill="#757575" stroke="#757575" points="80.8186,-43.5368 90.8186,-40.0367 80.8185,-36.5368 80.8186,-43.5368"/>
</g>
<!-- lib/consts/componentNames.js -->
<g id="node3" class="node"><title>lib/consts/componentNames.js</title>
<path fill="none" stroke="#cfffac" d="M1035.33,-184.537C1035.33,-184.537 839.667,-184.537 839.667,-184.537 835.833,-184.537 832,-180.703 832,-176.87 832,-176.87 832,-169.203 832,-169.203 832,-165.37 835.833,-161.537 839.667,-161.537 839.667,-161.537 1035.33,-161.537 1035.33,-161.537 1039.17,-161.537 1043,-165.37 1043,-169.203 1043,-169.203 1043,-176.87 1043,-176.87 1043,-180.703 1039.17,-184.537 1035.33,-184.537"/>
<text text-anchor="middle" x="937.5" y="-169.337" font-family="Arial" font-size="14.00" fill="#cfffac">lib/consts/componentNames.js</text>
</g>
<!-- bootstrap.js&#45;&gt;lib/consts/componentNames.js -->
<g id="edge2" class="edge"><title>bootstrap.js&#45;&gt;lib/consts/componentNames.js</title>
<path fill="none" stroke="#757575" d="M182.326,-29.5251C292.896,-6.14644 584.158,39.7208 784,-72.0367 805.165,-83.8728 800.886,-98.113 820,-113.037 843.641,-131.495 873.829,-146.855 897.551,-157.411"/>
<polygon fill="#757575" stroke="#757575" points="896.388,-160.722 906.954,-161.497 899.178,-154.302 896.388,-160.722"/>
</g>
<!-- lib/helpers/etcd.js -->
<g id="node4" class="node"><title>lib/helpers/etcd.js</title>
<path fill="none" stroke="#c6c5fe" d="M729.833,-184.537C729.833,-184.537 617.167,-184.537 617.167,-184.537 613.333,-184.537 609.5,-180.703 609.5,-176.87 609.5,-176.87 609.5,-169.203 609.5,-169.203 609.5,-165.37 613.333,-161.537 617.167,-161.537 617.167,-161.537 729.833,-161.537 729.833,-161.537 733.667,-161.537 737.5,-165.37 737.5,-169.203 737.5,-169.203 737.5,-176.87 737.5,-176.87 737.5,-180.703 733.667,-184.537 729.833,-184.537"/>
<text text-anchor="middle" x="673.5" y="-169.337" font-family="Arial" font-size="14.00" fill="#c6c5fe">lib/helpers/etcd.js</text>
</g>
<!-- bootstrap.js&#45;&gt;lib/helpers/etcd.js -->
<g id="edge3" class="edge"><title>bootstrap.js&#45;&gt;lib/helpers/etcd.js</title>
<path fill="none" stroke="#757575" d="M182.194,-51.1475C279.266,-75.2794 509.215,-132.444 616.087,-159.013"/>
<polygon fill="#757575" stroke="#757575" points="615.487,-162.47 626.036,-161.486 617.176,-155.677 615.487,-162.47"/>
</g>
<!-- lib/helpers/kubernetes.js -->
<g id="node5" class="node"><title>lib/helpers/kubernetes.js</title>
<path fill="none" stroke="#c6c5fe" d="M750.833,-104.537C750.833,-104.537 596.167,-104.537 596.167,-104.537 592.333,-104.537 588.5,-100.703 588.5,-96.8701 588.5,-96.8701 588.5,-89.2034 588.5,-89.2034 588.5,-85.3701 592.333,-81.5367 596.167,-81.5367 596.167,-81.5367 750.833,-81.5367 750.833,-81.5367 754.667,-81.5367 758.5,-85.3701 758.5,-89.2034 758.5,-89.2034 758.5,-96.8701 758.5,-96.8701 758.5,-100.703 754.667,-104.537 750.833,-104.537"/>
<text text-anchor="middle" x="673.5" y="-89.3367" font-family="Arial" font-size="14.00" fill="#c6c5fe">lib/helpers/kubernetes.js</text>
</g>
<!-- bootstrap.js&#45;&gt;lib/helpers/kubernetes.js -->
<g id="edge4" class="edge"><title>bootstrap.js&#45;&gt;lib/helpers/kubernetes.js</title>
<path fill="none" stroke="#757575" d="M182.287,-36.214C255.145,-30.9759 403.604,-24.3951 527,-45.0367 565.42,-51.4636 607.497,-66.2452 636.475,-77.7196"/>
<polygon fill="#757575" stroke="#757575" points="635.192,-80.9762 645.776,-81.4673 637.809,-74.4835 635.192,-80.9762"/>
</g>
<!-- lib/operator.js -->
<g id="node6" class="node"><title>lib/operator.js</title>
<path fill="none" stroke="#c6c5fe" d="M311.333,-165.537C311.333,-165.537 225.667,-165.537 225.667,-165.537 221.833,-165.537 218,-161.703 218,-157.87 218,-157.87 218,-150.203 218,-150.203 218,-146.37 221.833,-142.537 225.667,-142.537 225.667,-142.537 311.333,-142.537 311.333,-142.537 315.167,-142.537 319,-146.37 319,-150.203 319,-150.203 319,-157.87 319,-157.87 319,-161.703 315.167,-165.537 311.333,-165.537"/>
<text text-anchor="middle" x="268.5" y="-150.337" font-family="Arial" font-size="14.00" fill="#c6c5fe">lib/operator.js</text>
</g>
<!-- bootstrap.js&#45;&gt;lib/operator.js -->
<g id="edge5" class="edge"><title>bootstrap.js&#45;&gt;lib/operator.js</title>
<path fill="none" stroke="#757575" d="M150.923,-51.8074C173.616,-71.7076 219.718,-112.136 246.649,-135.752"/>
<polygon fill="#757575" stroke="#757575" points="244.518,-138.538 254.344,-142.5 249.133,-133.275 244.518,-138.538"/>
</g>
<!-- lib/helpers/etcd.js&#45;&gt;lib/consts/componentNames.js -->
<g id="edge11" class="edge"><title>lib/helpers/etcd.js&#45;&gt;lib/consts/componentNames.js</title>
<path fill="none" stroke="#757575" d="M737.589,-173.037C762.85,-173.037 792.767,-173.037 821.625,-173.037"/>
<polygon fill="#757575" stroke="#757575" points="821.779,-176.537 831.779,-173.037 821.779,-169.537 821.779,-176.537"/>
</g>
<!-- lib/helpers/kubernetes.js&#45;&gt;lib/consts/componentNames.js -->
<g id="edge12" class="edge"><title>lib/helpers/kubernetes.js&#45;&gt;lib/consts/componentNames.js</title>
<path fill="none" stroke="#757575" d="M728.27,-104.594C746.112,-108.749 766.008,-113.732 784,-119.037 823.138,-130.576 866.967,-146.409 897.558,-157.946"/>
<polygon fill="#757575" stroke="#757575" points="896.412,-161.255 907.003,-161.53 898.895,-154.71 896.412,-161.255"/>
</g>
<!-- lib/consts/kubernetes&#45;kind&#45;prefix.js -->
<g id="node8" class="node"><title>lib/consts/kubernetes&#45;kind&#45;prefix.js</title>
<path fill="none" stroke="#cfffac" d="M1047.33,-104.537C1047.33,-104.537 827.667,-104.537 827.667,-104.537 823.833,-104.537 820,-100.703 820,-96.8701 820,-96.8701 820,-89.2034 820,-89.2034 820,-85.3701 823.833,-81.5367 827.667,-81.5367 827.667,-81.5367 1047.33,-81.5367 1047.33,-81.5367 1051.17,-81.5367 1055,-85.3701 1055,-89.2034 1055,-89.2034 1055,-96.8701 1055,-96.8701 1055,-100.703 1051.17,-104.537 1047.33,-104.537"/>
<text text-anchor="middle" x="937.5" y="-89.3367" font-family="Arial" font-size="14.00" fill="#cfffac">lib/consts/kubernetes&#45;kind&#45;prefix.js</text>
</g>
<!-- lib/helpers/kubernetes.js&#45;&gt;lib/consts/kubernetes&#45;kind&#45;prefix.js -->
<g id="edge13" class="edge"><title>lib/helpers/kubernetes.js&#45;&gt;lib/consts/kubernetes&#45;kind&#45;prefix.js</title>
<path fill="none" stroke="#757575" d="M758.841,-93.0367C775.097,-93.0367 792.456,-93.0367 809.718,-93.0367"/>
<polygon fill="#757575" stroke="#757575" points="809.86,-96.5368 819.86,-93.0367 809.86,-89.5368 809.86,-96.5368"/>
</g>
<!-- lib/operator.js&#45;&gt;lib/consts/componentNames.js -->
<g id="edge19" class="edge"><title>lib/operator.js&#45;&gt;lib/consts/componentNames.js</title>
<path fill="none" stroke="#757575" d="M319.244,-151.459C411.166,-147.227 613.791,-140.372 784,-152.037 808.03,-153.683 834.041,-156.773 857.661,-160.086"/>
<polygon fill="#757575" stroke="#757575" points="857.228,-163.56 867.624,-161.516 858.223,-156.631 857.228,-163.56"/>
</g>
<!-- lib/operator.js&#45;&gt;lib/helpers/etcd.js -->
<g id="edge21" class="edge"><title>lib/operator.js&#45;&gt;lib/helpers/etcd.js</title>
<path fill="none" stroke="#757575" d="M319.32,-156.386C389.499,-159.694 517.942,-165.75 599.075,-169.575"/>
<polygon fill="#757575" stroke="#757575" points="599.063,-173.078 609.217,-170.053 599.393,-166.086 599.063,-173.078"/>
</g>
<!-- lib/operator.js&#45;&gt;lib/helpers/kubernetes.js -->
<g id="edge22" class="edge"><title>lib/operator.js&#45;&gt;lib/helpers/kubernetes.js</title>
<path fill="none" stroke="#757575" d="M293.984,-142.47C310.773,-135.071 333.767,-125.967 355,-121.037 428.804,-103.899 514.488,-97.0842 578.23,-94.4518"/>
<polygon fill="#757575" stroke="#757575" points="578.409,-97.9476 588.266,-94.0643 578.139,-90.9528 578.409,-97.9476"/>
</g>
<!-- lib/consts/containers.js -->
<g id="node7" class="node"><title>lib/consts/containers.js</title>
<path fill="none" stroke="#cfffac" d="M1243.33,-320.537C1243.33,-320.537 1098.67,-320.537 1098.67,-320.537 1094.83,-320.537 1091,-316.703 1091,-312.87 1091,-312.87 1091,-305.203 1091,-305.203 1091,-301.37 1094.83,-297.537 1098.67,-297.537 1098.67,-297.537 1243.33,-297.537 1243.33,-297.537 1247.17,-297.537 1251,-301.37 1251,-305.203 1251,-305.203 1251,-312.87 1251,-312.87 1251,-316.703 1247.17,-320.537 1243.33,-320.537"/>
<text text-anchor="middle" x="1171" y="-305.337" font-family="Arial" font-size="14.00" fill="#cfffac">lib/consts/containers.js</text>
</g>
<!-- lib/operator.js&#45;&gt;lib/consts/containers.js -->
<g id="edge20" class="edge"><title>lib/operator.js&#45;&gt;lib/consts/containers.js</title>
<path fill="none" stroke="#757575" d="M311.071,-165.538C324.975,-169.169 340.599,-173.018 355,-176.037 663.504,-240.71 743.947,-239.013 1055,-290.037 1066.47,-291.918 1078.58,-293.911 1090.46,-295.871"/>
<polygon fill="#757575" stroke="#757575" points="1089.94,-299.332 1100.37,-297.507 1091.08,-292.425 1089.94,-299.332"/>
</g>
<!-- lib/reconcile/reconciler.js -->
<g id="node16" class="node"><title>lib/reconcile/reconciler.js</title>
<path fill="none" stroke="#c6c5fe" d="M519.333,-300.537C519.333,-300.537 362.667,-300.537 362.667,-300.537 358.833,-300.537 355,-296.703 355,-292.87 355,-292.87 355,-285.203 355,-285.203 355,-281.37 358.833,-277.537 362.667,-277.537 362.667,-277.537 519.333,-277.537 519.333,-277.537 523.167,-277.537 527,-281.37 527,-285.203 527,-285.203 527,-292.87 527,-292.87 527,-296.703 523.167,-300.537 519.333,-300.537"/>
<text text-anchor="middle" x="441" y="-285.337" font-family="Arial" font-size="14.00" fill="#c6c5fe">lib/reconcile/reconciler.js</text>
</g>
<!-- lib/operator.js&#45;&gt;lib/reconcile/reconciler.js -->
<g id="edge23" class="edge"><title>lib/operator.js&#45;&gt;lib/reconcile/reconciler.js</title>
<path fill="none" stroke="#757575" d="M282.565,-165.737C299.114,-180.429 328.654,-206.23 355,-227.037 374.775,-242.654 397.92,-259.443 415.061,-271.607"/>
<polygon fill="#757575" stroke="#757575" points="413.241,-274.606 423.428,-277.516 417.279,-268.888 413.241,-274.606"/>
</g>
<!-- lib/deployments/worker&#45;debug.js -->
<g id="node9" class="node"><title>lib/deployments/worker&#45;debug.js</title>
<path fill="none" stroke="#c6c5fe" d="M776.333,-340.537C776.333,-340.537 570.667,-340.537 570.667,-340.537 566.833,-340.537 563,-336.703 563,-332.87 563,-332.87 563,-325.203 563,-325.203 563,-321.37 566.833,-317.537 570.667,-317.537 570.667,-317.537 776.333,-317.537 776.333,-317.537 780.167,-317.537 784,-321.37 784,-325.203 784,-325.203 784,-332.87 784,-332.87 784,-336.703 780.167,-340.537 776.333,-340.537"/>
<text text-anchor="middle" x="673.5" y="-325.337" font-family="Arial" font-size="14.00" fill="#c6c5fe">lib/deployments/worker&#45;debug.js</text>
</g>
<!-- lib/deployments/worker&#45;debug.js&#45;&gt;lib/consts/componentNames.js -->
<g id="edge6" class="edge"><title>lib/deployments/worker&#45;debug.js&#45;&gt;lib/consts/componentNames.js</title>
<path fill="none" stroke="#757575" d="M694.731,-317.325C716.744,-304.555 752.95,-283.475 784,-265.037 827.609,-239.14 877.944,-208.658 908.481,-190.1"/>
<polygon fill="#757575" stroke="#757575" points="910.567,-192.927 917.293,-184.741 906.93,-186.946 910.567,-192.927"/>
</g>
<!-- lib/deployments/worker&#45;debug.js&#45;&gt;lib/consts/containers.js -->
<g id="edge7" class="edge"><title>lib/deployments/worker&#45;debug.js&#45;&gt;lib/consts/containers.js</title>
<path fill="none" stroke="#757575" d="M740.195,-317.517C765.105,-313.686 793.78,-309.919 820,-308.037 924.176,-300.558 950.557,-307.583 1055,-308.037 1063.32,-308.073 1071.99,-308.124 1080.66,-308.184"/>
<polygon fill="#757575" stroke="#757575" points="1080.79,-311.685 1090.82,-308.258 1080.84,-304.685 1080.79,-311.685"/>
</g>
<!-- lib/templates/fs&#45;template.js -->
<g id="node10" class="node"><title>lib/templates/fs&#45;template.js</title>
<path fill="none" stroke="#cfffac" d="M1022.83,-381.537C1022.83,-381.537 852.167,-381.537 852.167,-381.537 848.333,-381.537 844.5,-377.703 844.5,-373.87 844.5,-373.87 844.5,-366.203 844.5,-366.203 844.5,-362.37 848.333,-358.537 852.167,-358.537 852.167,-358.537 1022.83,-358.537 1022.83,-358.537 1026.67,-358.537 1030.5,-362.37 1030.5,-366.203 1030.5,-366.203 1030.5,-373.87 1030.5,-373.87 1030.5,-377.703 1026.67,-381.537 1022.83,-381.537"/>
<text text-anchor="middle" x="937.5" y="-366.337" font-family="Arial" font-size="14.00" fill="#cfffac">lib/templates/fs&#45;template.js</text>
</g>
<!-- lib/deployments/worker&#45;debug.js&#45;&gt;lib/templates/fs&#45;template.js -->
<g id="edge8" class="edge"><title>lib/deployments/worker&#45;debug.js&#45;&gt;lib/templates/fs&#45;template.js</title>
<path fill="none" stroke="#757575" d="M748.179,-340.567C780.687,-345.654 819.061,-351.659 852.659,-356.917"/>
<polygon fill="#757575" stroke="#757575" points="852.5,-360.434 862.921,-358.522 853.582,-353.518 852.5,-360.434"/>
</g>
<!-- lib/templates/s3&#45;template.js -->
<g id="node11" class="node"><title>lib/templates/s3&#45;template.js</title>
<path fill="none" stroke="#cfffac" d="M1024.83,-422.537C1024.83,-422.537 850.167,-422.537 850.167,-422.537 846.333,-422.537 842.5,-418.703 842.5,-414.87 842.5,-414.87 842.5,-407.203 842.5,-407.203 842.5,-403.37 846.333,-399.537 850.167,-399.537 850.167,-399.537 1024.83,-399.537 1024.83,-399.537 1028.67,-399.537 1032.5,-403.37 1032.5,-407.203 1032.5,-407.203 1032.5,-414.87 1032.5,-414.87 1032.5,-418.703 1028.67,-422.537 1024.83,-422.537"/>
<text text-anchor="middle" x="937.5" y="-407.337" font-family="Arial" font-size="14.00" fill="#cfffac">lib/templates/s3&#45;template.js</text>
</g>
<!-- lib/deployments/worker&#45;debug.js&#45;&gt;lib/templates/s3&#45;template.js -->
<g id="edge9" class="edge"><title>lib/deployments/worker&#45;debug.js&#45;&gt;lib/templates/s3&#45;template.js</title>
<path fill="none" stroke="#757575" d="M735.15,-340.54C751.568,-345.003 768.949,-351.025 784,-359.037 802.638,-368.958 800.938,-380.955 820,-390.037 824.986,-392.412 830.21,-394.521 835.565,-396.392"/>
<polygon fill="#757575" stroke="#757575" points="834.735,-399.8 845.325,-399.509 836.865,-393.132 834.735,-399.8"/>
</g>
<!-- lib/templates/worker&#45;debug.js -->
<g id="node12" class="node"><title>lib/templates/worker&#45;debug.js</title>
<path fill="none" stroke="#c6c5fe" d="M1030.83,-340.537C1030.83,-340.537 844.167,-340.537 844.167,-340.537 840.333,-340.537 836.5,-336.703 836.5,-332.87 836.5,-332.87 836.5,-325.203 836.5,-325.203 836.5,-321.37 840.333,-317.537 844.167,-317.537 844.167,-317.537 1030.83,-317.537 1030.83,-317.537 1034.67,-317.537 1038.5,-321.37 1038.5,-325.203 1038.5,-325.203 1038.5,-332.87 1038.5,-332.87 1038.5,-336.703 1034.67,-340.537 1030.83,-340.537"/>
<text text-anchor="middle" x="937.5" y="-325.337" font-family="Arial" font-size="14.00" fill="#c6c5fe">lib/templates/worker&#45;debug.js</text>
</g>
<!-- lib/deployments/worker&#45;debug.js&#45;&gt;lib/templates/worker&#45;debug.js -->
<g id="edge10" class="edge"><title>lib/deployments/worker&#45;debug.js&#45;&gt;lib/templates/worker&#45;debug.js</title>
<path fill="none" stroke="#757575" d="M784.094,-329.037C797.972,-329.037 812.181,-329.037 826.073,-329.037"/>
<polygon fill="#757575" stroke="#757575" points="826.123,-332.537 836.123,-329.037 826.123,-325.537 826.123,-332.537"/>
</g>
<!-- lib/templates/worker&#45;debug.js&#45;&gt;lib/consts/containers.js -->
<g id="edge34" class="edge"><title>lib/templates/worker&#45;debug.js&#45;&gt;lib/consts/containers.js</title>
<path fill="none" stroke="#757575" d="M1038.69,-320.381C1052.75,-319.166 1067.13,-317.924 1080.96,-316.729"/>
<polygon fill="#757575" stroke="#757575" points="1081.27,-320.216 1090.93,-315.868 1080.66,-313.242 1081.27,-320.216"/>
</g>
<!-- lib/helpers/images.js -->
<g id="node13" class="node"><title>lib/helpers/images.js</title>
<path fill="none" stroke="#cfffac" d="M1002.83,-543.537C1002.83,-543.537 872.167,-543.537 872.167,-543.537 868.333,-543.537 864.5,-539.703 864.5,-535.87 864.5,-535.87 864.5,-528.203 864.5,-528.203 864.5,-524.37 868.333,-520.537 872.167,-520.537 872.167,-520.537 1002.83,-520.537 1002.83,-520.537 1006.67,-520.537 1010.5,-524.37 1010.5,-528.203 1010.5,-528.203 1010.5,-535.87 1010.5,-535.87 1010.5,-539.703 1006.67,-543.537 1002.83,-543.537"/>
<text text-anchor="middle" x="937.5" y="-528.337" font-family="Arial" font-size="14.00" fill="#cfffac">lib/helpers/images.js</text>
</g>
<!-- lib/jobs/jobCreator.js -->
<g id="node14" class="node"><title>lib/jobs/jobCreator.js</title>
<path fill="none" stroke="#c6c5fe" d="M738.833,-391.537C738.833,-391.537 608.167,-391.537 608.167,-391.537 604.333,-391.537 600.5,-387.703 600.5,-383.87 600.5,-383.87 600.5,-376.203 600.5,-376.203 600.5,-372.37 604.333,-368.537 608.167,-368.537 608.167,-368.537 738.833,-368.537 738.833,-368.537 742.667,-368.537 746.5,-372.37 746.5,-376.203 746.5,-376.203 746.5,-383.87 746.5,-383.87 746.5,-387.703 742.667,-391.537 738.833,-391.537"/>
<text text-anchor="middle" x="673.5" y="-376.337" font-family="Arial" font-size="14.00" fill="#c6c5fe">lib/jobs/jobCreator.js</text>
</g>
<!-- lib/jobs/jobCreator.js&#45;&gt;lib/consts/componentNames.js -->
<g id="edge14" class="edge"><title>lib/jobs/jobCreator.js&#45;&gt;lib/consts/componentNames.js</title>
<path fill="none" stroke="#757575" d="M738.831,-368.505C754.377,-363.957 770.412,-357.677 784,-349.037 785.081,-348.349 880.221,-238.221 919.662,-192.541"/>
<polygon fill="#757575" stroke="#757575" points="922.458,-194.66 926.344,-184.803 917.159,-190.085 922.458,-194.66"/>
</g>
<!-- lib/jobs/jobCreator.js&#45;&gt;lib/consts/containers.js -->
<g id="edge15" class="edge"><title>lib/jobs/jobCreator.js&#45;&gt;lib/consts/containers.js</title>
<path fill="none" stroke="#757575" d="M715.083,-391.556C736.929,-399.059 763.516,-410.393 784,-426.037 804.632,-441.794 796.662,-460.666 820,-472.037 913.893,-517.784 962.271,-520.099 1055,-472.037 1113.21,-441.866 1148.22,-367.179 1162.5,-330.315"/>
<polygon fill="#757575" stroke="#757575" points="1165.92,-331.176 1166.13,-320.583 1159.36,-328.731 1165.92,-331.176"/>
</g>
<!-- lib/jobs/jobCreator.js&#45;&gt;lib/templates/fs&#45;template.js -->
<g id="edge17" class="edge"><title>lib/jobs/jobCreator.js&#45;&gt;lib/templates/fs&#45;template.js</title>
<path fill="none" stroke="#757575" d="M746.786,-377.278C773.749,-376.249 804.896,-375.06 834.058,-373.947"/>
<polygon fill="#757575" stroke="#757575" points="834.421,-377.436 844.28,-373.557 834.153,-370.441 834.421,-377.436"/>
</g>
<!-- lib/jobs/jobCreator.js&#45;&gt;lib/templates/s3&#45;template.js -->
<g id="edge18" class="edge"><title>lib/jobs/jobCreator.js&#45;&gt;lib/templates/s3&#45;template.js</title>
<path fill="none" stroke="#757575" d="M746.786,-388.59C773.207,-391.716 803.645,-395.317 832.297,-398.707"/>
<polygon fill="#757575" stroke="#757575" points="832.005,-402.197 842.347,-399.897 832.828,-395.246 832.005,-402.197"/>
</g>
<!-- lib/templates/algorithm&#45;builder.js -->
<g id="node15" class="node"><title>lib/templates/algorithm&#45;builder.js</title>
<path fill="none" stroke="#c6c5fe" d="M1039.33,-463.537C1039.33,-463.537 835.667,-463.537 835.667,-463.537 831.833,-463.537 828,-459.703 828,-455.87 828,-455.87 828,-448.203 828,-448.203 828,-444.37 831.833,-440.537 835.667,-440.537 835.667,-440.537 1039.33,-440.537 1039.33,-440.537 1043.17,-440.537 1047,-444.37 1047,-448.203 1047,-448.203 1047,-455.87 1047,-455.87 1047,-459.703 1043.17,-463.537 1039.33,-463.537"/>
<text text-anchor="middle" x="937.5" y="-448.337" font-family="Arial" font-size="14.00" fill="#c6c5fe">lib/templates/algorithm&#45;builder.js</text>
</g>
<!-- lib/jobs/jobCreator.js&#45;&gt;lib/templates/algorithm&#45;builder.js -->
<g id="edge16" class="edge"><title>lib/jobs/jobCreator.js&#45;&gt;lib/templates/algorithm&#45;builder.js</title>
<path fill="none" stroke="#757575" d="M703.066,-391.568C732.104,-402.927 778.587,-420.12 820,-431.037 830.422,-433.784 841.464,-436.287 852.433,-438.531"/>
<polygon fill="#757575" stroke="#757575" points="851.978,-442.008 862.467,-440.518 853.338,-435.142 851.978,-442.008"/>
</g>
<!-- lib/templates/algorithm&#45;builder.js&#45;&gt;lib/consts/containers.js -->
<g id="edge33" class="edge"><title>lib/templates/algorithm&#45;builder.js&#45;&gt;lib/consts/containers.js</title>
<path fill="none" stroke="#757575" d="M1032.82,-440.483C1040.54,-437.918 1048.04,-434.807 1055,-431.037 1100.52,-406.366 1138.31,-357.072 1157.13,-329.289"/>
<polygon fill="#757575" stroke="#757575" points="1160.17,-331.03 1162.77,-320.757 1154.33,-327.17 1160.17,-331.03"/>
</g>
<!-- lib/reconcile/reconciler.js&#45;&gt;lib/consts/componentNames.js -->
<g id="edge25" class="edge"><title>lib/reconcile/reconciler.js&#45;&gt;lib/consts/componentNames.js</title>
<path fill="none" stroke="#757575" d="M491.222,-277.49C582.743,-256.021 778.73,-210.046 877.307,-186.922"/>
<polygon fill="#757575" stroke="#757575" points="878.174,-190.314 887.11,-184.623 876.575,-183.499 878.174,-190.314"/>
</g>
<!-- lib/reconcile/reconciler.js&#45;&gt;lib/helpers/etcd.js -->
<g id="edge28" class="edge"><title>lib/reconcile/reconciler.js&#45;&gt;lib/helpers/etcd.js</title>
<path fill="none" stroke="#757575" d="M464.944,-277.49C506.172,-256.742 592.88,-213.106 640.131,-189.327"/>
<polygon fill="#757575" stroke="#757575" points="641.948,-192.331 649.307,-184.709 638.801,-186.078 641.948,-192.331"/>
</g>
<!-- lib/reconcile/reconciler.js&#45;&gt;lib/helpers/kubernetes.js -->
<g id="edge30" class="edge"><title>lib/reconcile/reconciler.js&#45;&gt;lib/helpers/kubernetes.js</title>
<path fill="none" stroke="#757575" d="M449.968,-277.524C467.856,-252.301 513.533,-191.29 563,-152.037 585.202,-134.419 613.421,-119.358 635.651,-108.863"/>
<polygon fill="#757575" stroke="#757575" points="637.165,-112.019 644.777,-104.65 634.231,-105.664 637.165,-112.019"/>
</g>
<!-- lib/reconcile/reconciler.js&#45;&gt;lib/consts/containers.js -->
<g id="edge26" class="edge"><title>lib/reconcile/reconciler.js&#45;&gt;lib/consts/containers.js</title>
<path fill="none" stroke="#757575" d="M527.076,-289.363C645.481,-290.122 866.648,-292.647 1055,-301.037 1063.33,-301.408 1072,-301.87 1080.68,-302.385"/>
<polygon fill="#757575" stroke="#757575" points="1080.65,-305.889 1090.85,-303.01 1081.08,-298.902 1080.65,-305.889"/>
</g>
<!-- lib/reconcile/reconciler.js&#45;&gt;lib/deployments/worker&#45;debug.js -->
<g id="edge27" class="edge"><title>lib/reconcile/reconciler.js&#45;&gt;lib/deployments/worker&#45;debug.js</title>
<path fill="none" stroke="#757575" d="M508.361,-300.553C535.843,-305.322 567.878,-310.881 596.314,-315.816"/>
<polygon fill="#757575" stroke="#757575" points="595.757,-319.271 606.208,-317.533 596.954,-312.374 595.757,-319.271"/>
</g>
<!-- lib/reconcile/reconciler.js&#45;&gt;lib/helpers/images.js -->
<g id="edge29" class="edge"><title>lib/reconcile/reconciler.js&#45;&gt;lib/helpers/images.js</title>
<path fill="none" stroke="#757575" d="M451.926,-300.556C471.333,-322.484 516.485,-370.652 563,-400.037 661.214,-462.082 792.431,-499.718 870.339,-518.144"/>
<polygon fill="#757575" stroke="#757575" points="869.969,-521.651 880.503,-520.51 871.557,-514.834 869.969,-521.651"/>
</g>
<!-- lib/reconcile/reconciler.js&#45;&gt;lib/jobs/jobCreator.js -->
<g id="edge31" class="edge"><title>lib/reconcile/reconciler.js&#45;&gt;lib/jobs/jobCreator.js</title>
<path fill="none" stroke="#757575" d="M462.458,-300.641C486.105,-313.706 526.465,-334.946 563,-349.037 579.488,-355.396 597.822,-361.096 614.699,-365.821"/>
<polygon fill="#757575" stroke="#757575" points="613.873,-369.224 624.443,-368.488 615.722,-362.472 613.873,-369.224"/>
</g>
<!-- lib/reconcile/normalize.js -->
<g id="node17" class="node"><title>lib/reconcile/normalize.js</title>
<path fill="none" stroke="#c6c5fe" d="M751.333,-532.537C751.333,-532.537 595.667,-532.537 595.667,-532.537 591.833,-532.537 588,-528.703 588,-524.87 588,-524.87 588,-517.203 588,-517.203 588,-513.37 591.833,-509.537 595.667,-509.537 595.667,-509.537 751.333,-509.537 751.333,-509.537 755.167,-509.537 759,-513.37 759,-517.203 759,-517.203 759,-524.87 759,-524.87 759,-528.703 755.167,-532.537 751.333,-532.537"/>
<text text-anchor="middle" x="673.5" y="-517.337" font-family="Arial" font-size="14.00" fill="#c6c5fe">lib/reconcile/normalize.js</text>
</g>
<!-- lib/reconcile/reconciler.js&#45;&gt;lib/reconcile/normalize.js -->
<g id="edge32" class="edge"><title>lib/reconcile/reconciler.js&#45;&gt;lib/reconcile/normalize.js</title>
<path fill="none" stroke="#757575" d="M448.347,-300.623C464.495,-329.332 509.661,-404.982 563,-454.037 585.636,-474.854 615.684,-492.696 638.576,-504.721"/>
<polygon fill="#757575" stroke="#757575" points="637.099,-507.897 647.593,-509.353 640.297,-501.671 637.099,-507.897"/>
</g>
<!-- lib/reconcile/normalize.js&#45;&gt;lib/helpers/images.js -->
<g id="edge24" class="edge"><title>lib/reconcile/normalize.js&#45;&gt;lib/helpers/images.js</title>
<path fill="none" stroke="#757575" d="M759.202,-524.593C789.693,-525.873 824.025,-527.314 854.299,-528.586"/>
<polygon fill="#757575" stroke="#757575" points="854.261,-532.087 864.399,-529.01 854.555,-525.093 854.261,-532.087"/>
</g>
</g>
</svg>
