<?xml version="1.0" encoding="UTF-8" standalone="no"?>
<!DOCTYPE svg PUBLIC "-//W3C//DTD SVG 1.1//EN"
 "http://www.w3.org/Graphics/SVG/1.1/DTD/svg11.dtd">
<!-- Generated by graphviz version 2.38.0 (20140413.2041)
 -->
<!-- Title: G Pages: 1 -->
<svg width="2065pt" height="1081pt"
 viewBox="0.00 0.00 2065.20 1080.60" xmlns="http://www.w3.org/2000/svg" xmlns:xlink="http://www.w3.org/1999/xlink">
<g id="graph0" class="graph" transform="scale(1 1) rotate(0) translate(21.6 1059)">
<title>G</title>
<polygon fill="#111111" stroke="none" points="-21.6,21.6 -21.6,-1059 2043.6,-1059 2043.6,21.6 -21.6,21.6"/>
<!-- app.js -->
<g id="node1" class="node"><title>app.js</title>
<path fill="none" stroke="#c6c5fe" d="M47.3333,-512.524C47.3333,-512.524 7.66667,-512.524 7.66667,-512.524 3.83333,-512.524 0,-508.691 0,-504.858 0,-504.858 0,-497.191 0,-497.191 0,-493.358 3.83333,-489.524 7.66667,-489.524 7.66667,-489.524 47.3333,-489.524 47.3333,-489.524 51.1667,-489.524 55,-493.358 55,-497.191 55,-497.191 55,-504.858 55,-504.858 55,-508.691 51.1667,-512.524 47.3333,-512.524"/>
<text text-anchor="middle" x="27.5" y="-497.324" font-family="Arial" font-size="14.00" fill="#c6c5fe">app.js</text>
</g>
<!-- bootstrap.js -->
<g id="node2" class="node"><title>bootstrap.js</title>
<path fill="none" stroke="#c6c5fe" d="M174.333,-512.524C174.333,-512.524 98.6667,-512.524 98.6667,-512.524 94.8333,-512.524 91,-508.691 91,-504.858 91,-504.858 91,-497.191 91,-497.191 91,-493.358 94.8333,-489.524 98.6667,-489.524 98.6667,-489.524 174.333,-489.524 174.333,-489.524 178.167,-489.524 182,-493.358 182,-497.191 182,-497.191 182,-504.858 182,-504.858 182,-508.691 178.167,-512.524 174.333,-512.524"/>
<text text-anchor="middle" x="136.5" y="-497.324" font-family="Arial" font-size="14.00" fill="#c6c5fe">bootstrap.js</text>
</g>
<!-- app.js&#45;&gt;bootstrap.js -->
<g id="edge1" class="edge"><title>app.js&#45;&gt;bootstrap.js</title>
<path fill="none" stroke="#757575" d="M55.2246,-501.024C63.0501,-501.024 71.9053,-501.024 80.8047,-501.024"/>
<polygon fill="#757575" stroke="#757575" points="80.8186,-504.525 90.8186,-501.024 80.8185,-497.525 80.8186,-504.525"/>
</g>
<!-- lib/algorithm&#45;communication/workerCommunication.js -->
<g id="node3" class="node"><title>lib/algorithm&#45;communication/workerCommunication.js</title>
<path fill="none" stroke="#c6c5fe" d="M842.333,-713.524C842.333,-713.524 507.667,-713.524 507.667,-713.524 503.833,-713.524 500,-709.691 500,-705.858 500,-705.858 500,-698.191 500,-698.191 500,-694.358 503.833,-690.524 507.667,-690.524 507.667,-690.524 842.333,-690.524 842.333,-690.524 846.167,-690.524 850,-694.358 850,-698.191 850,-698.191 850,-705.858 850,-705.858 850,-709.691 846.167,-713.524 842.333,-713.524"/>
<text text-anchor="middle" x="675" y="-698.324" font-family="Arial" font-size="14.00" fill="#c6c5fe">lib/algorithm&#45;communication/workerCommunication.js</text>
</g>
<!-- bootstrap.js&#45;&gt;lib/algorithm&#45;communication/workerCommunication.js -->
<g id="edge2" class="edge"><title>bootstrap.js&#45;&gt;lib/algorithm&#45;communication/workerCommunication.js</title>
<path fill="none" stroke="#757575" d="M154.154,-512.698C170.018,-523.439 194.846,-539.286 218,-550.024 357.045,-614.513 531.299,-664.708 618.666,-687.924"/>
<polygon fill="#757575" stroke="#757575" points="617.81,-691.318 628.373,-690.487 619.598,-684.55 617.81,-691.318"/>
</g>
<!-- lib/algorithm&#45;logging/logging&#45;proxy.js -->
<g id="node4" class="node"><title>lib/algorithm&#45;logging/logging&#45;proxy.js</title>
<path fill="none" stroke="#c6c5fe" d="M456.333,-890.524C456.333,-890.524 225.667,-890.524 225.667,-890.524 221.833,-890.524 218,-886.691 218,-882.858 218,-882.858 218,-875.191 218,-875.191 218,-871.358 221.833,-867.524 225.667,-867.524 225.667,-867.524 456.333,-867.524 456.333,-867.524 460.167,-867.524 464,-871.358 464,-875.191 464,-875.191 464,-882.858 464,-882.858 464,-886.691 460.167,-890.524 456.333,-890.524"/>
<text text-anchor="middle" x="341" y="-875.324" font-family="Arial" font-size="14.00" fill="#c6c5fe">lib/algorithm&#45;logging/logging&#45;proxy.js</text>
</g>
<!-- bootstrap.js&#45;&gt;lib/algorithm&#45;logging/logging&#45;proxy.js -->
<g id="edge3" class="edge"><title>bootstrap.js&#45;&gt;lib/algorithm&#45;logging/logging&#45;proxy.js</title>
<path fill="none" stroke="#757575" d="M140.323,-512.657C148.84,-546.572 176.288,-647.71 218,-723.024 247.868,-776.953 295.744,-831.865 321.752,-859.928"/>
<polygon fill="#757575" stroke="#757575" points="319.385,-862.522 328.776,-867.427 324.494,-857.736 319.385,-862.522"/>
</g>
<!-- lib/consts/index.js -->
<g id="node5" class="node"><title>lib/consts/index.js</title>
<path fill="none" stroke="#c6c5fe" d="M1685.33,-559.524C1685.33,-559.524 1572.67,-559.524 1572.67,-559.524 1568.83,-559.524 1565,-555.691 1565,-551.858 1565,-551.858 1565,-544.191 1565,-544.191 1565,-540.358 1568.83,-536.524 1572.67,-536.524 1572.67,-536.524 1685.33,-536.524 1685.33,-536.524 1689.17,-536.524 1693,-540.358 1693,-544.191 1693,-544.191 1693,-551.858 1693,-551.858 1693,-555.691 1689.17,-559.524 1685.33,-559.524"/>
<text text-anchor="middle" x="1629" y="-544.324" font-family="Arial" font-size="14.00" fill="#c6c5fe">lib/consts/index.js</text>
</g>
<!-- bootstrap.js&#45;&gt;lib/consts/index.js -->
<g id="edge4" class="edge"><title>bootstrap.js&#45;&gt;lib/consts/index.js</title>
<path fill="none" stroke="#757575" d="M138.209,-512.596C142.078,-571.964 162.54,-841.838 218,-900.024 362.208,-1051.32 464.988,-1015.02 674,-1015.02 674,-1015.02 674,-1015.02 1021,-1015.02 1220.37,-1015.02 1308.96,-1088.56 1467,-967.024 1500.92,-940.939 1595.15,-651.188 1621.23,-569.404"/>
<polygon fill="#757575" stroke="#757575" points="1624.63,-570.279 1624.32,-559.688 1617.95,-568.157 1624.63,-570.279"/>
</g>
<!-- lib/consumer/JobConsumer.js -->
<g id="node6" class="node"><title>lib/consumer/JobConsumer.js</title>
<path fill="none" stroke="#c6c5fe" d="M769.833,-347.524C769.833,-347.524 580.167,-347.524 580.167,-347.524 576.333,-347.524 572.5,-343.691 572.5,-339.858 572.5,-339.858 572.5,-332.191 572.5,-332.191 572.5,-328.358 576.333,-324.524 580.167,-324.524 580.167,-324.524 769.833,-324.524 769.833,-324.524 773.667,-324.524 777.5,-328.358 777.5,-332.191 777.5,-332.191 777.5,-339.858 777.5,-339.858 777.5,-343.691 773.667,-347.524 769.833,-347.524"/>
<text text-anchor="middle" x="675" y="-332.324" font-family="Arial" font-size="14.00" fill="#c6c5fe">lib/consumer/JobConsumer.js</text>
</g>
<!-- bootstrap.js&#45;&gt;lib/consumer/JobConsumer.js -->
<g id="edge5" class="edge"><title>bootstrap.js&#45;&gt;lib/consumer/JobConsumer.js</title>
<path fill="none" stroke="#757575" d="M139.9,-489.247C146.485,-460.361 167.793,-386.103 218,-355.024 343.818,-277.143 528.733,-302.778 619.569,-322.346"/>
<polygon fill="#757575" stroke="#757575" points="618.86,-325.774 629.38,-324.516 620.371,-318.939 618.86,-325.774"/>
</g>
<!-- lib/helpers/api&#45;server&#45;client.js -->
<g id="node7" class="node"><title>lib/helpers/api&#45;server&#45;client.js</title>
<path fill="none" stroke="#c6c5fe" d="M767.333,-754.524C767.333,-754.524 582.667,-754.524 582.667,-754.524 578.833,-754.524 575,-750.691 575,-746.858 575,-746.858 575,-739.191 575,-739.191 575,-735.358 578.833,-731.524 582.667,-731.524 582.667,-731.524 767.333,-731.524 767.333,-731.524 771.167,-731.524 775,-735.358 775,-739.191 775,-739.191 775,-746.858 775,-746.858 775,-750.691 771.167,-754.524 767.333,-754.524"/>
<text text-anchor="middle" x="675" y="-739.324" font-family="Arial" font-size="14.00" fill="#c6c5fe">lib/helpers/api&#45;server&#45;client.js</text>
</g>
<!-- bootstrap.js&#45;&gt;lib/helpers/api&#45;server&#45;client.js -->
<g id="edge6" class="edge"><title>bootstrap.js&#45;&gt;lib/helpers/api&#45;server&#45;client.js</title>
<path fill="none" stroke="#757575" d="M143.156,-512.663C154.446,-534.774 181.835,-583.129 218,-611.024 319.263,-689.132 465.303,-721.049 564.633,-734.074"/>
<polygon fill="#757575" stroke="#757575" points="564.338,-737.564 574.698,-735.35 565.218,-730.62 564.338,-737.564"/>
</g>
<!-- lib/helpers/kubernetes.js -->
<g id="node8" class="node"><title>lib/helpers/kubernetes.js</title>
<path fill="none" stroke="#c6c5fe" d="M752.333,-85.5245C752.333,-85.5245 597.667,-85.5245 597.667,-85.5245 593.833,-85.5245 590,-81.6912 590,-77.8578 590,-77.8578 590,-70.1912 590,-70.1912 590,-66.3578 593.833,-62.5245 597.667,-62.5245 597.667,-62.5245 752.333,-62.5245 752.333,-62.5245 756.167,-62.5245 760,-66.3578 760,-70.1912 760,-70.1912 760,-77.8578 760,-77.8578 760,-81.6912 756.167,-85.5245 752.333,-85.5245"/>
<text text-anchor="middle" x="675" y="-70.3245" font-family="Arial" font-size="14.00" fill="#c6c5fe">lib/helpers/kubernetes.js</text>
</g>
<!-- bootstrap.js&#45;&gt;lib/helpers/kubernetes.js -->
<g id="edge7" class="edge"><title>bootstrap.js&#45;&gt;lib/helpers/kubernetes.js</title>
<path fill="none" stroke="#757575" d="M138.406,-489.522C143.021,-433.956 165.771,-194.006 218,-145.024 318.289,-50.9705 489.028,-51.1083 590.701,-61.4207"/>
<polygon fill="#757575" stroke="#757575" points="590.61,-64.931 600.926,-62.5158 591.356,-57.9708 590.61,-64.931"/>
</g>
<!-- lib/states/discovery.js -->
<g id="node9" class="node"><title>lib/states/discovery.js</title>
<path fill="none" stroke="#c6c5fe" d="M1087.83,-164.524C1087.83,-164.524 952.167,-164.524 952.167,-164.524 948.333,-164.524 944.5,-160.691 944.5,-156.858 944.5,-156.858 944.5,-149.191 944.5,-149.191 944.5,-145.358 948.333,-141.524 952.167,-141.524 952.167,-141.524 1087.83,-141.524 1087.83,-141.524 1091.67,-141.524 1095.5,-145.358 1095.5,-149.191 1095.5,-149.191 1095.5,-156.858 1095.5,-156.858 1095.5,-160.691 1091.67,-164.524 1087.83,-164.524"/>
<text text-anchor="middle" x="1020" y="-149.324" font-family="Arial" font-size="14.00" fill="#c6c5fe">lib/states/discovery.js</text>
</g>
<!-- bootstrap.js&#45;&gt;lib/states/discovery.js -->
<g id="edge8" class="edge"><title>bootstrap.js&#45;&gt;lib/states/discovery.js</title>
<path fill="none" stroke="#757575" d="M139.029,-489.326C144.041,-455.449 162.932,-356.056 218,-299.024 313.102,-200.53 366.638,-206.014 500,-175.024 649.837,-140.207 830.41,-142.02 934.242,-147.107"/>
<polygon fill="#757575" stroke="#757575" points="934.19,-150.609 944.355,-147.625 934.548,-143.618 934.19,-150.609"/>
</g>
<!-- lib/states/stateManager.js -->
<g id="node10" class="node"><title>lib/states/stateManager.js</title>
<path fill="none" stroke="#c6c5fe" d="M1408.83,-464.524C1408.83,-464.524 1248.17,-464.524 1248.17,-464.524 1244.33,-464.524 1240.5,-460.691 1240.5,-456.858 1240.5,-456.858 1240.5,-449.191 1240.5,-449.191 1240.5,-445.358 1244.33,-441.524 1248.17,-441.524 1248.17,-441.524 1408.83,-441.524 1408.83,-441.524 1412.67,-441.524 1416.5,-445.358 1416.5,-449.191 1416.5,-449.191 1416.5,-456.858 1416.5,-456.858 1416.5,-460.691 1412.67,-464.524 1408.83,-464.524"/>
<text text-anchor="middle" x="1328.5" y="-449.324" font-family="Arial" font-size="14.00" fill="#c6c5fe">lib/states/stateManager.js</text>
</g>
<!-- bootstrap.js&#45;&gt;lib/states/stateManager.js -->
<g id="edge9" class="edge"><title>bootstrap.js&#45;&gt;lib/states/stateManager.js</title>
<path fill="none" stroke="#757575" d="M182.336,-499.216C355.913,-492.215 986.15,-466.793 1230.12,-456.953"/>
<polygon fill="#757575" stroke="#757575" points="1230.54,-460.439 1240.39,-456.538 1230.26,-453.444 1230.54,-460.439"/>
</g>
<!-- lib/subpipeline/subpipeline.js -->
<g id="node11" class="node"><title>lib/subpipeline/subpipeline.js</title>
<path fill="none" stroke="#c6c5fe" d="M432.333,-541.524C432.333,-541.524 249.667,-541.524 249.667,-541.524 245.833,-541.524 242,-537.691 242,-533.858 242,-533.858 242,-526.191 242,-526.191 242,-522.358 245.833,-518.524 249.667,-518.524 249.667,-518.524 432.333,-518.524 432.333,-518.524 436.167,-518.524 440,-522.358 440,-526.191 440,-526.191 440,-533.858 440,-533.858 440,-537.691 436.167,-541.524 432.333,-541.524"/>
<text text-anchor="middle" x="341" y="-526.324" font-family="Arial" font-size="14.00" fill="#c6c5fe">lib/subpipeline/subpipeline.js</text>
</g>
<!-- bootstrap.js&#45;&gt;lib/subpipeline/subpipeline.js -->
<g id="edge10" class="edge"><title>bootstrap.js&#45;&gt;lib/subpipeline/subpipeline.js</title>
<path fill="none" stroke="#757575" d="M182.19,-507.425C202.063,-510.271 226.217,-513.73 249.591,-517.077"/>
<polygon fill="#757575" stroke="#757575" points="249.15,-520.55 259.546,-518.503 250.143,-513.62 249.15,-520.55"/>
</g>
<!-- lib/worker.js -->
<g id="node12" class="node"><title>lib/worker.js</title>
<path fill="none" stroke="#c6c5fe" d="M378.333,-387.524C378.333,-387.524 303.667,-387.524 303.667,-387.524 299.833,-387.524 296,-383.691 296,-379.858 296,-379.858 296,-372.191 296,-372.191 296,-368.358 299.833,-364.524 303.667,-364.524 303.667,-364.524 378.333,-364.524 378.333,-364.524 382.167,-364.524 386,-368.358 386,-372.191 386,-372.191 386,-379.858 386,-379.858 386,-383.691 382.167,-387.524 378.333,-387.524"/>
<text text-anchor="middle" x="341" y="-372.324" font-family="Arial" font-size="14.00" fill="#c6c5fe">lib/worker.js</text>
</g>
<!-- bootstrap.js&#45;&gt;lib/worker.js -->
<g id="edge11" class="edge"><title>bootstrap.js&#45;&gt;lib/worker.js</title>
<path fill="none" stroke="#757575" d="M156.188,-489.489C192.128,-467.304 271.012,-418.61 312.791,-392.82"/>
<polygon fill="#757575" stroke="#757575" points="314.687,-395.763 321.357,-387.532 311.01,-389.807 314.687,-395.763"/>
</g>
<!-- lib/algorithm&#45;communication/workerCommunication.js&#45;&gt;lib/consts/index.js -->
<g id="edge24" class="edge"><title>lib/algorithm&#45;communication/workerCommunication.js&#45;&gt;lib/consts/index.js</title>
<path fill="none" stroke="#757575" d="M831.077,-713.668C837.599,-716.081 843.939,-718.851 850,-722.024 871.483,-733.273 863.909,-753.023 886,-763.024 1004.02,-816.455 1351.97,-774.61 1467,-715.024 1534.95,-679.827 1590.73,-604.872 1614.97,-568.572"/>
<polygon fill="#757575" stroke="#757575" points="1618.15,-570.106 1620.7,-559.823 1612.29,-566.272 1618.15,-570.106"/>
</g>
<!-- lib/algorithm&#45;communication/consts.js -->
<g id="node13" class="node"><title>lib/algorithm&#45;communication/consts.js</title>
<path fill="none" stroke="#cfffac" d="M1747.33,-948.524C1747.33,-948.524 1510.67,-948.524 1510.67,-948.524 1506.83,-948.524 1503,-944.691 1503,-940.858 1503,-940.858 1503,-933.191 1503,-933.191 1503,-929.358 1506.83,-925.524 1510.67,-925.524 1510.67,-925.524 1747.33,-925.524 1747.33,-925.524 1751.17,-925.524 1755,-929.358 1755,-933.191 1755,-933.191 1755,-940.858 1755,-940.858 1755,-944.691 1751.17,-948.524 1747.33,-948.524"/>
<text text-anchor="middle" x="1629" y="-933.324" font-family="Arial" font-size="14.00" fill="#cfffac">lib/algorithm&#45;communication/consts.js</text>
</g>
<!-- lib/algorithm&#45;communication/workerCommunication.js&#45;&gt;lib/algorithm&#45;communication/consts.js -->
<g id="edge18" class="edge"><title>lib/algorithm&#45;communication/workerCommunication.js&#45;&gt;lib/algorithm&#45;communication/consts.js</title>
<path fill="none" stroke="#757575" d="M839.257,-713.722C843.015,-716.216 846.607,-718.976 850,-722.024 904.22,-770.738 830.806,-834.417 886,-882.024 1088.1,-1056.35 1447.32,-985.106 1578.38,-951.134"/>
<polygon fill="#757575" stroke="#757575" points="1579.38,-954.492 1588.15,-948.56 1577.59,-947.723 1579.38,-954.492"/>
</g>
<!-- lib/algorithm&#45;communication/loopback.js -->
<g id="node14" class="node"><title>lib/algorithm&#45;communication/loopback.js</title>
<path fill="none" stroke="#c6c5fe" d="M1146.33,-754.524C1146.33,-754.524 893.667,-754.524 893.667,-754.524 889.833,-754.524 886,-750.691 886,-746.858 886,-746.858 886,-739.191 886,-739.191 886,-735.358 889.833,-731.524 893.667,-731.524 893.667,-731.524 1146.33,-731.524 1146.33,-731.524 1150.17,-731.524 1154,-735.358 1154,-739.191 1154,-739.191 1154,-746.858 1154,-746.858 1154,-750.691 1150.17,-754.524 1146.33,-754.524"/>
<text text-anchor="middle" x="1020" y="-739.324" font-family="Arial" font-size="14.00" fill="#c6c5fe">lib/algorithm&#45;communication/loopback.js</text>
</g>
<!-- lib/algorithm&#45;communication/workerCommunication.js&#45;&gt;lib/algorithm&#45;communication/loopback.js -->
<g id="edge19" class="edge"><title>lib/algorithm&#45;communication/workerCommunication.js&#45;&gt;lib/algorithm&#45;communication/loopback.js</title>
<path fill="none" stroke="#757575" d="M777.687,-713.554C801.423,-716.289 826.601,-719.226 850,-722.024 871.766,-724.628 895.101,-727.485 917.269,-730.23"/>
<polygon fill="#757575" stroke="#757575" points="917.008,-733.724 927.363,-731.482 917.87,-726.777 917.008,-733.724"/>
</g>
<!-- lib/algorithm&#45;communication/messages.js -->
<g id="node15" class="node"><title>lib/algorithm&#45;communication/messages.js</title>
<path fill="none" stroke="#cfffac" d="M1459.33,-673.524C1459.33,-673.524 1197.67,-673.524 1197.67,-673.524 1193.83,-673.524 1190,-669.691 1190,-665.858 1190,-665.858 1190,-658.191 1190,-658.191 1190,-654.358 1193.83,-650.524 1197.67,-650.524 1197.67,-650.524 1459.33,-650.524 1459.33,-650.524 1463.17,-650.524 1467,-654.358 1467,-658.191 1467,-658.191 1467,-665.858 1467,-665.858 1467,-669.691 1463.17,-673.524 1459.33,-673.524"/>
<text text-anchor="middle" x="1328.5" y="-658.324" font-family="Arial" font-size="14.00" fill="#cfffac">lib/algorithm&#45;communication/messages.js</text>
</g>
<!-- lib/algorithm&#45;communication/workerCommunication.js&#45;&gt;lib/algorithm&#45;communication/messages.js -->
<g id="edge20" class="edge"><title>lib/algorithm&#45;communication/workerCommunication.js&#45;&gt;lib/algorithm&#45;communication/messages.js</title>
<path fill="none" stroke="#757575" d="M779.509,-690.498C813.41,-687.037 851.28,-683.506 886,-681.024 983.718,-674.042 1093.8,-669.298 1179.6,-666.296"/>
<polygon fill="#757575" stroke="#757575" points="1179.8,-669.792 1189.67,-665.948 1179.56,-662.796 1179.8,-669.792"/>
</g>
<!-- lib/algorithm&#45;communication/schema.js -->
<g id="node16" class="node"><title>lib/algorithm&#45;communication/schema.js</title>
<path fill="none" stroke="#c6c5fe" d="M1450.83,-833.524C1450.83,-833.524 1206.17,-833.524 1206.17,-833.524 1202.33,-833.524 1198.5,-829.691 1198.5,-825.858 1198.5,-825.858 1198.5,-818.191 1198.5,-818.191 1198.5,-814.358 1202.33,-810.524 1206.17,-810.524 1206.17,-810.524 1450.83,-810.524 1450.83,-810.524 1454.67,-810.524 1458.5,-814.358 1458.5,-818.191 1458.5,-818.191 1458.5,-825.858 1458.5,-825.858 1458.5,-829.691 1454.67,-833.524 1450.83,-833.524"/>
<text text-anchor="middle" x="1328.5" y="-818.324" font-family="Arial" font-size="14.00" fill="#c6c5fe">lib/algorithm&#45;communication/schema.js</text>
</g>
<!-- lib/algorithm&#45;communication/workerCommunication.js&#45;&gt;lib/algorithm&#45;communication/schema.js -->
<g id="edge21" class="edge"><title>lib/algorithm&#45;communication/workerCommunication.js&#45;&gt;lib/algorithm&#45;communication/schema.js</title>
<path fill="none" stroke="#757575" d="M836.386,-713.719C841.111,-716.179 845.666,-718.938 850,-722.024 880.117,-743.474 855.275,-776.456 886,-797.024 933.907,-829.095 1077.56,-832.141 1188.12,-829.179"/>
<polygon fill="#757575" stroke="#757575" points="1188.48,-832.671 1198.38,-828.885 1188.28,-825.673 1188.48,-832.671"/>
</g>
<!-- lib/algorithm&#45;communication/socket&#45;io.js -->
<g id="node17" class="node"><title>lib/algorithm&#45;communication/socket&#45;io.js</title>
<path fill="none" stroke="#c6c5fe" d="M1146.33,-713.524C1146.33,-713.524 893.667,-713.524 893.667,-713.524 889.833,-713.524 886,-709.691 886,-705.858 886,-705.858 886,-698.191 886,-698.191 886,-694.358 889.833,-690.524 893.667,-690.524 893.667,-690.524 1146.33,-690.524 1146.33,-690.524 1150.17,-690.524 1154,-694.358 1154,-698.191 1154,-698.191 1154,-705.858 1154,-705.858 1154,-709.691 1150.17,-713.524 1146.33,-713.524"/>
<text text-anchor="middle" x="1020" y="-698.324" font-family="Arial" font-size="14.00" fill="#c6c5fe">lib/algorithm&#45;communication/socket&#45;io.js</text>
</g>
<!-- lib/algorithm&#45;communication/workerCommunication.js&#45;&gt;lib/algorithm&#45;communication/socket&#45;io.js -->
<g id="edge22" class="edge"><title>lib/algorithm&#45;communication/workerCommunication.js&#45;&gt;lib/algorithm&#45;communication/socket&#45;io.js</title>
<path fill="none" stroke="#757575" d="M850.012,-702.024C858.501,-702.024 866.981,-702.024 875.369,-702.024"/>
<polygon fill="#757575" stroke="#757575" points="875.551,-705.525 885.551,-702.024 875.551,-698.525 875.551,-705.525"/>
</g>
<!-- lib/algorithm&#45;communication/ws.js -->
<g id="node18" class="node"><title>lib/algorithm&#45;communication/ws.js</title>
<path fill="none" stroke="#c6c5fe" d="M1125.83,-872.524C1125.83,-872.524 914.167,-872.524 914.167,-872.524 910.333,-872.524 906.5,-868.691 906.5,-864.858 906.5,-864.858 906.5,-857.191 906.5,-857.191 906.5,-853.358 910.333,-849.524 914.167,-849.524 914.167,-849.524 1125.83,-849.524 1125.83,-849.524 1129.67,-849.524 1133.5,-853.358 1133.5,-857.191 1133.5,-857.191 1133.5,-864.858 1133.5,-864.858 1133.5,-868.691 1129.67,-872.524 1125.83,-872.524"/>
<text text-anchor="middle" x="1020" y="-857.324" font-family="Arial" font-size="14.00" fill="#c6c5fe">lib/algorithm&#45;communication/ws.js</text>
</g>
<!-- lib/algorithm&#45;communication/workerCommunication.js&#45;&gt;lib/algorithm&#45;communication/ws.js -->
<g id="edge23" class="edge"><title>lib/algorithm&#45;communication/workerCommunication.js&#45;&gt;lib/algorithm&#45;communication/ws.js</title>
<path fill="none" stroke="#757575" d="M838.139,-713.65C842.276,-716.151 846.243,-718.934 850,-722.024 890.705,-755.511 846.642,-799.964 886,-835.024 890.172,-838.741 894.715,-841.992 899.524,-844.832"/>
<polygon fill="#757575" stroke="#757575" points="897.963,-847.965 908.444,-849.51 901.214,-841.766 897.963,-847.965"/>
</g>
<!-- lib/algorithm&#45;logging/logging&#45;proxy.js&#45;&gt;lib/consts/index.js -->
<g id="edge27" class="edge"><title>lib/algorithm&#45;logging/logging&#45;proxy.js&#45;&gt;lib/consts/index.js</title>
<path fill="none" stroke="#757575" d="M401.524,-890.571C608.112,-929.303 1291.13,-1045.73 1467,-928.024 1593.37,-843.45 1620.86,-637.951 1626.57,-570.141"/>
<polygon fill="#757575" stroke="#757575" points="1630.09,-570.042 1627.36,-559.805 1623.11,-569.51 1630.09,-570.042"/>
</g>
<!-- lib/consts/component&#45;names.js -->
<g id="node19" class="node"><title>lib/consts/component&#45;names.js</title>
<path fill="none" stroke="#cfffac" d="M2005.33,-723.524C2005.33,-723.524 1807.67,-723.524 1807.67,-723.524 1803.83,-723.524 1800,-719.691 1800,-715.858 1800,-715.858 1800,-708.191 1800,-708.191 1800,-704.358 1803.83,-700.524 1807.67,-700.524 1807.67,-700.524 2005.33,-700.524 2005.33,-700.524 2009.17,-700.524 2013,-704.358 2013,-708.191 2013,-708.191 2013,-715.858 2013,-715.858 2013,-719.691 2009.17,-723.524 2005.33,-723.524"/>
<text text-anchor="middle" x="1906.5" y="-708.324" font-family="Arial" font-size="14.00" fill="#cfffac">lib/consts/component&#45;names.js</text>
</g>
<!-- lib/consts/index.js&#45;&gt;lib/consts/component&#45;names.js -->
<g id="edge28" class="edge"><title>lib/consts/index.js&#45;&gt;lib/consts/component&#45;names.js</title>
<path fill="none" stroke="#757575" d="M1639.07,-559.596C1661.52,-587.33 1722.79,-657.753 1791,-691.024 1795.88,-693.406 1801,-695.518 1806.25,-697.393"/>
<polygon fill="#757575" stroke="#757575" points="1805.24,-700.742 1815.83,-700.515 1807.41,-694.087 1805.24,-700.742"/>
</g>
<!-- lib/consts/etcd&#45;messages.js -->
<g id="node20" class="node"><title>lib/consts/etcd&#45;messages.js</title>
<path fill="none" stroke="#cfffac" d="M1995.83,-682.524C1995.83,-682.524 1817.17,-682.524 1817.17,-682.524 1813.33,-682.524 1809.5,-678.691 1809.5,-674.858 1809.5,-674.858 1809.5,-667.191 1809.5,-667.191 1809.5,-663.358 1813.33,-659.524 1817.17,-659.524 1817.17,-659.524 1995.83,-659.524 1995.83,-659.524 1999.67,-659.524 2003.5,-663.358 2003.5,-667.191 2003.5,-667.191 2003.5,-674.858 2003.5,-674.858 2003.5,-678.691 1999.67,-682.524 1995.83,-682.524"/>
<text text-anchor="middle" x="1906.5" y="-667.324" font-family="Arial" font-size="14.00" fill="#cfffac">lib/consts/etcd&#45;messages.js</text>
</g>
<!-- lib/consts/index.js&#45;&gt;lib/consts/etcd&#45;messages.js -->
<g id="edge29" class="edge"><title>lib/consts/index.js&#45;&gt;lib/consts/etcd&#45;messages.js</title>
<path fill="none" stroke="#757575" d="M1644.06,-559.621C1670.86,-581.072 1731.84,-626.87 1791,-650.024 1797.66,-652.632 1804.67,-654.921 1811.81,-656.928"/>
<polygon fill="#757575" stroke="#757575" points="1811.03,-660.342 1821.59,-659.494 1812.81,-653.571 1811.03,-660.342"/>
</g>
<!-- lib/consts/job&#45;events.js -->
<g id="node21" class="node"><title>lib/consts/job&#45;events.js</title>
<path fill="none" stroke="#cfffac" d="M1979.33,-641.524C1979.33,-641.524 1833.67,-641.524 1833.67,-641.524 1829.83,-641.524 1826,-637.691 1826,-633.858 1826,-633.858 1826,-626.191 1826,-626.191 1826,-622.358 1829.83,-618.524 1833.67,-618.524 1833.67,-618.524 1979.33,-618.524 1979.33,-618.524 1983.17,-618.524 1987,-622.358 1987,-626.191 1987,-626.191 1987,-633.858 1987,-633.858 1987,-637.691 1983.17,-641.524 1979.33,-641.524"/>
<text text-anchor="middle" x="1906.5" y="-626.324" font-family="Arial" font-size="14.00" fill="#cfffac">lib/consts/job&#45;events.js</text>
</g>
<!-- lib/consts/index.js&#45;&gt;lib/consts/job&#45;events.js -->
<g id="edge30" class="edge"><title>lib/consts/index.js&#45;&gt;lib/consts/job&#45;events.js</title>
<path fill="none" stroke="#757575" d="M1656.01,-559.553C1687.44,-573.092 1742.2,-595.424 1791,-609.024 1800.81,-611.759 1811.2,-614.23 1821.55,-616.436"/>
<polygon fill="#757575" stroke="#757575" points="1820.95,-619.885 1831.45,-618.47 1822.36,-613.029 1820.95,-619.885"/>
</g>
<!-- lib/consts/job&#45;status.js -->
<g id="node22" class="node"><title>lib/consts/job&#45;status.js</title>
<path fill="none" stroke="#cfffac" d="M1976.83,-600.524C1976.83,-600.524 1836.17,-600.524 1836.17,-600.524 1832.33,-600.524 1828.5,-596.691 1828.5,-592.858 1828.5,-592.858 1828.5,-585.191 1828.5,-585.191 1828.5,-581.358 1832.33,-577.524 1836.17,-577.524 1836.17,-577.524 1976.83,-577.524 1976.83,-577.524 1980.67,-577.524 1984.5,-581.358 1984.5,-585.191 1984.5,-585.191 1984.5,-592.858 1984.5,-592.858 1984.5,-596.691 1980.67,-600.524 1976.83,-600.524"/>
<text text-anchor="middle" x="1906.5" y="-585.324" font-family="Arial" font-size="14.00" fill="#cfffac">lib/consts/job&#45;status.js</text>
</g>
<!-- lib/consts/index.js&#45;&gt;lib/consts/job&#45;status.js -->
<g id="edge31" class="edge"><title>lib/consts/index.js&#45;&gt;lib/consts/job&#45;status.js</title>
<path fill="none" stroke="#757575" d="M1693.21,-557.431C1730.34,-562.956 1777.81,-570.021 1818.44,-576.068"/>
<polygon fill="#757575" stroke="#757575" points="1817.94,-579.532 1828.34,-577.542 1818.97,-572.608 1817.94,-579.532"/>
</g>
<!-- lib/consts/metrics&#45;names.js -->
<g id="node23" class="node"><title>lib/consts/metrics&#45;names.js</title>
<path fill="none" stroke="#cfffac" d="M1992.83,-559.524C1992.83,-559.524 1820.17,-559.524 1820.17,-559.524 1816.33,-559.524 1812.5,-555.691 1812.5,-551.858 1812.5,-551.858 1812.5,-544.191 1812.5,-544.191 1812.5,-540.358 1816.33,-536.524 1820.17,-536.524 1820.17,-536.524 1992.83,-536.524 1992.83,-536.524 1996.67,-536.524 2000.5,-540.358 2000.5,-544.191 2000.5,-544.191 2000.5,-551.858 2000.5,-551.858 2000.5,-555.691 1996.67,-559.524 1992.83,-559.524"/>
<text text-anchor="middle" x="1906.5" y="-544.324" font-family="Arial" font-size="14.00" fill="#cfffac">lib/consts/metrics&#45;names.js</text>
</g>
<!-- lib/consts/index.js&#45;&gt;lib/consts/metrics&#45;names.js -->
<g id="edge32" class="edge"><title>lib/consts/index.js&#45;&gt;lib/consts/metrics&#45;names.js</title>
<path fill="none" stroke="#757575" d="M1693.21,-548.024C1725.44,-548.024 1765.47,-548.024 1802.06,-548.024"/>
<polygon fill="#757575" stroke="#757575" points="1802.27,-551.525 1812.27,-548.024 1802.27,-544.525 1802.27,-551.525"/>
</g>
<!-- lib/consts/post&#45;subpipeline&#45;type.js -->
<g id="node24" class="node"><title>lib/consts/post&#45;subpipeline&#45;type.js</title>
<path fill="none" stroke="#cfffac" d="M2014.33,-518.524C2014.33,-518.524 1798.67,-518.524 1798.67,-518.524 1794.83,-518.524 1791,-514.691 1791,-510.858 1791,-510.858 1791,-503.191 1791,-503.191 1791,-499.358 1794.83,-495.524 1798.67,-495.524 1798.67,-495.524 2014.33,-495.524 2014.33,-495.524 2018.17,-495.524 2022,-499.358 2022,-503.191 2022,-503.191 2022,-510.858 2022,-510.858 2022,-514.691 2018.17,-518.524 2014.33,-518.524"/>
<text text-anchor="middle" x="1906.5" y="-503.324" font-family="Arial" font-size="14.00" fill="#cfffac">lib/consts/post&#45;subpipeline&#45;type.js</text>
</g>
<!-- lib/consts/index.js&#45;&gt;lib/consts/post&#45;subpipeline&#45;type.js -->
<g id="edge33" class="edge"><title>lib/consts/index.js&#45;&gt;lib/consts/post&#45;subpipeline&#45;type.js</title>
<path fill="none" stroke="#757575" d="M1693.21,-538.618C1730.18,-533.115 1777.42,-526.086 1817.94,-520.055"/>
<polygon fill="#757575" stroke="#757575" points="1818.71,-523.479 1828.09,-518.545 1817.68,-516.555 1818.71,-523.479"/>
</g>
<!-- lib/consts/state&#45;events.js -->
<g id="node25" class="node"><title>lib/consts/state&#45;events.js</title>
<path fill="none" stroke="#cfffac" d="M1984.83,-477.524C1984.83,-477.524 1828.17,-477.524 1828.17,-477.524 1824.33,-477.524 1820.5,-473.691 1820.5,-469.858 1820.5,-469.858 1820.5,-462.191 1820.5,-462.191 1820.5,-458.358 1824.33,-454.524 1828.17,-454.524 1828.17,-454.524 1984.83,-454.524 1984.83,-454.524 1988.67,-454.524 1992.5,-458.358 1992.5,-462.191 1992.5,-462.191 1992.5,-469.858 1992.5,-469.858 1992.5,-473.691 1988.67,-477.524 1984.83,-477.524"/>
<text text-anchor="middle" x="1906.5" y="-462.324" font-family="Arial" font-size="14.00" fill="#cfffac">lib/consts/state&#45;events.js</text>
</g>
<!-- lib/consts/index.js&#45;&gt;lib/consts/state&#45;events.js -->
<g id="edge34" class="edge"><title>lib/consts/index.js&#45;&gt;lib/consts/state&#45;events.js</title>
<path fill="none" stroke="#757575" d="M1655.41,-536.459C1686.71,-522.634 1741.78,-499.659 1791,-486.024 1799.57,-483.651 1808.58,-481.501 1817.63,-479.57"/>
<polygon fill="#757575" stroke="#757575" points="1818.35,-482.995 1827.44,-477.559 1816.94,-476.138 1818.35,-482.995"/>
</g>
<!-- lib/consts/worker&#45;commands.js -->
<g id="node26" class="node"><title>lib/consts/worker&#45;commands.js</title>
<path fill="none" stroke="#cfffac" d="M2004.83,-436.524C2004.83,-436.524 1808.17,-436.524 1808.17,-436.524 1804.33,-436.524 1800.5,-432.691 1800.5,-428.858 1800.5,-428.858 1800.5,-421.191 1800.5,-421.191 1800.5,-417.358 1804.33,-413.524 1808.17,-413.524 1808.17,-413.524 2004.83,-413.524 2004.83,-413.524 2008.67,-413.524 2012.5,-417.358 2012.5,-421.191 2012.5,-421.191 2012.5,-428.858 2012.5,-428.858 2012.5,-432.691 2008.67,-436.524 2004.83,-436.524"/>
<text text-anchor="middle" x="1906.5" y="-421.324" font-family="Arial" font-size="14.00" fill="#cfffac">lib/consts/worker&#45;commands.js</text>
</g>
<!-- lib/consts/index.js&#45;&gt;lib/consts/worker&#45;commands.js -->
<g id="edge35" class="edge"><title>lib/consts/index.js&#45;&gt;lib/consts/worker&#45;commands.js</title>
<path fill="none" stroke="#757575" d="M1644.02,-536.262C1670.75,-514.512 1731.63,-468.124 1791,-445.024 1796.54,-442.868 1802.33,-440.944 1808.22,-439.226"/>
<polygon fill="#757575" stroke="#757575" points="1809.48,-442.51 1818.23,-436.525 1807.66,-435.752 1809.48,-442.51"/>
</g>
<!-- lib/consts/worker&#45;states.js -->
<g id="node27" class="node"><title>lib/consts/worker&#45;states.js</title>
<path fill="none" stroke="#cfffac" d="M1988.33,-395.524C1988.33,-395.524 1824.67,-395.524 1824.67,-395.524 1820.83,-395.524 1817,-391.691 1817,-387.858 1817,-387.858 1817,-380.191 1817,-380.191 1817,-376.358 1820.83,-372.524 1824.67,-372.524 1824.67,-372.524 1988.33,-372.524 1988.33,-372.524 1992.17,-372.524 1996,-376.358 1996,-380.191 1996,-380.191 1996,-387.858 1996,-387.858 1996,-391.691 1992.17,-395.524 1988.33,-395.524"/>
<text text-anchor="middle" x="1906.5" y="-380.324" font-family="Arial" font-size="14.00" fill="#cfffac">lib/consts/worker&#45;states.js</text>
</g>
<!-- lib/consts/index.js&#45;&gt;lib/consts/worker&#45;states.js -->
<g id="edge36" class="edge"><title>lib/consts/index.js&#45;&gt;lib/consts/worker&#45;states.js</title>
<path fill="none" stroke="#757575" d="M1639.04,-536.333C1661.4,-508.32 1722.5,-437.227 1791,-404.024 1796.05,-401.577 1801.35,-399.425 1806.8,-397.533"/>
<polygon fill="#757575" stroke="#757575" points="1808.24,-400.748 1816.72,-394.402 1806.13,-394.073 1808.24,-400.748"/>
</g>
<!-- lib/consumer/JobConsumer.js&#45;&gt;lib/consts/index.js -->
<g id="edge37" class="edge"><title>lib/consumer/JobConsumer.js&#45;&gt;lib/consts/index.js</title>
<path fill="none" stroke="#757575" d="M760.585,-324.498C791.42,-316.854 824.852,-304.147 850,-283.024 877.092,-260.27 855.852,-230.54 886,-212.024 996.493,-144.164 1360.83,-191.589 1467,-266.024 1561.58,-332.329 1607.89,-473.132 1622.62,-526.716"/>
<polygon fill="#757575" stroke="#757575" points="1619.27,-527.731 1625.22,-536.496 1626.03,-525.933 1619.27,-527.731"/>
</g>
<!-- lib/consumer/JobConsumer.js&#45;&gt;lib/states/discovery.js -->
<g id="edge42" class="edge"><title>lib/consumer/JobConsumer.js&#45;&gt;lib/states/discovery.js</title>
<path fill="none" stroke="#757575" d="M737.042,-324.486C773.853,-314.726 819.389,-297.307 850,-267.024 880.041,-237.306 853.349,-205.85 886,-179.024 899.677,-167.788 916.802,-160.91 934.167,-156.8"/>
<polygon fill="#757575" stroke="#757575" points="935.309,-160.138 944.395,-154.688 933.893,-153.283 935.309,-160.138"/>
</g>
<!-- lib/consumer/JobConsumer.js&#45;&gt;lib/states/stateManager.js -->
<g id="edge43" class="edge"><title>lib/consumer/JobConsumer.js&#45;&gt;lib/states/stateManager.js</title>
<path fill="none" stroke="#757575" d="M734.314,-347.545C776.415,-355.762 834.656,-366.921 886,-376.024 1004.85,-397.097 1035.15,-398.968 1154,-420.024 1188.6,-426.154 1226.99,-433.409 1258.84,-439.553"/>
<polygon fill="#757575" stroke="#757575" points="1258.46,-443.043 1268.94,-441.506 1259.79,-436.171 1258.46,-443.043"/>
</g>
<!-- lib/consumer/consts.js -->
<g id="node28" class="node"><title>lib/consumer/consts.js</title>
<path fill="none" stroke="#cfffac" d="M1091.33,-367.524C1091.33,-367.524 948.667,-367.524 948.667,-367.524 944.833,-367.524 941,-363.691 941,-359.858 941,-359.858 941,-352.191 941,-352.191 941,-348.358 944.833,-344.524 948.667,-344.524 948.667,-344.524 1091.33,-344.524 1091.33,-344.524 1095.17,-344.524 1099,-348.358 1099,-352.191 1099,-352.191 1099,-359.858 1099,-359.858 1099,-363.691 1095.17,-367.524 1091.33,-367.524"/>
<text text-anchor="middle" x="1020" y="-352.324" font-family="Arial" font-size="14.00" fill="#cfffac">lib/consumer/consts.js</text>
</g>
<!-- lib/consumer/JobConsumer.js&#45;&gt;lib/consumer/consts.js -->
<g id="edge38" class="edge"><title>lib/consumer/JobConsumer.js&#45;&gt;lib/consumer/consts.js</title>
<path fill="none" stroke="#757575" d="M777.519,-341.944C826.198,-344.782 883.955,-348.15 930.777,-350.88"/>
<polygon fill="#757575" stroke="#757575" points="930.713,-354.382 940.899,-351.471 931.12,-347.394 930.713,-354.382"/>
</g>
<!-- lib/consumer/data&#45;extractor.js -->
<g id="node29" class="node"><title>lib/consumer/data&#45;extractor.js</title>
<path fill="none" stroke="#cfffac" d="M1112.83,-326.524C1112.83,-326.524 927.167,-326.524 927.167,-326.524 923.333,-326.524 919.5,-322.691 919.5,-318.858 919.5,-318.858 919.5,-311.191 919.5,-311.191 919.5,-307.358 923.333,-303.524 927.167,-303.524 927.167,-303.524 1112.83,-303.524 1112.83,-303.524 1116.67,-303.524 1120.5,-307.358 1120.5,-311.191 1120.5,-311.191 1120.5,-318.858 1120.5,-318.858 1120.5,-322.691 1116.67,-326.524 1112.83,-326.524"/>
<text text-anchor="middle" x="1020" y="-311.324" font-family="Arial" font-size="14.00" fill="#cfffac">lib/consumer/data&#45;extractor.js</text>
</g>
<!-- lib/consumer/JobConsumer.js&#45;&gt;lib/consumer/data&#45;extractor.js -->
<g id="edge39" class="edge"><title>lib/consumer/JobConsumer.js&#45;&gt;lib/consumer/data&#45;extractor.js</title>
<path fill="none" stroke="#757575" d="M777.519,-329.809C818.942,-327.273 866.939,-324.334 909.178,-321.748"/>
<polygon fill="#757575" stroke="#757575" points="909.452,-325.238 919.219,-321.134 909.024,-318.251 909.452,-325.238"/>
</g>
<!-- lib/consumer/job&#45;provider.js -->
<g id="node30" class="node"><title>lib/consumer/job&#45;provider.js</title>
<path fill="none" stroke="#c6c5fe" d="M1107.83,-244.524C1107.83,-244.524 932.167,-244.524 932.167,-244.524 928.333,-244.524 924.5,-240.691 924.5,-236.858 924.5,-236.858 924.5,-229.191 924.5,-229.191 924.5,-225.358 928.333,-221.524 932.167,-221.524 932.167,-221.524 1107.83,-221.524 1107.83,-221.524 1111.67,-221.524 1115.5,-225.358 1115.5,-229.191 1115.5,-229.191 1115.5,-236.858 1115.5,-236.858 1115.5,-240.691 1111.67,-244.524 1107.83,-244.524"/>
<text text-anchor="middle" x="1020" y="-229.324" font-family="Arial" font-size="14.00" fill="#c6c5fe">lib/consumer/job&#45;provider.js</text>
</g>
<!-- lib/consumer/JobConsumer.js&#45;&gt;lib/consumer/job&#45;provider.js -->
<g id="edge40" class="edge"><title>lib/consumer/JobConsumer.js&#45;&gt;lib/consumer/job&#45;provider.js</title>
<path fill="none" stroke="#757575" d="M705.255,-324.413C762.436,-301.724 883.687,-253.647 886,-253.024 895.121,-250.571 904.679,-248.393 914.31,-246.465"/>
<polygon fill="#757575" stroke="#757575" points="915.191,-249.86 924.357,-244.546 913.878,-242.985 915.191,-249.86"/>
</g>
<!-- lib/helpers/formatters.js -->
<g id="node31" class="node"><title>lib/helpers/formatters.js</title>
<path fill="none" stroke="#cfffac" d="M1094.33,-285.524C1094.33,-285.524 945.667,-285.524 945.667,-285.524 941.833,-285.524 938,-281.691 938,-277.858 938,-277.858 938,-270.191 938,-270.191 938,-266.358 941.833,-262.524 945.667,-262.524 945.667,-262.524 1094.33,-262.524 1094.33,-262.524 1098.17,-262.524 1102,-266.358 1102,-270.191 1102,-270.191 1102,-277.858 1102,-277.858 1102,-281.691 1098.17,-285.524 1094.33,-285.524"/>
<text text-anchor="middle" x="1020" y="-270.324" font-family="Arial" font-size="14.00" fill="#cfffac">lib/helpers/formatters.js</text>
</g>
<!-- lib/consumer/JobConsumer.js&#45;&gt;lib/helpers/formatters.js -->
<g id="edge41" class="edge"><title>lib/consumer/JobConsumer.js&#45;&gt;lib/helpers/formatters.js</title>
<path fill="none" stroke="#757575" d="M729.817,-324.519C772.162,-315.646 832.713,-303.354 886,-294.024 899.511,-291.659 913.824,-289.326 927.86,-287.135"/>
<polygon fill="#757575" stroke="#757575" points="928.667,-290.552 938.016,-285.567 927.599,-283.634 928.667,-290.552"/>
</g>
<!-- lib/helpers/api&#45;server&#45;client.js&#45;&gt;lib/consts/index.js -->
<g id="edge46" class="edge"><title>lib/helpers/api&#45;server&#45;client.js&#45;&gt;lib/consts/index.js</title>
<path fill="none" stroke="#757575" d="M687.902,-754.718C717.951,-783.315 800.593,-856.319 886,-882.024 1133.31,-956.458 1249.81,-1010.78 1467,-871.024 1577.12,-800.167 1614.74,-629.733 1624.85,-569.53"/>
<polygon fill="#757575" stroke="#757575" points="1628.31,-570.046 1626.42,-559.62 1621.4,-568.946 1628.31,-570.046"/>
</g>
<!-- lib/helpers/kubernetes.js&#45;&gt;lib/consts/index.js -->
<g id="edge47" class="edge"><title>lib/helpers/kubernetes.js&#45;&gt;lib/consts/index.js</title>
<path fill="none" stroke="#757575" d="M711.569,-62.4961C831.649,-25.953 1227.87,74.9834 1467,-99.0245 1611.58,-204.228 1626.8,-451.37 1628.03,-526.185"/>
<polygon fill="#757575" stroke="#757575" points="1624.53,-526.335 1628.12,-536.302 1631.53,-526.27 1624.53,-526.335"/>
</g>
<!-- lib/states/discovery.js&#45;&gt;lib/consts/index.js -->
<g id="edge48" class="edge"><title>lib/states/discovery.js&#45;&gt;lib/consts/index.js</title>
<path fill="none" stroke="#757575" d="M1095.83,-148.214C1207,-142.569 1408.94,-138.549 1467,-179.024 1588.41,-263.665 1619.12,-460.745 1626.11,-526.348"/>
<polygon fill="#757575" stroke="#757575" points="1622.64,-526.758 1627.1,-536.366 1629.6,-526.071 1622.64,-526.758"/>
</g>
<!-- lib/states/stateManager.js&#45;&gt;lib/consts/index.js -->
<g id="edge49" class="edge"><title>lib/states/stateManager.js&#45;&gt;lib/consts/index.js</title>
<path fill="none" stroke="#757575" d="M1365.8,-464.578C1420,-481.827 1522.05,-514.305 1581.59,-533.255"/>
<polygon fill="#757575" stroke="#757575" points="1580.89,-536.705 1591.48,-536.403 1583.02,-530.035 1580.89,-536.705"/>
</g>
<!-- lib/subpipeline/subpipeline.js&#45;&gt;lib/algorithm&#45;communication/workerCommunication.js -->
<g id="edge51" class="edge"><title>lib/subpipeline/subpipeline.js&#45;&gt;lib/algorithm&#45;communication/workerCommunication.js</title>
<path fill="none" stroke="#757575" d="M356.476,-541.752C383.404,-563.138 443.593,-608.943 500,-638.024 540.271,-658.787 588.864,-676.067 624.451,-687.416"/>
<polygon fill="#757575" stroke="#757575" points="623.536,-690.798 634.126,-690.458 625.636,-684.12 623.536,-690.798"/>
</g>
<!-- lib/subpipeline/subpipeline.js&#45;&gt;lib/consts/index.js -->
<g id="edge52" class="edge"><title>lib/subpipeline/subpipeline.js&#45;&gt;lib/consts/index.js</title>
<path fill="none" stroke="#757575" d="M440.186,-532.707C459.988,-533.192 480.659,-533.66 500,-534.024 897.855,-541.529 1374.72,-545.94 1554.57,-547.441"/>
<polygon fill="#757575" stroke="#757575" points="1554.67,-550.942 1564.7,-547.525 1554.73,-543.942 1554.67,-550.942"/>
</g>
<!-- lib/subpipeline/subpipeline.js&#45;&gt;lib/consumer/JobConsumer.js -->
<g id="edge53" class="edge"><title>lib/subpipeline/subpipeline.js&#45;&gt;lib/consumer/JobConsumer.js</title>
<path fill="none" stroke="#757575" d="M361.774,-518.47C418.037,-485.593 579.199,-391.421 645.243,-352.828"/>
<polygon fill="#757575" stroke="#757575" points="647.042,-355.831 653.91,-347.764 643.51,-349.787 647.042,-355.831"/>
</g>
<!-- lib/subpipeline/subpipeline.js&#45;&gt;lib/helpers/api&#45;server&#45;client.js -->
<g id="edge54" class="edge"><title>lib/subpipeline/subpipeline.js&#45;&gt;lib/helpers/api&#45;server&#45;client.js</title>
<path fill="none" stroke="#757575" d="M349.909,-541.772C375.91,-580.017 459.395,-699.78 500,-722.024 519.643,-732.785 542.375,-739.094 564.796,-742.621"/>
<polygon fill="#757575" stroke="#757575" points="564.329,-746.09 574.718,-744.01 565.299,-739.158 564.329,-746.09"/>
</g>
<!-- lib/subpipeline/subpipeline.js&#45;&gt;lib/states/discovery.js -->
<g id="edge55" class="edge"><title>lib/subpipeline/subpipeline.js&#45;&gt;lib/states/discovery.js</title>
<path fill="none" stroke="#757575" d="M355.248,-518.227C379.406,-496.168 431.149,-446.342 464,-396.024 485.537,-363.037 469.991,-340.548 500,-315.024 622.518,-210.818 714.68,-309.962 850,-223.024 871.258,-209.367 864.316,-191.995 886,-179.024 900.6,-170.292 917.563,-164.418 934.389,-160.484"/>
<polygon fill="#757575" stroke="#757575" points="935.208,-163.889 944.262,-158.386 933.753,-157.042 935.208,-163.889"/>
</g>
<!-- lib/subpipeline/subpipeline.js&#45;&gt;lib/states/stateManager.js -->
<g id="edge56" class="edge"><title>lib/subpipeline/subpipeline.js&#45;&gt;lib/states/stateManager.js</title>
<path fill="none" stroke="#757575" d="M440.175,-528.936C593.217,-526.288 897.708,-517.2 1154,-486.024 1191.65,-481.445 1233.43,-473.585 1266.55,-466.686"/>
<polygon fill="#757575" stroke="#757575" points="1267.47,-470.068 1276.54,-464.58 1266.03,-463.218 1267.47,-470.068"/>
</g>
<!-- lib/subpipeline/subpipeline.js&#45;&gt;lib/algorithm&#45;communication/messages.js -->
<g id="edge50" class="edge"><title>lib/subpipeline/subpipeline.js&#45;&gt;lib/algorithm&#45;communication/messages.js</title>
<path fill="none" stroke="#757575" d="M440.061,-540.353C448.219,-541.977 456.289,-543.854 464,-546.024 480.854,-550.767 483.122,-557.367 500,-562.024 732.052,-626.058 1011.94,-649.097 1179.51,-657.381"/>
<polygon fill="#757575" stroke="#757575" points="1179.48,-660.884 1189.64,-657.871 1179.82,-653.892 1179.48,-660.884"/>
</g>
<!-- lib/worker.js&#45;&gt;lib/algorithm&#45;communication/workerCommunication.js -->
<g id="edge58" class="edge"><title>lib/worker.js&#45;&gt;lib/algorithm&#45;communication/workerCommunication.js</title>
<path fill="none" stroke="#757575" d="M353.816,-387.627C403.221,-436.14 593.519,-622.998 654.84,-683.21"/>
<polygon fill="#757575" stroke="#757575" points="652.391,-685.711 661.979,-690.22 657.296,-680.717 652.391,-685.711"/>
</g>
<!-- lib/worker.js&#45;&gt;lib/consts/index.js -->
<g id="edge59" class="edge"><title>lib/worker.js&#45;&gt;lib/consts/index.js</title>
<path fill="none" stroke="#757575" d="M347.111,-364.307C363.38,-328.596 417.773,-220.779 500,-175.024 593.946,-122.749 1378.97,-79.3093 1467,-141.024 1599.91,-234.199 1623.11,-455.251 1627.15,-525.905"/>
<polygon fill="#757575" stroke="#757575" points="1623.67,-526.443 1627.66,-536.258 1630.66,-526.097 1623.67,-526.443"/>
</g>
<!-- lib/worker.js&#45;&gt;lib/consumer/JobConsumer.js -->
<g id="edge60" class="edge"><title>lib/worker.js&#45;&gt;lib/consumer/JobConsumer.js</title>
<path fill="none" stroke="#757575" d="M386.087,-370.713C432.286,-365.147 506.563,-356.198 568.101,-348.783"/>
<polygon fill="#757575" stroke="#757575" points="568.743,-352.231 578.253,-347.56 567.906,-345.282 568.743,-352.231"/>
</g>
<!-- lib/worker.js&#45;&gt;lib/helpers/kubernetes.js -->
<g id="edge61" class="edge"><title>lib/worker.js&#45;&gt;lib/helpers/kubernetes.js</title>
<path fill="none" stroke="#757575" d="M344.766,-364.375C355.72,-321.032 400.404,-168.103 500,-100.024 523.131,-84.213 552.028,-76.3947 579.587,-72.8713"/>
<polygon fill="#757575" stroke="#757575" points="580.111,-76.3349 589.667,-71.7606 579.344,-69.377 580.111,-76.3349"/>
</g>
<!-- lib/worker.js&#45;&gt;lib/states/discovery.js -->
<g id="edge62" class="edge"><title>lib/worker.js&#45;&gt;lib/states/discovery.js</title>
<path fill="none" stroke="#757575" d="M351.264,-364.472C373.624,-337.481 433.624,-270.214 500,-239.024 538.608,-220.883 797.277,-183.418 934.25,-164.495"/>
<polygon fill="#757575" stroke="#757575" points="934.871,-167.943 944.299,-163.11 933.915,-161.008 934.871,-167.943"/>
</g>
<!-- lib/worker.js&#45;&gt;lib/states/stateManager.js -->
<g id="edge63" class="edge"><title>lib/worker.js&#45;&gt;lib/states/stateManager.js</title>
<path fill="none" stroke="#757575" d="M386.259,-379.483C535.317,-391.129 1021.35,-429.104 1230.43,-445.44"/>
<polygon fill="#757575" stroke="#757575" points="1230.24,-448.936 1240.48,-446.225 1230.78,-441.957 1230.24,-448.936"/>
</g>
<!-- lib/worker.js&#45;&gt;lib/algorithm&#45;communication/messages.js -->
<g id="edge57" class="edge"><title>lib/worker.js&#45;&gt;lib/algorithm&#45;communication/messages.js</title>
<path fill="none" stroke="#757575" d="M381.853,-387.59C537.732,-432.828 1105.99,-597.74 1277.9,-647.629"/>
<polygon fill="#757575" stroke="#757575" points="1277.11,-651.046 1287.69,-650.472 1279.06,-644.323 1277.11,-651.046"/>
</g>
<!-- lib/algorithm&#45;communication/loopback.js&#45;&gt;lib/algorithm&#45;communication/messages.js -->
<g id="edge12" class="edge"><title>lib/algorithm&#45;communication/loopback.js&#45;&gt;lib/algorithm&#45;communication/messages.js</title>
<path fill="none" stroke="#757575" d="M1108.37,-731.486C1123.67,-728.824 1139.37,-725.678 1154,-722.024 1201.56,-710.144 1254.61,-690.879 1289.37,-677.393"/>
<polygon fill="#757575" stroke="#757575" points="1291.08,-680.485 1299.11,-673.581 1288.52,-673.967 1291.08,-680.485"/>
</g>
<!-- lib/algorithm&#45;communication/loopback.js&#45;&gt;lib/algorithm&#45;communication/schema.js -->
<g id="edge13" class="edge"><title>lib/algorithm&#45;communication/loopback.js&#45;&gt;lib/algorithm&#45;communication/schema.js</title>
<path fill="none" stroke="#757575" d="M1065.9,-754.596C1120.75,-768.736 1213.53,-792.65 1272.59,-807.871"/>
<polygon fill="#757575" stroke="#757575" points="1271.93,-811.315 1282.48,-810.422 1273.67,-804.536 1271.93,-811.315"/>
</g>
<!-- lib/algorithm&#45;communication/schema.js&#45;&gt;lib/algorithm&#45;communication/consts.js -->
<g id="edge14" class="edge"><title>lib/algorithm&#45;communication/schema.js&#45;&gt;lib/algorithm&#45;communication/consts.js</title>
<path fill="none" stroke="#757575" d="M1359.49,-833.578C1413.69,-854.458 1527.93,-898.47 1588.44,-921.785"/>
<polygon fill="#757575" stroke="#757575" points="1587.44,-925.15 1598.03,-925.479 1589.96,-918.618 1587.44,-925.15"/>
</g>
<!-- lib/algorithm&#45;communication/socket&#45;io.js&#45;&gt;lib/consts/index.js -->
<g id="edge17" class="edge"><title>lib/algorithm&#45;communication/socket&#45;io.js&#45;&gt;lib/consts/index.js</title>
<path fill="none" stroke="#757575" d="M1102.71,-713.532C1194.65,-723.087 1346.84,-728.558 1467,-682.024 1529.62,-657.776 1585.66,-598.799 1612.04,-567.803"/>
<polygon fill="#757575" stroke="#757575" points="1614.95,-569.775 1618.68,-559.855 1609.58,-565.289 1614.95,-569.775"/>
</g>
<!-- lib/algorithm&#45;communication/socket&#45;io.js&#45;&gt;lib/algorithm&#45;communication/messages.js -->
<g id="edge15" class="edge"><title>lib/algorithm&#45;communication/socket&#45;io.js&#45;&gt;lib/algorithm&#45;communication/messages.js</title>
<path fill="none" stroke="#757575" d="M1109.24,-690.508C1146.74,-685.614 1190.62,-679.888 1229.16,-674.859"/>
<polygon fill="#757575" stroke="#757575" points="1229.89,-678.293 1239.35,-673.528 1228.98,-671.352 1229.89,-678.293"/>
</g>
<!-- lib/algorithm&#45;communication/socket&#45;io.js&#45;&gt;lib/algorithm&#45;communication/schema.js -->
<g id="edge16" class="edge"><title>lib/algorithm&#45;communication/socket&#45;io.js&#45;&gt;lib/algorithm&#45;communication/schema.js</title>
<path fill="none" stroke="#757575" d="M1123.96,-713.565C1134.24,-715.886 1144.41,-718.675 1154,-722.024 1211.3,-742.041 1271.14,-781.265 1303.4,-804.189"/>
<polygon fill="#757575" stroke="#757575" points="1301.59,-807.193 1311.75,-810.193 1305.68,-801.511 1301.59,-807.193"/>
</g>
<!-- lib/algorithm&#45;communication/ws.js&#45;&gt;lib/consts/index.js -->
<g id="edge26" class="edge"><title>lib/algorithm&#45;communication/ws.js&#45;&gt;lib/consts/index.js</title>
<path fill="none" stroke="#757575" d="M1133.57,-868.817C1247.21,-874.532 1413.35,-876.346 1467,-843.024 1569.46,-779.389 1611.43,-626.17 1623.79,-569.537"/>
<polygon fill="#757575" stroke="#757575" points="1627.26,-570.058 1625.88,-559.554 1620.4,-568.626 1627.26,-570.058"/>
</g>
<!-- lib/algorithm&#45;communication/ws.js&#45;&gt;lib/algorithm&#45;communication/schema.js -->
<g id="edge25" class="edge"><title>lib/algorithm&#45;communication/ws.js&#45;&gt;lib/algorithm&#45;communication/schema.js</title>
<path fill="none" stroke="#757575" d="M1111.72,-849.481C1147.86,-844.883 1189.6,-839.571 1226.69,-834.852"/>
<polygon fill="#757575" stroke="#757575" points="1227.54,-838.272 1237.02,-833.538 1226.65,-831.328 1227.54,-838.272"/>
</g>
<!-- lib/consumer/job&#45;provider.js&#45;&gt;lib/consts/index.js -->
<g id="edge44" class="edge"><title>lib/consumer/job&#45;provider.js&#45;&gt;lib/consts/index.js</title>
<path fill="none" stroke="#757575" d="M1115.79,-242.857C1128.81,-245.483 1141.87,-248.81 1154,-253.024 1346.77,-319.998 1543.08,-476.351 1606.71,-529.762"/>
<polygon fill="#757575" stroke="#757575" points="1604.57,-532.535 1614.47,-536.316 1609.09,-527.188 1604.57,-532.535"/>
</g>
<!-- lib/consumer/job&#45;provider.js&#45;&gt;lib/states/stateManager.js -->
<g id="edge45" class="edge"><title>lib/consumer/job&#45;provider.js&#45;&gt;lib/states/stateManager.js</title>
<path fill="none" stroke="#757575" d="M1115.66,-235.095C1129.49,-238.72 1142.82,-244.39 1154,-253.024 1186.15,-277.85 1165.83,-304.384 1190,-337.024 1220.96,-378.828 1269.84,-415.339 1300.21,-435.748"/>
<polygon fill="#757575" stroke="#757575" points="1298.36,-438.718 1308.63,-441.311 1302.22,-432.878 1298.36,-438.718"/>
</g>
</g>
</svg>

