<?xml version="1.0" encoding="UTF-8" standalone="no"?>
<!DOCTYPE svg PUBLIC "-//W3C//DTD SVG 1.1//EN"
 "http://www.w3.org/Graphics/SVG/1.1/DTD/svg11.dtd">
<!-- Generated by graphviz version 2.38.0 (20140413.2041)
 -->
<!-- Title: G Pages: 1 -->
<svg width="1439pt" height="819pt"
 viewBox="0.00 0.00 1439.20 819.39" xmlns="http://www.w3.org/2000/svg" xmlns:xlink="http://www.w3.org/1999/xlink">
<g id="graph0" class="graph" transform="scale(1 1) rotate(0) translate(21.6 797.787)">
<title>G</title>
<polygon fill="#111111" stroke="none" points="-21.6,21.6 -21.6,-797.787 1417.6,-797.787 1417.6,21.6 -21.6,21.6"/>
<!-- app.js -->
<g id="node1" class="node"><title>app.js</title>
<path fill="none" stroke="#c6c5fe" d="M47.3333,-563C47.3333,-563 7.66667,-563 7.66667,-563 3.83333,-563 0,-559.167 0,-555.333 0,-555.333 0,-547.667 0,-547.667 0,-543.833 3.83333,-540 7.66667,-540 7.66667,-540 47.3333,-540 47.3333,-540 51.1667,-540 55,-543.833 55,-547.667 55,-547.667 55,-555.333 55,-555.333 55,-559.167 51.1667,-563 47.3333,-563"/>
<text text-anchor="middle" x="27.5" y="-547.8" font-family="Arial" font-size="14.00" fill="#c6c5fe">app.js</text>
</g>
<!-- bootstrap.js -->
<g id="node2" class="node"><title>bootstrap.js</title>
<path fill="none" stroke="#c6c5fe" d="M174.333,-563C174.333,-563 98.6667,-563 98.6667,-563 94.8333,-563 91,-559.167 91,-555.333 91,-555.333 91,-547.667 91,-547.667 91,-543.833 94.8333,-540 98.6667,-540 98.6667,-540 174.333,-540 174.333,-540 178.167,-540 182,-543.833 182,-547.667 182,-547.667 182,-555.333 182,-555.333 182,-559.167 178.167,-563 174.333,-563"/>
<text text-anchor="middle" x="136.5" y="-547.8" font-family="Arial" font-size="14.00" fill="#c6c5fe">bootstrap.js</text>
</g>
<!-- app.js&#45;&gt;bootstrap.js -->
<g id="edge1" class="edge"><title>app.js&#45;&gt;bootstrap.js</title>
<path fill="none" stroke="#757575" d="M55.2246,-551.5C63.0501,-551.5 71.9053,-551.5 80.8047,-551.5"/>
<polygon fill="#757575" stroke="#757575" points="80.8186,-555 90.8186,-551.5 80.8185,-548 80.8186,-555"/>
</g>
<!-- lib/consts/componentNames.js -->
<g id="node3" class="node"><title>lib/consts/componentNames.js</title>
<path fill="none" stroke="#cfffac" d="M1388.33,-703C1388.33,-703 1192.67,-703 1192.67,-703 1188.83,-703 1185,-699.167 1185,-695.333 1185,-695.333 1185,-687.667 1185,-687.667 1185,-683.833 1188.83,-680 1192.67,-680 1192.67,-680 1388.33,-680 1388.33,-680 1392.17,-680 1396,-683.833 1396,-687.667 1396,-687.667 1396,-695.333 1396,-695.333 1396,-699.167 1392.17,-703 1388.33,-703"/>
<text text-anchor="middle" x="1290.5" y="-687.8" font-family="Arial" font-size="14.00" fill="#cfffac">lib/consts/componentNames.js</text>
</g>
<!-- bootstrap.js&#45;&gt;lib/consts/componentNames.js -->
<g id="edge2" class="edge"><title>bootstrap.js&#45;&gt;lib/consts/componentNames.js</title>
<path fill="none" stroke="#757575" d="M145.942,-563.132C159.418,-580.999 187.409,-615.344 218,-636.5 345.461,-724.652 384.525,-771.5 539.5,-771.5 539.5,-771.5 539.5,-771.5 760.5,-771.5 933.395,-771.5 980.56,-790.498 1149,-751.5 1188.99,-742.242 1231.97,-722.251 1259.72,-707.887"/>
<polygon fill="#757575" stroke="#757575" points="1261.65,-710.825 1268.87,-703.068 1258.39,-704.632 1261.65,-710.825"/>
</g>
<!-- lib/consumer/jobs&#45;consumer.js -->
<g id="node4" class="node"><title>lib/consumer/jobs&#45;consumer.js</title>
<path fill="none" stroke="#c6c5fe" d="M419.333,-563C419.333,-563 225.667,-563 225.667,-563 221.833,-563 218,-559.167 218,-555.333 218,-555.333 218,-547.667 218,-547.667 218,-543.833 221.833,-540 225.667,-540 225.667,-540 419.333,-540 419.333,-540 423.167,-540 427,-543.833 427,-547.667 427,-547.667 427,-555.333 427,-555.333 427,-559.167 423.167,-563 419.333,-563"/>
<text text-anchor="middle" x="322.5" y="-547.8" font-family="Arial" font-size="14.00" fill="#c6c5fe">lib/consumer/jobs&#45;consumer.js</text>
</g>
<!-- bootstrap.js&#45;&gt;lib/consumer/jobs&#45;consumer.js -->
<g id="edge3" class="edge"><title>bootstrap.js&#45;&gt;lib/consumer/jobs&#45;consumer.js</title>
<path fill="none" stroke="#757575" d="M182.041,-551.5C190.001,-551.5 198.613,-551.5 207.517,-551.5"/>
<polygon fill="#757575" stroke="#757575" points="207.674,-555 217.674,-551.5 207.674,-548 207.674,-555"/>
</g>
<!-- lib/datastore/redis&#45;storage&#45;adapter.js -->
<g id="node5" class="node"><title>lib/datastore/redis&#45;storage&#45;adapter.js</title>
<path fill="none" stroke="#c6c5fe" d="M1141.33,-743C1141.33,-743 908.667,-743 908.667,-743 904.833,-743 901,-739.167 901,-735.333 901,-735.333 901,-727.667 901,-727.667 901,-723.833 904.833,-720 908.667,-720 908.667,-720 1141.33,-720 1141.33,-720 1145.17,-720 1149,-723.833 1149,-727.667 1149,-727.667 1149,-735.333 1149,-735.333 1149,-739.167 1145.17,-743 1141.33,-743"/>
<text text-anchor="middle" x="1025" y="-727.8" font-family="Arial" font-size="14.00" fill="#c6c5fe">lib/datastore/redis&#45;storage&#45;adapter.js</text>
</g>
<!-- bootstrap.js&#45;&gt;lib/datastore/redis&#45;storage&#45;adapter.js -->
<g id="edge4" class="edge"><title>bootstrap.js&#45;&gt;lib/datastore/redis&#45;storage&#45;adapter.js</title>
<path fill="none" stroke="#757575" d="M158.878,-563.004C174.825,-571.235 197.333,-582.119 218,-589.5 406.106,-656.677 457.036,-665.305 654,-698.5 731.888,-711.627 819.938,-719.747 890.599,-724.646"/>
<polygon fill="#757575" stroke="#757575" points="890.681,-728.159 900.895,-725.345 891.155,-721.175 890.681,-728.159"/>
</g>
<!-- lib/datastore/storage&#45;factory.js -->
<g id="node6" class="node"><title>lib/datastore/storage&#45;factory.js</title>
<path fill="none" stroke="#cfffac" d="M1120.33,-406C1120.33,-406 929.667,-406 929.667,-406 925.833,-406 922,-402.167 922,-398.333 922,-398.333 922,-390.667 922,-390.667 922,-386.833 925.833,-383 929.667,-383 929.667,-383 1120.33,-383 1120.33,-383 1124.17,-383 1128,-386.833 1128,-390.667 1128,-390.667 1128,-398.333 1128,-398.333 1128,-402.167 1124.17,-406 1120.33,-406"/>
<text text-anchor="middle" x="1025" y="-390.8" font-family="Arial" font-size="14.00" fill="#cfffac">lib/datastore/storage&#45;factory.js</text>
</g>
<!-- bootstrap.js&#45;&gt;lib/datastore/storage&#45;factory.js -->
<g id="edge5" class="edge"><title>bootstrap.js&#45;&gt;lib/datastore/storage&#45;factory.js</title>
<path fill="none" stroke="#757575" d="M178.25,-539.945C190.919,-536.603 204.978,-533.146 218,-530.5 502.817,-472.621 580.101,-492.978 865,-435.5 901.94,-428.047 943.127,-417.359 974.325,-408.764"/>
<polygon fill="#757575" stroke="#757575" points="975.386,-412.102 984.085,-406.053 973.513,-405.357 975.386,-412.102"/>
</g>
<!-- lib/metrics/pipeline&#45;metrics.js -->
<g id="node7" class="node"><title>lib/metrics/pipeline&#45;metrics.js</title>
<path fill="none" stroke="#c6c5fe" d="M851.833,-64C851.833,-64 667.167,-64 667.167,-64 663.333,-64 659.5,-60.1667 659.5,-56.3333 659.5,-56.3333 659.5,-48.6667 659.5,-48.6667 659.5,-44.8333 663.333,-41 667.167,-41 667.167,-41 851.833,-41 851.833,-41 855.667,-41 859.5,-44.8333 859.5,-48.6667 859.5,-48.6667 859.5,-56.3333 859.5,-56.3333 859.5,-60.1667 855.667,-64 851.833,-64"/>
<text text-anchor="middle" x="759.5" y="-48.8" font-family="Arial" font-size="14.00" fill="#c6c5fe">lib/metrics/pipeline&#45;metrics.js</text>
</g>
<!-- bootstrap.js&#45;&gt;lib/metrics/pipeline&#45;metrics.js -->
<g id="edge6" class="edge"><title>bootstrap.js&#45;&gt;lib/metrics/pipeline&#45;metrics.js</title>
<path fill="none" stroke="#757575" d="M137.487,-539.881C138.035,-497.149 145.276,-346.528 218,-256.5 324.16,-125.081 524.612,-78.2851 649.316,-61.6477"/>
<polygon fill="#757575" stroke="#757575" points="649.808,-65.1133 659.278,-60.3613 648.912,-58.171 649.808,-65.1133"/>
</g>
<!-- lib/producer/jobs&#45;producer.js -->
<g id="node8" class="node"><title>lib/producer/jobs&#45;producer.js</title>
<path fill="none" stroke="#c6c5fe" d="M850.333,-105C850.333,-105 668.667,-105 668.667,-105 664.833,-105 661,-101.167 661,-97.3333 661,-97.3333 661,-89.6667 661,-89.6667 661,-85.8333 664.833,-82 668.667,-82 668.667,-82 850.333,-82 850.333,-82 854.167,-82 858,-85.8333 858,-89.6667 858,-89.6667 858,-97.3333 858,-97.3333 858,-101.167 854.167,-105 850.333,-105"/>
<text text-anchor="middle" x="759.5" y="-89.8" font-family="Arial" font-size="14.00" fill="#c6c5fe">lib/producer/jobs&#45;producer.js</text>
</g>
<!-- bootstrap.js&#45;&gt;lib/producer/jobs&#45;producer.js -->
<g id="edge7" class="edge"><title>bootstrap.js&#45;&gt;lib/producer/jobs&#45;producer.js</title>
<path fill="none" stroke="#757575" d="M146.806,-539.663C193.622,-481.062 410.772,-220.406 654,-109.5 654.561,-109.244 655.125,-108.992 655.693,-108.744"/>
<polygon fill="#757575" stroke="#757575" points="657.085,-111.958 665.125,-105.059 654.537,-105.438 657.085,-111.958"/>
</g>
<!-- lib/state/state&#45;factory.js -->
<g id="node9" class="node"><title>lib/state/state&#45;factory.js</title>
<path fill="none" stroke="#c6c5fe" d="M1097.83,-545C1097.83,-545 952.167,-545 952.167,-545 948.333,-545 944.5,-541.167 944.5,-537.333 944.5,-537.333 944.5,-529.667 944.5,-529.667 944.5,-525.833 948.333,-522 952.167,-522 952.167,-522 1097.83,-522 1097.83,-522 1101.67,-522 1105.5,-525.833 1105.5,-529.667 1105.5,-529.667 1105.5,-537.333 1105.5,-537.333 1105.5,-541.167 1101.67,-545 1097.83,-545"/>
<text text-anchor="middle" x="1025" y="-529.8" font-family="Arial" font-size="14.00" fill="#c6c5fe">lib/state/state&#45;factory.js</text>
</g>
<!-- bootstrap.js&#45;&gt;lib/state/state&#45;factory.js -->
<g id="edge8" class="edge"><title>bootstrap.js&#45;&gt;lib/state/state&#45;factory.js</title>
<path fill="none" stroke="#757575" d="M176.04,-563.098C189.22,-566.521 204.135,-569.803 218,-571.5 330.228,-585.233 784.857,-577.377 865,-562.5 881.726,-559.395 884.468,-553.51 901,-549.5 911.764,-546.889 923.167,-544.682 934.519,-542.821"/>
<polygon fill="#757575" stroke="#757575" points="935.121,-546.269 944.464,-541.273 934.045,-539.353 935.121,-546.269"/>
</g>
<!-- lib/consumer/jobs&#45;consumer.js&#45;&gt;lib/consts/componentNames.js -->
<g id="edge9" class="edge"><title>lib/consumer/jobs&#45;consumer.js&#45;&gt;lib/consts/componentNames.js</title>
<path fill="none" stroke="#757575" d="M347.214,-563.097C400.497,-588.478 534.407,-648.516 654,-671.5 833.422,-705.983 1046.49,-704.236 1174.69,-698.694"/>
<polygon fill="#757575" stroke="#757575" points="1175.09,-702.18 1184.92,-698.236 1174.77,-695.187 1175.09,-702.18"/>
</g>
<!-- lib/consumer/jobs&#45;consumer.js&#45;&gt;lib/state/state&#45;factory.js -->
<g id="edge11" class="edge"><title>lib/consumer/jobs&#45;consumer.js&#45;&gt;lib/state/state&#45;factory.js</title>
<path fill="none" stroke="#757575" d="M427.111,-552.327C536.138,-552.735 712.718,-552.083 865,-545.5 887.425,-544.531 911.595,-542.971 934.155,-541.293"/>
<polygon fill="#757575" stroke="#757575" points="934.689,-544.763 944.395,-540.516 934.158,-537.783 934.689,-544.763"/>
</g>
<!-- lib/state/DriverStates.js -->
<g id="node13" class="node"><title>lib/state/DriverStates.js</title>
<path fill="none" stroke="#cfffac" d="M1363.33,-505C1363.33,-505 1217.67,-505 1217.67,-505 1213.83,-505 1210,-501.167 1210,-497.333 1210,-497.333 1210,-489.667 1210,-489.667 1210,-485.833 1213.83,-482 1217.67,-482 1217.67,-482 1363.33,-482 1363.33,-482 1367.17,-482 1371,-485.833 1371,-489.667 1371,-489.667 1371,-497.333 1371,-497.333 1371,-501.167 1367.17,-505 1363.33,-505"/>
<text text-anchor="middle" x="1290.5" y="-489.8" font-family="Arial" font-size="14.00" fill="#cfffac">lib/state/DriverStates.js</text>
</g>
<!-- lib/consumer/jobs&#45;consumer.js&#45;&gt;lib/state/DriverStates.js -->
<g id="edge10" class="edge"><title>lib/consumer/jobs&#45;consumer.js&#45;&gt;lib/state/DriverStates.js</title>
<path fill="none" stroke="#757575" d="M427.003,-543.929C542.543,-535.613 735.098,-522.158 901,-512.5 1003.26,-506.547 1120.74,-500.978 1199.49,-497.428"/>
<polygon fill="#757575" stroke="#757575" points="1200.03,-500.907 1209.86,-496.962 1199.72,-493.914 1200.03,-500.907"/>
</g>
<!-- lib/tasks/task&#45;runner.js -->
<g id="node14" class="node"><title>lib/tasks/task&#45;runner.js</title>
<path fill="none" stroke="#c6c5fe" d="M610.333,-306C610.333,-306 470.667,-306 470.667,-306 466.833,-306 463,-302.167 463,-298.333 463,-298.333 463,-290.667 463,-290.667 463,-286.833 466.833,-283 470.667,-283 470.667,-283 610.333,-283 610.333,-283 614.167,-283 618,-286.833 618,-290.667 618,-290.667 618,-298.333 618,-298.333 618,-302.167 614.167,-306 610.333,-306"/>
<text text-anchor="middle" x="540.5" y="-290.8" font-family="Arial" font-size="14.00" fill="#c6c5fe">lib/tasks/task&#45;runner.js</text>
</g>
<!-- lib/consumer/jobs&#45;consumer.js&#45;&gt;lib/tasks/task&#45;runner.js -->
<g id="edge12" class="edge"><title>lib/consumer/jobs&#45;consumer.js&#45;&gt;lib/tasks/task&#45;runner.js</title>
<path fill="none" stroke="#757575" d="M333.342,-539.789C367.358,-499.317 480.202,-365.054 522.919,-314.228"/>
<polygon fill="#757575" stroke="#757575" points="525.845,-316.187 529.6,-306.279 520.486,-311.683 525.845,-316.187"/>
</g>
<!-- lib/datastore/redis&#45;storage&#45;adapter.js&#45;&gt;lib/consts/componentNames.js -->
<g id="edge17" class="edge"><title>lib/datastore/redis&#45;storage&#45;adapter.js&#45;&gt;lib/consts/componentNames.js</title>
<path fill="none" stroke="#757575" d="M1101.86,-719.984C1133.69,-715.152 1170.86,-709.51 1203.68,-704.527"/>
<polygon fill="#757575" stroke="#757575" points="1204.36,-707.965 1213.72,-703.004 1203.31,-701.045 1204.36,-707.965"/>
</g>
<!-- lib/consts/metricsNames.js -->
<g id="node12" class="node"><title>lib/consts/metricsNames.js</title>
<path fill="none" stroke="#cfffac" d="M1110.33,-23C1110.33,-23 939.667,-23 939.667,-23 935.833,-23 932,-19.1667 932,-15.3333 932,-15.3333 932,-7.66667 932,-7.66667 932,-3.83333 935.833,-0 939.667,-0 939.667,-0 1110.33,-0 1110.33,-0 1114.17,-0 1118,-3.83333 1118,-7.66667 1118,-7.66667 1118,-15.3333 1118,-15.3333 1118,-19.1667 1114.17,-23 1110.33,-23"/>
<text text-anchor="middle" x="1025" y="-7.8" font-family="Arial" font-size="14.00" fill="#cfffac">lib/consts/metricsNames.js</text>
</g>
<!-- lib/metrics/pipeline&#45;metrics.js&#45;&gt;lib/consts/metricsNames.js -->
<g id="edge18" class="edge"><title>lib/metrics/pipeline&#45;metrics.js&#45;&gt;lib/consts/metricsNames.js</title>
<path fill="none" stroke="#757575" d="M834.601,-40.9701C867.436,-35.8611 906.221,-29.8261 940.116,-24.5522"/>
<polygon fill="#757575" stroke="#757575" points="940.656,-28.0103 949.999,-23.0143 939.58,-21.0935 940.656,-28.0103"/>
</g>
<!-- lib/consts/Events.js -->
<g id="node10" class="node"><title>lib/consts/Events.js</title>
<path fill="none" stroke="#cfffac" d="M1086.33,-64C1086.33,-64 963.667,-64 963.667,-64 959.833,-64 956,-60.1667 956,-56.3333 956,-56.3333 956,-48.6667 956,-48.6667 956,-44.8333 959.833,-41 963.667,-41 963.667,-41 1086.33,-41 1086.33,-41 1090.17,-41 1094,-44.8333 1094,-48.6667 1094,-48.6667 1094,-56.3333 1094,-56.3333 1094,-60.1667 1090.17,-64 1086.33,-64"/>
<text text-anchor="middle" x="1025" y="-48.8" font-family="Arial" font-size="14.00" fill="#cfffac">lib/consts/Events.js</text>
</g>
<!-- lib/producer/jobs&#45;producer.js&#45;&gt;lib/consts/Events.js -->
<g id="edge28" class="edge"><title>lib/producer/jobs&#45;producer.js&#45;&gt;lib/consts/Events.js</title>
<path fill="none" stroke="#757575" d="M834.601,-81.9701C869.237,-76.5808 910.494,-70.1612 945.647,-64.6915"/>
<polygon fill="#757575" stroke="#757575" points="946.524,-68.0974 955.866,-63.1014 945.447,-61.1806 946.524,-68.0974"/>
</g>
<!-- lib/state/state&#45;factory.js&#45;&gt;lib/state/DriverStates.js -->
<g id="edge29" class="edge"><title>lib/state/state&#45;factory.js&#45;&gt;lib/state/DriverStates.js</title>
<path fill="none" stroke="#757575" d="M1101.86,-521.984C1133.69,-517.152 1170.86,-511.51 1203.68,-506.527"/>
<polygon fill="#757575" stroke="#757575" points="1204.36,-509.965 1213.72,-505.004 1203.31,-503.045 1204.36,-509.965"/>
</g>
<!-- lib/consts/graph&#45;storage&#45;types.js -->
<g id="node11" class="node"><title>lib/consts/graph&#45;storage&#45;types.js</title>
<path fill="none" stroke="#cfffac" d="M1128.33,-625C1128.33,-625 921.667,-625 921.667,-625 917.833,-625 914,-621.167 914,-617.333 914,-617.333 914,-609.667 914,-609.667 914,-605.833 917.833,-602 921.667,-602 921.667,-602 1128.33,-602 1128.33,-602 1132.17,-602 1136,-605.833 1136,-609.667 1136,-609.667 1136,-617.333 1136,-617.333 1136,-621.167 1132.17,-625 1128.33,-625"/>
<text text-anchor="middle" x="1025" y="-609.8" font-family="Arial" font-size="14.00" fill="#cfffac">lib/consts/graph&#45;storage&#45;types.js</text>
</g>
<!-- lib/tasks/task&#45;runner.js&#45;&gt;lib/consts/componentNames.js -->
<g id="edge33" class="edge"><title>lib/tasks/task&#45;runner.js&#45;&gt;lib/consts/componentNames.js</title>
<path fill="none" stroke="#757575" d="M546.899,-306.025C560.493,-333.627 599.017,-403.591 654,-435.5 846.567,-547.254 956.879,-399.98 1149,-512.5 1214.4,-550.805 1260.69,-632.232 1279.78,-670.632"/>
<polygon fill="#757575" stroke="#757575" points="1276.73,-672.362 1284.24,-679.834 1283.02,-669.309 1276.73,-672.362"/>
</g>
<!-- lib/tasks/task&#45;runner.js&#45;&gt;lib/metrics/pipeline&#45;metrics.js -->
<g id="edge35" class="edge"><title>lib/tasks/task&#45;runner.js&#45;&gt;lib/metrics/pipeline&#45;metrics.js</title>
<path fill="none" stroke="#757575" d="M543.679,-282.764C551.285,-245.333 580.308,-127.992 654,-72.5 655.632,-71.2708 657.319,-70.1105 659.052,-69.0154"/>
<polygon fill="#757575" stroke="#757575" points="660.984,-71.9471 668.066,-64.0666 657.616,-65.811 660.984,-71.9471"/>
</g>
<!-- lib/tasks/task&#45;runner.js&#45;&gt;lib/producer/jobs&#45;producer.js -->
<g id="edge39" class="edge"><title>lib/tasks/task&#45;runner.js&#45;&gt;lib/producer/jobs&#45;producer.js</title>
<path fill="none" stroke="#757575" d="M559.76,-282.775C577.037,-270.808 602.559,-250.731 618,-227.5 646.008,-185.363 616.857,-153.857 654,-119.5 658.117,-115.692 662.705,-112.419 667.596,-109.608"/>
<polygon fill="#757575" stroke="#757575" points="669.33,-112.653 676.691,-105.032 666.184,-106.4 669.33,-112.653"/>
</g>
<!-- lib/tasks/task&#45;runner.js&#45;&gt;lib/consts/Events.js -->
<g id="edge32" class="edge"><title>lib/tasks/task&#45;runner.js&#45;&gt;lib/consts/Events.js</title>
<path fill="none" stroke="#757575" d="M558.498,-282.791C575.304,-270.544 600.916,-249.996 618,-227.5 640.362,-198.054 624.633,-174.965 654,-152.5 729.745,-94.5564 782.074,-160.596 865,-113.5 886.086,-101.524 879.786,-84.2474 901,-72.5 914.585,-64.9773 930.221,-60.1008 945.691,-56.978"/>
<polygon fill="#757575" stroke="#757575" points="946.582,-60.3743 955.809,-55.1689 945.35,-53.4836 946.582,-60.3743"/>
</g>
<!-- lib/tasks/task&#45;runner.js&#45;&gt;lib/state/DriverStates.js -->
<g id="edge41" class="edge"><title>lib/tasks/task&#45;runner.js&#45;&gt;lib/state/DriverStates.js</title>
<path fill="none" stroke="#757575" d="M602.702,-306.037C619.315,-308.989 637.321,-312.025 654,-314.5 873.158,-347.014 946.049,-284.627 1149,-373.5 1201.73,-396.589 1249.57,-446.267 1273.46,-473.916"/>
<polygon fill="#757575" stroke="#757575" points="1270.96,-476.369 1280.09,-481.735 1276.3,-471.844 1270.96,-476.369"/>
</g>
<!-- lib/datastore/graph&#45;store.js -->
<g id="node15" class="node"><title>lib/datastore/graph&#45;store.js</title>
<path fill="none" stroke="#c6c5fe" d="M844.333,-663C844.333,-663 674.667,-663 674.667,-663 670.833,-663 667,-659.167 667,-655.333 667,-655.333 667,-647.667 667,-647.667 667,-643.833 670.833,-640 674.667,-640 674.667,-640 844.333,-640 844.333,-640 848.167,-640 852,-643.833 852,-647.667 852,-647.667 852,-655.333 852,-655.333 852,-659.167 848.167,-663 844.333,-663"/>
<text text-anchor="middle" x="759.5" y="-647.8" font-family="Arial" font-size="14.00" fill="#c6c5fe">lib/datastore/graph&#45;store.js</text>
</g>
<!-- lib/tasks/task&#45;runner.js&#45;&gt;lib/datastore/graph&#45;store.js -->
<g id="edge34" class="edge"><title>lib/tasks/task&#45;runner.js&#45;&gt;lib/datastore/graph&#45;store.js</title>
<path fill="none" stroke="#757575" d="M548.72,-306.378C580.262,-358.27 706.172,-565.412 746.21,-631.28"/>
<polygon fill="#757575" stroke="#757575" points="743.287,-633.211 751.472,-639.938 749.269,-629.575 743.287,-633.211"/>
</g>
<!-- lib/state/NodeStates.js -->
<g id="node16" class="node"><title>lib/state/NodeStates.js</title>
<path fill="none" stroke="#cfffac" d="M1361.83,-265C1361.83,-265 1219.17,-265 1219.17,-265 1215.33,-265 1211.5,-261.167 1211.5,-257.333 1211.5,-257.333 1211.5,-249.667 1211.5,-249.667 1211.5,-245.833 1215.33,-242 1219.17,-242 1219.17,-242 1361.83,-242 1361.83,-242 1365.67,-242 1369.5,-245.833 1369.5,-249.667 1369.5,-249.667 1369.5,-257.333 1369.5,-257.333 1369.5,-261.167 1365.67,-265 1361.83,-265"/>
<text text-anchor="middle" x="1290.5" y="-249.8" font-family="Arial" font-size="14.00" fill="#cfffac">lib/state/NodeStates.js</text>
</g>
<!-- lib/tasks/task&#45;runner.js&#45;&gt;lib/state/NodeStates.js -->
<g id="edge42" class="edge"><title>lib/tasks/task&#45;runner.js&#45;&gt;lib/state/NodeStates.js</title>
<path fill="none" stroke="#757575" d="M556.456,-282.986C577.069,-267.918 615.989,-242.281 654,-232.5 744.819,-209.131 771.258,-229.898 865,-232.5 881.019,-232.945 884.997,-233.664 901,-234.5 1003.94,-239.877 1122.25,-245.597 1201,-249.339"/>
<polygon fill="#757575" stroke="#757575" points="1201.2,-252.853 1211.36,-249.831 1201.54,-245.861 1201.2,-252.853"/>
</g>
<!-- lib/nodes/node&#45;batch.js -->
<g id="node21" class="node"><title>lib/nodes/node&#45;batch.js</title>
<path fill="none" stroke="#c6c5fe" d="M833.833,-265C833.833,-265 685.167,-265 685.167,-265 681.333,-265 677.5,-261.167 677.5,-257.333 677.5,-257.333 677.5,-249.667 677.5,-249.667 677.5,-245.833 681.333,-242 685.167,-242 685.167,-242 833.833,-242 833.833,-242 837.667,-242 841.5,-245.833 841.5,-249.667 841.5,-249.667 841.5,-257.333 841.5,-257.333 841.5,-261.167 837.667,-265 833.833,-265"/>
<text text-anchor="middle" x="759.5" y="-249.8" font-family="Arial" font-size="14.00" fill="#c6c5fe">lib/nodes/node&#45;batch.js</text>
</g>
<!-- lib/tasks/task&#45;runner.js&#45;&gt;lib/nodes/node&#45;batch.js -->
<g id="edge36" class="edge"><title>lib/tasks/task&#45;runner.js&#45;&gt;lib/nodes/node&#45;batch.js</title>
<path fill="none" stroke="#757575" d="M602.524,-282.97C628.984,-277.971 660.137,-272.085 687.616,-266.893"/>
<polygon fill="#757575" stroke="#757575" points="688.382,-270.31 697.558,-265.014 687.082,-263.432 688.382,-270.31"/>
</g>
<!-- lib/nodes/node.js -->
<g id="node23" class="node"><title>lib/nodes/node.js</title>
<path fill="none" stroke="#c6c5fe" d="M814.333,-306C814.333,-306 704.667,-306 704.667,-306 700.833,-306 697,-302.167 697,-298.333 697,-298.333 697,-290.667 697,-290.667 697,-286.833 700.833,-283 704.667,-283 704.667,-283 814.333,-283 814.333,-283 818.167,-283 822,-286.833 822,-290.667 822,-290.667 822,-298.333 822,-298.333 822,-302.167 818.167,-306 814.333,-306"/>
<text text-anchor="middle" x="759.5" y="-290.8" font-family="Arial" font-size="14.00" fill="#c6c5fe">lib/nodes/node.js</text>
</g>
<!-- lib/tasks/task&#45;runner.js&#45;&gt;lib/nodes/node.js -->
<g id="edge37" class="edge"><title>lib/tasks/task&#45;runner.js&#45;&gt;lib/nodes/node.js</title>
<path fill="none" stroke="#757575" d="M618.006,-294.5C640.338,-294.5 664.656,-294.5 686.687,-294.5"/>
<polygon fill="#757575" stroke="#757575" points="686.965,-298 696.965,-294.5 686.965,-291 686.965,-298"/>
</g>
<!-- lib/nodes/nodes&#45;map.js -->
<g id="node24" class="node"><title>lib/nodes/nodes&#45;map.js</title>
<path fill="none" stroke="#c6c5fe" d="M833.833,-185C833.833,-185 685.167,-185 685.167,-185 681.333,-185 677.5,-181.167 677.5,-177.333 677.5,-177.333 677.5,-169.667 677.5,-169.667 677.5,-165.833 681.333,-162 685.167,-162 685.167,-162 833.833,-162 833.833,-162 837.667,-162 841.5,-165.833 841.5,-169.667 841.5,-169.667 841.5,-177.333 841.5,-177.333 841.5,-181.167 837.667,-185 833.833,-185"/>
<text text-anchor="middle" x="759.5" y="-169.8" font-family="Arial" font-size="14.00" fill="#c6c5fe">lib/nodes/nodes&#45;map.js</text>
</g>
<!-- lib/tasks/task&#45;runner.js&#45;&gt;lib/nodes/nodes&#45;map.js -->
<g id="edge38" class="edge"><title>lib/tasks/task&#45;runner.js&#45;&gt;lib/nodes/nodes&#45;map.js</title>
<path fill="none" stroke="#757575" d="M554.472,-282.967C581.596,-258.939 642.733,-205.26 654,-199.5 662.927,-194.937 672.699,-191.144 682.571,-188"/>
<polygon fill="#757575" stroke="#757575" points="683.858,-191.269 692.448,-185.068 681.866,-184.559 683.858,-191.269"/>
</g>
<!-- lib/progress/nodes&#45;progress.js -->
<g id="node25" class="node"><title>lib/progress/nodes&#45;progress.js</title>
<path fill="none" stroke="#cfffac" d="M857.333,-427C857.333,-427 661.667,-427 661.667,-427 657.833,-427 654,-423.167 654,-419.333 654,-419.333 654,-411.667 654,-411.667 654,-407.833 657.833,-404 661.667,-404 661.667,-404 857.333,-404 857.333,-404 861.167,-404 865,-407.833 865,-411.667 865,-411.667 865,-419.333 865,-419.333 865,-423.167 861.167,-427 857.333,-427"/>
<text text-anchor="middle" x="759.5" y="-411.8" font-family="Arial" font-size="14.00" fill="#cfffac">lib/progress/nodes&#45;progress.js</text>
</g>
<!-- lib/tasks/task&#45;runner.js&#45;&gt;lib/progress/nodes&#45;progress.js -->
<g id="edge40" class="edge"><title>lib/tasks/task&#45;runner.js&#45;&gt;lib/progress/nodes&#45;progress.js</title>
<path fill="none" stroke="#757575" d="M550.936,-306.26C568.693,-327.526 609.331,-372.231 654,-394.5 658.642,-396.814 663.521,-398.874 668.528,-400.706"/>
<polygon fill="#757575" stroke="#757575" points="667.695,-404.117 678.289,-403.957 669.907,-397.476 667.695,-404.117"/>
</g>
<!-- lib/state/state&#45;manager.js -->
<g id="node26" class="node"><title>lib/state/state&#45;manager.js</title>
<path fill="none" stroke="#c6c5fe" d="M838.333,-386C838.333,-386 680.667,-386 680.667,-386 676.833,-386 673,-382.167 673,-378.333 673,-378.333 673,-370.667 673,-370.667 673,-366.833 676.833,-363 680.667,-363 680.667,-363 838.333,-363 838.333,-363 842.167,-363 846,-366.833 846,-370.667 846,-370.667 846,-378.333 846,-378.333 846,-382.167 842.167,-386 838.333,-386"/>
<text text-anchor="middle" x="759.5" y="-370.8" font-family="Arial" font-size="14.00" fill="#c6c5fe">lib/state/state&#45;manager.js</text>
</g>
<!-- lib/tasks/task&#45;runner.js&#45;&gt;lib/state/state&#45;manager.js -->
<g id="edge43" class="edge"><title>lib/tasks/task&#45;runner.js&#45;&gt;lib/state/state&#45;manager.js</title>
<path fill="none" stroke="#757575" d="M562.509,-306.185C584.7,-318.142 620.979,-336.608 654,-348.5 666.475,-352.993 680.058,-356.992 693.178,-360.426"/>
<polygon fill="#757575" stroke="#757575" points="692.541,-363.875 703.095,-362.94 694.262,-357.09 692.541,-363.875"/>
</g>
<!-- lib/datastore/graph&#45;store.js&#45;&gt;lib/consts/componentNames.js -->
<g id="edge13" class="edge"><title>lib/datastore/graph&#45;store.js&#45;&gt;lib/consts/componentNames.js</title>
<path fill="none" stroke="#757575" d="M852.011,-656.783C930.778,-661.531 1047.45,-669.044 1149,-677.5 1157.34,-678.194 1165.95,-678.953 1174.62,-679.745"/>
<polygon fill="#757575" stroke="#757575" points="1174.53,-683.251 1184.81,-680.69 1175.17,-676.281 1174.53,-683.251"/>
</g>
<!-- lib/datastore/graph&#45;store.js&#45;&gt;lib/datastore/redis&#45;storage&#45;adapter.js -->
<g id="edge15" class="edge"><title>lib/datastore/graph&#45;store.js&#45;&gt;lib/datastore/redis&#45;storage&#45;adapter.js</title>
<path fill="none" stroke="#757575" d="M798.534,-663.047C845.432,-677.286 925.179,-701.498 976.179,-716.981"/>
<polygon fill="#757575" stroke="#757575" points="975.392,-720.4 985.978,-719.956 977.426,-713.702 975.392,-720.4"/>
</g>
<!-- lib/datastore/graph&#45;store.js&#45;&gt;lib/consts/graph&#45;storage&#45;types.js -->
<g id="edge14" class="edge"><title>lib/datastore/graph&#45;store.js&#45;&gt;lib/consts/graph&#45;storage&#45;types.js</title>
<path fill="none" stroke="#757575" d="M840.274,-639.996C869.805,-635.737 903.486,-630.88 933.874,-626.497"/>
<polygon fill="#757575" stroke="#757575" points="934.645,-629.922 944.043,-625.031 933.646,-622.994 934.645,-629.922"/>
</g>
<!-- lib/datastore/graph&#45;store.js&#45;&gt;lib/state/NodeStates.js -->
<g id="edge16" class="edge"><title>lib/datastore/graph&#45;store.js&#45;&gt;lib/state/NodeStates.js</title>
<path fill="none" stroke="#757575" d="M827.85,-639.998C840.62,-636.374 853.553,-631.648 865,-625.5 884.121,-615.23 881.446,-601.921 901,-592.5 1001.52,-544.072 1071.22,-633.498 1149,-553.5 1236.46,-463.542 1099.04,-364.894 1185,-273.5 1189.85,-268.347 1195.58,-264.288 1201.83,-261.112"/>
<polygon fill="#757575" stroke="#757575" points="1203.49,-264.21 1211.31,-257.064 1200.74,-257.772 1203.49,-264.21"/>
</g>
<!-- lib/helpers/group&#45;by.js -->
<g id="node17" class="node"><title>lib/helpers/group&#45;by.js</title>
<path fill="none" stroke="#cfffac" d="M1094.83,-185C1094.83,-185 955.167,-185 955.167,-185 951.333,-185 947.5,-181.167 947.5,-177.333 947.5,-177.333 947.5,-169.667 947.5,-169.667 947.5,-165.833 951.333,-162 955.167,-162 955.167,-162 1094.83,-162 1094.83,-162 1098.67,-162 1102.5,-165.833 1102.5,-169.667 1102.5,-169.667 1102.5,-177.333 1102.5,-177.333 1102.5,-181.167 1098.67,-185 1094.83,-185"/>
<text text-anchor="middle" x="1025" y="-169.8" font-family="Arial" font-size="14.00" fill="#cfffac">lib/helpers/group&#45;by.js</text>
</g>
<!-- lib/nodes/graph&#45;node.js -->
<g id="node18" class="node"><title>lib/nodes/graph&#45;node.js</title>
<path fill="none" stroke="#c6c5fe" d="M1099.83,-105C1099.83,-105 950.167,-105 950.167,-105 946.333,-105 942.5,-101.167 942.5,-97.3333 942.5,-97.3333 942.5,-89.6667 942.5,-89.6667 942.5,-85.8333 946.333,-82 950.167,-82 950.167,-82 1099.83,-82 1099.83,-82 1103.67,-82 1107.5,-85.8333 1107.5,-89.6667 1107.5,-89.6667 1107.5,-97.3333 1107.5,-97.3333 1107.5,-101.167 1103.67,-105 1099.83,-105"/>
<text text-anchor="middle" x="1025" y="-89.8" font-family="Arial" font-size="14.00" fill="#c6c5fe">lib/nodes/graph&#45;node.js</text>
</g>
<!-- lib/nodes/graph&#45;node.js&#45;&gt;lib/state/NodeStates.js -->
<g id="edge19" class="edge"><title>lib/nodes/graph&#45;node.js&#45;&gt;lib/state/NodeStates.js</title>
<path fill="none" stroke="#757575" d="M1107.63,-104.108C1121.91,-107.803 1136.26,-112.784 1149,-119.5 1203.55,-148.25 1251.89,-204.34 1275.03,-234.013"/>
<polygon fill="#757575" stroke="#757575" points="1272.27,-236.166 1281.13,-241.976 1277.83,-231.909 1272.27,-236.166"/>
</g>
<!-- lib/nodes/node&#45;base.js -->
<g id="node19" class="node"><title>lib/nodes/node&#45;base.js</title>
<path fill="none" stroke="#c6c5fe" d="M1097.83,-306C1097.83,-306 952.167,-306 952.167,-306 948.333,-306 944.5,-302.167 944.5,-298.333 944.5,-298.333 944.5,-290.667 944.5,-290.667 944.5,-286.833 948.333,-283 952.167,-283 952.167,-283 1097.83,-283 1097.83,-283 1101.67,-283 1105.5,-286.833 1105.5,-290.667 1105.5,-290.667 1105.5,-298.333 1105.5,-298.333 1105.5,-302.167 1101.67,-306 1097.83,-306"/>
<text text-anchor="middle" x="1025" y="-290.8" font-family="Arial" font-size="14.00" fill="#c6c5fe">lib/nodes/node&#45;base.js</text>
</g>
<!-- lib/nodes/node&#45;base.js&#45;&gt;lib/state/NodeStates.js -->
<g id="edge20" class="edge"><title>lib/nodes/node&#45;base.js&#45;&gt;lib/state/NodeStates.js</title>
<path fill="none" stroke="#757575" d="M1100.1,-282.97C1132.94,-277.861 1171.72,-271.826 1205.62,-266.552"/>
<polygon fill="#757575" stroke="#757575" points="1206.16,-270.01 1215.5,-265.014 1205.08,-263.093 1206.16,-270.01"/>
</g>
<!-- lib/tasks/Task.js -->
<g id="node20" class="node"><title>lib/tasks/Task.js</title>
<path fill="none" stroke="#cfffac" d="M1340.33,-306C1340.33,-306 1240.67,-306 1240.67,-306 1236.83,-306 1233,-302.167 1233,-298.333 1233,-298.333 1233,-290.667 1233,-290.667 1233,-286.833 1236.83,-283 1240.67,-283 1240.67,-283 1340.33,-283 1340.33,-283 1344.17,-283 1348,-286.833 1348,-290.667 1348,-290.667 1348,-298.333 1348,-298.333 1348,-302.167 1344.17,-306 1340.33,-306"/>
<text text-anchor="middle" x="1290.5" y="-290.8" font-family="Arial" font-size="14.00" fill="#cfffac">lib/tasks/Task.js</text>
</g>
<!-- lib/nodes/node&#45;base.js&#45;&gt;lib/tasks/Task.js -->
<g id="edge21" class="edge"><title>lib/nodes/node&#45;base.js&#45;&gt;lib/tasks/Task.js</title>
<path fill="none" stroke="#757575" d="M1105.77,-294.5C1143.14,-294.5 1187.14,-294.5 1222.71,-294.5"/>
<polygon fill="#757575" stroke="#757575" points="1222.99,-298 1232.99,-294.5 1222.99,-291 1222.99,-298"/>
</g>
<!-- lib/nodes/node&#45;batch.js&#45;&gt;lib/nodes/node&#45;base.js -->
<g id="edge22" class="edge"><title>lib/nodes/node&#45;batch.js&#45;&gt;lib/nodes/node&#45;base.js</title>
<path fill="none" stroke="#757575" d="M834.601,-265.03C867.436,-270.139 906.221,-276.174 940.116,-281.448"/>
<polygon fill="#757575" stroke="#757575" points="939.58,-284.907 949.999,-282.986 940.656,-277.99 939.58,-284.907"/>
</g>
<!-- lib/nodes/node&#45;result.js -->
<g id="node22" class="node"><title>lib/nodes/node&#45;result.js</title>
<path fill="none" stroke="#cfffac" d="M1099.33,-226C1099.33,-226 950.667,-226 950.667,-226 946.833,-226 943,-222.167 943,-218.333 943,-218.333 943,-210.667 943,-210.667 943,-206.833 946.833,-203 950.667,-203 950.667,-203 1099.33,-203 1099.33,-203 1103.17,-203 1107,-206.833 1107,-210.667 1107,-210.667 1107,-218.333 1107,-218.333 1107,-222.167 1103.17,-226 1099.33,-226"/>
<text text-anchor="middle" x="1025" y="-210.8" font-family="Arial" font-size="14.00" fill="#cfffac">lib/nodes/node&#45;result.js</text>
</g>
<!-- lib/nodes/node.js&#45;&gt;lib/nodes/node&#45;base.js -->
<g id="edge23" class="edge"><title>lib/nodes/node.js&#45;&gt;lib/nodes/node&#45;base.js</title>
<path fill="none" stroke="#757575" d="M822.279,-294.5C855.51,-294.5 897.108,-294.5 933.882,-294.5"/>
<polygon fill="#757575" stroke="#757575" points="934.116,-298 944.116,-294.5 934.116,-291 934.116,-298"/>
</g>
<!-- lib/nodes/nodes&#45;map.js&#45;&gt;lib/state/NodeStates.js -->
<g id="edge27" class="edge"><title>lib/nodes/nodes&#45;map.js&#45;&gt;lib/state/NodeStates.js</title>
<path fill="none" stroke="#757575" d="M801.148,-161.967C873.233,-143.537 1027.33,-113.305 1149,-152.5 1199.05,-168.624 1246.35,-209.924 1271.26,-234.429"/>
<polygon fill="#757575" stroke="#757575" points="1269,-237.12 1278.53,-241.741 1273.96,-232.183 1269,-237.12"/>
</g>
<!-- lib/nodes/nodes&#45;map.js&#45;&gt;lib/helpers/group&#45;by.js -->
<g id="edge24" class="edge"><title>lib/nodes/nodes&#45;map.js&#45;&gt;lib/helpers/group&#45;by.js</title>
<path fill="none" stroke="#757575" d="M841.709,-173.5C871.869,-173.5 906.195,-173.5 936.863,-173.5"/>
<polygon fill="#757575" stroke="#757575" points="937.113,-177 947.113,-173.5 937.113,-170 937.113,-177"/>
</g>
<!-- lib/nodes/nodes&#45;map.js&#45;&gt;lib/nodes/graph&#45;node.js -->
<g id="edge25" class="edge"><title>lib/nodes/nodes&#45;map.js&#45;&gt;lib/nodes/graph&#45;node.js</title>
<path fill="none" stroke="#757575" d="M824.986,-161.932C838.576,-158.272 852.557,-153.548 865,-147.5 883.23,-138.639 882.615,-128.036 901,-119.5 911.259,-114.737 922.404,-110.837 933.657,-107.646"/>
<polygon fill="#757575" stroke="#757575" points="934.786,-110.967 943.554,-105.02 932.99,-104.201 934.786,-110.967"/>
</g>
<!-- lib/nodes/nodes&#45;map.js&#45;&gt;lib/nodes/node&#45;result.js -->
<g id="edge26" class="edge"><title>lib/nodes/nodes&#45;map.js&#45;&gt;lib/nodes/node&#45;result.js</title>
<path fill="none" stroke="#757575" d="M834.601,-185.03C867.436,-190.139 906.221,-196.174 940.116,-201.448"/>
<polygon fill="#757575" stroke="#757575" points="939.58,-204.907 949.999,-202.986 940.656,-197.99 939.58,-204.907"/>
</g>
<!-- lib/state/state&#45;manager.js&#45;&gt;lib/datastore/storage&#45;factory.js -->
<g id="edge30" class="edge"><title>lib/state/state&#45;manager.js&#45;&gt;lib/datastore/storage&#45;factory.js</title>
<path fill="none" stroke="#757575" d="M846.051,-380.993C867.032,-382.586 889.802,-384.314 911.826,-385.986"/>
<polygon fill="#757575" stroke="#757575" points="911.648,-389.482 921.884,-386.749 912.178,-382.502 911.648,-389.482"/>
</g>
<!-- lib/state/state&#45;manager.js&#45;&gt;lib/state/state&#45;factory.js -->
<g id="edge31" class="edge"><title>lib/state/state&#45;manager.js&#45;&gt;lib/state/state&#45;factory.js</title>
<path fill="none" stroke="#757575" d="M843.14,-386.017C850.708,-388.344 858.11,-391.14 865,-394.5 925.849,-424.175 981.635,-483.352 1008.01,-514.037"/>
<polygon fill="#757575" stroke="#757575" points="1005.52,-516.512 1014.65,-521.888 1010.86,-511.992 1005.52,-516.512"/>
</g>
</g>
</svg>
