<?xml version="1.0" encoding="UTF-8" standalone="no"?>
<!DOCTYPE svg PUBLIC "-//W3C//DTD SVG 1.1//EN"
 "http://www.w3.org/Graphics/SVG/1.1/DTD/svg11.dtd">
<!-- Generated by graphviz version 2.38.0 (20140413.2041)
 -->
<!-- Title: G Pages: 1 -->
<svg width="1232pt" height="452pt"
 viewBox="0.00 0.00 1232.20 451.87" xmlns="http://www.w3.org/2000/svg" xmlns:xlink="http://www.w3.org/1999/xlink">
<g id="graph0" class="graph" transform="scale(1 1) rotate(0) translate(21.6 430.266)">
<title>G</title>
<polygon fill="#111111" stroke="none" points="-21.6,21.6 -21.6,-430.266 1210.6,-430.266 1210.6,21.6 -21.6,21.6"/>
<!-- app.js -->
<g id="node1" class="node"><title>app.js</title>
<path fill="none" stroke="#c6c5fe" d="M47.3333,-123C47.3333,-123 7.66667,-123 7.66667,-123 3.83333,-123 0,-119.167 0,-115.333 0,-115.333 0,-107.667 0,-107.667 0,-103.833 3.83333,-100 7.66667,-100 7.66667,-100 47.3333,-100 47.3333,-100 51.1667,-100 55,-103.833 55,-107.667 55,-107.667 55,-115.333 55,-115.333 55,-119.167 51.1667,-123 47.3333,-123"/>
<text text-anchor="middle" x="27.5" y="-107.8" font-family="Arial" font-size="14.00" fill="#c6c5fe">app.js</text>
</g>
<!-- bootstrap.js -->
<g id="node2" class="node"><title>bootstrap.js</title>
<path fill="none" stroke="#c6c5fe" d="M174.333,-123C174.333,-123 98.6667,-123 98.6667,-123 94.8333,-123 91,-119.167 91,-115.333 91,-115.333 91,-107.667 91,-107.667 91,-103.833 94.8333,-100 98.6667,-100 98.6667,-100 174.333,-100 174.333,-100 178.167,-100 182,-103.833 182,-107.667 182,-107.667 182,-115.333 182,-115.333 182,-119.167 178.167,-123 174.333,-123"/>
<text text-anchor="middle" x="136.5" y="-107.8" font-family="Arial" font-size="14.00" fill="#c6c5fe">bootstrap.js</text>
</g>
<!-- app.js&#45;&gt;bootstrap.js -->
<g id="edge1" class="edge"><title>app.js&#45;&gt;bootstrap.js</title>
<path fill="none" stroke="#757575" d="M55.2246,-111.5C63.0501,-111.5 71.9053,-111.5 80.8047,-111.5"/>
<polygon fill="#757575" stroke="#757575" points="80.8186,-115 90.8186,-111.5 80.8185,-108 80.8186,-115"/>
</g>
<!-- lib/consts/index.js -->
<g id="node3" class="node"><title>lib/consts/index.js</title>
<path fill="none" stroke="#c6c5fe" d="M931.833,-175C931.833,-175 819.167,-175 819.167,-175 815.333,-175 811.5,-171.167 811.5,-167.333 811.5,-167.333 811.5,-159.667 811.5,-159.667 811.5,-155.833 815.333,-152 819.167,-152 819.167,-152 931.833,-152 931.833,-152 935.667,-152 939.5,-155.833 939.5,-159.667 939.5,-159.667 939.5,-167.333 939.5,-167.333 939.5,-171.167 935.667,-175 931.833,-175"/>
<text text-anchor="middle" x="875.5" y="-159.8" font-family="Arial" font-size="14.00" fill="#c6c5fe">lib/consts/index.js</text>
</g>
<!-- bootstrap.js&#45;&gt;lib/consts/index.js -->
<g id="edge2" class="edge"><title>bootstrap.js&#45;&gt;lib/consts/index.js</title>
<path fill="none" stroke="#757575" d="M146.386,-123.153C173.79,-158.296 260.962,-264.268 357,-320.5 440.467,-369.371 469.354,-370.118 565,-384.5 652.901,-397.717 689.471,-431.369 765,-384.5 837.25,-339.666 863.299,-231.408 871.349,-185.101"/>
<polygon fill="#757575" stroke="#757575" points="874.805,-185.654 872.953,-175.222 867.896,-184.532 874.805,-185.654"/>
</g>
<!-- lib/executor.js -->
<g id="node4" class="node"><title>lib/executor.js</title>
<path fill="none" stroke="#c6c5fe" d="M313.333,-143C313.333,-143 225.667,-143 225.667,-143 221.833,-143 218,-139.167 218,-135.333 218,-135.333 218,-127.667 218,-127.667 218,-123.833 221.833,-120 225.667,-120 225.667,-120 313.333,-120 313.333,-120 317.167,-120 321,-123.833 321,-127.667 321,-127.667 321,-135.333 321,-135.333 321,-139.167 317.167,-143 313.333,-143"/>
<text text-anchor="middle" x="269.5" y="-127.8" font-family="Arial" font-size="14.00" fill="#c6c5fe">lib/executor.js</text>
</g>
<!-- bootstrap.js&#45;&gt;lib/executor.js -->
<g id="edge3" class="edge"><title>bootstrap.js&#45;&gt;lib/executor.js</title>
<path fill="none" stroke="#757575" d="M182.216,-118.327C190.421,-119.579 199.11,-120.906 207.692,-122.216"/>
<polygon fill="#757575" stroke="#757575" points="207.267,-125.692 217.681,-123.741 208.323,-118.772 207.267,-125.692"/>
</g>
<!-- lib/helpers/etcd.js -->
<g id="node5" class="node"><title>lib/helpers/etcd.js</title>
<path fill="none" stroke="#c6c5fe" d="M721.333,-23C721.333,-23 608.667,-23 608.667,-23 604.833,-23 601,-19.1667 601,-15.3333 601,-15.3333 601,-7.66667 601,-7.66667 601,-3.83333 604.833,-0 608.667,-0 608.667,-0 721.333,-0 721.333,-0 725.167,-0 729,-3.83333 729,-7.66667 729,-7.66667 729,-15.3333 729,-15.3333 729,-19.1667 725.167,-23 721.333,-23"/>
<text text-anchor="middle" x="665" y="-7.8" font-family="Arial" font-size="14.00" fill="#c6c5fe">lib/helpers/etcd.js</text>
</g>
<!-- bootstrap.js&#45;&gt;lib/helpers/etcd.js -->
<g id="edge4" class="edge"><title>bootstrap.js&#45;&gt;lib/helpers/etcd.js</title>
<path fill="none" stroke="#757575" d="M165.702,-99.9604C206.952,-83.6127 286.503,-54.0811 357,-39.5 435.814,-23.1987 527.967,-16.3871 590.593,-13.5412"/>
<polygon fill="#757575" stroke="#757575" points="590.931,-17.03 600.771,-13.1019 590.629,-10.0365 590.931,-17.03"/>
</g>
<!-- lib/helpers/kubernetes.js -->
<g id="node6" class="node"><title>lib/helpers/kubernetes.js</title>
<path fill="none" stroke="#c6c5fe" d="M742.333,-64C742.333,-64 587.667,-64 587.667,-64 583.833,-64 580,-60.1667 580,-56.3333 580,-56.3333 580,-48.6667 580,-48.6667 580,-44.8333 583.833,-41 587.667,-41 587.667,-41 742.333,-41 742.333,-41 746.167,-41 750,-44.8333 750,-48.6667 750,-48.6667 750,-56.3333 750,-56.3333 750,-60.1667 746.167,-64 742.333,-64"/>
<text text-anchor="middle" x="665" y="-48.8" font-family="Arial" font-size="14.00" fill="#c6c5fe">lib/helpers/kubernetes.js</text>
</g>
<!-- bootstrap.js&#45;&gt;lib/helpers/kubernetes.js -->
<g id="edge5" class="edge"><title>bootstrap.js&#45;&gt;lib/helpers/kubernetes.js</title>
<path fill="none" stroke="#757575" d="M182.389,-106.47C267.842,-96.8938 455.529,-75.8614 569.73,-63.0639"/>
<polygon fill="#757575" stroke="#757575" points="570.317,-66.5202 579.865,-61.9283 569.537,-59.5638 570.317,-66.5202"/>
</g>
<!-- lib/consts/commands.js -->
<g id="node7" class="node"><title>lib/consts/commands.js</title>
<path fill="none" stroke="#cfffac" d="M1162.33,-206C1162.33,-206 1012.67,-206 1012.67,-206 1008.83,-206 1005,-202.167 1005,-198.333 1005,-198.333 1005,-190.667 1005,-190.667 1005,-186.833 1008.83,-183 1012.67,-183 1012.67,-183 1162.33,-183 1162.33,-183 1166.17,-183 1170,-186.833 1170,-190.667 1170,-190.667 1170,-198.333 1170,-198.333 1170,-202.167 1166.17,-206 1162.33,-206"/>
<text text-anchor="middle" x="1087.5" y="-190.8" font-family="Arial" font-size="14.00" fill="#cfffac">lib/consts/commands.js</text>
</g>
<!-- lib/consts/index.js&#45;&gt;lib/consts/commands.js -->
<g id="edge6" class="edge"><title>lib/consts/index.js&#45;&gt;lib/consts/commands.js</title>
<path fill="none" stroke="#757575" d="M939.507,-172.801C958.007,-175.532 978.59,-178.57 998.354,-181.488"/>
<polygon fill="#757575" stroke="#757575" points="997.883,-184.956 1008.29,-182.954 998.906,-178.031 997.883,-184.956"/>
</g>
<!-- lib/consts/components.js -->
<g id="node8" class="node"><title>lib/consts/components.js</title>
<path fill="none" stroke="#cfffac" d="M1166.33,-165C1166.33,-165 1008.67,-165 1008.67,-165 1004.83,-165 1001,-161.167 1001,-157.333 1001,-157.333 1001,-149.667 1001,-149.667 1001,-145.833 1004.83,-142 1008.67,-142 1008.67,-142 1166.33,-142 1166.33,-142 1170.17,-142 1174,-145.833 1174,-149.667 1174,-149.667 1174,-157.333 1174,-157.333 1174,-161.167 1170.17,-165 1166.33,-165"/>
<text text-anchor="middle" x="1087.5" y="-149.8" font-family="Arial" font-size="14.00" fill="#cfffac">lib/consts/components.js</text>
</g>
<!-- lib/consts/index.js&#45;&gt;lib/consts/components.js -->
<g id="edge7" class="edge"><title>lib/consts/index.js&#45;&gt;lib/consts/components.js</title>
<path fill="none" stroke="#757575" d="M939.507,-160.5C955.565,-159.735 973.192,-158.896 990.49,-158.072"/>
<polygon fill="#757575" stroke="#757575" points="990.801,-161.561 1000.62,-157.589 990.468,-154.569 990.801,-161.561"/>
</g>
<!-- lib/consts/consts.js -->
<g id="node9" class="node"><title>lib/consts/consts.js</title>
<path fill="none" stroke="#cfffac" d="M1148.33,-124C1148.33,-124 1026.67,-124 1026.67,-124 1022.83,-124 1019,-120.167 1019,-116.333 1019,-116.333 1019,-108.667 1019,-108.667 1019,-104.833 1022.83,-101 1026.67,-101 1026.67,-101 1148.33,-101 1148.33,-101 1152.17,-101 1156,-104.833 1156,-108.667 1156,-108.667 1156,-116.333 1156,-116.333 1156,-120.167 1152.17,-124 1148.33,-124"/>
<text text-anchor="middle" x="1087.5" y="-108.8" font-family="Arial" font-size="14.00" fill="#cfffac">lib/consts/consts.js</text>
</g>
<!-- lib/consts/index.js&#45;&gt;lib/consts/consts.js -->
<g id="edge8" class="edge"><title>lib/consts/index.js&#45;&gt;lib/consts/consts.js</title>
<path fill="none" stroke="#757575" d="M914.312,-151.995C935.319,-145.805 961.989,-138.278 986,-132.5 995.179,-130.291 1004.87,-128.139 1014.47,-126.114"/>
<polygon fill="#757575" stroke="#757575" points="1015.33,-129.51 1024.41,-124.054 1013.91,-122.656 1015.33,-129.51"/>
</g>
<!-- lib/consts/containers.js -->
<g id="node10" class="node"><title>lib/consts/containers.js</title>
<path fill="none" stroke="#cfffac" d="M1159.83,-288C1159.83,-288 1015.17,-288 1015.17,-288 1011.33,-288 1007.5,-284.167 1007.5,-280.333 1007.5,-280.333 1007.5,-272.667 1007.5,-272.667 1007.5,-268.833 1011.33,-265 1015.17,-265 1015.17,-265 1159.83,-265 1159.83,-265 1163.67,-265 1167.5,-268.833 1167.5,-272.667 1167.5,-272.667 1167.5,-280.333 1167.5,-280.333 1167.5,-284.167 1163.67,-288 1159.83,-288"/>
<text text-anchor="middle" x="1087.5" y="-272.8" font-family="Arial" font-size="14.00" fill="#cfffac">lib/consts/containers.js</text>
</g>
<!-- lib/consts/index.js&#45;&gt;lib/consts/containers.js -->
<g id="edge9" class="edge"><title>lib/consts/index.js&#45;&gt;lib/consts/containers.js</title>
<path fill="none" stroke="#757575" d="M886.687,-175.206C904.642,-195.044 944.016,-235.096 986,-255.5 990.86,-257.862 995.977,-259.959 1001.22,-261.82"/>
<polygon fill="#757575" stroke="#757575" points="1000.19,-265.163 1010.78,-264.923 1002.35,-258.506 1000.19,-265.163"/>
</g>
<!-- lib/consts/metrics.js -->
<g id="node11" class="node"><title>lib/consts/metrics.js</title>
<path fill="none" stroke="#cfffac" d="M1150.33,-247C1150.33,-247 1024.67,-247 1024.67,-247 1020.83,-247 1017,-243.167 1017,-239.333 1017,-239.333 1017,-231.667 1017,-231.667 1017,-227.833 1020.83,-224 1024.67,-224 1024.67,-224 1150.33,-224 1150.33,-224 1154.17,-224 1158,-227.833 1158,-231.667 1158,-231.667 1158,-239.333 1158,-239.333 1158,-243.167 1154.17,-247 1150.33,-247"/>
<text text-anchor="middle" x="1087.5" y="-231.8" font-family="Arial" font-size="14.00" fill="#cfffac">lib/consts/metrics.js</text>
</g>
<!-- lib/consts/index.js&#45;&gt;lib/consts/metrics.js -->
<g id="edge10" class="edge"><title>lib/consts/index.js&#45;&gt;lib/consts/metrics.js</title>
<path fill="none" stroke="#757575" d="M897.714,-175.171C919.346,-186.64 954.159,-203.915 986,-214.5 993.902,-217.127 1002.27,-219.494 1010.66,-221.61"/>
<polygon fill="#757575" stroke="#757575" points="1009.97,-225.042 1020.51,-223.978 1011.6,-218.236 1009.97,-225.042"/>
</g>
<!-- lib/executor.js&#45;&gt;lib/consts/index.js -->
<g id="edge11" class="edge"><title>lib/executor.js&#45;&gt;lib/consts/index.js</title>
<path fill="none" stroke="#757575" d="M275.506,-143.211C286.709,-168.2 316.07,-227.333 357,-262.5 434.226,-328.852 465.555,-336.658 565,-358.5 651.819,-377.569 688.287,-403.403 765,-358.5 830.349,-320.249 859.68,-227.109 869.945,-184.909"/>
<polygon fill="#757575" stroke="#757575" points="873.366,-185.647 872.203,-175.116 866.545,-184.074 873.366,-185.647"/>
</g>
<!-- lib/executor.js&#45;&gt;lib/helpers/etcd.js -->
<g id="edge12" class="edge"><title>lib/executor.js&#45;&gt;lib/helpers/etcd.js</title>
<path fill="none" stroke="#757575" d="M303.747,-119.889C319.822,-114.296 339.402,-107.513 357,-101.5 449.3,-69.9636 470.789,-56.7625 565,-31.5 573.368,-29.2562 582.193,-27.1336 590.987,-25.1689"/>
<polygon fill="#757575" stroke="#757575" points="591.849,-28.5635 600.878,-23.0198 590.362,-21.7231 591.849,-28.5635"/>
</g>
<!-- lib/executor.js&#45;&gt;lib/helpers/kubernetes.js -->
<g id="edge13" class="edge"><title>lib/executor.js&#45;&gt;lib/helpers/kubernetes.js</title>
<path fill="none" stroke="#757575" d="M321.493,-135.598C375.45,-137.876 461.902,-135.552 529,-105.5 548.809,-96.6278 545.655,-82.3424 565,-72.5 568.59,-70.6737 572.332,-69.0141 576.171,-67.506"/>
<polygon fill="#757575" stroke="#757575" points="577.626,-70.7035 585.88,-64.0607 575.285,-64.1065 577.626,-70.7035"/>
</g>
<!-- lib/reconcile/normalize.js -->
<g id="node12" class="node"><title>lib/reconcile/normalize.js</title>
<path fill="none" stroke="#cfffac" d="M742.833,-349C742.833,-349 587.167,-349 587.167,-349 583.333,-349 579.5,-345.167 579.5,-341.333 579.5,-341.333 579.5,-333.667 579.5,-333.667 579.5,-329.833 583.333,-326 587.167,-326 587.167,-326 742.833,-326 742.833,-326 746.667,-326 750.5,-329.833 750.5,-333.667 750.5,-333.667 750.5,-341.333 750.5,-341.333 750.5,-345.167 746.667,-349 742.833,-349"/>
<text text-anchor="middle" x="665" y="-333.8" font-family="Arial" font-size="14.00" fill="#cfffac">lib/reconcile/normalize.js</text>
</g>
<!-- lib/executor.js&#45;&gt;lib/reconcile/normalize.js -->
<g id="edge14" class="edge"><title>lib/executor.js&#45;&gt;lib/reconcile/normalize.js</title>
<path fill="none" stroke="#757575" d="M284.77,-143.222C325.625,-176.143 447.661,-270.063 565,-316.5 571.366,-319.019 578.089,-321.259 584.911,-323.244"/>
<polygon fill="#757575" stroke="#757575" points="584.379,-326.727 594.947,-325.975 586.217,-319.972 584.379,-326.727"/>
</g>
<!-- lib/reconcile/reconciler.js -->
<g id="node13" class="node"><title>lib/reconcile/reconciler.js</title>
<path fill="none" stroke="#c6c5fe" d="M521.333,-182C521.333,-182 364.667,-182 364.667,-182 360.833,-182 357,-178.167 357,-174.333 357,-174.333 357,-166.667 357,-166.667 357,-162.833 360.833,-159 364.667,-159 364.667,-159 521.333,-159 521.333,-159 525.167,-159 529,-162.833 529,-166.667 529,-166.667 529,-174.333 529,-174.333 529,-178.167 525.167,-182 521.333,-182"/>
<text text-anchor="middle" x="443" y="-166.8" font-family="Arial" font-size="14.00" fill="#c6c5fe">lib/reconcile/reconciler.js</text>
</g>
<!-- lib/executor.js&#45;&gt;lib/reconcile/reconciler.js -->
<g id="edge15" class="edge"><title>lib/executor.js&#45;&gt;lib/reconcile/reconciler.js</title>
<path fill="none" stroke="#757575" d="M321.028,-142.99C339.962,-147.296 361.668,-152.232 381.42,-156.724"/>
<polygon fill="#757575" stroke="#757575" points="380.713,-160.152 391.24,-158.957 382.266,-153.327 380.713,-160.152"/>
</g>
<!-- lib/helpers/etcd.js&#45;&gt;lib/consts/index.js -->
<g id="edge16" class="edge"><title>lib/helpers/etcd.js&#45;&gt;lib/consts/index.js</title>
<path fill="none" stroke="#757575" d="M729.153,-16.1661C741.829,-19.2516 754.472,-24.0657 765,-31.5 790.403,-49.4389 781.736,-67.087 801,-91.5 816.736,-111.442 837.671,-131.446 853.172,-145.29"/>
<polygon fill="#757575" stroke="#757575" points="850.906,-147.959 860.727,-151.935 855.529,-142.703 850.906,-147.959"/>
</g>
<!-- lib/utils/utils.js -->
<g id="node14" class="node"><title>lib/utils/utils.js</title>
<path fill="none" stroke="#cfffac" d="M918.833,-23C918.833,-23 832.167,-23 832.167,-23 828.333,-23 824.5,-19.1667 824.5,-15.3333 824.5,-15.3333 824.5,-7.66667 824.5,-7.66667 824.5,-3.83333 828.333,-0 832.167,-0 832.167,-0 918.833,-0 918.833,-0 922.667,-0 926.5,-3.83333 926.5,-7.66667 926.5,-7.66667 926.5,-15.3333 926.5,-15.3333 926.5,-19.1667 922.667,-23 918.833,-23"/>
<text text-anchor="middle" x="875.5" y="-7.8" font-family="Arial" font-size="14.00" fill="#cfffac">lib/utils/utils.js</text>
</g>
<!-- lib/helpers/etcd.js&#45;&gt;lib/utils/utils.js -->
<g id="edge17" class="edge"><title>lib/helpers/etcd.js&#45;&gt;lib/utils/utils.js</title>
<path fill="none" stroke="#757575" d="M729.123,-11.5C756.105,-11.5 787.464,-11.5 814.135,-11.5"/>
<polygon fill="#757575" stroke="#757575" points="814.488,-15.0001 824.488,-11.5 814.488,-8.0001 814.488,-15.0001"/>
</g>
<!-- lib/helpers/kubernetes.js&#45;&gt;lib/consts/index.js -->
<g id="edge18" class="edge"><title>lib/helpers/kubernetes.js&#45;&gt;lib/consts/index.js</title>
<path fill="none" stroke="#757575" d="M742.914,-64.0784C750.549,-66.3929 758.041,-69.1694 765,-72.5 802.169,-90.2882 837.363,-123.497 857.393,-144.501"/>
<polygon fill="#757575" stroke="#757575" points="854.915,-146.976 864.299,-151.895 860.031,-142.198 854.915,-146.976"/>
</g>
<!-- lib/reconcile/reconciler.js&#45;&gt;lib/consts/index.js -->
<g id="edge21" class="edge"><title>lib/reconcile/reconciler.js&#45;&gt;lib/consts/index.js</title>
<path fill="none" stroke="#757575" d="M509.426,-158.965C527.381,-156.292 546.891,-153.84 565,-152.5 653.647,-145.943 676.222,-148.052 765,-152.5 776.777,-153.09 789.24,-154.035 801.374,-155.129"/>
<polygon fill="#757575" stroke="#757575" points="801.183,-158.627 811.467,-156.079 801.839,-151.658 801.183,-158.627"/>
</g>
<!-- lib/reconcile/reconciler.js&#45;&gt;lib/helpers/etcd.js -->
<g id="edge22" class="edge"><title>lib/reconcile/reconciler.js&#45;&gt;lib/helpers/etcd.js</title>
<path fill="none" stroke="#757575" d="M453.65,-158.555C479.728,-126.399 550.62,-39.8665 565,-31.5 572.958,-26.8699 581.817,-23.2978 590.871,-20.5444"/>
<polygon fill="#757575" stroke="#757575" points="592.006,-23.8632 600.74,-17.8667 590.173,-17.1075 592.006,-23.8632"/>
</g>
<!-- lib/reconcile/reconciler.js&#45;&gt;lib/helpers/kubernetes.js -->
<g id="edge23" class="edge"><title>lib/reconcile/reconciler.js&#45;&gt;lib/helpers/kubernetes.js</title>
<path fill="none" stroke="#757575" d="M503.872,-158.981C512.942,-155.389 521.694,-150.678 529,-144.5 556.318,-121.397 536.589,-94.2441 565,-72.5 566.867,-71.0713 568.81,-69.7374 570.815,-68.4922"/>
<polygon fill="#757575" stroke="#757575" points="572.812,-71.3929 579.971,-63.583 569.504,-65.2237 572.812,-71.3929"/>
</g>
<!-- lib/reconcile/reconciler.js&#45;&gt;lib/reconcile/normalize.js -->
<g id="edge26" class="edge"><title>lib/reconcile/reconciler.js&#45;&gt;lib/reconcile/normalize.js</title>
<path fill="none" stroke="#757575" d="M456.298,-182.084C473.538,-198.631 505.421,-230.374 529,-260.5 547.236,-283.8 540.651,-299.69 565,-316.5 567.591,-318.289 570.305,-319.93 573.111,-321.436"/>
<polygon fill="#757575" stroke="#757575" points="571.814,-324.694 582.352,-325.798 574.803,-318.364 571.814,-324.694"/>
</g>
<!-- lib/jobs/jobCreator.js -->
<g id="node15" class="node"><title>lib/jobs/jobCreator.js</title>
<path fill="none" stroke="#c6c5fe" d="M730.333,-105C730.333,-105 599.667,-105 599.667,-105 595.833,-105 592,-101.167 592,-97.3333 592,-97.3333 592,-89.6667 592,-89.6667 592,-85.8333 595.833,-82 599.667,-82 599.667,-82 730.333,-82 730.333,-82 734.167,-82 738,-85.8333 738,-89.6667 738,-89.6667 738,-97.3333 738,-97.3333 738,-101.167 734.167,-105 730.333,-105"/>
<text text-anchor="middle" x="665" y="-89.8" font-family="Arial" font-size="14.00" fill="#c6c5fe">lib/jobs/jobCreator.js</text>
</g>
<!-- lib/reconcile/reconciler.js&#45;&gt;lib/jobs/jobCreator.js -->
<g id="edge24" class="edge"><title>lib/reconcile/reconciler.js&#45;&gt;lib/jobs/jobCreator.js</title>
<path fill="none" stroke="#757575" d="M490.873,-158.998C503.551,-155.131 517.061,-150.295 529,-144.5 546.524,-135.993 547.309,-127.654 565,-119.5 574.885,-114.944 585.707,-111.079 596.452,-107.837"/>
<polygon fill="#757575" stroke="#757575" points="597.615,-111.144 606.269,-105.031 595.692,-104.414 597.615,-111.144"/>
</g>
<!-- lib/reconcile/createOptions.js -->
<g id="node17" class="node"><title>lib/reconcile/createOptions.js</title>
<path fill="none" stroke="#cfffac" d="M757.333,-308C757.333,-308 572.667,-308 572.667,-308 568.833,-308 565,-304.167 565,-300.333 565,-300.333 565,-292.667 565,-292.667 565,-288.833 568.833,-285 572.667,-285 572.667,-285 757.333,-285 757.333,-285 761.167,-285 765,-288.833 765,-292.667 765,-292.667 765,-300.333 765,-300.333 765,-304.167 761.167,-308 757.333,-308"/>
<text text-anchor="middle" x="665" y="-292.8" font-family="Arial" font-size="14.00" fill="#cfffac">lib/reconcile/createOptions.js</text>
</g>
<!-- lib/reconcile/reconciler.js&#45;&gt;lib/reconcile/createOptions.js -->
<g id="edge25" class="edge"><title>lib/reconcile/reconciler.js&#45;&gt;lib/reconcile/createOptions.js</title>
<path fill="none" stroke="#757575" d="M453.646,-182.101C472.574,-204.047 516.944,-251.579 565,-275.5 569.649,-277.814 574.543,-279.874 579.566,-281.707"/>
<polygon fill="#757575" stroke="#757575" points="578.756,-285.126 589.349,-284.96 580.964,-278.483 578.756,-285.126"/>
</g>
<!-- lib/reconcile/resources.js -->
<g id="node18" class="node"><title>lib/reconcile/resources.js</title>
<path fill="none" stroke="#c6c5fe" d="M744.333,-185C744.333,-185 585.667,-185 585.667,-185 581.833,-185 578,-181.167 578,-177.333 578,-177.333 578,-169.667 578,-169.667 578,-165.833 581.833,-162 585.667,-162 585.667,-162 744.333,-162 744.333,-162 748.167,-162 752,-165.833 752,-169.667 752,-169.667 752,-177.333 752,-177.333 752,-181.167 748.167,-185 744.333,-185"/>
<text text-anchor="middle" x="665" y="-169.8" font-family="Arial" font-size="14.00" fill="#c6c5fe">lib/reconcile/resources.js</text>
</g>
<!-- lib/reconcile/reconciler.js&#45;&gt;lib/reconcile/resources.js -->
<g id="edge27" class="edge"><title>lib/reconcile/reconciler.js&#45;&gt;lib/reconcile/resources.js</title>
<path fill="none" stroke="#757575" d="M529.058,-171.66C541.652,-171.832 554.706,-172.01 567.512,-172.184"/>
<polygon fill="#757575" stroke="#757575" points="567.669,-175.687 577.716,-172.323 567.765,-168.687 567.669,-175.687"/>
</g>
<!-- lib/templates/fs&#45;template.js -->
<g id="node19" class="node"><title>lib/templates/fs&#45;template.js</title>
<path fill="none" stroke="#cfffac" d="M750.333,-267C750.333,-267 579.667,-267 579.667,-267 575.833,-267 572,-263.167 572,-259.333 572,-259.333 572,-251.667 572,-251.667 572,-247.833 575.833,-244 579.667,-244 579.667,-244 750.333,-244 750.333,-244 754.167,-244 758,-247.833 758,-251.667 758,-251.667 758,-259.333 758,-259.333 758,-263.167 754.167,-267 750.333,-267"/>
<text text-anchor="middle" x="665" y="-251.8" font-family="Arial" font-size="14.00" fill="#cfffac">lib/templates/fs&#45;template.js</text>
</g>
<!-- lib/reconcile/reconciler.js&#45;&gt;lib/templates/fs&#45;template.js -->
<g id="edge28" class="edge"><title>lib/reconcile/reconciler.js&#45;&gt;lib/templates/fs&#45;template.js</title>
<path fill="none" stroke="#757575" d="M462.121,-182.15C485.16,-196.468 526.572,-220.57 565,-234.5 572.201,-237.11 579.82,-239.441 587.506,-241.511"/>
<polygon fill="#757575" stroke="#757575" points="586.697,-244.916 597.252,-243.995 588.426,-238.133 586.697,-244.916"/>
</g>
<!-- lib/templates/s3&#45;template.js -->
<g id="node20" class="node"><title>lib/templates/s3&#45;template.js</title>
<path fill="none" stroke="#cfffac" d="M752.333,-226C752.333,-226 577.667,-226 577.667,-226 573.833,-226 570,-222.167 570,-218.333 570,-218.333 570,-210.667 570,-210.667 570,-206.833 573.833,-203 577.667,-203 577.667,-203 752.333,-203 752.333,-203 756.167,-203 760,-206.833 760,-210.667 760,-210.667 760,-218.333 760,-218.333 760,-222.167 756.167,-226 752.333,-226"/>
<text text-anchor="middle" x="665" y="-210.8" font-family="Arial" font-size="14.00" fill="#cfffac">lib/templates/s3&#45;template.js</text>
</g>
<!-- lib/reconcile/reconciler.js&#45;&gt;lib/templates/s3&#45;template.js -->
<g id="edge29" class="edge"><title>lib/reconcile/reconciler.js&#45;&gt;lib/templates/s3&#45;template.js</title>
<path fill="none" stroke="#757575" d="M501.515,-182.003C530.568,-187.814 566.002,-194.9 596.356,-200.971"/>
<polygon fill="#757575" stroke="#757575" points="595.947,-204.459 606.439,-202.988 597.32,-197.595 595.947,-204.459"/>
</g>
<!-- lib/jobs/jobCreator.js&#45;&gt;lib/consts/index.js -->
<g id="edge19" class="edge"><title>lib/jobs/jobCreator.js&#45;&gt;lib/consts/index.js</title>
<path fill="none" stroke="#757575" d="M714.948,-105.06C731.02,-109.199 748.888,-114.17 765,-119.5 790.133,-127.814 817.791,-138.944 839.022,-147.93"/>
<polygon fill="#757575" stroke="#757575" points="837.721,-151.18 848.292,-151.89 840.471,-144.743 837.721,-151.18"/>
</g>
<!-- lib/templates/index.js -->
<g id="node16" class="node"><title>lib/templates/index.js</title>
<path fill="none" stroke="#c6c5fe" d="M942.333,-83C942.333,-83 808.667,-83 808.667,-83 804.833,-83 801,-79.1667 801,-75.3333 801,-75.3333 801,-67.6667 801,-67.6667 801,-63.8333 804.833,-60 808.667,-60 808.667,-60 942.333,-60 942.333,-60 946.167,-60 950,-63.8333 950,-67.6667 950,-67.6667 950,-75.3333 950,-75.3333 950,-79.1667 946.167,-83 942.333,-83"/>
<text text-anchor="middle" x="875.5" y="-67.8" font-family="Arial" font-size="14.00" fill="#c6c5fe">lib/templates/index.js</text>
</g>
<!-- lib/jobs/jobCreator.js&#45;&gt;lib/templates/index.js -->
<g id="edge20" class="edge"><title>lib/jobs/jobCreator.js&#45;&gt;lib/templates/index.js</title>
<path fill="none" stroke="#757575" d="M738.046,-85.898C754.97,-84.1123 773.15,-82.194 790.545,-80.3586"/>
<polygon fill="#757575" stroke="#757575" points="791.104,-83.8191 800.681,-79.289 790.369,-76.8578 791.104,-83.8191"/>
</g>
<!-- lib/templates/pipeline&#45;driver.js -->
<g id="node21" class="node"><title>lib/templates/pipeline&#45;driver.js</title>
<path fill="none" stroke="#cfffac" d="M1181.33,-42C1181.33,-42 993.667,-42 993.667,-42 989.833,-42 986,-38.1667 986,-34.3333 986,-34.3333 986,-26.6667 986,-26.6667 986,-22.8333 989.833,-19 993.667,-19 993.667,-19 1181.33,-19 1181.33,-19 1185.17,-19 1189,-22.8333 1189,-26.6667 1189,-26.6667 1189,-34.3333 1189,-34.3333 1189,-38.1667 1185.17,-42 1181.33,-42"/>
<text text-anchor="middle" x="1087.5" y="-26.8" font-family="Arial" font-size="14.00" fill="#cfffac">lib/templates/pipeline&#45;driver.js</text>
</g>
<!-- lib/templates/index.js&#45;&gt;lib/templates/pipeline&#45;driver.js -->
<g id="edge31" class="edge"><title>lib/templates/index.js&#45;&gt;lib/templates/pipeline&#45;driver.js</title>
<path fill="none" stroke="#757575" d="M935.556,-59.9701C961.05,-54.9926 991.046,-49.1363 1017.55,-43.9611"/>
<polygon fill="#757575" stroke="#757575" points="1018.38,-47.3657 1027.52,-42.0143 1017.04,-40.4955 1018.38,-47.3657"/>
</g>
<!-- lib/templates/worker.js -->
<g id="node22" class="node"><title>lib/templates/worker.js</title>
<path fill="none" stroke="#cfffac" d="M1157.83,-83C1157.83,-83 1017.17,-83 1017.17,-83 1013.33,-83 1009.5,-79.1667 1009.5,-75.3333 1009.5,-75.3333 1009.5,-67.6667 1009.5,-67.6667 1009.5,-63.8333 1013.33,-60 1017.17,-60 1017.17,-60 1157.83,-60 1157.83,-60 1161.67,-60 1165.5,-63.8333 1165.5,-67.6667 1165.5,-67.6667 1165.5,-75.3333 1165.5,-75.3333 1165.5,-79.1667 1161.67,-83 1157.83,-83"/>
<text text-anchor="middle" x="1087.5" y="-67.8" font-family="Arial" font-size="14.00" fill="#cfffac">lib/templates/worker.js</text>
</g>
<!-- lib/templates/index.js&#45;&gt;lib/templates/worker.js -->
<g id="edge32" class="edge"><title>lib/templates/index.js&#45;&gt;lib/templates/worker.js</title>
<path fill="none" stroke="#757575" d="M950.243,-71.5C966.098,-71.5 982.999,-71.5 999.309,-71.5"/>
<polygon fill="#757575" stroke="#757575" points="999.374,-75.0001 1009.37,-71.5 999.374,-68.0001 999.374,-75.0001"/>
</g>
<!-- lib/reconcile/resources.js&#45;&gt;lib/consts/index.js -->
<g id="edge30" class="edge"><title>lib/reconcile/resources.js&#45;&gt;lib/consts/index.js</title>
<path fill="none" stroke="#757575" d="M752.009,-169.375C768.296,-168.594 785.196,-167.783 801.052,-167.023"/>
<polygon fill="#757575" stroke="#757575" points="801.483,-170.506 811.304,-166.531 801.148,-163.514 801.483,-170.506"/>
</g>
</g>
</svg>
