<?xml version="1.0" encoding="UTF-8" standalone="no"?>
<!DOCTYPE svg PUBLIC "-//W3C//DTD SVG 1.1//EN"
 "http://www.w3.org/Graphics/SVG/1.1/DTD/svg11.dtd">
<!-- Generated by graphviz version 2.38.0 (20140413.2041)
 -->
<!-- Title: G Pages: 1 -->
<svg width="1232pt" height="418pt"
 viewBox="0.00 0.00 1232.20 418.42" xmlns="http://www.w3.org/2000/svg" xmlns:xlink="http://www.w3.org/1999/xlink">
<g id="graph0" class="graph" transform="scale(1 1) rotate(0) translate(21.6 396.818)">
<title>G</title>
<polygon fill="#111111" stroke="none" points="-21.6,21.6 -21.6,-396.818 1210.6,-396.818 1210.6,21.6 -21.6,21.6"/>
<!-- app.js -->
<g id="node1" class="node"><title>app.js</title>
<path fill="none" stroke="#c6c5fe" d="M47.3333,-121.095C47.3333,-121.095 7.66667,-121.095 7.66667,-121.095 3.83333,-121.095 0,-117.261 0,-113.428 0,-113.428 0,-105.761 0,-105.761 0,-101.928 3.83333,-98.0948 7.66667,-98.0948 7.66667,-98.0948 47.3333,-98.0948 47.3333,-98.0948 51.1667,-98.0948 55,-101.928 55,-105.761 55,-105.761 55,-113.428 55,-113.428 55,-117.261 51.1667,-121.095 47.3333,-121.095"/>
<text text-anchor="middle" x="27.5" y="-105.895" font-family="Arial" font-size="14.00" fill="#c6c5fe">app.js</text>
</g>
<!-- bootstrap.js -->
<g id="node2" class="node"><title>bootstrap.js</title>
<path fill="none" stroke="#c6c5fe" d="M174.333,-121.095C174.333,-121.095 98.6667,-121.095 98.6667,-121.095 94.8333,-121.095 91,-117.261 91,-113.428 91,-113.428 91,-105.761 91,-105.761 91,-101.928 94.8333,-98.0948 98.6667,-98.0948 98.6667,-98.0948 174.333,-98.0948 174.333,-98.0948 178.167,-98.0948 182,-101.928 182,-105.761 182,-105.761 182,-113.428 182,-113.428 182,-117.261 178.167,-121.095 174.333,-121.095"/>
<text text-anchor="middle" x="136.5" y="-105.895" font-family="Arial" font-size="14.00" fill="#c6c5fe">bootstrap.js</text>
</g>
<!-- app.js&#45;&gt;bootstrap.js -->
<g id="edge1" class="edge"><title>app.js&#45;&gt;bootstrap.js</title>
<path fill="none" stroke="#757575" d="M55.2246,-109.595C63.0501,-109.595 71.9053,-109.595 80.8047,-109.595"/>
<polygon fill="#757575" stroke="#757575" points="80.8186,-113.095 90.8186,-109.595 80.8185,-106.095 80.8186,-113.095"/>
</g>
<!-- lib/consts/index.js -->
<g id="node3" class="node"><title>lib/consts/index.js</title>
<path fill="none" stroke="#c6c5fe" d="M931.833,-183.095C931.833,-183.095 819.167,-183.095 819.167,-183.095 815.333,-183.095 811.5,-179.261 811.5,-175.428 811.5,-175.428 811.5,-167.761 811.5,-167.761 811.5,-163.928 815.333,-160.095 819.167,-160.095 819.167,-160.095 931.833,-160.095 931.833,-160.095 935.667,-160.095 939.5,-163.928 939.5,-167.761 939.5,-167.761 939.5,-175.428 939.5,-175.428 939.5,-179.261 935.667,-183.095 931.833,-183.095"/>
<text text-anchor="middle" x="875.5" y="-167.895" font-family="Arial" font-size="14.00" fill="#c6c5fe">lib/consts/index.js</text>
</g>
<!-- bootstrap.js&#45;&gt;lib/consts/index.js -->
<g id="edge2" class="edge"><title>bootstrap.js&#45;&gt;lib/consts/index.js</title>
<path fill="none" stroke="#757575" d="M162.063,-98.039C249.223,-58.7993 549.95,61.423 765,-39.5948 814.123,-62.6698 848.805,-119.803 864.708,-150.798"/>
<polygon fill="#757575" stroke="#757575" points="861.627,-152.463 869.206,-159.866 867.898,-149.352 861.627,-152.463"/>
</g>
<!-- lib/executor.js -->
<g id="node4" class="node"><title>lib/executor.js</title>
<path fill="none" stroke="#c6c5fe" d="M313.333,-170.095C313.333,-170.095 225.667,-170.095 225.667,-170.095 221.833,-170.095 218,-166.261 218,-162.428 218,-162.428 218,-154.761 218,-154.761 218,-150.928 221.833,-147.095 225.667,-147.095 225.667,-147.095 313.333,-147.095 313.333,-147.095 317.167,-147.095 321,-150.928 321,-154.761 321,-154.761 321,-162.428 321,-162.428 321,-166.261 317.167,-170.095 313.333,-170.095"/>
<text text-anchor="middle" x="269.5" y="-154.895" font-family="Arial" font-size="14.00" fill="#c6c5fe">lib/executor.js</text>
</g>
<!-- bootstrap.js&#45;&gt;lib/executor.js -->
<g id="edge3" class="edge"><title>bootstrap.js&#45;&gt;lib/executor.js</title>
<path fill="none" stroke="#757575" d="M168.545,-121.207C186.409,-127.889 209.054,-136.359 228.271,-143.547"/>
<polygon fill="#757575" stroke="#757575" points="227.085,-146.841 237.678,-147.066 229.538,-140.284 227.085,-146.841"/>
</g>
<!-- lib/helpers/etcd.js -->
<g id="node5" class="node"><title>lib/helpers/etcd.js</title>
<path fill="none" stroke="#c6c5fe" d="M721.333,-355.095C721.333,-355.095 608.667,-355.095 608.667,-355.095 604.833,-355.095 601,-351.261 601,-347.428 601,-347.428 601,-339.761 601,-339.761 601,-335.928 604.833,-332.095 608.667,-332.095 608.667,-332.095 721.333,-332.095 721.333,-332.095 725.167,-332.095 729,-335.928 729,-339.761 729,-339.761 729,-347.428 729,-347.428 729,-351.261 725.167,-355.095 721.333,-355.095"/>
<text text-anchor="middle" x="665" y="-339.895" font-family="Arial" font-size="14.00" fill="#c6c5fe">lib/helpers/etcd.js</text>
</g>
<!-- bootstrap.js&#45;&gt;lib/helpers/etcd.js -->
<g id="edge4" class="edge"><title>bootstrap.js&#45;&gt;lib/helpers/etcd.js</title>
<path fill="none" stroke="#757575" d="M143.381,-121.308C164.934,-162.733 244.26,-302.507 357,-352.595 441.241,-390.021 551.706,-372.795 614.562,-357.663"/>
<polygon fill="#757575" stroke="#757575" points="615.744,-360.975 624.604,-355.165 614.055,-354.182 615.744,-360.975"/>
</g>
<!-- lib/helpers/kubernetes.js -->
<g id="node6" class="node"><title>lib/helpers/kubernetes.js</title>
<path fill="none" stroke="#c6c5fe" d="M742.333,-72.0948C742.333,-72.0948 587.667,-72.0948 587.667,-72.0948 583.833,-72.0948 580,-68.2615 580,-64.4281 580,-64.4281 580,-56.7615 580,-56.7615 580,-52.9281 583.833,-49.0948 587.667,-49.0948 587.667,-49.0948 742.333,-49.0948 742.333,-49.0948 746.167,-49.0948 750,-52.9281 750,-56.7615 750,-56.7615 750,-64.4281 750,-64.4281 750,-68.2615 746.167,-72.0948 742.333,-72.0948"/>
<text text-anchor="middle" x="665" y="-56.8948" font-family="Arial" font-size="14.00" fill="#c6c5fe">lib/helpers/kubernetes.js</text>
</g>
<!-- bootstrap.js&#45;&gt;lib/helpers/kubernetes.js -->
<g id="edge5" class="edge"><title>bootstrap.js&#45;&gt;lib/helpers/kubernetes.js</title>
<path fill="none" stroke="#757575" d="M182.32,-101.551C226.568,-93.9196 296.23,-82.7319 357,-76.5948 428.029,-69.4217 508.646,-65.3764 569.441,-63.1486"/>
<polygon fill="#757575" stroke="#757575" points="569.918,-66.6339 579.787,-62.78 569.669,-59.6384 569.918,-66.6339"/>
</g>
<!-- lib/consts/commands.js -->
<g id="node7" class="node"><title>lib/consts/commands.js</title>
<path fill="none" stroke="#cfffac" d="M1162.33,-255.095C1162.33,-255.095 1012.67,-255.095 1012.67,-255.095 1008.83,-255.095 1005,-251.261 1005,-247.428 1005,-247.428 1005,-239.761 1005,-239.761 1005,-235.928 1008.83,-232.095 1012.67,-232.095 1012.67,-232.095 1162.33,-232.095 1162.33,-232.095 1166.17,-232.095 1170,-235.928 1170,-239.761 1170,-239.761 1170,-247.428 1170,-247.428 1170,-251.261 1166.17,-255.095 1162.33,-255.095"/>
<text text-anchor="middle" x="1087.5" y="-239.895" font-family="Arial" font-size="14.00" fill="#cfffac">lib/consts/commands.js</text>
</g>
<!-- lib/consts/index.js&#45;&gt;lib/consts/commands.js -->
<g id="edge6" class="edge"><title>lib/consts/index.js&#45;&gt;lib/consts/commands.js</title>
<path fill="none" stroke="#757575" d="M897.714,-183.266C919.346,-194.734 954.159,-212.01 986,-222.595 993.902,-225.222 1002.27,-227.589 1010.66,-229.705"/>
<polygon fill="#757575" stroke="#757575" points="1009.97,-233.137 1020.51,-232.072 1011.6,-226.331 1009.97,-233.137"/>
</g>
<!-- lib/consts/components.js -->
<g id="node8" class="node"><title>lib/consts/components.js</title>
<path fill="none" stroke="#cfffac" d="M1166.33,-214.095C1166.33,-214.095 1008.67,-214.095 1008.67,-214.095 1004.83,-214.095 1001,-210.261 1001,-206.428 1001,-206.428 1001,-198.761 1001,-198.761 1001,-194.928 1004.83,-191.095 1008.67,-191.095 1008.67,-191.095 1166.33,-191.095 1166.33,-191.095 1170.17,-191.095 1174,-194.928 1174,-198.761 1174,-198.761 1174,-206.428 1174,-206.428 1174,-210.261 1170.17,-214.095 1166.33,-214.095"/>
<text text-anchor="middle" x="1087.5" y="-198.895" font-family="Arial" font-size="14.00" fill="#cfffac">lib/consts/components.js</text>
</g>
<!-- lib/consts/index.js&#45;&gt;lib/consts/components.js -->
<g id="edge7" class="edge"><title>lib/consts/index.js&#45;&gt;lib/consts/components.js</title>
<path fill="none" stroke="#757575" d="M939.507,-180.896C958.007,-183.627 978.59,-186.665 998.354,-189.583"/>
<polygon fill="#757575" stroke="#757575" points="997.883,-193.051 1008.29,-191.049 998.906,-186.126 997.883,-193.051"/>
</g>
<!-- lib/consts/consts.js -->
<g id="node9" class="node"><title>lib/consts/consts.js</title>
<path fill="none" stroke="#cfffac" d="M1148.33,-173.095C1148.33,-173.095 1026.67,-173.095 1026.67,-173.095 1022.83,-173.095 1019,-169.261 1019,-165.428 1019,-165.428 1019,-157.761 1019,-157.761 1019,-153.928 1022.83,-150.095 1026.67,-150.095 1026.67,-150.095 1148.33,-150.095 1148.33,-150.095 1152.17,-150.095 1156,-153.928 1156,-157.761 1156,-157.761 1156,-165.428 1156,-165.428 1156,-169.261 1152.17,-173.095 1148.33,-173.095"/>
<text text-anchor="middle" x="1087.5" y="-157.895" font-family="Arial" font-size="14.00" fill="#cfffac">lib/consts/consts.js</text>
</g>
<!-- lib/consts/index.js&#45;&gt;lib/consts/consts.js -->
<g id="edge8" class="edge"><title>lib/consts/index.js&#45;&gt;lib/consts/consts.js</title>
<path fill="none" stroke="#757575" d="M939.507,-168.594C961.292,-167.557 985.964,-166.382 1008.79,-165.295"/>
<polygon fill="#757575" stroke="#757575" points="1008.96,-168.791 1018.78,-164.819 1008.63,-161.799 1008.96,-168.791"/>
</g>
<!-- lib/consts/containers.js -->
<g id="node10" class="node"><title>lib/consts/containers.js</title>
<path fill="none" stroke="#cfffac" d="M1159.83,-132.095C1159.83,-132.095 1015.17,-132.095 1015.17,-132.095 1011.33,-132.095 1007.5,-128.261 1007.5,-124.428 1007.5,-124.428 1007.5,-116.761 1007.5,-116.761 1007.5,-112.928 1011.33,-109.095 1015.17,-109.095 1015.17,-109.095 1159.83,-109.095 1159.83,-109.095 1163.67,-109.095 1167.5,-112.928 1167.5,-116.761 1167.5,-116.761 1167.5,-124.428 1167.5,-124.428 1167.5,-128.261 1163.67,-132.095 1159.83,-132.095"/>
<text text-anchor="middle" x="1087.5" y="-116.895" font-family="Arial" font-size="14.00" fill="#cfffac">lib/consts/containers.js</text>
</g>
<!-- lib/consts/index.js&#45;&gt;lib/consts/containers.js -->
<g id="edge9" class="edge"><title>lib/consts/index.js&#45;&gt;lib/consts/containers.js</title>
<path fill="none" stroke="#757575" d="M914.312,-160.089C935.319,-153.9 961.989,-146.373 986,-140.595 995.179,-138.386 1004.87,-136.233 1014.47,-134.209"/>
<polygon fill="#757575" stroke="#757575" points="1015.33,-137.605 1024.41,-132.148 1013.91,-130.751 1015.33,-137.605"/>
</g>
<!-- lib/consts/metrics.js -->
<g id="node11" class="node"><title>lib/consts/metrics.js</title>
<path fill="none" stroke="#cfffac" d="M1150.33,-91.0948C1150.33,-91.0948 1024.67,-91.0948 1024.67,-91.0948 1020.83,-91.0948 1017,-87.2615 1017,-83.4281 1017,-83.4281 1017,-75.7615 1017,-75.7615 1017,-71.9281 1020.83,-68.0948 1024.67,-68.0948 1024.67,-68.0948 1150.33,-68.0948 1150.33,-68.0948 1154.17,-68.0948 1158,-71.9281 1158,-75.7615 1158,-75.7615 1158,-83.4281 1158,-83.4281 1158,-87.2615 1154.17,-91.0948 1150.33,-91.0948"/>
<text text-anchor="middle" x="1087.5" y="-75.8948" font-family="Arial" font-size="14.00" fill="#cfffac">lib/consts/metrics.js</text>
</g>
<!-- lib/consts/index.js&#45;&gt;lib/consts/metrics.js -->
<g id="edge10" class="edge"><title>lib/consts/index.js&#45;&gt;lib/consts/metrics.js</title>
<path fill="none" stroke="#757575" d="M890.366,-159.894C910.227,-143.765 948.528,-114.956 986,-99.5948 992.677,-96.8577 999.761,-94.4858 1006.96,-92.4322"/>
<polygon fill="#757575" stroke="#757575" points="1008.04,-95.767 1016.81,-89.8247 1006.24,-89 1008.04,-95.767"/>
</g>
<!-- lib/executor.js&#45;&gt;lib/consts/index.js -->
<g id="edge11" class="edge"><title>lib/executor.js&#45;&gt;lib/consts/index.js</title>
<path fill="none" stroke="#757575" d="M289.921,-170.276C335.767,-197.063 455.135,-262.248 565,-283.595 652.257,-300.549 683.071,-318.074 765,-283.595 809.169,-265.007 844.416,-218.938 862.094,-192.03"/>
<polygon fill="#757575" stroke="#757575" points="865.179,-193.703 867.6,-183.388 859.275,-189.941 865.179,-193.703"/>
</g>
<!-- lib/executor.js&#45;&gt;lib/helpers/etcd.js -->
<g id="edge12" class="edge"><title>lib/executor.js&#45;&gt;lib/helpers/etcd.js</title>
<path fill="none" stroke="#757575" d="M272.907,-170.371C279.817,-200.812 302.799,-282.199 357,-317.595 426.435,-362.94 524.37,-362.897 590.816,-355.81"/>
<polygon fill="#757575" stroke="#757575" points="591.255,-359.283 600.792,-354.669 590.459,-352.329 591.255,-359.283"/>
</g>
<!-- lib/executor.js&#45;&gt;lib/helpers/kubernetes.js -->
<g id="edge13" class="edge"><title>lib/executor.js&#45;&gt;lib/helpers/kubernetes.js</title>
<path fill="none" stroke="#757575" d="M291.593,-147.05C308.754,-138.101 333.837,-126.013 357,-118.595 426.729,-96.2637 508.28,-81.3566 569.798,-72.253"/>
<polygon fill="#757575" stroke="#757575" points="570.488,-75.6895 579.88,-70.7863 569.481,-68.7624 570.488,-75.6895"/>
</g>
<!-- lib/reconcile/normalize.js -->
<g id="node12" class="node"><title>lib/reconcile/normalize.js</title>
<path fill="none" stroke="#cfffac" d="M742.833,-113.095C742.833,-113.095 587.167,-113.095 587.167,-113.095 583.333,-113.095 579.5,-109.261 579.5,-105.428 579.5,-105.428 579.5,-97.7615 579.5,-97.7615 579.5,-93.9281 583.333,-90.0948 587.167,-90.0948 587.167,-90.0948 742.833,-90.0948 742.833,-90.0948 746.667,-90.0948 750.5,-93.9281 750.5,-97.7615 750.5,-97.7615 750.5,-105.428 750.5,-105.428 750.5,-109.261 746.667,-113.095 742.833,-113.095"/>
<text text-anchor="middle" x="665" y="-97.8948" font-family="Arial" font-size="14.00" fill="#cfffac">lib/reconcile/normalize.js</text>
</g>
<!-- lib/executor.js&#45;&gt;lib/reconcile/normalize.js -->
<g id="edge14" class="edge"><title>lib/executor.js&#45;&gt;lib/reconcile/normalize.js</title>
<path fill="none" stroke="#757575" d="M321.138,-151.26C384.906,-142.023 495.587,-125.99 573.926,-114.642"/>
<polygon fill="#757575" stroke="#757575" points="574.88,-118.041 584.275,-113.143 573.876,-111.113 574.88,-118.041"/>
</g>
<!-- lib/reconcile/reconciler.js -->
<g id="node13" class="node"><title>lib/reconcile/reconciler.js</title>
<path fill="none" stroke="#c6c5fe" d="M521.333,-191.095C521.333,-191.095 364.667,-191.095 364.667,-191.095 360.833,-191.095 357,-187.261 357,-183.428 357,-183.428 357,-175.761 357,-175.761 357,-171.928 360.833,-168.095 364.667,-168.095 364.667,-168.095 521.333,-168.095 521.333,-168.095 525.167,-168.095 529,-171.928 529,-175.761 529,-175.761 529,-183.428 529,-183.428 529,-187.261 525.167,-191.095 521.333,-191.095"/>
<text text-anchor="middle" x="443" y="-175.895" font-family="Arial" font-size="14.00" fill="#c6c5fe">lib/reconcile/reconciler.js</text>
</g>
<!-- lib/executor.js&#45;&gt;lib/reconcile/reconciler.js -->
<g id="edge15" class="edge"><title>lib/executor.js&#45;&gt;lib/reconcile/reconciler.js</title>
<path fill="none" stroke="#757575" d="M321.028,-164.782C329.212,-165.784 337.914,-166.85 346.752,-167.932"/>
<polygon fill="#757575" stroke="#757575" points="346.417,-171.417 356.768,-169.158 347.268,-164.469 346.417,-171.417"/>
</g>
<!-- lib/helpers/etcd.js&#45;&gt;lib/consts/index.js -->
<g id="edge16" class="edge"><title>lib/helpers/etcd.js&#45;&gt;lib/consts/index.js</title>
<path fill="none" stroke="#757575" d="M729.253,-334.283C741.853,-330.482 754.441,-325.13 765,-317.595 788.479,-300.84 783.982,-286.884 801,-263.595 819.657,-238.061 842.603,-209.794 857.843,-191.42"/>
<polygon fill="#757575" stroke="#757575" points="860.939,-193.172 864.653,-183.25 855.562,-188.691 860.939,-193.172"/>
</g>
<!-- lib/utils/utils.js -->
<g id="node14" class="node"><title>lib/utils/utils.js</title>
<path fill="none" stroke="#cfffac" d="M918.833,-355.095C918.833,-355.095 832.167,-355.095 832.167,-355.095 828.333,-355.095 824.5,-351.261 824.5,-347.428 824.5,-347.428 824.5,-339.761 824.5,-339.761 824.5,-335.928 828.333,-332.095 832.167,-332.095 832.167,-332.095 918.833,-332.095 918.833,-332.095 922.667,-332.095 926.5,-335.928 926.5,-339.761 926.5,-339.761 926.5,-347.428 926.5,-347.428 926.5,-351.261 922.667,-355.095 918.833,-355.095"/>
<text text-anchor="middle" x="875.5" y="-339.895" font-family="Arial" font-size="14.00" fill="#cfffac">lib/utils/utils.js</text>
</g>
<!-- lib/helpers/etcd.js&#45;&gt;lib/utils/utils.js -->
<g id="edge17" class="edge"><title>lib/helpers/etcd.js&#45;&gt;lib/utils/utils.js</title>
<path fill="none" stroke="#757575" d="M729.123,-343.595C756.105,-343.595 787.464,-343.595 814.135,-343.595"/>
<polygon fill="#757575" stroke="#757575" points="814.488,-347.095 824.488,-343.595 814.488,-340.095 814.488,-347.095"/>
</g>
<!-- lib/helpers/kubernetes.js&#45;&gt;lib/consts/index.js -->
<g id="edge18" class="edge"><title>lib/helpers/kubernetes.js&#45;&gt;lib/consts/index.js</title>
<path fill="none" stroke="#757575" d="M742.914,-72.1732C750.549,-74.4877 758.041,-77.2642 765,-80.5948 802.169,-98.383 837.363,-131.592 857.393,-152.596"/>
<polygon fill="#757575" stroke="#757575" points="854.915,-155.071 864.299,-159.99 860.031,-150.293 854.915,-155.071"/>
</g>
<!-- lib/reconcile/reconciler.js&#45;&gt;lib/consts/index.js -->
<g id="edge21" class="edge"><title>lib/reconcile/reconciler.js&#45;&gt;lib/consts/index.js</title>
<path fill="none" stroke="#757575" d="M529.053,-178.014C608.39,-176.54 725.527,-174.363 800.931,-172.962"/>
<polygon fill="#757575" stroke="#757575" points="801.352,-176.455 811.285,-172.77 801.222,-169.456 801.352,-176.455"/>
</g>
<!-- lib/reconcile/reconciler.js&#45;&gt;lib/helpers/etcd.js -->
<g id="edge22" class="edge"><title>lib/reconcile/reconciler.js&#45;&gt;lib/helpers/etcd.js</title>
<path fill="none" stroke="#757575" d="M456.153,-191.239C477.348,-211.266 522.842,-253.023 565,-283.595 587.051,-299.586 613.503,-315.463 633.515,-326.864"/>
<polygon fill="#757575" stroke="#757575" points="632.065,-330.064 642.495,-331.926 635.503,-323.967 632.065,-330.064"/>
</g>
<!-- lib/reconcile/reconciler.js&#45;&gt;lib/helpers/kubernetes.js -->
<g id="edge23" class="edge"><title>lib/reconcile/reconciler.js&#45;&gt;lib/helpers/kubernetes.js</title>
<path fill="none" stroke="#757575" d="M459.656,-168.043C476.942,-155.15 505.444,-133.48 529,-113.595 545.586,-99.5939 545.655,-90.4372 565,-80.5948 568.59,-78.7685 572.332,-77.1089 576.171,-75.6008"/>
<polygon fill="#757575" stroke="#757575" points="577.626,-78.7983 585.88,-72.1555 575.285,-72.2013 577.626,-78.7983"/>
</g>
<!-- lib/reconcile/reconciler.js&#45;&gt;lib/reconcile/normalize.js -->
<g id="edge26" class="edge"><title>lib/reconcile/reconciler.js&#45;&gt;lib/reconcile/normalize.js</title>
<path fill="none" stroke="#757575" d="M492.172,-167.995C504.589,-164.022 517.644,-158.935 529,-152.595 547.436,-142.301 546.035,-130.876 565,-121.595 568.854,-119.709 572.875,-118.001 576.997,-116.453"/>
<polygon fill="#757575" stroke="#757575" points="578.427,-119.664 586.766,-113.128 576.171,-113.037 578.427,-119.664"/>
</g>
<!-- lib/jobs/jobCreator.js -->
<g id="node15" class="node"><title>lib/jobs/jobCreator.js</title>
<path fill="none" stroke="#c6c5fe" d="M730.333,-275.095C730.333,-275.095 599.667,-275.095 599.667,-275.095 595.833,-275.095 592,-271.261 592,-267.428 592,-267.428 592,-259.761 592,-259.761 592,-255.928 595.833,-252.095 599.667,-252.095 599.667,-252.095 730.333,-252.095 730.333,-252.095 734.167,-252.095 738,-255.928 738,-259.761 738,-259.761 738,-267.428 738,-267.428 738,-271.261 734.167,-275.095 730.333,-275.095"/>
<text text-anchor="middle" x="665" y="-259.895" font-family="Arial" font-size="14.00" fill="#c6c5fe">lib/jobs/jobCreator.js</text>
</g>
<!-- lib/reconcile/reconciler.js&#45;&gt;lib/jobs/jobCreator.js -->
<g id="edge24" class="edge"><title>lib/reconcile/reconciler.js&#45;&gt;lib/jobs/jobCreator.js</title>
<path fill="none" stroke="#757575" d="M462.553,-191.295C485.698,-205.402 526.881,-228.916 565,-242.595 572.209,-245.182 579.834,-247.497 587.524,-249.557"/>
<polygon fill="#757575" stroke="#757575" points="586.719,-252.964 597.272,-252.032 588.441,-246.179 586.719,-252.964"/>
</g>
<!-- lib/reconcile/createOptions.js -->
<g id="node17" class="node"><title>lib/reconcile/createOptions.js</title>
<path fill="none" stroke="#cfffac" d="M757.333,-234.095C757.333,-234.095 572.667,-234.095 572.667,-234.095 568.833,-234.095 565,-230.261 565,-226.428 565,-226.428 565,-218.761 565,-218.761 565,-214.928 568.833,-211.095 572.667,-211.095 572.667,-211.095 757.333,-211.095 757.333,-211.095 761.167,-211.095 765,-214.928 765,-218.761 765,-218.761 765,-226.428 765,-226.428 765,-230.261 761.167,-234.095 757.333,-234.095"/>
<text text-anchor="middle" x="665" y="-218.895" font-family="Arial" font-size="14.00" fill="#cfffac">lib/reconcile/createOptions.js</text>
</g>
<!-- lib/reconcile/reconciler.js&#45;&gt;lib/reconcile/createOptions.js -->
<g id="edge25" class="edge"><title>lib/reconcile/reconciler.js&#45;&gt;lib/reconcile/createOptions.js</title>
<path fill="none" stroke="#757575" d="M502.956,-191.118C531.315,-196.661 565.491,-203.341 595.049,-209.118"/>
<polygon fill="#757575" stroke="#757575" points="594.396,-212.556 604.881,-211.04 595.738,-205.686 594.396,-212.556"/>
</g>
<!-- lib/reconcile/resources.js -->
<g id="node18" class="node"><title>lib/reconcile/resources.js</title>
<path fill="none" stroke="#c6c5fe" d="M744.333,-154.095C744.333,-154.095 585.667,-154.095 585.667,-154.095 581.833,-154.095 578,-150.261 578,-146.428 578,-146.428 578,-138.761 578,-138.761 578,-134.928 581.833,-131.095 585.667,-131.095 585.667,-131.095 744.333,-131.095 744.333,-131.095 748.167,-131.095 752,-134.928 752,-138.761 752,-138.761 752,-146.428 752,-146.428 752,-150.261 748.167,-154.095 744.333,-154.095"/>
<text text-anchor="middle" x="665" y="-138.895" font-family="Arial" font-size="14.00" fill="#c6c5fe">lib/reconcile/resources.js</text>
</g>
<!-- lib/reconcile/reconciler.js&#45;&gt;lib/reconcile/resources.js -->
<g id="edge27" class="edge"><title>lib/reconcile/reconciler.js&#45;&gt;lib/reconcile/resources.js</title>
<path fill="none" stroke="#757575" d="M512.403,-168.091C535.47,-164.211 561.4,-159.85 585.203,-155.847"/>
<polygon fill="#757575" stroke="#757575" points="585.979,-159.266 595.26,-154.156 584.818,-152.363 585.979,-159.266"/>
</g>
<!-- lib/jobs/jobCreator.js&#45;&gt;lib/consts/index.js -->
<g id="edge19" class="edge"><title>lib/jobs/jobCreator.js&#45;&gt;lib/consts/index.js</title>
<path fill="none" stroke="#757575" d="M736.212,-252.055C746.056,-249.475 755.908,-246.355 765,-242.595 797.571,-229.125 830.992,-205.807 852.203,-189.584"/>
<polygon fill="#757575" stroke="#757575" points="854.499,-192.232 860.24,-183.327 850.199,-186.709 854.499,-192.232"/>
</g>
<!-- lib/templates/index.js -->
<g id="node16" class="node"><title>lib/templates/index.js</title>
<path fill="none" stroke="#c6c5fe" d="M942.333,-296.095C942.333,-296.095 808.667,-296.095 808.667,-296.095 804.833,-296.095 801,-292.261 801,-288.428 801,-288.428 801,-280.761 801,-280.761 801,-276.928 804.833,-273.095 808.667,-273.095 808.667,-273.095 942.333,-273.095 942.333,-273.095 946.167,-273.095 950,-276.928 950,-280.761 950,-280.761 950,-288.428 950,-288.428 950,-292.261 946.167,-296.095 942.333,-296.095"/>
<text text-anchor="middle" x="875.5" y="-280.895" font-family="Arial" font-size="14.00" fill="#c6c5fe">lib/templates/index.js</text>
</g>
<!-- lib/jobs/jobCreator.js&#45;&gt;lib/templates/index.js -->
<g id="edge20" class="edge"><title>lib/jobs/jobCreator.js&#45;&gt;lib/templates/index.js</title>
<path fill="none" stroke="#757575" d="M738.046,-270.851C754.97,-272.556 773.15,-274.387 790.545,-276.139"/>
<polygon fill="#757575" stroke="#757575" points="790.381,-279.64 800.681,-277.16 791.082,-272.675 790.381,-279.64"/>
</g>
<!-- lib/templates/pipeline&#45;driver.js -->
<g id="node19" class="node"><title>lib/templates/pipeline&#45;driver.js</title>
<path fill="none" stroke="#cfffac" d="M1181.33,-296.095C1181.33,-296.095 993.667,-296.095 993.667,-296.095 989.833,-296.095 986,-292.261 986,-288.428 986,-288.428 986,-280.761 986,-280.761 986,-276.928 989.833,-273.095 993.667,-273.095 993.667,-273.095 1181.33,-273.095 1181.33,-273.095 1185.17,-273.095 1189,-276.928 1189,-280.761 1189,-280.761 1189,-288.428 1189,-288.428 1189,-292.261 1185.17,-296.095 1181.33,-296.095"/>
<text text-anchor="middle" x="1087.5" y="-280.895" font-family="Arial" font-size="14.00" fill="#cfffac">lib/templates/pipeline&#45;driver.js</text>
</g>
<!-- lib/templates/index.js&#45;&gt;lib/templates/pipeline&#45;driver.js -->
<g id="edge29" class="edge"><title>lib/templates/index.js&#45;&gt;lib/templates/pipeline&#45;driver.js</title>
<path fill="none" stroke="#757575" d="M950.243,-284.595C958.482,-284.595 967.004,-284.595 975.579,-284.595"/>
<polygon fill="#757575" stroke="#757575" points="975.656,-288.095 985.656,-284.595 975.656,-281.095 975.656,-288.095"/>
</g>
<!-- lib/templates/worker.js -->
<g id="node20" class="node"><title>lib/templates/worker.js</title>
<path fill="none" stroke="#cfffac" d="M1157.83,-337.095C1157.83,-337.095 1017.17,-337.095 1017.17,-337.095 1013.33,-337.095 1009.5,-333.261 1009.5,-329.428 1009.5,-329.428 1009.5,-321.761 1009.5,-321.761 1009.5,-317.928 1013.33,-314.095 1017.17,-314.095 1017.17,-314.095 1157.83,-314.095 1157.83,-314.095 1161.67,-314.095 1165.5,-317.928 1165.5,-321.761 1165.5,-321.761 1165.5,-329.428 1165.5,-329.428 1165.5,-333.261 1161.67,-337.095 1157.83,-337.095"/>
<text text-anchor="middle" x="1087.5" y="-321.895" font-family="Arial" font-size="14.00" fill="#cfffac">lib/templates/worker.js</text>
</g>
<!-- lib/templates/index.js&#45;&gt;lib/templates/worker.js -->
<g id="edge30" class="edge"><title>lib/templates/index.js&#45;&gt;lib/templates/worker.js</title>
<path fill="none" stroke="#757575" d="M935.556,-296.125C961.05,-301.102 991.046,-306.959 1017.55,-312.134"/>
<polygon fill="#757575" stroke="#757575" points="1017.04,-315.599 1027.52,-314.08 1018.38,-308.729 1017.04,-315.599"/>
</g>
<!-- lib/reconcile/resources.js&#45;&gt;lib/consts/index.js -->
<g id="edge28" class="edge"><title>lib/reconcile/resources.js&#45;&gt;lib/consts/index.js</title>
<path fill="none" stroke="#757575" d="M748.704,-154.098C765.934,-156.495 783.986,-159.005 800.862,-161.353"/>
<polygon fill="#757575" stroke="#757575" points="800.814,-164.88 811.201,-162.791 801.778,-157.946 800.814,-164.88"/>
</g>
</g>
</svg>
