<?xml version="1.0" encoding="UTF-8" standalone="no"?>
<!DOCTYPE svg PUBLIC "-//W3C//DTD SVG 1.1//EN"
 "http://www.w3.org/Graphics/SVG/1.1/DTD/svg11.dtd">
<!-- Generated by graphviz version 2.38.0 (20140413.2041)
 -->
<!-- Title: G Pages: 1 -->
<svg width="2062pt" height="1263pt"
 viewBox="0.00 0.00 2062.20 1262.97" xmlns="http://www.w3.org/2000/svg" xmlns:xlink="http://www.w3.org/1999/xlink">
<g id="graph0" class="graph" transform="scale(1 1) rotate(0) translate(21.6 1241.37)">
<title>G</title>
<polygon fill="#111111" stroke="none" points="-21.6,21.6 -21.6,-1241.37 2040.6,-1241.37 2040.6,21.6 -21.6,21.6"/>
<!-- app.js -->
<g id="node1" class="node"><title>app.js</title>
<path fill="none" stroke="#c6c5fe" d="M47.3333,-309.599C47.3333,-309.599 7.66667,-309.599 7.66667,-309.599 3.83333,-309.599 0,-305.766 0,-301.933 0,-301.933 0,-294.266 0,-294.266 0,-290.433 3.83333,-286.599 7.66667,-286.599 7.66667,-286.599 47.3333,-286.599 47.3333,-286.599 51.1667,-286.599 55,-290.433 55,-294.266 55,-294.266 55,-301.933 55,-301.933 55,-305.766 51.1667,-309.599 47.3333,-309.599"/>
<text text-anchor="middle" x="27.5" y="-294.399" font-family="Arial" font-size="14.00" fill="#c6c5fe">app.js</text>
</g>
<!-- bootstrap.js -->
<g id="node2" class="node"><title>bootstrap.js</title>
<path fill="none" stroke="#c6c5fe" d="M174.333,-309.599C174.333,-309.599 98.6667,-309.599 98.6667,-309.599 94.8333,-309.599 91,-305.766 91,-301.933 91,-301.933 91,-294.266 91,-294.266 91,-290.433 94.8333,-286.599 98.6667,-286.599 98.6667,-286.599 174.333,-286.599 174.333,-286.599 178.167,-286.599 182,-290.433 182,-294.266 182,-294.266 182,-301.933 182,-301.933 182,-305.766 178.167,-309.599 174.333,-309.599"/>
<text text-anchor="middle" x="136.5" y="-294.399" font-family="Arial" font-size="14.00" fill="#c6c5fe">bootstrap.js</text>
</g>
<!-- app.js&#45;&gt;bootstrap.js -->
<g id="edge1" class="edge"><title>app.js&#45;&gt;bootstrap.js</title>
<path fill="none" stroke="#757575" d="M55.2246,-298.099C63.0501,-298.099 71.9053,-298.099 80.8047,-298.099"/>
<polygon fill="#757575" stroke="#757575" points="80.8186,-301.599 90.8186,-298.099 80.8185,-294.599 80.8186,-301.599"/>
</g>
<!-- lib/consts/components.js -->
<g id="node3" class="node"><title>lib/consts/components.js</title>
<path fill="none" stroke="#cfffac" d="M2011.33,-359.599C2011.33,-359.599 1853.67,-359.599 1853.67,-359.599 1849.83,-359.599 1846,-355.766 1846,-351.933 1846,-351.933 1846,-344.266 1846,-344.266 1846,-340.433 1849.83,-336.599 1853.67,-336.599 1853.67,-336.599 2011.33,-336.599 2011.33,-336.599 2015.17,-336.599 2019,-340.433 2019,-344.266 2019,-344.266 2019,-351.933 2019,-351.933 2019,-355.766 2015.17,-359.599 2011.33,-359.599"/>
<text text-anchor="middle" x="1932.5" y="-344.399" font-family="Arial" font-size="14.00" fill="#cfffac">lib/consts/components.js</text>
</g>
<!-- bootstrap.js&#45;&gt;lib/consts/components.js -->
<g id="edge2" class="edge"><title>bootstrap.js&#45;&gt;lib/consts/components.js</title>
<path fill="none" stroke="#757575" d="M147.652,-286.592C193.226,-236.274 385.509,-38.0993 587,-38.0993 587,-38.0993 587,-38.0993 1384.5,-38.0993 1573.71,-38.0993 1654.6,55.8435 1810,-52.0993 1904.1,-117.46 1925.44,-269.635 1930.18,-326.313"/>
<polygon fill="#757575" stroke="#757575" points="1926.69,-326.608 1930.92,-336.321 1933.67,-326.089 1926.69,-326.608"/>
</g>
<!-- lib/helpers/prometheus.js -->
<g id="node4" class="node"><title>lib/helpers/prometheus.js</title>
<path fill="none" stroke="#c6c5fe" d="M1769.83,-425.599C1769.83,-425.599 1609.17,-425.599 1609.17,-425.599 1605.33,-425.599 1601.5,-421.766 1601.5,-417.933 1601.5,-417.933 1601.5,-410.266 1601.5,-410.266 1601.5,-406.433 1605.33,-402.599 1609.17,-402.599 1609.17,-402.599 1769.83,-402.599 1769.83,-402.599 1773.67,-402.599 1777.5,-406.433 1777.5,-410.266 1777.5,-410.266 1777.5,-417.933 1777.5,-417.933 1777.5,-421.766 1773.67,-425.599 1769.83,-425.599"/>
<text text-anchor="middle" x="1689.5" y="-410.399" font-family="Arial" font-size="14.00" fill="#c6c5fe">lib/helpers/prometheus.js</text>
</g>
<!-- bootstrap.js&#45;&gt;lib/helpers/prometheus.js -->
<g id="edge3" class="edge"><title>bootstrap.js&#45;&gt;lib/helpers/prometheus.js</title>
<path fill="none" stroke="#757575" d="M182.074,-298C405.792,-297.68 1400.73,-298.4 1533,-336.099 1550.81,-341.176 1552.63,-348.438 1569,-357.099 1596.86,-371.836 1629.15,-387.138 1653.14,-398.172"/>
<polygon fill="#757575" stroke="#757575" points="1652,-401.499 1662.55,-402.477 1654.92,-395.134 1652,-401.499"/>
</g>
<!-- lib/monitoring/metrics&#45;provider.js -->
<g id="node5" class="node"><title>lib/monitoring/metrics&#45;provider.js</title>
<path fill="none" stroke="#c6c5fe" d="M431.333,-1008.6C431.333,-1008.6 225.667,-1008.6 225.667,-1008.6 221.833,-1008.6 218,-1004.77 218,-1000.93 218,-1000.93 218,-993.266 218,-993.266 218,-989.433 221.833,-985.599 225.667,-985.599 225.667,-985.599 431.333,-985.599 431.333,-985.599 435.167,-985.599 439,-989.433 439,-993.266 439,-993.266 439,-1000.93 439,-1000.93 439,-1004.77 435.167,-1008.6 431.333,-1008.6"/>
<text text-anchor="middle" x="328.5" y="-993.399" font-family="Arial" font-size="14.00" fill="#c6c5fe">lib/monitoring/metrics&#45;provider.js</text>
</g>
<!-- bootstrap.js&#45;&gt;lib/monitoring/metrics&#45;provider.js -->
<g id="edge4" class="edge"><title>bootstrap.js&#45;&gt;lib/monitoring/metrics&#45;provider.js</title>
<path fill="none" stroke="#757575" d="M140.639,-309.649C162.54,-390.221 292.474,-868.242 321.676,-975.672"/>
<polygon fill="#757575" stroke="#757575" points="318.319,-976.666 324.319,-985.398 325.074,-974.83 318.319,-976.666"/>
</g>
<!-- lib/runner/runner.js -->
<g id="node6" class="node"><title>lib/runner/runner.js</title>
<path fill="none" stroke="#c6c5fe" d="M386.333,-431.599C386.333,-431.599 270.667,-431.599 270.667,-431.599 266.833,-431.599 263,-427.766 263,-423.933 263,-423.933 263,-416.266 263,-416.266 263,-412.433 266.833,-408.599 270.667,-408.599 270.667,-408.599 386.333,-408.599 386.333,-408.599 390.167,-408.599 394,-412.433 394,-416.266 394,-416.266 394,-423.933 394,-423.933 394,-427.766 390.167,-431.599 386.333,-431.599"/>
<text text-anchor="middle" x="328.5" y="-416.399" font-family="Arial" font-size="14.00" fill="#c6c5fe">lib/runner/runner.js</text>
</g>
<!-- bootstrap.js&#45;&gt;lib/runner/runner.js -->
<g id="edge5" class="edge"><title>bootstrap.js&#45;&gt;lib/runner/runner.js</title>
<path fill="none" stroke="#757575" d="M155.718,-309.797C189.339,-331.386 261.284,-377.582 300.558,-402.8"/>
<polygon fill="#757575" stroke="#757575" points="299.031,-405.979 309.337,-408.437 302.814,-400.089 299.031,-405.979"/>
</g>
<!-- lib/store/store&#45;manager.js -->
<g id="node7" class="node"><title>lib/store/store&#45;manager.js</title>
<path fill="none" stroke="#cfffac" d="M1769.83,-319.599C1769.83,-319.599 1609.17,-319.599 1609.17,-319.599 1605.33,-319.599 1601.5,-315.766 1601.5,-311.933 1601.5,-311.933 1601.5,-304.266 1601.5,-304.266 1601.5,-300.433 1605.33,-296.599 1609.17,-296.599 1609.17,-296.599 1769.83,-296.599 1769.83,-296.599 1773.67,-296.599 1777.5,-300.433 1777.5,-304.266 1777.5,-304.266 1777.5,-311.933 1777.5,-311.933 1777.5,-315.766 1773.67,-319.599 1769.83,-319.599"/>
<text text-anchor="middle" x="1689.5" y="-304.399" font-family="Arial" font-size="14.00" fill="#cfffac">lib/store/store&#45;manager.js</text>
</g>
<!-- bootstrap.js&#45;&gt;lib/store/store&#45;manager.js -->
<g id="edge6" class="edge"><title>bootstrap.js&#45;&gt;lib/store/store&#45;manager.js</title>
<path fill="none" stroke="#757575" d="M182.241,-288.623C262.792,-272.415 437.737,-241.099 587,-241.099 587,-241.099 587,-241.099 1082,-241.099 1282.73,-241.099 1336.77,-222.858 1533,-265.099 1549.78,-268.712 1552.62,-273.953 1569,-279.099 1586.79,-284.689 1606.34,-289.839 1624.39,-294.2"/>
<polygon fill="#757575" stroke="#757575" points="1623.71,-297.634 1634.25,-296.539 1625.32,-290.824 1623.71,-297.634"/>
</g>
<!-- lib/helpers/prometheus.js&#45;&gt;lib/consts/components.js -->
<g id="edge42" class="edge"><title>lib/helpers/prometheus.js&#45;&gt;lib/consts/components.js</title>
<path fill="none" stroke="#757575" d="M1732.75,-402.527C1773.58,-391.346 1835.53,-374.383 1879.39,-362.37"/>
<polygon fill="#757575" stroke="#757575" points="1880.57,-365.675 1889.29,-359.658 1878.72,-358.924 1880.57,-365.675"/>
</g>
<!-- lib/utils/utils.js -->
<g id="node11" class="node"><title>lib/utils/utils.js</title>
<path fill="none" stroke="#cfffac" d="M1975.83,-856.599C1975.83,-856.599 1889.17,-856.599 1889.17,-856.599 1885.33,-856.599 1881.5,-852.766 1881.5,-848.933 1881.5,-848.933 1881.5,-841.266 1881.5,-841.266 1881.5,-837.433 1885.33,-833.599 1889.17,-833.599 1889.17,-833.599 1975.83,-833.599 1975.83,-833.599 1979.67,-833.599 1983.5,-837.433 1983.5,-841.266 1983.5,-841.266 1983.5,-848.933 1983.5,-848.933 1983.5,-852.766 1979.67,-856.599 1975.83,-856.599"/>
<text text-anchor="middle" x="1932.5" y="-841.399" font-family="Arial" font-size="14.00" fill="#cfffac">lib/utils/utils.js</text>
</g>
<!-- lib/monitoring/metrics&#45;provider.js&#45;&gt;lib/utils/utils.js -->
<g id="edge94" class="edge"><title>lib/monitoring/metrics&#45;provider.js&#45;&gt;lib/utils/utils.js</title>
<path fill="none" stroke="#757575" d="M345.482,-1008.6C405.826,-1050.86 626.794,-1195.1 831.5,-1195.1 831.5,-1195.1 831.5,-1195.1 1384.5,-1195.1 1574.4,-1195.1 1658.23,-1270.25 1810,-1156.1 1905.98,-1083.91 1926.19,-924.861 1930.4,-866.834"/>
<polygon fill="#757575" stroke="#757575" points="1933.91,-866.833 1931.05,-856.631 1926.92,-866.389 1933.91,-866.833"/>
</g>
<!-- lib/monitoring/const.js -->
<g id="node52" class="node"><title>lib/monitoring/const.js</title>
<path fill="none" stroke="#cfffac" d="M656.833,-1008.6C656.833,-1008.6 519.167,-1008.6 519.167,-1008.6 515.333,-1008.6 511.5,-1004.77 511.5,-1000.93 511.5,-1000.93 511.5,-993.266 511.5,-993.266 511.5,-989.433 515.333,-985.599 519.167,-985.599 519.167,-985.599 656.833,-985.599 656.833,-985.599 660.667,-985.599 664.5,-989.433 664.5,-993.266 664.5,-993.266 664.5,-1000.93 664.5,-1000.93 664.5,-1004.77 660.667,-1008.6 656.833,-1008.6"/>
<text text-anchor="middle" x="588" y="-993.399" font-family="Arial" font-size="14.00" fill="#cfffac">lib/monitoring/const.js</text>
</g>
<!-- lib/monitoring/metrics&#45;provider.js&#45;&gt;lib/monitoring/const.js -->
<g id="edge93" class="edge"><title>lib/monitoring/metrics&#45;provider.js&#45;&gt;lib/monitoring/const.js</title>
<path fill="none" stroke="#757575" d="M439.077,-997.099C459.825,-997.099 481.254,-997.099 501.141,-997.099"/>
<polygon fill="#757575" stroke="#757575" points="501.388,-1000.6 511.388,-997.099 501.388,-993.599 501.388,-1000.6"/>
</g>
<!-- lib/runner/runner.js&#45;&gt;lib/consts/components.js -->
<g id="edge98" class="edge"><title>lib/runner/runner.js&#45;&gt;lib/consts/components.js</title>
<path fill="none" stroke="#757575" d="M394.129,-430.912C419.292,-434.614 448.417,-438.281 475,-440.099 575.21,-446.954 601.349,-452.701 701,-440.099 943.656,-409.412 991.344,-333.786 1234,-303.099 1365.84,-286.427 1406.18,-263.385 1533,-303.099 1551.59,-308.921 1550.58,-321.768 1569,-328.099 1655.68,-357.89 1760.84,-360.29 1835.53,-356.805"/>
<polygon fill="#757575" stroke="#757575" points="1836.05,-360.283 1845.86,-356.276 1835.69,-353.292 1836.05,-360.283"/>
</g>
<!-- lib/adapters/adapters&#45;controller.js -->
<g id="node9" class="node"><title>lib/adapters/adapters&#45;controller.js</title>
<path fill="none" stroke="#c6c5fe" d="M693.333,-532.599C693.333,-532.599 482.667,-532.599 482.667,-532.599 478.833,-532.599 475,-528.766 475,-524.933 475,-524.933 475,-517.266 475,-517.266 475,-513.433 478.833,-509.599 482.667,-509.599 482.667,-509.599 693.333,-509.599 693.333,-509.599 697.167,-509.599 701,-513.433 701,-517.266 701,-517.266 701,-524.933 701,-524.933 701,-528.766 697.167,-532.599 693.333,-532.599"/>
<text text-anchor="middle" x="588" y="-517.399" font-family="Arial" font-size="14.00" fill="#c6c5fe">lib/adapters/adapters&#45;controller.js</text>
</g>
<!-- lib/runner/runner.js&#45;&gt;lib/adapters/adapters&#45;controller.js -->
<g id="edge96" class="edge"><title>lib/runner/runner.js&#45;&gt;lib/adapters/adapters&#45;controller.js</title>
<path fill="none" stroke="#757575" d="M359.039,-431.685C405.578,-449.94 496,-485.406 547.882,-505.756"/>
<polygon fill="#757575" stroke="#757575" points="546.823,-509.1 557.41,-509.493 549.379,-502.583 546.823,-509.1"/>
</g>
<!-- lib/adapters/settings.js -->
<g id="node22" class="node"><title>lib/adapters/settings.js</title>
<path fill="none" stroke="#cfffac" d="M659.333,-431.599C659.333,-431.599 516.667,-431.599 516.667,-431.599 512.833,-431.599 509,-427.766 509,-423.933 509,-423.933 509,-416.266 509,-416.266 509,-412.433 512.833,-408.599 516.667,-408.599 516.667,-408.599 659.333,-408.599 659.333,-408.599 663.167,-408.599 667,-412.433 667,-416.266 667,-416.266 667,-423.933 667,-423.933 667,-427.766 663.167,-431.599 659.333,-431.599"/>
<text text-anchor="middle" x="588" y="-416.399" font-family="Arial" font-size="14.00" fill="#cfffac">lib/adapters/settings.js</text>
</g>
<!-- lib/runner/runner.js&#45;&gt;lib/adapters/settings.js -->
<g id="edge97" class="edge"><title>lib/runner/runner.js&#45;&gt;lib/adapters/settings.js</title>
<path fill="none" stroke="#757575" d="M394.146,-420.099C425.739,-420.099 464.246,-420.099 498.519,-420.099"/>
<polygon fill="#757575" stroke="#757575" points="498.535,-423.599 508.535,-420.099 498.535,-416.599 498.535,-423.599"/>
</g>
<!-- lib/metrics/metrics&#45;controller.js -->
<g id="node50" class="node"><title>lib/metrics/metrics&#45;controller.js</title>
<path fill="none" stroke="#c6c5fe" d="M684.333,-809.599C684.333,-809.599 491.667,-809.599 491.667,-809.599 487.833,-809.599 484,-805.766 484,-801.933 484,-801.933 484,-794.266 484,-794.266 484,-790.433 487.833,-786.599 491.667,-786.599 491.667,-786.599 684.333,-786.599 684.333,-786.599 688.167,-786.599 692,-790.433 692,-794.266 692,-794.266 692,-801.933 692,-801.933 692,-805.766 688.167,-809.599 684.333,-809.599"/>
<text text-anchor="middle" x="588" y="-794.399" font-family="Arial" font-size="14.00" fill="#c6c5fe">lib/metrics/metrics&#45;controller.js</text>
</g>
<!-- lib/runner/runner.js&#45;&gt;lib/metrics/metrics&#45;controller.js -->
<g id="edge99" class="edge"><title>lib/runner/runner.js&#45;&gt;lib/metrics/metrics&#45;controller.js</title>
<path fill="none" stroke="#757575" d="M337.489,-431.827C374.135,-485.622 526.364,-709.089 573.216,-777.865"/>
<polygon fill="#757575" stroke="#757575" points="570.582,-780.215 579.104,-786.509 576.367,-776.274 570.582,-780.215"/>
</g>
<!-- lib/metrics/settings.js -->
<g id="node51" class="node"><title>lib/metrics/settings.js</title>
<path fill="none" stroke="#cfffac" d="M654.833,-349.599C654.833,-349.599 521.167,-349.599 521.167,-349.599 517.333,-349.599 513.5,-345.766 513.5,-341.933 513.5,-341.933 513.5,-334.266 513.5,-334.266 513.5,-330.433 517.333,-326.599 521.167,-326.599 521.167,-326.599 654.833,-326.599 654.833,-326.599 658.667,-326.599 662.5,-330.433 662.5,-334.266 662.5,-334.266 662.5,-341.933 662.5,-341.933 662.5,-345.766 658.667,-349.599 654.833,-349.599"/>
<text text-anchor="middle" x="588" y="-334.399" font-family="Arial" font-size="14.00" fill="#cfffac">lib/metrics/settings.js</text>
</g>
<!-- lib/runner/runner.js&#45;&gt;lib/metrics/settings.js -->
<g id="edge100" class="edge"><title>lib/runner/runner.js&#45;&gt;lib/metrics/settings.js</title>
<path fill="none" stroke="#757575" d="M352.088,-408.57C380.2,-394.672 430.004,-371.515 475,-358.099 484.061,-355.398 493.65,-353.007 503.252,-350.906"/>
<polygon fill="#757575" stroke="#757575" points="504.169,-354.29 513.242,-348.819 502.738,-347.438 504.169,-354.29"/>
</g>
<!-- lib/store/store&#45;controller.js -->
<g id="node53" class="node"><title>lib/store/store&#45;controller.js</title>
<path fill="none" stroke="#c6c5fe" d="M669.833,-390.599C669.833,-390.599 506.167,-390.599 506.167,-390.599 502.333,-390.599 498.5,-386.766 498.5,-382.933 498.5,-382.933 498.5,-375.266 498.5,-375.266 498.5,-371.433 502.333,-367.599 506.167,-367.599 506.167,-367.599 669.833,-367.599 669.833,-367.599 673.667,-367.599 677.5,-371.433 677.5,-375.266 677.5,-375.266 677.5,-382.933 677.5,-382.933 677.5,-386.766 673.667,-390.599 669.833,-390.599"/>
<text text-anchor="middle" x="588" y="-375.399" font-family="Arial" font-size="14.00" fill="#c6c5fe">lib/store/store&#45;controller.js</text>
</g>
<!-- lib/runner/runner.js&#45;&gt;lib/store/store&#45;controller.js -->
<g id="edge101" class="edge"><title>lib/runner/runner.js&#45;&gt;lib/store/store&#45;controller.js</title>
<path fill="none" stroke="#757575" d="M394.146,-409.806C427.645,-404.472 468.917,-397.901 504.674,-392.208"/>
<polygon fill="#757575" stroke="#757575" points="505.276,-395.656 514.601,-390.627 504.175,-388.743 505.276,-395.656"/>
</g>
<!-- lib/adapters/Adapter.js -->
<g id="node8" class="node"><title>lib/adapters/Adapter.js</title>
<path fill="none" stroke="#cfffac" d="M1760.83,-491.599C1760.83,-491.599 1618.17,-491.599 1618.17,-491.599 1614.33,-491.599 1610.5,-487.766 1610.5,-483.933 1610.5,-483.933 1610.5,-476.266 1610.5,-476.266 1610.5,-472.433 1614.33,-468.599 1618.17,-468.599 1618.17,-468.599 1760.83,-468.599 1760.83,-468.599 1764.67,-468.599 1768.5,-472.433 1768.5,-476.266 1768.5,-476.266 1768.5,-483.933 1768.5,-483.933 1768.5,-487.766 1764.67,-491.599 1760.83,-491.599"/>
<text text-anchor="middle" x="1689.5" y="-476.399" font-family="Arial" font-size="14.00" fill="#cfffac">lib/adapters/Adapter.js</text>
</g>
<!-- lib/adapters/index.js -->
<g id="node10" class="node"><title>lib/adapters/index.js</title>
<path fill="none" stroke="#c6c5fe" d="M895.833,-532.599C895.833,-532.599 769.167,-532.599 769.167,-532.599 765.333,-532.599 761.5,-528.766 761.5,-524.933 761.5,-524.933 761.5,-517.266 761.5,-517.266 761.5,-513.433 765.333,-509.599 769.167,-509.599 769.167,-509.599 895.833,-509.599 895.833,-509.599 899.667,-509.599 903.5,-513.433 903.5,-517.266 903.5,-517.266 903.5,-524.933 903.5,-524.933 903.5,-528.766 899.667,-532.599 895.833,-532.599"/>
<text text-anchor="middle" x="832.5" y="-517.399" font-family="Arial" font-size="14.00" fill="#c6c5fe">lib/adapters/index.js</text>
</g>
<!-- lib/adapters/adapters&#45;controller.js&#45;&gt;lib/adapters/index.js -->
<g id="edge7" class="edge"><title>lib/adapters/adapters&#45;controller.js&#45;&gt;lib/adapters/index.js</title>
<path fill="none" stroke="#757575" d="M701.022,-521.099C717.921,-521.099 735.06,-521.099 751.117,-521.099"/>
<polygon fill="#757575" stroke="#757575" points="751.499,-524.599 761.499,-521.099 751.499,-517.599 751.499,-524.599"/>
</g>
<!-- lib/adapters/adapters&#45;controller.js&#45;&gt;lib/utils/utils.js -->
<g id="edge8" class="edge"><title>lib/adapters/adapters&#45;controller.js&#45;&gt;lib/utils/utils.js</title>
<path fill="none" stroke="#757575" d="M643.127,-532.631C715.835,-547.827 849.194,-574.664 964,-592.099 1089.2,-611.113 1425.82,-690.54 1533,-623.099 1564.29,-603.408 1537.71,-567.791 1569,-548.099 1659.66,-491.055 1721.07,-488.397 1810,-548.099 1905.61,-612.29 1926.04,-766.472 1930.36,-823.454"/>
<polygon fill="#757575" stroke="#757575" points="1926.87,-823.753 1931.02,-833.5 1933.85,-823.29 1926.87,-823.753"/>
</g>
<!-- lib/adapters/algorithms/index.js -->
<g id="node12" class="node"><title>lib/adapters/algorithms/index.js</title>
<path fill="none" stroke="#c6c5fe" d="M1178.83,-430.599C1178.83,-430.599 983.167,-430.599 983.167,-430.599 979.333,-430.599 975.5,-426.766 975.5,-422.933 975.5,-422.933 975.5,-415.266 975.5,-415.266 975.5,-411.433 979.333,-407.599 983.167,-407.599 983.167,-407.599 1178.83,-407.599 1178.83,-407.599 1182.67,-407.599 1186.5,-411.433 1186.5,-415.266 1186.5,-415.266 1186.5,-422.933 1186.5,-422.933 1186.5,-426.766 1182.67,-430.599 1178.83,-430.599"/>
<text text-anchor="middle" x="1081" y="-415.399" font-family="Arial" font-size="14.00" fill="#c6c5fe">lib/adapters/algorithms/index.js</text>
</g>
<!-- lib/adapters/index.js&#45;&gt;lib/adapters/algorithms/index.js -->
<g id="edge27" class="edge"><title>lib/adapters/index.js&#45;&gt;lib/adapters/algorithms/index.js</title>
<path fill="none" stroke="#757575" d="M861.298,-509.597C905.681,-491.231 992.615,-455.258 1042.47,-434.628"/>
<polygon fill="#757575" stroke="#757575" points="1044.02,-437.774 1051.93,-430.716 1041.35,-431.306 1044.02,-437.774"/>
</g>
<!-- lib/adapters/drivers/index.js -->
<g id="node16" class="node"><title>lib/adapters/drivers/index.js</title>
<path fill="none" stroke="#c6c5fe" d="M1167.33,-532.599C1167.33,-532.599 994.667,-532.599 994.667,-532.599 990.833,-532.599 987,-528.766 987,-524.933 987,-524.933 987,-517.266 987,-517.266 987,-513.433 990.833,-509.599 994.667,-509.599 994.667,-509.599 1167.33,-509.599 1167.33,-509.599 1171.17,-509.599 1175,-513.433 1175,-517.266 1175,-517.266 1175,-524.933 1175,-524.933 1175,-528.766 1171.17,-532.599 1167.33,-532.599"/>
<text text-anchor="middle" x="1081" y="-517.399" font-family="Arial" font-size="14.00" fill="#c6c5fe">lib/adapters/drivers/index.js</text>
</g>
<!-- lib/adapters/index.js&#45;&gt;lib/adapters/drivers/index.js -->
<g id="edge28" class="edge"><title>lib/adapters/index.js&#45;&gt;lib/adapters/drivers/index.js</title>
<path fill="none" stroke="#757575" d="M903.807,-521.099C926.445,-521.099 952.025,-521.099 976.533,-521.099"/>
<polygon fill="#757575" stroke="#757575" points="976.591,-524.599 986.591,-521.099 976.591,-517.599 976.591,-524.599"/>
</g>
<!-- lib/adapters/resources/index.js -->
<g id="node20" class="node"><title>lib/adapters/resources/index.js</title>
<path fill="none" stroke="#c6c5fe" d="M1177.83,-583.599C1177.83,-583.599 984.167,-583.599 984.167,-583.599 980.333,-583.599 976.5,-579.766 976.5,-575.933 976.5,-575.933 976.5,-568.266 976.5,-568.266 976.5,-564.433 980.333,-560.599 984.167,-560.599 984.167,-560.599 1177.83,-560.599 1177.83,-560.599 1181.67,-560.599 1185.5,-564.433 1185.5,-568.266 1185.5,-568.266 1185.5,-575.933 1185.5,-575.933 1185.5,-579.766 1181.67,-583.599 1177.83,-583.599"/>
<text text-anchor="middle" x="1081" y="-568.399" font-family="Arial" font-size="14.00" fill="#c6c5fe">lib/adapters/resources/index.js</text>
</g>
<!-- lib/adapters/index.js&#45;&gt;lib/adapters/resources/index.js -->
<g id="edge29" class="edge"><title>lib/adapters/index.js&#45;&gt;lib/adapters/resources/index.js</title>
<path fill="none" stroke="#757575" d="M889.127,-532.608C926.146,-540.267 974.954,-550.366 1013.95,-558.433"/>
<polygon fill="#757575" stroke="#757575" points="1013.65,-561.945 1024.15,-560.544 1015.07,-555.091 1013.65,-561.945"/>
</g>
<!-- lib/adapters/algorithms/prometheus.js -->
<g id="node13" class="node"><title>lib/adapters/algorithms/prometheus.js</title>
<path fill="none" stroke="#c6c5fe" d="M1502.33,-450.599C1502.33,-450.599 1264.67,-450.599 1264.67,-450.599 1260.83,-450.599 1257,-446.766 1257,-442.933 1257,-442.933 1257,-435.266 1257,-435.266 1257,-431.433 1260.83,-427.599 1264.67,-427.599 1264.67,-427.599 1502.33,-427.599 1502.33,-427.599 1506.17,-427.599 1510,-431.433 1510,-435.266 1510,-435.266 1510,-442.933 1510,-442.933 1510,-446.766 1506.17,-450.599 1502.33,-450.599"/>
<text text-anchor="middle" x="1383.5" y="-435.399" font-family="Arial" font-size="14.00" fill="#c6c5fe">lib/adapters/algorithms/prometheus.js</text>
</g>
<!-- lib/adapters/algorithms/index.js&#45;&gt;lib/adapters/algorithms/prometheus.js -->
<g id="edge9" class="edge"><title>lib/adapters/algorithms/index.js&#45;&gt;lib/adapters/algorithms/prometheus.js</title>
<path fill="none" stroke="#757575" d="M1186.68,-426.066C1206.02,-427.354 1226.48,-428.715 1246.59,-430.054"/>
<polygon fill="#757575" stroke="#757575" points="1246.54,-433.558 1256.75,-430.73 1247,-426.573 1246.54,-433.558"/>
</g>
<!-- lib/adapters/algorithms/queue.js -->
<g id="node14" class="node"><title>lib/adapters/algorithms/queue.js</title>
<path fill="none" stroke="#c6c5fe" d="M1484.33,-409.599C1484.33,-409.599 1282.67,-409.599 1282.67,-409.599 1278.83,-409.599 1275,-405.766 1275,-401.933 1275,-401.933 1275,-394.266 1275,-394.266 1275,-390.433 1278.83,-386.599 1282.67,-386.599 1282.67,-386.599 1484.33,-386.599 1484.33,-386.599 1488.17,-386.599 1492,-390.433 1492,-394.266 1492,-394.266 1492,-401.933 1492,-401.933 1492,-405.766 1488.17,-409.599 1484.33,-409.599"/>
<text text-anchor="middle" x="1383.5" y="-394.399" font-family="Arial" font-size="14.00" fill="#c6c5fe">lib/adapters/algorithms/queue.js</text>
</g>
<!-- lib/adapters/algorithms/index.js&#45;&gt;lib/adapters/algorithms/queue.js -->
<g id="edge10" class="edge"><title>lib/adapters/algorithms/index.js&#45;&gt;lib/adapters/algorithms/queue.js</title>
<path fill="none" stroke="#757575" d="M1186.68,-411.784C1211.87,-410.023 1238.96,-408.13 1264.71,-406.331"/>
<polygon fill="#757575" stroke="#757575" points="1265.15,-409.809 1274.88,-405.62 1264.67,-402.826 1265.15,-409.809"/>
</g>
<!-- lib/adapters/algorithms/templates&#45;store.js -->
<g id="node15" class="node"><title>lib/adapters/algorithms/templates&#45;store.js</title>
<path fill="none" stroke="#c6c5fe" d="M1513.83,-368.599C1513.83,-368.599 1253.17,-368.599 1253.17,-368.599 1249.33,-368.599 1245.5,-364.766 1245.5,-360.933 1245.5,-360.933 1245.5,-353.266 1245.5,-353.266 1245.5,-349.433 1249.33,-345.599 1253.17,-345.599 1253.17,-345.599 1513.83,-345.599 1513.83,-345.599 1517.67,-345.599 1521.5,-349.433 1521.5,-353.266 1521.5,-353.266 1521.5,-360.933 1521.5,-360.933 1521.5,-364.766 1517.67,-368.599 1513.83,-368.599"/>
<text text-anchor="middle" x="1383.5" y="-353.399" font-family="Arial" font-size="14.00" fill="#c6c5fe">lib/adapters/algorithms/templates&#45;store.js</text>
</g>
<!-- lib/adapters/algorithms/index.js&#45;&gt;lib/adapters/algorithms/templates&#45;store.js -->
<g id="edge11" class="edge"><title>lib/adapters/algorithms/index.js&#45;&gt;lib/adapters/algorithms/templates&#45;store.js</title>
<path fill="none" stroke="#757575" d="M1118.21,-407.599C1148.8,-398.246 1193.9,-385.3 1234,-377.099 1246.49,-374.545 1259.64,-372.235 1272.74,-370.171"/>
<polygon fill="#757575" stroke="#757575" points="1273.38,-373.614 1282.74,-368.64 1272.32,-366.694 1273.38,-373.614"/>
</g>
<!-- lib/adapters/algorithms/prometheus.js&#45;&gt;lib/helpers/prometheus.js -->
<g id="edge13" class="edge"><title>lib/adapters/algorithms/prometheus.js&#45;&gt;lib/helpers/prometheus.js</title>
<path fill="none" stroke="#757575" d="M1510.34,-428.75C1537.31,-426.533 1565.41,-424.222 1591.1,-422.109"/>
<polygon fill="#757575" stroke="#757575" points="1591.52,-425.586 1601.2,-421.278 1590.95,-418.61 1591.52,-425.586"/>
</g>
<!-- lib/adapters/algorithms/prometheus.js&#45;&gt;lib/adapters/Adapter.js -->
<g id="edge12" class="edge"><title>lib/adapters/algorithms/prometheus.js&#45;&gt;lib/adapters/Adapter.js</title>
<path fill="none" stroke="#757575" d="M1470.09,-450.622C1490.7,-453.396 1512.63,-456.353 1533,-459.099 1554.77,-462.036 1578.26,-465.206 1600.22,-468.172"/>
<polygon fill="#757575" stroke="#757575" points="1599.81,-471.648 1610.19,-469.518 1600.75,-464.711 1599.81,-471.648"/>
</g>
<!-- lib/adapters/algorithms/queue.js&#45;&gt;lib/store/store&#45;manager.js -->
<g id="edge15" class="edge"><title>lib/adapters/algorithms/queue.js&#45;&gt;lib/store/store&#45;manager.js</title>
<path fill="none" stroke="#757575" d="M1491.52,-386.597C1505.6,-384.028 1519.73,-380.9 1533,-377.099 1578.54,-364.05 1628.06,-340.263 1658.7,-324.319"/>
<polygon fill="#757575" stroke="#757575" points="1660.36,-327.401 1667.57,-319.643 1657.09,-321.208 1660.36,-327.401"/>
</g>
<!-- lib/adapters/algorithms/queue.js&#45;&gt;lib/adapters/Adapter.js -->
<g id="edge14" class="edge"><title>lib/adapters/algorithms/queue.js&#45;&gt;lib/adapters/Adapter.js</title>
<path fill="none" stroke="#757575" d="M1492.31,-408.935C1506.13,-411.398 1519.98,-414.412 1533,-418.099 1549.85,-422.872 1552.82,-427.397 1569,-434.099 1594.88,-444.822 1624.23,-456.133 1647.37,-464.856"/>
<polygon fill="#757575" stroke="#757575" points="1646.28,-468.187 1656.88,-468.426 1648.75,-461.634 1646.28,-468.187"/>
</g>
<!-- lib/adapters/algorithms/templates&#45;store.js&#45;&gt;lib/store/store&#45;manager.js -->
<g id="edge17" class="edge"><title>lib/adapters/algorithms/templates&#45;store.js&#45;&gt;lib/store/store&#45;manager.js</title>
<path fill="none" stroke="#757575" d="M1456.16,-345.549C1501.38,-338.261 1559.91,-328.826 1606.91,-321.25"/>
<polygon fill="#757575" stroke="#757575" points="1607.74,-324.661 1617.06,-319.614 1606.63,-317.75 1607.74,-324.661"/>
</g>
<!-- lib/adapters/algorithms/templates&#45;store.js&#45;&gt;lib/adapters/Adapter.js -->
<g id="edge16" class="edge"><title>lib/adapters/algorithms/templates&#45;store.js&#45;&gt;lib/adapters/Adapter.js</title>
<path fill="none" stroke="#757575" d="M1517.11,-368.612C1522.64,-371.054 1527.96,-373.867 1533,-377.099 1558.21,-393.285 1545.84,-415.085 1569,-434.099 1586.21,-448.226 1608.24,-458.34 1628.68,-465.418"/>
<polygon fill="#757575" stroke="#757575" points="1627.66,-468.766 1638.25,-468.557 1629.84,-462.115 1627.66,-468.766"/>
</g>
<!-- lib/adapters/drivers/prometheus.js -->
<g id="node17" class="node"><title>lib/adapters/drivers/prometheus.js</title>
<path fill="none" stroke="#c6c5fe" d="M1490.83,-573.599C1490.83,-573.599 1276.17,-573.599 1276.17,-573.599 1272.33,-573.599 1268.5,-569.766 1268.5,-565.933 1268.5,-565.933 1268.5,-558.266 1268.5,-558.266 1268.5,-554.433 1272.33,-550.599 1276.17,-550.599 1276.17,-550.599 1490.83,-550.599 1490.83,-550.599 1494.67,-550.599 1498.5,-554.433 1498.5,-558.266 1498.5,-558.266 1498.5,-565.933 1498.5,-565.933 1498.5,-569.766 1494.67,-573.599 1490.83,-573.599"/>
<text text-anchor="middle" x="1383.5" y="-558.399" font-family="Arial" font-size="14.00" fill="#c6c5fe">lib/adapters/drivers/prometheus.js</text>
</g>
<!-- lib/adapters/drivers/index.js&#45;&gt;lib/adapters/drivers/prometheus.js -->
<g id="edge18" class="edge"><title>lib/adapters/drivers/index.js&#45;&gt;lib/adapters/drivers/prometheus.js</title>
<path fill="none" stroke="#757575" d="M1166.51,-532.629C1204.27,-537.782 1248.94,-543.877 1287.83,-549.183"/>
<polygon fill="#757575" stroke="#757575" points="1287.73,-552.701 1298.11,-550.585 1288.67,-545.765 1287.73,-552.701"/>
</g>
<!-- lib/adapters/drivers/queue.js -->
<g id="node18" class="node"><title>lib/adapters/drivers/queue.js</title>
<path fill="none" stroke="#c6c5fe" d="M1472.83,-491.599C1472.83,-491.599 1294.17,-491.599 1294.17,-491.599 1290.33,-491.599 1286.5,-487.766 1286.5,-483.933 1286.5,-483.933 1286.5,-476.266 1286.5,-476.266 1286.5,-472.433 1290.33,-468.599 1294.17,-468.599 1294.17,-468.599 1472.83,-468.599 1472.83,-468.599 1476.67,-468.599 1480.5,-472.433 1480.5,-476.266 1480.5,-476.266 1480.5,-483.933 1480.5,-483.933 1480.5,-487.766 1476.67,-491.599 1472.83,-491.599"/>
<text text-anchor="middle" x="1383.5" y="-476.399" font-family="Arial" font-size="14.00" fill="#c6c5fe">lib/adapters/drivers/queue.js</text>
</g>
<!-- lib/adapters/drivers/index.js&#45;&gt;lib/adapters/drivers/queue.js -->
<g id="edge19" class="edge"><title>lib/adapters/drivers/index.js&#45;&gt;lib/adapters/drivers/queue.js</title>
<path fill="none" stroke="#757575" d="M1165.22,-509.549C1187.56,-506.464 1211.7,-503.142 1234,-500.099 1250.91,-497.792 1268.91,-495.353 1286.33,-493.002"/>
<polygon fill="#757575" stroke="#757575" points="1287.07,-496.435 1296.51,-491.63 1286.13,-489.498 1287.07,-496.435"/>
</g>
<!-- lib/adapters/drivers/templates&#45;store.js -->
<g id="node19" class="node"><title>lib/adapters/drivers/templates&#45;store.js</title>
<path fill="none" stroke="#c6c5fe" d="M1502.83,-532.599C1502.83,-532.599 1264.17,-532.599 1264.17,-532.599 1260.33,-532.599 1256.5,-528.766 1256.5,-524.933 1256.5,-524.933 1256.5,-517.266 1256.5,-517.266 1256.5,-513.433 1260.33,-509.599 1264.17,-509.599 1264.17,-509.599 1502.83,-509.599 1502.83,-509.599 1506.67,-509.599 1510.5,-513.433 1510.5,-517.266 1510.5,-517.266 1510.5,-524.933 1510.5,-524.933 1510.5,-528.766 1506.67,-532.599 1502.83,-532.599"/>
<text text-anchor="middle" x="1383.5" y="-517.399" font-family="Arial" font-size="14.00" fill="#c6c5fe">lib/adapters/drivers/templates&#45;store.js</text>
</g>
<!-- lib/adapters/drivers/index.js&#45;&gt;lib/adapters/drivers/templates&#45;store.js -->
<g id="edge20" class="edge"><title>lib/adapters/drivers/index.js&#45;&gt;lib/adapters/drivers/templates&#45;store.js</title>
<path fill="none" stroke="#757575" d="M1175.02,-521.099C1197.49,-521.099 1221.98,-521.099 1245.99,-521.099"/>
<polygon fill="#757575" stroke="#757575" points="1246.24,-524.599 1256.24,-521.099 1246.24,-517.599 1246.24,-524.599"/>
</g>
<!-- lib/adapters/drivers/prometheus.js&#45;&gt;lib/helpers/prometheus.js -->
<g id="edge22" class="edge"><title>lib/adapters/drivers/prometheus.js&#45;&gt;lib/helpers/prometheus.js</title>
<path fill="none" stroke="#757575" d="M1498.82,-558.234C1511.12,-554.336 1522.83,-548.808 1533,-541.099 1564.71,-517.05 1540.11,-486.48 1569,-459.099 1583.52,-445.333 1602.66,-435.681 1621.36,-428.952"/>
<polygon fill="#757575" stroke="#757575" points="1622.7,-432.193 1631.06,-425.693 1620.47,-425.557 1622.7,-432.193"/>
</g>
<!-- lib/adapters/drivers/prometheus.js&#45;&gt;lib/adapters/Adapter.js -->
<g id="edge21" class="edge"><title>lib/adapters/drivers/prometheus.js&#45;&gt;lib/adapters/Adapter.js</title>
<path fill="none" stroke="#757575" d="M1498.7,-551.741C1510.5,-548.966 1522.13,-545.478 1533,-541.099 1551.31,-533.724 1551.27,-523.776 1569,-515.099 1586.53,-506.519 1606.55,-499.638 1625.14,-494.325"/>
<polygon fill="#757575" stroke="#757575" points="1626.28,-497.64 1634.99,-491.611 1624.42,-490.891 1626.28,-497.64"/>
</g>
<!-- lib/adapters/drivers/queue.js&#45;&gt;lib/store/store&#45;manager.js -->
<g id="edge24" class="edge"><title>lib/adapters/drivers/queue.js&#45;&gt;lib/store/store&#45;manager.js</title>
<path fill="none" stroke="#757575" d="M1480.87,-479.621C1499.36,-476.021 1517.7,-469.703 1533,-459.099 1560.46,-440.069 1546.82,-418.088 1569,-393.099 1594.55,-364.315 1631.6,-339.885 1657.65,-324.704"/>
<polygon fill="#757575" stroke="#757575" points="1659.42,-327.724 1666.37,-319.728 1655.95,-321.644 1659.42,-327.724"/>
</g>
<!-- lib/adapters/drivers/queue.js&#45;&gt;lib/adapters/Adapter.js -->
<g id="edge23" class="edge"><title>lib/adapters/drivers/queue.js&#45;&gt;lib/adapters/Adapter.js</title>
<path fill="none" stroke="#757575" d="M1480.69,-480.099C1518.85,-480.099 1562.46,-480.099 1599.84,-480.099"/>
<polygon fill="#757575" stroke="#757575" points="1600.21,-483.599 1610.21,-480.099 1600.21,-476.599 1600.21,-483.599"/>
</g>
<!-- lib/adapters/drivers/templates&#45;store.js&#45;&gt;lib/store/store&#45;manager.js -->
<g id="edge26" class="edge"><title>lib/adapters/drivers/templates&#45;store.js&#45;&gt;lib/store/store&#45;manager.js</title>
<path fill="none" stroke="#757575" d="M1510.83,-513.718C1518.8,-510.15 1526.29,-505.674 1533,-500.099 1571.59,-468.031 1539.09,-433.388 1569,-393.099 1591.53,-362.743 1628.13,-339.004 1654.9,-324.419"/>
<polygon fill="#757575" stroke="#757575" points="1656.71,-327.418 1663.92,-319.647 1653.44,-321.231 1656.71,-327.418"/>
</g>
<!-- lib/adapters/drivers/templates&#45;store.js&#45;&gt;lib/adapters/Adapter.js -->
<g id="edge25" class="edge"><title>lib/adapters/drivers/templates&#45;store.js&#45;&gt;lib/adapters/Adapter.js</title>
<path fill="none" stroke="#757575" d="M1469.99,-509.569C1510.71,-504.077 1559.37,-497.515 1600.42,-491.979"/>
<polygon fill="#757575" stroke="#757575" points="1600.97,-495.437 1610.41,-490.631 1600.03,-488.499 1600.97,-495.437"/>
</g>
<!-- lib/adapters/resources/k8s.js -->
<g id="node21" class="node"><title>lib/adapters/resources/k8s.js</title>
<path fill="none" stroke="#c6c5fe" d="M1474.83,-614.599C1474.83,-614.599 1292.17,-614.599 1292.17,-614.599 1288.33,-614.599 1284.5,-610.766 1284.5,-606.933 1284.5,-606.933 1284.5,-599.266 1284.5,-599.266 1284.5,-595.433 1288.33,-591.599 1292.17,-591.599 1292.17,-591.599 1474.83,-591.599 1474.83,-591.599 1478.67,-591.599 1482.5,-595.433 1482.5,-599.266 1482.5,-599.266 1482.5,-606.933 1482.5,-606.933 1482.5,-610.766 1478.67,-614.599 1474.83,-614.599"/>
<text text-anchor="middle" x="1383.5" y="-599.399" font-family="Arial" font-size="14.00" fill="#c6c5fe">lib/adapters/resources/k8s.js</text>
</g>
<!-- lib/adapters/resources/index.js&#45;&gt;lib/adapters/resources/k8s.js -->
<g id="edge30" class="edge"><title>lib/adapters/resources/index.js&#45;&gt;lib/adapters/resources/k8s.js</title>
<path fill="none" stroke="#757575" d="M1185.84,-582.811C1214.44,-585.762 1245.54,-588.97 1274.38,-591.945"/>
<polygon fill="#757575" stroke="#757575" points="1274.17,-595.442 1284.48,-592.987 1274.89,-588.479 1274.17,-595.442"/>
</g>
<!-- lib/adapters/resources/k8s.js&#45;&gt;lib/adapters/Adapter.js -->
<g id="edge31" class="edge"><title>lib/adapters/resources/k8s.js&#45;&gt;lib/adapters/Adapter.js</title>
<path fill="none" stroke="#757575" d="M1482.86,-602.308C1500.69,-598.642 1518.27,-592.378 1533,-582.099 1560.72,-562.759 1542.74,-536.39 1569,-515.099 1579.74,-506.389 1592.58,-499.846 1605.79,-494.932"/>
<polygon fill="#757575" stroke="#757575" points="1607.12,-498.177 1615.45,-491.634 1604.86,-491.552 1607.12,-498.177"/>
</g>
<!-- lib/allocators/ratios&#45;allocator.js -->
<g id="node23" class="node"><title>lib/allocators/ratios&#45;allocator.js</title>
<path fill="none" stroke="#cfffac" d="M1784.33,-660.599C1784.33,-660.599 1594.67,-660.599 1594.67,-660.599 1590.83,-660.599 1587,-656.766 1587,-652.933 1587,-652.933 1587,-645.266 1587,-645.266 1587,-641.433 1590.83,-637.599 1594.67,-637.599 1594.67,-637.599 1784.33,-637.599 1784.33,-637.599 1788.17,-637.599 1792,-641.433 1792,-645.266 1792,-645.266 1792,-652.933 1792,-652.933 1792,-656.766 1788.17,-660.599 1784.33,-660.599"/>
<text text-anchor="middle" x="1689.5" y="-645.399" font-family="Arial" font-size="14.00" fill="#cfffac">lib/allocators/ratios&#45;allocator.js</text>
</g>
<!-- lib/allocators/resource&#45;allocator.js -->
<g id="node24" class="node"><title>lib/allocators/resource&#45;allocator.js</title>
<path fill="none" stroke="#cfffac" d="M1795.33,-740.599C1795.33,-740.599 1583.67,-740.599 1583.67,-740.599 1579.83,-740.599 1576,-736.766 1576,-732.933 1576,-732.933 1576,-725.266 1576,-725.266 1576,-721.433 1579.83,-717.599 1583.67,-717.599 1583.67,-717.599 1795.33,-717.599 1795.33,-717.599 1799.17,-717.599 1803,-721.433 1803,-725.266 1803,-725.266 1803,-732.933 1803,-732.933 1803,-736.766 1799.17,-740.599 1795.33,-740.599"/>
<text text-anchor="middle" x="1689.5" y="-725.399" font-family="Arial" font-size="14.00" fill="#cfffac">lib/allocators/resource&#45;allocator.js</text>
</g>
<!-- lib/factory/metrics&#45;factory.js -->
<g id="node25" class="node"><title>lib/factory/metrics&#45;factory.js</title>
<path fill="none" stroke="#c6c5fe" d="M918.833,-896.599C918.833,-896.599 746.167,-896.599 746.167,-896.599 742.333,-896.599 738.5,-892.766 738.5,-888.933 738.5,-888.933 738.5,-881.266 738.5,-881.266 738.5,-877.433 742.333,-873.599 746.167,-873.599 746.167,-873.599 918.833,-873.599 918.833,-873.599 922.667,-873.599 926.5,-877.433 926.5,-881.266 926.5,-881.266 926.5,-888.933 926.5,-888.933 926.5,-892.766 922.667,-896.599 918.833,-896.599"/>
<text text-anchor="middle" x="832.5" y="-881.399" font-family="Arial" font-size="14.00" fill="#c6c5fe">lib/factory/metrics&#45;factory.js</text>
</g>
<!-- lib/metrics/algorithms&#45;flat/index.js -->
<g id="node26" class="node"><title>lib/metrics/algorithms&#45;flat/index.js</title>
<path fill="none" stroke="#c6c5fe" d="M1185.83,-1019.6C1185.83,-1019.6 976.167,-1019.6 976.167,-1019.6 972.333,-1019.6 968.5,-1015.77 968.5,-1011.93 968.5,-1011.93 968.5,-1004.27 968.5,-1004.27 968.5,-1000.43 972.333,-996.599 976.167,-996.599 976.167,-996.599 1185.83,-996.599 1185.83,-996.599 1189.67,-996.599 1193.5,-1000.43 1193.5,-1004.27 1193.5,-1004.27 1193.5,-1011.93 1193.5,-1011.93 1193.5,-1015.77 1189.67,-1019.6 1185.83,-1019.6"/>
<text text-anchor="middle" x="1081" y="-1004.4" font-family="Arial" font-size="14.00" fill="#c6c5fe">lib/metrics/algorithms&#45;flat/index.js</text>
</g>
<!-- lib/factory/metrics&#45;factory.js&#45;&gt;lib/metrics/algorithms&#45;flat/index.js -->
<g id="edge32" class="edge"><title>lib/factory/metrics&#45;factory.js&#45;&gt;lib/metrics/algorithms&#45;flat/index.js</title>
<path fill="none" stroke="#757575" d="M856.69,-896.671C900.826,-918.694 997,-966.683 1047.52,-991.892"/>
<polygon fill="#757575" stroke="#757575" points="1046.18,-995.136 1056.69,-996.469 1049.31,-988.872 1046.18,-995.136"/>
</g>
<!-- lib/metrics/algorithms&#45;map/index.js -->
<g id="node27" class="node"><title>lib/metrics/algorithms&#45;map/index.js</title>
<path fill="none" stroke="#c6c5fe" d="M1190.33,-814.599C1190.33,-814.599 971.667,-814.599 971.667,-814.599 967.833,-814.599 964,-810.766 964,-806.933 964,-806.933 964,-799.266 964,-799.266 964,-795.433 967.833,-791.599 971.667,-791.599 971.667,-791.599 1190.33,-791.599 1190.33,-791.599 1194.17,-791.599 1198,-795.433 1198,-799.266 1198,-799.266 1198,-806.933 1198,-806.933 1198,-810.766 1194.17,-814.599 1190.33,-814.599"/>
<text text-anchor="middle" x="1081" y="-799.399" font-family="Arial" font-size="14.00" fill="#c6c5fe">lib/metrics/algorithms&#45;map/index.js</text>
</g>
<!-- lib/factory/metrics&#45;factory.js&#45;&gt;lib/metrics/algorithms&#45;map/index.js -->
<g id="edge33" class="edge"><title>lib/factory/metrics&#45;factory.js&#45;&gt;lib/metrics/algorithms&#45;map/index.js</title>
<path fill="none" stroke="#757575" d="M868.295,-873.525C912.246,-858.904 987.917,-833.731 1035.88,-817.775"/>
<polygon fill="#757575" stroke="#757575" points="1037,-821.093 1045.38,-814.615 1034.79,-814.451 1037,-821.093"/>
</g>
<!-- lib/metrics/drivers&#45;flat/index.js -->
<g id="node28" class="node"><title>lib/metrics/drivers&#45;flat/index.js</title>
<path fill="none" stroke="#c6c5fe" d="M1174.83,-937.599C1174.83,-937.599 987.167,-937.599 987.167,-937.599 983.333,-937.599 979.5,-933.766 979.5,-929.933 979.5,-929.933 979.5,-922.266 979.5,-922.266 979.5,-918.433 983.333,-914.599 987.167,-914.599 987.167,-914.599 1174.83,-914.599 1174.83,-914.599 1178.67,-914.599 1182.5,-918.433 1182.5,-922.266 1182.5,-922.266 1182.5,-929.933 1182.5,-929.933 1182.5,-933.766 1178.67,-937.599 1174.83,-937.599"/>
<text text-anchor="middle" x="1081" y="-922.399" font-family="Arial" font-size="14.00" fill="#c6c5fe">lib/metrics/drivers&#45;flat/index.js</text>
</g>
<!-- lib/factory/metrics&#45;factory.js&#45;&gt;lib/metrics/drivers&#45;flat/index.js -->
<g id="edge34" class="edge"><title>lib/factory/metrics&#45;factory.js&#45;&gt;lib/metrics/drivers&#45;flat/index.js</title>
<path fill="none" stroke="#757575" d="M902.82,-896.629C933.273,-901.694 969.197,-907.67 1000.71,-912.911"/>
<polygon fill="#757575" stroke="#757575" points="1000.33,-916.397 1010.77,-914.585 1001.48,-909.492 1000.33,-916.397"/>
</g>
<!-- lib/metrics/drivers&#45;map/index.js -->
<g id="node29" class="node"><title>lib/metrics/drivers&#45;map/index.js</title>
<path fill="none" stroke="#c6c5fe" d="M1179.33,-896.599C1179.33,-896.599 982.667,-896.599 982.667,-896.599 978.833,-896.599 975,-892.766 975,-888.933 975,-888.933 975,-881.266 975,-881.266 975,-877.433 978.833,-873.599 982.667,-873.599 982.667,-873.599 1179.33,-873.599 1179.33,-873.599 1183.17,-873.599 1187,-877.433 1187,-881.266 1187,-881.266 1187,-888.933 1187,-888.933 1187,-892.766 1183.17,-896.599 1179.33,-896.599"/>
<text text-anchor="middle" x="1081" y="-881.399" font-family="Arial" font-size="14.00" fill="#c6c5fe">lib/metrics/drivers&#45;map/index.js</text>
</g>
<!-- lib/factory/metrics&#45;factory.js&#45;&gt;lib/metrics/drivers&#45;map/index.js -->
<g id="edge35" class="edge"><title>lib/factory/metrics&#45;factory.js&#45;&gt;lib/metrics/drivers&#45;map/index.js</title>
<path fill="none" stroke="#757575" d="M926.691,-885.099C939.063,-885.099 951.864,-885.099 964.555,-885.099"/>
<polygon fill="#757575" stroke="#757575" points="964.699,-888.599 974.699,-885.099 964.699,-881.599 964.699,-888.599"/>
</g>
<!-- lib/metrics/algorithms&#45;flat/cpu&#45;usage.js -->
<g id="node39" class="node"><title>lib/metrics/algorithms&#45;flat/cpu&#45;usage.js</title>
<path fill="none" stroke="#c6c5fe" d="M1504.83,-1019.6C1504.83,-1019.6 1262.17,-1019.6 1262.17,-1019.6 1258.33,-1019.6 1254.5,-1015.77 1254.5,-1011.93 1254.5,-1011.93 1254.5,-1004.27 1254.5,-1004.27 1254.5,-1000.43 1258.33,-996.599 1262.17,-996.599 1262.17,-996.599 1504.83,-996.599 1504.83,-996.599 1508.67,-996.599 1512.5,-1000.43 1512.5,-1004.27 1512.5,-1004.27 1512.5,-1011.93 1512.5,-1011.93 1512.5,-1015.77 1508.67,-1019.6 1504.83,-1019.6"/>
<text text-anchor="middle" x="1383.5" y="-1004.4" font-family="Arial" font-size="14.00" fill="#c6c5fe">lib/metrics/algorithms&#45;flat/cpu&#45;usage.js</text>
</g>
<!-- lib/metrics/algorithms&#45;flat/index.js&#45;&gt;lib/metrics/algorithms&#45;flat/cpu&#45;usage.js -->
<g id="edge46" class="edge"><title>lib/metrics/algorithms&#45;flat/index.js&#45;&gt;lib/metrics/algorithms&#45;flat/cpu&#45;usage.js</title>
<path fill="none" stroke="#757575" d="M1193.9,-1008.1C1210.2,-1008.1 1227.15,-1008.1 1243.91,-1008.1"/>
<polygon fill="#757575" stroke="#757575" points="1244.31,-1011.6 1254.31,-1008.1 1244.31,-1004.6 1244.31,-1011.6"/>
</g>
<!-- lib/metrics/algorithms&#45;flat/queue.js -->
<g id="node41" class="node"><title>lib/metrics/algorithms&#45;flat/queue.js</title>
<path fill="none" stroke="#c6c5fe" d="M1491.33,-978.599C1491.33,-978.599 1275.67,-978.599 1275.67,-978.599 1271.83,-978.599 1268,-974.766 1268,-970.933 1268,-970.933 1268,-963.266 1268,-963.266 1268,-959.433 1271.83,-955.599 1275.67,-955.599 1275.67,-955.599 1491.33,-955.599 1491.33,-955.599 1495.17,-955.599 1499,-959.433 1499,-963.266 1499,-963.266 1499,-970.933 1499,-970.933 1499,-974.766 1495.17,-978.599 1491.33,-978.599"/>
<text text-anchor="middle" x="1383.5" y="-963.399" font-family="Arial" font-size="14.00" fill="#c6c5fe">lib/metrics/algorithms&#45;flat/queue.js</text>
</g>
<!-- lib/metrics/algorithms&#45;flat/index.js&#45;&gt;lib/metrics/algorithms&#45;flat/queue.js -->
<g id="edge47" class="edge"><title>lib/metrics/algorithms&#45;flat/index.js&#45;&gt;lib/metrics/algorithms&#45;flat/queue.js</title>
<path fill="none" stroke="#757575" d="M1165.22,-996.549C1187.56,-993.464 1211.7,-990.142 1234,-987.099 1250.91,-984.792 1268.91,-982.353 1286.33,-980.002"/>
<polygon fill="#757575" stroke="#757575" points="1287.07,-983.435 1296.51,-978.63 1286.13,-976.498 1287.07,-983.435"/>
</g>
<!-- lib/metrics/algorithms&#45;flat/run&#45;time.js -->
<g id="node42" class="node"><title>lib/metrics/algorithms&#45;flat/run&#45;time.js</title>
<path fill="none" stroke="#c6c5fe" d="M1496.83,-1060.6C1496.83,-1060.6 1270.17,-1060.6 1270.17,-1060.6 1266.33,-1060.6 1262.5,-1056.77 1262.5,-1052.93 1262.5,-1052.93 1262.5,-1045.27 1262.5,-1045.27 1262.5,-1041.43 1266.33,-1037.6 1270.17,-1037.6 1270.17,-1037.6 1496.83,-1037.6 1496.83,-1037.6 1500.67,-1037.6 1504.5,-1041.43 1504.5,-1045.27 1504.5,-1045.27 1504.5,-1052.93 1504.5,-1052.93 1504.5,-1056.77 1500.67,-1060.6 1496.83,-1060.6"/>
<text text-anchor="middle" x="1383.5" y="-1045.4" font-family="Arial" font-size="14.00" fill="#c6c5fe">lib/metrics/algorithms&#45;flat/run&#45;time.js</text>
</g>
<!-- lib/metrics/algorithms&#45;flat/index.js&#45;&gt;lib/metrics/algorithms&#45;flat/run&#45;time.js -->
<g id="edge48" class="edge"><title>lib/metrics/algorithms&#45;flat/index.js&#45;&gt;lib/metrics/algorithms&#45;flat/run&#45;time.js</title>
<path fill="none" stroke="#757575" d="M1166.51,-1019.63C1204.27,-1024.78 1248.94,-1030.88 1287.83,-1036.18"/>
<polygon fill="#757575" stroke="#757575" points="1287.73,-1039.7 1298.11,-1037.59 1288.67,-1032.77 1287.73,-1039.7"/>
</g>
<!-- lib/metrics/algorithms&#45;flat/templates&#45;store.js -->
<g id="node43" class="node"><title>lib/metrics/algorithms&#45;flat/templates&#45;store.js</title>
<path fill="none" stroke="#c6c5fe" d="M1520.83,-1101.6C1520.83,-1101.6 1246.17,-1101.6 1246.17,-1101.6 1242.33,-1101.6 1238.5,-1097.77 1238.5,-1093.93 1238.5,-1093.93 1238.5,-1086.27 1238.5,-1086.27 1238.5,-1082.43 1242.33,-1078.6 1246.17,-1078.6 1246.17,-1078.6 1520.83,-1078.6 1520.83,-1078.6 1524.67,-1078.6 1528.5,-1082.43 1528.5,-1086.27 1528.5,-1086.27 1528.5,-1093.93 1528.5,-1093.93 1528.5,-1097.77 1524.67,-1101.6 1520.83,-1101.6"/>
<text text-anchor="middle" x="1383.5" y="-1086.4" font-family="Arial" font-size="14.00" fill="#c6c5fe">lib/metrics/algorithms&#45;flat/templates&#45;store.js</text>
</g>
<!-- lib/metrics/algorithms&#45;flat/index.js&#45;&gt;lib/metrics/algorithms&#45;flat/templates&#45;store.js -->
<g id="edge49" class="edge"><title>lib/metrics/algorithms&#45;flat/index.js&#45;&gt;lib/metrics/algorithms&#45;flat/templates&#45;store.js</title>
<path fill="none" stroke="#757575" d="M1105.61,-1019.66C1134.99,-1033.55 1187.02,-1056.55 1234,-1069.1 1244.9,-1072.01 1256.35,-1074.54 1267.88,-1076.73"/>
<polygon fill="#757575" stroke="#757575" points="1267.54,-1080.22 1278,-1078.57 1268.79,-1073.34 1267.54,-1080.22"/>
</g>
<!-- lib/metrics/algorithms&#45;map/cpu&#45;usage.js -->
<g id="node44" class="node"><title>lib/metrics/algorithms&#45;map/cpu&#45;usage.js</title>
<path fill="none" stroke="#c6c5fe" d="M1509.33,-773.599C1509.33,-773.599 1257.67,-773.599 1257.67,-773.599 1253.83,-773.599 1250,-769.766 1250,-765.933 1250,-765.933 1250,-758.266 1250,-758.266 1250,-754.433 1253.83,-750.599 1257.67,-750.599 1257.67,-750.599 1509.33,-750.599 1509.33,-750.599 1513.17,-750.599 1517,-754.433 1517,-758.266 1517,-758.266 1517,-765.933 1517,-765.933 1517,-769.766 1513.17,-773.599 1509.33,-773.599"/>
<text text-anchor="middle" x="1383.5" y="-758.399" font-family="Arial" font-size="14.00" fill="#c6c5fe">lib/metrics/algorithms&#45;map/cpu&#45;usage.js</text>
</g>
<!-- lib/metrics/algorithms&#45;map/index.js&#45;&gt;lib/metrics/algorithms&#45;map/cpu&#45;usage.js -->
<g id="edge64" class="edge"><title>lib/metrics/algorithms&#45;map/index.js&#45;&gt;lib/metrics/algorithms&#45;map/cpu&#45;usage.js</title>
<path fill="none" stroke="#757575" d="M1165.22,-791.549C1187.56,-788.464 1211.7,-785.142 1234,-782.099 1250.91,-779.792 1268.91,-777.353 1286.33,-775.002"/>
<polygon fill="#757575" stroke="#757575" points="1287.07,-778.435 1296.51,-773.63 1286.13,-771.498 1287.07,-778.435"/>
</g>
<!-- lib/metrics/algorithms&#45;map/queue.js -->
<g id="node45" class="node"><title>lib/metrics/algorithms&#45;map/queue.js</title>
<path fill="none" stroke="#c6c5fe" d="M1495.83,-814.599C1495.83,-814.599 1271.17,-814.599 1271.17,-814.599 1267.33,-814.599 1263.5,-810.766 1263.5,-806.933 1263.5,-806.933 1263.5,-799.266 1263.5,-799.266 1263.5,-795.433 1267.33,-791.599 1271.17,-791.599 1271.17,-791.599 1495.83,-791.599 1495.83,-791.599 1499.67,-791.599 1503.5,-795.433 1503.5,-799.266 1503.5,-799.266 1503.5,-806.933 1503.5,-806.933 1503.5,-810.766 1499.67,-814.599 1495.83,-814.599"/>
<text text-anchor="middle" x="1383.5" y="-799.399" font-family="Arial" font-size="14.00" fill="#c6c5fe">lib/metrics/algorithms&#45;map/queue.js</text>
</g>
<!-- lib/metrics/algorithms&#45;map/index.js&#45;&gt;lib/metrics/algorithms&#45;map/queue.js -->
<g id="edge65" class="edge"><title>lib/metrics/algorithms&#45;map/index.js&#45;&gt;lib/metrics/algorithms&#45;map/queue.js</title>
<path fill="none" stroke="#757575" d="M1198.18,-803.099C1216.16,-803.099 1234.82,-803.099 1253.07,-803.099"/>
<polygon fill="#757575" stroke="#757575" points="1253.15,-806.599 1263.15,-803.099 1253.15,-799.599 1253.15,-806.599"/>
</g>
<!-- lib/metrics/algorithms&#45;map/run&#45;time.js -->
<g id="node46" class="node"><title>lib/metrics/algorithms&#45;map/run&#45;time.js</title>
<path fill="none" stroke="#c6c5fe" d="M1501.33,-732.599C1501.33,-732.599 1265.67,-732.599 1265.67,-732.599 1261.83,-732.599 1258,-728.766 1258,-724.933 1258,-724.933 1258,-717.266 1258,-717.266 1258,-713.433 1261.83,-709.599 1265.67,-709.599 1265.67,-709.599 1501.33,-709.599 1501.33,-709.599 1505.17,-709.599 1509,-713.433 1509,-717.266 1509,-717.266 1509,-724.933 1509,-724.933 1509,-728.766 1505.17,-732.599 1501.33,-732.599"/>
<text text-anchor="middle" x="1383.5" y="-717.399" font-family="Arial" font-size="14.00" fill="#c6c5fe">lib/metrics/algorithms&#45;map/run&#45;time.js</text>
</g>
<!-- lib/metrics/algorithms&#45;map/index.js&#45;&gt;lib/metrics/algorithms&#45;map/run&#45;time.js -->
<g id="edge66" class="edge"><title>lib/metrics/algorithms&#45;map/index.js&#45;&gt;lib/metrics/algorithms&#45;map/run&#45;time.js</title>
<path fill="none" stroke="#757575" d="M1105.06,-791.533C1134.3,-777.375 1186.64,-753.729 1234,-741.099 1243.33,-738.611 1253.08,-736.424 1262.93,-734.503"/>
<polygon fill="#757575" stroke="#757575" points="1263.6,-737.937 1272.8,-732.669 1262.33,-731.055 1263.6,-737.937"/>
</g>
<!-- lib/metrics/algorithms&#45;map/templates&#45;store.js -->
<g id="node47" class="node"><title>lib/metrics/algorithms&#45;map/templates&#45;store.js</title>
<path fill="none" stroke="#c6c5fe" d="M1525.33,-855.599C1525.33,-855.599 1241.67,-855.599 1241.67,-855.599 1237.83,-855.599 1234,-851.766 1234,-847.933 1234,-847.933 1234,-840.266 1234,-840.266 1234,-836.433 1237.83,-832.599 1241.67,-832.599 1241.67,-832.599 1525.33,-832.599 1525.33,-832.599 1529.17,-832.599 1533,-836.433 1533,-840.266 1533,-840.266 1533,-847.933 1533,-847.933 1533,-851.766 1529.17,-855.599 1525.33,-855.599"/>
<text text-anchor="middle" x="1383.5" y="-840.399" font-family="Arial" font-size="14.00" fill="#c6c5fe">lib/metrics/algorithms&#45;map/templates&#45;store.js</text>
</g>
<!-- lib/metrics/algorithms&#45;map/index.js&#45;&gt;lib/metrics/algorithms&#45;map/templates&#45;store.js -->
<g id="edge67" class="edge"><title>lib/metrics/algorithms&#45;map/index.js&#45;&gt;lib/metrics/algorithms&#45;map/templates&#45;store.js</title>
<path fill="none" stroke="#757575" d="M1166.51,-814.629C1204.27,-819.782 1248.94,-825.877 1287.83,-831.183"/>
<polygon fill="#757575" stroke="#757575" points="1287.73,-834.701 1298.11,-832.585 1288.67,-827.765 1287.73,-834.701"/>
</g>
<!-- lib/metrics/drivers&#45;flat/queue.js -->
<g id="node48" class="node"><title>lib/metrics/drivers&#45;flat/queue.js</title>
<path fill="none" stroke="#c6c5fe" d="M1480.33,-937.599C1480.33,-937.599 1286.67,-937.599 1286.67,-937.599 1282.83,-937.599 1279,-933.766 1279,-929.933 1279,-929.933 1279,-922.266 1279,-922.266 1279,-918.433 1282.83,-914.599 1286.67,-914.599 1286.67,-914.599 1480.33,-914.599 1480.33,-914.599 1484.17,-914.599 1488,-918.433 1488,-922.266 1488,-922.266 1488,-929.933 1488,-929.933 1488,-933.766 1484.17,-937.599 1480.33,-937.599"/>
<text text-anchor="middle" x="1383.5" y="-922.399" font-family="Arial" font-size="14.00" fill="#c6c5fe">lib/metrics/drivers&#45;flat/queue.js</text>
</g>
<!-- lib/metrics/drivers&#45;flat/index.js&#45;&gt;lib/metrics/drivers&#45;flat/queue.js -->
<g id="edge81" class="edge"><title>lib/metrics/drivers&#45;flat/index.js&#45;&gt;lib/metrics/drivers&#45;flat/queue.js</title>
<path fill="none" stroke="#757575" d="M1182.9,-926.099C1210.38,-926.099 1240.35,-926.099 1268.51,-926.099"/>
<polygon fill="#757575" stroke="#757575" points="1268.79,-929.599 1278.79,-926.099 1268.79,-922.599 1268.79,-929.599"/>
</g>
<!-- lib/metrics/drivers&#45;map/queue.js -->
<g id="node49" class="node"><title>lib/metrics/drivers&#45;map/queue.js</title>
<path fill="none" stroke="#c6c5fe" d="M1484.83,-896.599C1484.83,-896.599 1282.17,-896.599 1282.17,-896.599 1278.33,-896.599 1274.5,-892.766 1274.5,-888.933 1274.5,-888.933 1274.5,-881.266 1274.5,-881.266 1274.5,-877.433 1278.33,-873.599 1282.17,-873.599 1282.17,-873.599 1484.83,-873.599 1484.83,-873.599 1488.67,-873.599 1492.5,-877.433 1492.5,-881.266 1492.5,-881.266 1492.5,-888.933 1492.5,-888.933 1492.5,-892.766 1488.67,-896.599 1484.83,-896.599"/>
<text text-anchor="middle" x="1383.5" y="-881.399" font-family="Arial" font-size="14.00" fill="#c6c5fe">lib/metrics/drivers&#45;map/queue.js</text>
</g>
<!-- lib/metrics/drivers&#45;map/index.js&#45;&gt;lib/metrics/drivers&#45;map/queue.js -->
<g id="edge85" class="edge"><title>lib/metrics/drivers&#45;map/index.js&#45;&gt;lib/metrics/drivers&#45;map/queue.js</title>
<path fill="none" stroke="#757575" d="M1187.1,-885.099C1212.05,-885.099 1238.84,-885.099 1264.33,-885.099"/>
<polygon fill="#757575" stroke="#757575" points="1264.4,-888.599 1274.4,-885.099 1264.4,-881.599 1264.4,-888.599"/>
</g>
<!-- lib/factory/reducer&#45;factory.js -->
<g id="node30" class="node"><title>lib/factory/reducer&#45;factory.js</title>
<path fill="none" stroke="#c6c5fe" d="M920.333,-723.599C920.333,-723.599 744.667,-723.599 744.667,-723.599 740.833,-723.599 737,-719.766 737,-715.933 737,-715.933 737,-708.266 737,-708.266 737,-704.433 740.833,-700.599 744.667,-700.599 744.667,-700.599 920.333,-700.599 920.333,-700.599 924.167,-700.599 928,-704.433 928,-708.266 928,-708.266 928,-715.933 928,-715.933 928,-719.766 924.167,-723.599 920.333,-723.599"/>
<text text-anchor="middle" x="832.5" y="-708.399" font-family="Arial" font-size="14.00" fill="#c6c5fe">lib/factory/reducer&#45;factory.js</text>
</g>
<!-- lib/reducers/metrics&#45;reducer&#45;flat.js -->
<g id="node31" class="node"><title>lib/reducers/metrics&#45;reducer&#45;flat.js</title>
<path fill="none" stroke="#cfffac" d="M1189.33,-683.599C1189.33,-683.599 972.667,-683.599 972.667,-683.599 968.833,-683.599 965,-679.766 965,-675.933 965,-675.933 965,-668.266 965,-668.266 965,-664.433 968.833,-660.599 972.667,-660.599 972.667,-660.599 1189.33,-660.599 1189.33,-660.599 1193.17,-660.599 1197,-664.433 1197,-668.266 1197,-668.266 1197,-675.933 1197,-675.933 1197,-679.766 1193.17,-683.599 1189.33,-683.599"/>
<text text-anchor="middle" x="1081" y="-668.399" font-family="Arial" font-size="14.00" fill="#cfffac">lib/reducers/metrics&#45;reducer&#45;flat.js</text>
</g>
<!-- lib/factory/reducer&#45;factory.js&#45;&gt;lib/reducers/metrics&#45;reducer&#45;flat.js -->
<g id="edge36" class="edge"><title>lib/factory/reducer&#45;factory.js&#45;&gt;lib/reducers/metrics&#45;reducer&#45;flat.js</title>
<path fill="none" stroke="#757575" d="M904.467,-700.583C933.985,-695.793 968.415,-690.206 998.923,-685.256"/>
<polygon fill="#757575" stroke="#757575" points="999.797,-688.66 1009.11,-683.603 998.675,-681.75 999.797,-688.66"/>
</g>
<!-- lib/reducers/metrics&#45;reducer&#45;map.js -->
<g id="node32" class="node"><title>lib/reducers/metrics&#45;reducer&#45;map.js</title>
<path fill="none" stroke="#c6c5fe" d="M1802.33,-580.599C1802.33,-580.599 1576.67,-580.599 1576.67,-580.599 1572.83,-580.599 1569,-576.766 1569,-572.933 1569,-572.933 1569,-565.266 1569,-565.266 1569,-561.433 1572.83,-557.599 1576.67,-557.599 1576.67,-557.599 1802.33,-557.599 1802.33,-557.599 1806.17,-557.599 1810,-561.433 1810,-565.266 1810,-565.266 1810,-572.933 1810,-572.933 1810,-576.766 1806.17,-580.599 1802.33,-580.599"/>
<text text-anchor="middle" x="1689.5" y="-565.399" font-family="Arial" font-size="14.00" fill="#c6c5fe">lib/reducers/metrics&#45;reducer&#45;map.js</text>
</g>
<!-- lib/factory/reducer&#45;factory.js&#45;&gt;lib/reducers/metrics&#45;reducer&#45;map.js -->
<g id="edge37" class="edge"><title>lib/factory/reducer&#45;factory.js&#45;&gt;lib/reducers/metrics&#45;reducer&#45;map.js</title>
<path fill="none" stroke="#757575" d="M928.138,-709.31C1107.22,-703.356 1482.33,-687.411 1533,-657.099 1557.44,-642.481 1545.98,-620.865 1569,-604.099 1581.18,-595.225 1595.6,-588.588 1610.12,-583.628"/>
<polygon fill="#757575" stroke="#757575" points="1611.18,-586.963 1619.66,-580.605 1609.07,-580.29 1611.18,-586.963"/>
</g>
<!-- lib/reducers/metrics&#45;reducer&#45;map.js&#45;&gt;lib/utils/utils.js -->
<g id="edge95" class="edge"><title>lib/reducers/metrics&#45;reducer&#45;map.js&#45;&gt;lib/utils/utils.js</title>
<path fill="none" stroke="#757575" d="M1784.31,-580.696C1793.55,-584.356 1802.32,-589.063 1810,-595.099 1886.02,-654.871 1917.47,-774.252 1927.55,-823.296"/>
<polygon fill="#757575" stroke="#757575" points="1924.18,-824.272 1929.53,-833.415 1931.05,-822.929 1924.18,-824.272"/>
</g>
<!-- lib/factory/store&#45;factory.js -->
<g id="node33" class="node"><title>lib/factory/store&#45;factory.js</title>
<path fill="none" stroke="#c6c5fe" d="M911.833,-171.599C911.833,-171.599 753.167,-171.599 753.167,-171.599 749.333,-171.599 745.5,-167.766 745.5,-163.933 745.5,-163.933 745.5,-156.266 745.5,-156.266 745.5,-152.433 749.333,-148.599 753.167,-148.599 753.167,-148.599 911.833,-148.599 911.833,-148.599 915.667,-148.599 919.5,-152.433 919.5,-156.266 919.5,-156.266 919.5,-163.933 919.5,-163.933 919.5,-167.766 915.667,-171.599 911.833,-171.599"/>
<text text-anchor="middle" x="832.5" y="-156.399" font-family="Arial" font-size="14.00" fill="#c6c5fe">lib/factory/store&#45;factory.js</text>
</g>
<!-- lib/store/algorithms&#45;flat/index.js -->
<g id="node34" class="node"><title>lib/store/algorithms&#45;flat/index.js</title>
<path fill="none" stroke="#c6c5fe" d="M1178.83,-171.599C1178.83,-171.599 983.167,-171.599 983.167,-171.599 979.333,-171.599 975.5,-167.766 975.5,-163.933 975.5,-163.933 975.5,-156.266 975.5,-156.266 975.5,-152.433 979.333,-148.599 983.167,-148.599 983.167,-148.599 1178.83,-148.599 1178.83,-148.599 1182.67,-148.599 1186.5,-152.433 1186.5,-156.266 1186.5,-156.266 1186.5,-163.933 1186.5,-163.933 1186.5,-167.766 1182.67,-171.599 1178.83,-171.599"/>
<text text-anchor="middle" x="1081" y="-156.399" font-family="Arial" font-size="14.00" fill="#c6c5fe">lib/store/algorithms&#45;flat/index.js</text>
</g>
<!-- lib/factory/store&#45;factory.js&#45;&gt;lib/store/algorithms&#45;flat/index.js -->
<g id="edge38" class="edge"><title>lib/factory/store&#45;factory.js&#45;&gt;lib/store/algorithms&#45;flat/index.js</title>
<path fill="none" stroke="#757575" d="M919.714,-160.099C934.405,-160.099 949.871,-160.099 965.163,-160.099"/>
<polygon fill="#757575" stroke="#757575" points="965.177,-163.599 975.177,-160.099 965.177,-156.599 965.177,-163.599"/>
</g>
<!-- lib/store/algorithms&#45;map/index.js -->
<g id="node35" class="node"><title>lib/store/algorithms&#45;map/index.js</title>
<path fill="none" stroke="#c6c5fe" d="M1183.33,-89.5993C1183.33,-89.5993 978.667,-89.5993 978.667,-89.5993 974.833,-89.5993 971,-85.766 971,-81.9327 971,-81.9327 971,-74.266 971,-74.266 971,-70.4327 974.833,-66.5993 978.667,-66.5993 978.667,-66.5993 1183.33,-66.5993 1183.33,-66.5993 1187.17,-66.5993 1191,-70.4327 1191,-74.266 1191,-74.266 1191,-81.9327 1191,-81.9327 1191,-85.766 1187.17,-89.5993 1183.33,-89.5993"/>
<text text-anchor="middle" x="1081" y="-74.3993" font-family="Arial" font-size="14.00" fill="#c6c5fe">lib/store/algorithms&#45;map/index.js</text>
</g>
<!-- lib/factory/store&#45;factory.js&#45;&gt;lib/store/algorithms&#45;map/index.js -->
<g id="edge39" class="edge"><title>lib/factory/store&#45;factory.js&#45;&gt;lib/store/algorithms&#45;map/index.js</title>
<path fill="none" stroke="#757575" d="M853.585,-148.422C878.623,-134.374 923.115,-111.067 964,-98.0993 971.328,-95.7752 979.007,-93.7023 986.775,-91.8569"/>
<polygon fill="#757575" stroke="#757575" points="987.655,-95.2467 996.644,-89.6393 986.12,-88.417 987.655,-95.2467"/>
</g>
<!-- lib/store/drivers&#45;flat/index.js -->
<g id="node36" class="node"><title>lib/store/drivers&#45;flat/index.js</title>
<path fill="none" stroke="#c6c5fe" d="M1167.33,-212.599C1167.33,-212.599 994.667,-212.599 994.667,-212.599 990.833,-212.599 987,-208.766 987,-204.933 987,-204.933 987,-197.266 987,-197.266 987,-193.433 990.833,-189.599 994.667,-189.599 994.667,-189.599 1167.33,-189.599 1167.33,-189.599 1171.17,-189.599 1175,-193.433 1175,-197.266 1175,-197.266 1175,-204.933 1175,-204.933 1175,-208.766 1171.17,-212.599 1167.33,-212.599"/>
<text text-anchor="middle" x="1081" y="-197.399" font-family="Arial" font-size="14.00" fill="#c6c5fe">lib/store/drivers&#45;flat/index.js</text>
</g>
<!-- lib/factory/store&#45;factory.js&#45;&gt;lib/store/drivers&#45;flat/index.js -->
<g id="edge40" class="edge"><title>lib/factory/store&#45;factory.js&#45;&gt;lib/store/drivers&#45;flat/index.js</title>
<path fill="none" stroke="#757575" d="M902.82,-171.629C933.273,-176.694 969.197,-182.67 1000.71,-187.911"/>
<polygon fill="#757575" stroke="#757575" points="1000.33,-191.397 1010.77,-189.585 1001.48,-184.492 1000.33,-191.397"/>
</g>
<!-- lib/store/drivers&#45;map/index.js -->
<g id="node37" class="node"><title>lib/store/drivers&#45;map/index.js</title>
<path fill="none" stroke="#c6c5fe" d="M1171.83,-130.599C1171.83,-130.599 990.167,-130.599 990.167,-130.599 986.333,-130.599 982.5,-126.766 982.5,-122.933 982.5,-122.933 982.5,-115.266 982.5,-115.266 982.5,-111.433 986.333,-107.599 990.167,-107.599 990.167,-107.599 1171.83,-107.599 1171.83,-107.599 1175.67,-107.599 1179.5,-111.433 1179.5,-115.266 1179.5,-115.266 1179.5,-122.933 1179.5,-122.933 1179.5,-126.766 1175.67,-130.599 1171.83,-130.599"/>
<text text-anchor="middle" x="1081" y="-115.399" font-family="Arial" font-size="14.00" fill="#c6c5fe">lib/store/drivers&#45;map/index.js</text>
</g>
<!-- lib/factory/store&#45;factory.js&#45;&gt;lib/store/drivers&#45;map/index.js -->
<g id="edge41" class="edge"><title>lib/factory/store&#45;factory.js&#45;&gt;lib/store/drivers&#45;map/index.js</title>
<path fill="none" stroke="#757575" d="M902.82,-148.569C933.273,-143.504 969.197,-137.529 1000.71,-132.288"/>
<polygon fill="#757575" stroke="#757575" points="1001.48,-135.707 1010.77,-130.614 1000.33,-128.802 1001.48,-135.707"/>
</g>
<!-- lib/store/algorithms&#45;flat/store.js -->
<g id="node54" class="node"><title>lib/store/algorithms&#45;flat/store.js</title>
<path fill="none" stroke="#c6c5fe" d="M1480.33,-171.599C1480.33,-171.599 1286.67,-171.599 1286.67,-171.599 1282.83,-171.599 1279,-167.766 1279,-163.933 1279,-163.933 1279,-156.266 1279,-156.266 1279,-152.433 1282.83,-148.599 1286.67,-148.599 1286.67,-148.599 1480.33,-148.599 1480.33,-148.599 1484.17,-148.599 1488,-152.433 1488,-156.266 1488,-156.266 1488,-163.933 1488,-163.933 1488,-167.766 1484.17,-171.599 1480.33,-171.599"/>
<text text-anchor="middle" x="1383.5" y="-156.399" font-family="Arial" font-size="14.00" fill="#c6c5fe">lib/store/algorithms&#45;flat/store.js</text>
</g>
<!-- lib/store/algorithms&#45;flat/index.js&#45;&gt;lib/store/algorithms&#45;flat/store.js -->
<g id="edge102" class="edge"><title>lib/store/algorithms&#45;flat/index.js&#45;&gt;lib/store/algorithms&#45;flat/store.js</title>
<path fill="none" stroke="#757575" d="M1186.68,-160.099C1213.19,-160.099 1241.79,-160.099 1268.72,-160.099"/>
<polygon fill="#757575" stroke="#757575" points="1268.96,-163.599 1278.96,-160.099 1268.96,-156.599 1268.96,-163.599"/>
</g>
<!-- lib/store/algorithms&#45;map/store.js -->
<g id="node55" class="node"><title>lib/store/algorithms&#45;map/store.js</title>
<path fill="none" stroke="#c6c5fe" d="M1484.83,-89.5993C1484.83,-89.5993 1282.17,-89.5993 1282.17,-89.5993 1278.33,-89.5993 1274.5,-85.766 1274.5,-81.9327 1274.5,-81.9327 1274.5,-74.266 1274.5,-74.266 1274.5,-70.4327 1278.33,-66.5993 1282.17,-66.5993 1282.17,-66.5993 1484.83,-66.5993 1484.83,-66.5993 1488.67,-66.5993 1492.5,-70.4327 1492.5,-74.266 1492.5,-74.266 1492.5,-81.9327 1492.5,-81.9327 1492.5,-85.766 1488.67,-89.5993 1484.83,-89.5993"/>
<text text-anchor="middle" x="1383.5" y="-74.3993" font-family="Arial" font-size="14.00" fill="#c6c5fe">lib/store/algorithms&#45;map/store.js</text>
</g>
<!-- lib/store/algorithms&#45;map/index.js&#45;&gt;lib/store/algorithms&#45;map/store.js -->
<g id="edge106" class="edge"><title>lib/store/algorithms&#45;map/index.js&#45;&gt;lib/store/algorithms&#45;map/store.js</title>
<path fill="none" stroke="#757575" d="M1191.34,-78.0993C1214.98,-78.0993 1240.08,-78.0993 1264.05,-78.0993"/>
<polygon fill="#757575" stroke="#757575" points="1264.25,-81.5994 1274.25,-78.0993 1264.25,-74.5994 1264.25,-81.5994"/>
</g>
<!-- lib/store/drivers&#45;flat/store.js -->
<g id="node56" class="node"><title>lib/store/drivers&#45;flat/store.js</title>
<path fill="none" stroke="#c6c5fe" d="M1469.33,-212.599C1469.33,-212.599 1297.67,-212.599 1297.67,-212.599 1293.83,-212.599 1290,-208.766 1290,-204.933 1290,-204.933 1290,-197.266 1290,-197.266 1290,-193.433 1293.83,-189.599 1297.67,-189.599 1297.67,-189.599 1469.33,-189.599 1469.33,-189.599 1473.17,-189.599 1477,-193.433 1477,-197.266 1477,-197.266 1477,-204.933 1477,-204.933 1477,-208.766 1473.17,-212.599 1469.33,-212.599"/>
<text text-anchor="middle" x="1383.5" y="-197.399" font-family="Arial" font-size="14.00" fill="#c6c5fe">lib/store/drivers&#45;flat/store.js</text>
</g>
<!-- lib/store/drivers&#45;flat/index.js&#45;&gt;lib/store/drivers&#45;flat/store.js -->
<g id="edge109" class="edge"><title>lib/store/drivers&#45;flat/index.js&#45;&gt;lib/store/drivers&#45;flat/store.js</title>
<path fill="none" stroke="#757575" d="M1175.02,-201.099C1208.14,-201.099 1245.62,-201.099 1279.52,-201.099"/>
<polygon fill="#757575" stroke="#757575" points="1279.92,-204.599 1289.92,-201.099 1279.92,-197.599 1279.92,-204.599"/>
</g>
<!-- lib/store/drivers&#45;map/store.js -->
<g id="node57" class="node"><title>lib/store/drivers&#45;map/store.js</title>
<path fill="none" stroke="#c6c5fe" d="M1473.83,-130.599C1473.83,-130.599 1293.17,-130.599 1293.17,-130.599 1289.33,-130.599 1285.5,-126.766 1285.5,-122.933 1285.5,-122.933 1285.5,-115.266 1285.5,-115.266 1285.5,-111.433 1289.33,-107.599 1293.17,-107.599 1293.17,-107.599 1473.83,-107.599 1473.83,-107.599 1477.67,-107.599 1481.5,-111.433 1481.5,-115.266 1481.5,-115.266 1481.5,-122.933 1481.5,-122.933 1481.5,-126.766 1477.67,-130.599 1473.83,-130.599"/>
<text text-anchor="middle" x="1383.5" y="-115.399" font-family="Arial" font-size="14.00" fill="#c6c5fe">lib/store/drivers&#45;map/store.js</text>
</g>
<!-- lib/store/drivers&#45;map/index.js&#45;&gt;lib/store/drivers&#45;map/store.js -->
<g id="edge113" class="edge"><title>lib/store/drivers&#45;map/index.js&#45;&gt;lib/store/drivers&#45;map/store.js</title>
<path fill="none" stroke="#757575" d="M1179.56,-119.099C1210.18,-119.099 1244.14,-119.099 1275.39,-119.099"/>
<polygon fill="#757575" stroke="#757575" points="1275.43,-122.599 1285.43,-119.099 1275.43,-115.599 1275.43,-122.599"/>
</g>
<!-- lib/metrics/Metric.js -->
<g id="node38" class="node"><title>lib/metrics/Metric.js</title>
<path fill="none" stroke="#cfffac" d="M1750.33,-896.599C1750.33,-896.599 1628.67,-896.599 1628.67,-896.599 1624.83,-896.599 1621,-892.766 1621,-888.933 1621,-888.933 1621,-881.266 1621,-881.266 1621,-877.433 1624.83,-873.599 1628.67,-873.599 1628.67,-873.599 1750.33,-873.599 1750.33,-873.599 1754.17,-873.599 1758,-877.433 1758,-881.266 1758,-881.266 1758,-888.933 1758,-888.933 1758,-892.766 1754.17,-896.599 1750.33,-896.599"/>
<text text-anchor="middle" x="1689.5" y="-881.399" font-family="Arial" font-size="14.00" fill="#cfffac">lib/metrics/Metric.js</text>
</g>
<!-- lib/metrics/algorithms&#45;flat/cpu&#45;usage.js&#45;&gt;lib/utils/utils.js -->
<g id="edge45" class="edge"><title>lib/metrics/algorithms&#45;flat/cpu&#45;usage.js&#45;&gt;lib/utils/utils.js</title>
<path fill="none" stroke="#757575" d="M1467.66,-1019.63C1574.37,-1032.83 1752.58,-1049.04 1810,-1019.1 1872.41,-986.558 1909.34,-905.687 1924.06,-866.739"/>
<polygon fill="#757575" stroke="#757575" points="1927.49,-867.535 1927.62,-856.941 1920.91,-865.141 1927.49,-867.535"/>
</g>
<!-- lib/metrics/algorithms&#45;flat/cpu&#45;usage.js&#45;&gt;lib/metrics/Metric.js -->
<g id="edge43" class="edge"><title>lib/metrics/algorithms&#45;flat/cpu&#45;usage.js&#45;&gt;lib/metrics/Metric.js</title>
<path fill="none" stroke="#757575" d="M1512.15,-996.497C1519.39,-993.872 1526.4,-990.767 1533,-987.099 1554.79,-974.994 1549.4,-959.503 1569,-944.099 1592.61,-925.543 1622.99,-910.639 1647.21,-900.452"/>
<polygon fill="#757575" stroke="#757575" points="1648.57,-903.676 1656.5,-896.647 1645.92,-897.199 1648.57,-903.676"/>
</g>
<!-- lib/utils/queue.js -->
<g id="node40" class="node"><title>lib/utils/queue.js</title>
<path fill="none" stroke="#c6c5fe" d="M1740.33,-976.599C1740.33,-976.599 1638.67,-976.599 1638.67,-976.599 1634.83,-976.599 1631,-972.766 1631,-968.933 1631,-968.933 1631,-961.266 1631,-961.266 1631,-957.433 1634.83,-953.599 1638.67,-953.599 1638.67,-953.599 1740.33,-953.599 1740.33,-953.599 1744.17,-953.599 1748,-957.433 1748,-961.266 1748,-961.266 1748,-968.933 1748,-968.933 1748,-972.766 1744.17,-976.599 1740.33,-976.599"/>
<text text-anchor="middle" x="1689.5" y="-961.399" font-family="Arial" font-size="14.00" fill="#c6c5fe">lib/utils/queue.js</text>
</g>
<!-- lib/metrics/algorithms&#45;flat/cpu&#45;usage.js&#45;&gt;lib/utils/queue.js -->
<g id="edge44" class="edge"><title>lib/metrics/algorithms&#45;flat/cpu&#45;usage.js&#45;&gt;lib/utils/queue.js</title>
<path fill="none" stroke="#757575" d="M1466.2,-996.547C1487.91,-993.476 1511.34,-990.163 1533,-987.099 1561.73,-983.036 1593.44,-978.55 1620.69,-974.694"/>
<polygon fill="#757575" stroke="#757575" points="1621.49,-978.116 1630.9,-973.249 1620.51,-971.185 1621.49,-978.116"/>
</g>
<!-- lib/utils/queue.js&#45;&gt;lib/utils/utils.js -->
<g id="edge117" class="edge"><title>lib/utils/queue.js&#45;&gt;lib/utils/utils.js</title>
<path fill="none" stroke="#757575" d="M1748.11,-957.898C1768.31,-954.003 1790.76,-948.073 1810,-939.099 1850.86,-920.043 1890.75,-885.159 1913.12,-863.664"/>
<polygon fill="#757575" stroke="#757575" points="1915.57,-866.161 1920.28,-856.668 1910.68,-861.155 1915.57,-866.161"/>
</g>
<!-- lib/metrics/algorithms&#45;flat/queue.js&#45;&gt;lib/consts/components.js -->
<g id="edge50" class="edge"><title>lib/metrics/algorithms&#45;flat/queue.js&#45;&gt;lib/consts/components.js</title>
<path fill="none" stroke="#757575" d="M1488.1,-978.61C1606.1,-990.62 1785.79,-1005.13 1810,-985.099 1822.33,-974.898 1908.65,-480.03 1927.76,-369.736"/>
<polygon fill="#757575" stroke="#757575" points="1931.23,-370.218 1929.49,-359.768 1924.33,-369.025 1931.23,-370.218"/>
</g>
<!-- lib/metrics/algorithms&#45;flat/queue.js&#45;&gt;lib/metrics/Metric.js -->
<g id="edge51" class="edge"><title>lib/metrics/algorithms&#45;flat/queue.js&#45;&gt;lib/metrics/Metric.js</title>
<path fill="none" stroke="#757575" d="M1488.57,-955.533C1503.59,-952.954 1518.77,-949.841 1533,-946.099 1576.27,-934.719 1623.87,-914.896 1654.86,-900.943"/>
<polygon fill="#757575" stroke="#757575" points="1656.67,-903.968 1664.32,-896.637 1653.77,-897.598 1656.67,-903.968"/>
</g>
<!-- lib/metrics/algorithms&#45;flat/queue.js&#45;&gt;lib/utils/queue.js -->
<g id="edge52" class="edge"><title>lib/metrics/algorithms&#45;flat/queue.js&#45;&gt;lib/utils/queue.js</title>
<path fill="none" stroke="#757575" d="M1499.43,-966.343C1540.29,-966.074 1584.96,-965.781 1620.61,-965.546"/>
<polygon fill="#757575" stroke="#757575" points="1620.92,-969.044 1630.89,-965.478 1620.87,-962.044 1620.92,-969.044"/>
</g>
<!-- lib/metrics/algorithms&#45;flat/run&#45;time.js&#45;&gt;lib/utils/utils.js -->
<g id="edge55" class="edge"><title>lib/metrics/algorithms&#45;flat/run&#45;time.js&#45;&gt;lib/utils/utils.js</title>
<path fill="none" stroke="#757575" d="M1504.6,-1059.71C1611.92,-1066.94 1759.75,-1070.69 1810,-1042.1 1878.11,-1003.34 1912.96,-909.307 1925.7,-866.709"/>
<polygon fill="#757575" stroke="#757575" points="1929.14,-867.401 1928.53,-856.824 1922.41,-865.474 1929.14,-867.401"/>
</g>
<!-- lib/metrics/algorithms&#45;flat/run&#45;time.js&#45;&gt;lib/metrics/Metric.js -->
<g id="edge53" class="edge"><title>lib/metrics/algorithms&#45;flat/run&#45;time.js&#45;&gt;lib/metrics/Metric.js</title>
<path fill="none" stroke="#757575" d="M1504.85,-1043.27C1514.95,-1039.54 1524.52,-1034.59 1533,-1028.1 1565.26,-1003.42 1541.06,-973.581 1569,-944.099 1588.09,-923.951 1615.54,-909.73 1639.31,-900.305"/>
<polygon fill="#757575" stroke="#757575" points="1640.78,-903.491 1648.89,-896.68 1638.3,-896.944 1640.78,-903.491"/>
</g>
<!-- lib/metrics/algorithms&#45;flat/run&#45;time.js&#45;&gt;lib/utils/queue.js -->
<g id="edge54" class="edge"><title>lib/metrics/algorithms&#45;flat/run&#45;time.js&#45;&gt;lib/utils/queue.js</title>
<path fill="none" stroke="#757575" d="M1489.41,-1037.54C1504.16,-1034.96 1519.04,-1031.85 1533,-1028.1 1576.78,-1016.32 1624.81,-995.578 1655.74,-981.123"/>
<polygon fill="#757575" stroke="#757575" points="1657.61,-984.11 1665.15,-976.67 1654.61,-977.782 1657.61,-984.11"/>
</g>
<!-- lib/metrics/algorithms&#45;flat/templates&#45;store.js&#45;&gt;lib/utils/utils.js -->
<g id="edge58" class="edge"><title>lib/metrics/algorithms&#45;flat/templates&#45;store.js&#45;&gt;lib/utils/utils.js</title>
<path fill="none" stroke="#757575" d="M1432.04,-1101.6C1515.68,-1119.01 1691.53,-1142.67 1810,-1068.1 1884.1,-1021.46 1916.35,-912.995 1927.09,-866.684"/>
<polygon fill="#757575" stroke="#757575" points="1930.53,-867.328 1929.27,-856.809 1923.69,-865.82 1930.53,-867.328"/>
</g>
<!-- lib/metrics/algorithms&#45;flat/templates&#45;store.js&#45;&gt;lib/metrics/Metric.js -->
<g id="edge56" class="edge"><title>lib/metrics/algorithms&#45;flat/templates&#45;store.js&#45;&gt;lib/metrics/Metric.js</title>
<path fill="none" stroke="#757575" d="M1519.73,-1078.57C1524.42,-1075.83 1528.87,-1072.69 1533,-1069.1 1576.64,-1031.18 1531.92,-988.455 1569,-944.099 1586.28,-923.427 1612.57,-909.353 1636.09,-900.152"/>
<polygon fill="#757575" stroke="#757575" points="1637.47,-903.376 1645.63,-896.622 1635.03,-896.812 1637.47,-903.376"/>
</g>
<!-- lib/metrics/algorithms&#45;flat/templates&#45;store.js&#45;&gt;lib/utils/queue.js -->
<g id="edge57" class="edge"><title>lib/metrics/algorithms&#45;flat/templates&#45;store.js&#45;&gt;lib/utils/queue.js</title>
<path fill="none" stroke="#757575" d="M1502.08,-1078.51C1512.7,-1075.96 1523.15,-1072.86 1533,-1069.1 1586.29,-1048.74 1639.66,-1007.35 1667.91,-983.382"/>
<polygon fill="#757575" stroke="#757575" points="1670.23,-986.008 1675.52,-976.83 1665.66,-980.704 1670.23,-986.008"/>
</g>
<!-- lib/metrics/algorithms&#45;map/cpu&#45;usage.js&#45;&gt;lib/utils/utils.js -->
<g id="edge63" class="edge"><title>lib/metrics/algorithms&#45;map/cpu&#45;usage.js&#45;&gt;lib/utils/utils.js</title>
<path fill="none" stroke="#757575" d="M1508.16,-750.525C1516.75,-747.934 1525.11,-744.824 1533,-741.099 1552.63,-731.83 1548.77,-715.968 1569,-708.099 1668.82,-669.269 1712.31,-664.165 1810,-708.099 1863.34,-732.088 1902.76,-792.349 1920.72,-824.362"/>
<polygon fill="#757575" stroke="#757575" points="1917.75,-826.21 1925.6,-833.318 1923.89,-822.862 1917.75,-826.21"/>
</g>
<!-- lib/metrics/algorithms&#45;map/cpu&#45;usage.js&#45;&gt;lib/allocators/ratios&#45;allocator.js -->
<g id="edge59" class="edge"><title>lib/metrics/algorithms&#45;map/cpu&#45;usage.js&#45;&gt;lib/allocators/ratios&#45;allocator.js</title>
<path fill="none" stroke="#757575" d="M1516.32,-750.553C1522.16,-747.863 1527.76,-744.733 1533,-741.099 1560.46,-722.069 1542.26,-695.13 1569,-675.099 1574.48,-670.995 1580.48,-667.511 1586.77,-664.558"/>
<polygon fill="#757575" stroke="#757575" points="1588.32,-667.703 1596.18,-660.6 1585.61,-661.251 1588.32,-667.703"/>
</g>
<!-- lib/metrics/algorithms&#45;map/cpu&#45;usage.js&#45;&gt;lib/allocators/resource&#45;allocator.js -->
<g id="edge60" class="edge"><title>lib/metrics/algorithms&#45;map/cpu&#45;usage.js&#45;&gt;lib/allocators/resource&#45;allocator.js</title>
<path fill="none" stroke="#757575" d="M1490.82,-750.558C1517.17,-747.698 1545.53,-744.62 1572.31,-741.712"/>
<polygon fill="#757575" stroke="#757575" points="1572.93,-745.166 1582.49,-740.607 1572.17,-738.206 1572.93,-745.166"/>
</g>
<!-- lib/metrics/algorithms&#45;map/cpu&#45;usage.js&#45;&gt;lib/metrics/Metric.js -->
<g id="edge61" class="edge"><title>lib/metrics/algorithms&#45;map/cpu&#45;usage.js&#45;&gt;lib/metrics/Metric.js</title>
<path fill="none" stroke="#757575" d="M1505.2,-773.629C1514.74,-775.965 1524.11,-778.759 1533,-782.099 1586.25,-802.108 1639.63,-843.154 1667.9,-866.946"/>
<polygon fill="#757575" stroke="#757575" points="1665.64,-869.614 1675.51,-873.45 1670.18,-864.293 1665.64,-869.614"/>
</g>
<!-- lib/metrics/algorithms&#45;map/cpu&#45;usage.js&#45;&gt;lib/utils/queue.js -->
<g id="edge62" class="edge"><title>lib/metrics/algorithms&#45;map/cpu&#45;usage.js&#45;&gt;lib/utils/queue.js</title>
<path fill="none" stroke="#757575" d="M1517.32,-771.393C1522.9,-774.403 1528.17,-777.945 1533,-782.099 1576.2,-819.227 1532.52,-861.355 1569,-905.099 1586.58,-926.175 1613.4,-940.58 1637.19,-949.982"/>
<polygon fill="#757575" stroke="#757575" points="1636.22,-953.357 1646.81,-953.587 1638.67,-946.802 1636.22,-953.357"/>
</g>
<!-- lib/metrics/algorithms&#45;map/queue.js&#45;&gt;lib/consts/components.js -->
<g id="edge69" class="edge"><title>lib/metrics/algorithms&#45;map/queue.js&#45;&gt;lib/consts/components.js</title>
<path fill="none" stroke="#757575" d="M1503.53,-794.607C1621.16,-785.168 1786.85,-768.65 1810,-749.099 1870.25,-698.206 1915.6,-445.836 1928.07,-369.81"/>
<polygon fill="#757575" stroke="#757575" points="1931.53,-370.348 1929.67,-359.917 1924.62,-369.231 1931.53,-370.348"/>
</g>
<!-- lib/metrics/algorithms&#45;map/queue.js&#45;&gt;lib/allocators/resource&#45;allocator.js -->
<g id="edge68" class="edge"><title>lib/metrics/algorithms&#45;map/queue.js&#45;&gt;lib/allocators/resource&#45;allocator.js</title>
<path fill="none" stroke="#757575" d="M1503.87,-791.675C1513.9,-789.082 1523.74,-785.929 1533,-782.099 1551.48,-774.459 1550.81,-763.416 1569,-755.099 1579.38,-750.353 1590.67,-746.454 1602.03,-743.255"/>
<polygon fill="#757575" stroke="#757575" points="1603.23,-746.557 1612.01,-740.621 1601.45,-739.789 1603.23,-746.557"/>
</g>
<!-- lib/metrics/algorithms&#45;map/queue.js&#45;&gt;lib/metrics/Metric.js -->
<g id="edge70" class="edge"><title>lib/metrics/algorithms&#45;map/queue.js&#45;&gt;lib/metrics/Metric.js</title>
<path fill="none" stroke="#757575" d="M1493.38,-814.625C1506.82,-816.968 1520.29,-819.765 1533,-823.099 1576.63,-834.549 1624.51,-854.904 1655.45,-869.158"/>
<polygon fill="#757575" stroke="#757575" points="1654.34,-872.498 1664.88,-873.552 1657.29,-866.154 1654.34,-872.498"/>
</g>
<!-- lib/metrics/algorithms&#45;map/queue.js&#45;&gt;lib/utils/queue.js -->
<g id="edge71" class="edge"><title>lib/metrics/algorithms&#45;map/queue.js&#45;&gt;lib/utils/queue.js</title>
<path fill="none" stroke="#757575" d="M1503.65,-807.75C1514.18,-811.454 1524.17,-816.448 1533,-823.099 1564.79,-847.044 1541.59,-876.238 1569,-905.099 1588.46,-925.591 1616.43,-940.161 1640.42,-949.808"/>
<polygon fill="#757575" stroke="#757575" points="1639.49,-953.198 1650.08,-953.517 1642,-946.664 1639.49,-953.198"/>
</g>
<!-- lib/metrics/algorithms&#45;map/run&#45;time.js&#45;&gt;lib/utils/utils.js -->
<g id="edge76" class="edge"><title>lib/metrics/algorithms&#45;map/run&#45;time.js&#45;&gt;lib/utils/utils.js</title>
<path fill="none" stroke="#757575" d="M1506.24,-709.464C1515.76,-705.713 1524.83,-701 1533,-695.099 1560.4,-675.306 1539.99,-645.447 1569,-628.099 1614.97,-600.616 1763.8,-601.016 1810,-628.099 1883.81,-671.367 1916.15,-777.672 1927,-823.5"/>
<polygon fill="#757575" stroke="#757575" points="1923.65,-824.544 1929.26,-833.533 1930.48,-823.008 1923.65,-824.544"/>
</g>
<!-- lib/metrics/algorithms&#45;map/run&#45;time.js&#45;&gt;lib/allocators/ratios&#45;allocator.js -->
<g id="edge72" class="edge"><title>lib/metrics/algorithms&#45;map/run&#45;time.js&#45;&gt;lib/allocators/ratios&#45;allocator.js</title>
<path fill="none" stroke="#757575" d="M1478.41,-709.55C1496.8,-705.927 1515.73,-701.213 1533,-695.099 1550.25,-688.992 1551.87,-681.559 1569,-675.099 1581.71,-670.306 1595.53,-666.285 1609.11,-662.949"/>
<polygon fill="#757575" stroke="#757575" points="1610,-666.334 1618.94,-660.64 1608.4,-659.52 1610,-666.334"/>
</g>
<!-- lib/metrics/algorithms&#45;map/run&#45;time.js&#45;&gt;lib/allocators/resource&#45;allocator.js -->
<g id="edge73" class="edge"><title>lib/metrics/algorithms&#45;map/run&#45;time.js&#45;&gt;lib/allocators/resource&#45;allocator.js</title>
<path fill="none" stroke="#757575" d="M1509.03,-724.376C1527.79,-724.87 1547.13,-725.379 1565.86,-725.872"/>
<polygon fill="#757575" stroke="#757575" points="1565.8,-729.371 1575.88,-726.136 1565.98,-722.374 1565.8,-729.371"/>
</g>
<!-- lib/metrics/algorithms&#45;map/run&#45;time.js&#45;&gt;lib/metrics/Metric.js -->
<g id="edge74" class="edge"><title>lib/metrics/algorithms&#45;map/run&#45;time.js&#45;&gt;lib/metrics/Metric.js</title>
<path fill="none" stroke="#757575" d="M1509.32,-732.088C1517.5,-734.576 1525.47,-737.55 1533,-741.099 1594.76,-770.207 1648.68,-832.772 1673.69,-865.001"/>
<polygon fill="#757575" stroke="#757575" points="1671.11,-867.397 1679.95,-873.233 1676.68,-863.157 1671.11,-867.397"/>
</g>
<!-- lib/metrics/algorithms&#45;map/run&#45;time.js&#45;&gt;lib/utils/queue.js -->
<g id="edge75" class="edge"><title>lib/metrics/algorithms&#45;map/run&#45;time.js&#45;&gt;lib/utils/queue.js</title>
<path fill="none" stroke="#757575" d="M1509.05,-725.651C1517.78,-729.525 1525.92,-734.579 1533,-741.099 1587.89,-791.654 1523.2,-846.182 1569,-905.099 1585.53,-926.363 1611.62,-940.677 1635.21,-949.972"/>
<polygon fill="#757575" stroke="#757575" points="1634.19,-953.329 1644.79,-953.534 1636.63,-946.768 1634.19,-953.329"/>
</g>
<!-- lib/metrics/algorithms&#45;map/templates&#45;store.js&#45;&gt;lib/utils/utils.js -->
<g id="edge80" class="edge"><title>lib/metrics/algorithms&#45;map/templates&#45;store.js&#45;&gt;lib/utils/utils.js</title>
<path fill="none" stroke="#757575" d="M1533.25,-844.371C1644.21,-844.574 1790.05,-844.841 1870.9,-844.989"/>
<polygon fill="#757575" stroke="#757575" points="1871.38,-848.489 1881.38,-845.008 1871.39,-841.489 1871.38,-848.489"/>
</g>
<!-- lib/metrics/algorithms&#45;map/templates&#45;store.js&#45;&gt;lib/allocators/resource&#45;allocator.js -->
<g id="edge77" class="edge"><title>lib/metrics/algorithms&#45;map/templates&#45;store.js&#45;&gt;lib/allocators/resource&#45;allocator.js</title>
<path fill="none" stroke="#757575" d="M1506.42,-832.543C1515.59,-829.961 1524.55,-826.848 1533,-823.099 1552.04,-814.652 1551.73,-804.742 1569,-793.099 1596.39,-774.632 1629.67,-757.175 1654.15,-745.173"/>
<polygon fill="#757575" stroke="#757575" points="1655.92,-748.202 1663.4,-740.692 1652.87,-741.903 1655.92,-748.202"/>
</g>
<!-- lib/metrics/algorithms&#45;map/templates&#45;store.js&#45;&gt;lib/metrics/Metric.js -->
<g id="edge78" class="edge"><title>lib/metrics/algorithms&#45;map/templates&#45;store.js&#45;&gt;lib/metrics/Metric.js</title>
<path fill="none" stroke="#757575" d="M1470.09,-855.622C1490.7,-858.396 1512.63,-861.353 1533,-864.099 1558.27,-867.507 1585.85,-871.231 1610.67,-874.583"/>
<polygon fill="#757575" stroke="#757575" points="1610.38,-878.076 1620.76,-875.946 1611.32,-871.139 1610.38,-878.076"/>
</g>
<!-- lib/metrics/algorithms&#45;map/templates&#45;store.js&#45;&gt;lib/utils/queue.js -->
<g id="edge79" class="edge"><title>lib/metrics/algorithms&#45;map/templates&#45;store.js&#45;&gt;lib/utils/queue.js</title>
<path fill="none" stroke="#757575" d="M1513.91,-855.648C1520.51,-858.046 1526.92,-860.842 1533,-864.099 1554.37,-875.556 1549.81,-890.274 1569,-905.099 1593.17,-923.768 1624.05,-939.093 1648.36,-949.581"/>
<polygon fill="#757575" stroke="#757575" points="1647.09,-952.844 1657.67,-953.499 1649.81,-946.393 1647.09,-952.844"/>
</g>
<!-- lib/metrics/drivers&#45;flat/queue.js&#45;&gt;lib/consts/components.js -->
<g id="edge82" class="edge"><title>lib/metrics/drivers&#45;flat/queue.js&#45;&gt;lib/consts/components.js</title>
<path fill="none" stroke="#757575" d="M1488.42,-934.879C1598.65,-941.833 1763.22,-944.712 1810,-905.099 1852.36,-869.223 1913.79,-468.429 1928.33,-369.886"/>
<polygon fill="#757575" stroke="#757575" points="1931.81,-370.28 1929.8,-359.877 1924.88,-369.263 1931.81,-370.28"/>
</g>
<!-- lib/metrics/drivers&#45;flat/queue.js&#45;&gt;lib/metrics/Metric.js -->
<g id="edge83" class="edge"><title>lib/metrics/drivers&#45;flat/queue.js&#45;&gt;lib/metrics/Metric.js</title>
<path fill="none" stroke="#757575" d="M1469.99,-914.569C1514.21,-908.605 1567.79,-901.379 1610.83,-895.575"/>
<polygon fill="#757575" stroke="#757575" points="1611.52,-899.013 1620.96,-894.208 1610.58,-892.076 1611.52,-899.013"/>
</g>
<!-- lib/metrics/drivers&#45;flat/queue.js&#45;&gt;lib/utils/queue.js -->
<g id="edge84" class="edge"><title>lib/metrics/drivers&#45;flat/queue.js&#45;&gt;lib/utils/queue.js</title>
<path fill="none" stroke="#757575" d="M1474.48,-937.642C1521.32,-943.652 1577.65,-950.878 1620.76,-956.409"/>
<polygon fill="#757575" stroke="#757575" points="1620.5,-959.904 1630.86,-957.705 1621.39,-952.961 1620.5,-959.904"/>
</g>
<!-- lib/metrics/drivers&#45;map/queue.js&#45;&gt;lib/consts/components.js -->
<g id="edge87" class="edge"><title>lib/metrics/drivers&#45;map/queue.js&#45;&gt;lib/consts/components.js</title>
<path fill="none" stroke="#757575" d="M1482.9,-873.587C1593.9,-858.588 1764.89,-828.763 1810,-783.099 1927.72,-663.948 1933.58,-440.776 1932.29,-370.131"/>
<polygon fill="#757575" stroke="#757575" points="1935.78,-369.703 1932.03,-359.796 1928.78,-369.881 1935.78,-369.703"/>
</g>
<!-- lib/metrics/drivers&#45;map/queue.js&#45;&gt;lib/allocators/resource&#45;allocator.js -->
<g id="edge86" class="edge"><title>lib/metrics/drivers&#45;map/queue.js&#45;&gt;lib/allocators/resource&#45;allocator.js</title>
<path fill="none" stroke="#757575" d="M1492.69,-882.312C1507.12,-878.464 1521.04,-872.659 1533,-864.099 1561.77,-843.513 1544.26,-818.396 1569,-793.099 1590.28,-771.337 1620.56,-755.228 1645.31,-744.616"/>
<polygon fill="#757575" stroke="#757575" points="1646.94,-747.732 1654.84,-740.68 1644.26,-741.262 1646.94,-747.732"/>
</g>
<!-- lib/metrics/drivers&#45;map/queue.js&#45;&gt;lib/metrics/Metric.js -->
<g id="edge88" class="edge"><title>lib/metrics/drivers&#45;map/queue.js&#45;&gt;lib/metrics/Metric.js</title>
<path fill="none" stroke="#757575" d="M1492.53,-885.099C1531.37,-885.099 1574.39,-885.099 1610.2,-885.099"/>
<polygon fill="#757575" stroke="#757575" points="1610.59,-888.599 1620.59,-885.099 1610.59,-881.599 1610.59,-888.599"/>
</g>
<!-- lib/metrics/drivers&#45;map/queue.js&#45;&gt;lib/utils/queue.js -->
<g id="edge89" class="edge"><title>lib/metrics/drivers&#45;map/queue.js&#45;&gt;lib/utils/queue.js</title>
<path fill="none" stroke="#757575" d="M1492.55,-896.625C1506.26,-898.972 1520.02,-901.771 1533,-905.099 1576.12,-916.159 1623.58,-935.596 1654.58,-949.346"/>
<polygon fill="#757575" stroke="#757575" points="1653.49,-952.692 1664.04,-953.593 1656.35,-946.305 1653.49,-952.692"/>
</g>
<!-- lib/metrics/metrics&#45;controller.js&#45;&gt;lib/utils/utils.js -->
<g id="edge92" class="edge"><title>lib/metrics/metrics&#45;controller.js&#45;&gt;lib/utils/utils.js</title>
<path fill="none" stroke="#757575" d="M596.427,-809.637C636.982,-871.086 838.708,-1157.1 1080,-1157.1 1080,-1157.1 1080,-1157.1 1384.5,-1157.1 1574.86,-1157.1 1655.77,-1219.69 1810,-1108.1 1892.57,-1048.36 1920.55,-918.416 1928.63,-866.834"/>
<polygon fill="#757575" stroke="#757575" points="1932.11,-867.206 1930.1,-856.804 1925.18,-866.191 1932.11,-867.206"/>
</g>
<!-- lib/metrics/metrics&#45;controller.js&#45;&gt;lib/factory/metrics&#45;factory.js -->
<g id="edge90" class="edge"><title>lib/metrics/metrics&#45;controller.js&#45;&gt;lib/factory/metrics&#45;factory.js</title>
<path fill="none" stroke="#757575" d="M621.202,-809.652C664.594,-825.22 741.897,-852.953 789.721,-870.111"/>
<polygon fill="#757575" stroke="#757575" points="788.57,-873.416 799.165,-873.499 790.934,-866.827 788.57,-873.416"/>
</g>
<!-- lib/metrics/metrics&#45;controller.js&#45;&gt;lib/factory/reducer&#45;factory.js -->
<g id="edge91" class="edge"><title>lib/metrics/metrics&#45;controller.js&#45;&gt;lib/factory/reducer&#45;factory.js</title>
<path fill="none" stroke="#757575" d="M621.453,-786.59C664.799,-771.218 741.662,-743.959 789.417,-727.024"/>
<polygon fill="#757575" stroke="#757575" points="790.597,-730.319 798.852,-723.678 788.257,-723.721 790.597,-730.319"/>
</g>
<!-- lib/store/store&#45;controller.js&#45;&gt;lib/factory/store&#45;factory.js -->
<g id="edge116" class="edge"><title>lib/store/store&#45;controller.js&#45;&gt;lib/factory/store&#45;factory.js</title>
<path fill="none" stroke="#757575" d="M677.602,-371.523C686.077,-368.224 694.077,-363.853 701,-358.099 735.087,-329.77 713.793,-302.86 737,-265.099 757.724,-231.38 789.874,-198.446 810.808,-178.708"/>
<polygon fill="#757575" stroke="#757575" points="813.286,-181.183 818.235,-171.815 808.524,-176.052 813.286,-181.183"/>
</g>
<!-- lib/store/algorithms&#45;flat/store.js&#45;&gt;lib/consts/components.js -->
<g id="edge103" class="edge"><title>lib/store/algorithms&#45;flat/store.js&#45;&gt;lib/consts/components.js</title>
<path fill="none" stroke="#757575" d="M1488.22,-154.256C1596.08,-149.968 1756.52,-149.143 1810,-178.099 1870.65,-210.94 1908.23,-288.767 1923.55,-326.646"/>
<polygon fill="#757575" stroke="#757575" points="1920.39,-328.159 1927.29,-336.2 1926.91,-325.612 1920.39,-328.159"/>
</g>
<!-- lib/store/algorithms&#45;flat/store.js&#45;&gt;lib/store/store&#45;manager.js -->
<g id="edge104" class="edge"><title>lib/store/algorithms&#45;flat/store.js&#45;&gt;lib/store/store&#45;manager.js</title>
<path fill="none" stroke="#757575" d="M1488.37,-166.58C1503.72,-169.667 1519.05,-174.015 1533,-180.099 1548.45,-186.837 1628.82,-256.018 1667.56,-289.773"/>
<polygon fill="#757575" stroke="#757575" points="1665.33,-292.465 1675.16,-296.403 1669.93,-287.191 1665.33,-292.465"/>
</g>
<!-- lib/store/algorithms&#45;flat/store.js&#45;&gt;lib/utils/utils.js -->
<g id="edge105" class="edge"><title>lib/store/algorithms&#45;flat/store.js&#45;&gt;lib/utils/utils.js</title>
<path fill="none" stroke="#757575" d="M1477.14,-171.632C1595.18,-187.184 1786.81,-215.634 1810,-239.099 1831.33,-260.686 1909.86,-717.476 1927.82,-823.332"/>
<polygon fill="#757575" stroke="#757575" points="1924.42,-824.192 1929.54,-833.468 1931.32,-823.024 1924.42,-824.192"/>
</g>
<!-- lib/store/algorithms&#45;map/store.js&#45;&gt;lib/consts/components.js -->
<g id="edge107" class="edge"><title>lib/store/algorithms&#45;map/store.js&#45;&gt;lib/consts/components.js</title>
<path fill="none" stroke="#757575" d="M1440.32,-66.5983C1527.27,-51.9345 1696.82,-36.7194 1810,-112.099 1886.68,-163.17 1917.7,-278.41 1927.6,-326.443"/>
<polygon fill="#757575" stroke="#757575" points="1924.19,-327.239 1929.55,-336.382 1931.06,-325.896 1924.19,-327.239"/>
</g>
<!-- lib/store/algorithms&#45;map/store.js&#45;&gt;lib/store/store&#45;manager.js -->
<g id="edge108" class="edge"><title>lib/store/algorithms&#45;map/store.js&#45;&gt;lib/store/store&#45;manager.js</title>
<path fill="none" stroke="#757575" d="M1492.6,-82.2665C1506.8,-85.7474 1520.68,-90.8213 1533,-98.0993 1610.02,-143.604 1660.65,-243.605 1679.85,-287.149"/>
<polygon fill="#757575" stroke="#757575" points="1676.69,-288.67 1683.85,-296.475 1683.12,-285.906 1676.69,-288.67"/>
</g>
<!-- lib/store/drivers&#45;flat/store.js&#45;&gt;lib/consts/components.js -->
<g id="edge110" class="edge"><title>lib/store/drivers&#45;flat/store.js&#45;&gt;lib/consts/components.js</title>
<path fill="none" stroke="#757575" d="M1477.29,-198.749C1565.97,-199.667 1701.78,-209.465 1810,-254.099 1851.9,-271.383 1891.72,-307.15 1913.75,-329.24"/>
<polygon fill="#757575" stroke="#757575" points="1911.29,-331.723 1920.78,-336.43 1916.29,-326.831 1911.29,-331.723"/>
</g>
<!-- lib/store/drivers&#45;flat/store.js&#45;&gt;lib/store/store&#45;manager.js -->
<g id="edge111" class="edge"><title>lib/store/drivers&#45;flat/store.js&#45;&gt;lib/store/store&#45;manager.js</title>
<path fill="none" stroke="#757575" d="M1477.25,-205.442C1496.81,-209.514 1516.5,-216.232 1533,-227.099 1557.4,-243.166 1544.93,-265.537 1569,-282.099 1575.98,-286.901 1583.68,-290.837 1591.72,-294.061"/>
<polygon fill="#757575" stroke="#757575" points="1590.68,-297.41 1601.28,-297.528 1593.07,-290.829 1590.68,-297.41"/>
</g>
<!-- lib/store/drivers&#45;flat/store.js&#45;&gt;lib/utils/utils.js -->
<g id="edge112" class="edge"><title>lib/store/drivers&#45;flat/store.js&#45;&gt;lib/utils/utils.js</title>
<path fill="none" stroke="#757575" d="M1471.33,-212.627C1491.78,-216.35 1513.35,-221.11 1533,-227.099 1549.75,-232.203 1552.27,-237.935 1569,-243.099 1673.04,-275.214 1731.72,-211.421 1810,-287.099 1849.98,-325.75 1913.2,-725.224 1928.22,-823.398"/>
<polygon fill="#757575" stroke="#757575" points="1924.77,-824.009 1929.74,-833.368 1931.69,-822.955 1924.77,-824.009"/>
</g>
<!-- lib/store/drivers&#45;map/store.js&#45;&gt;lib/consts/components.js -->
<g id="edge114" class="edge"><title>lib/store/drivers&#45;map/store.js&#45;&gt;lib/consts/components.js</title>
<path fill="none" stroke="#757575" d="M1481.93,-115.566C1590.22,-113.389 1756.86,-115.778 1810,-148.099 1877.84,-189.362 1912.91,-284.187 1925.71,-326.743"/>
<polygon fill="#757575" stroke="#757575" points="1922.35,-327.736 1928.49,-336.372 1929.08,-325.794 1922.35,-327.736"/>
</g>
<!-- lib/store/drivers&#45;map/store.js&#45;&gt;lib/store/store&#45;manager.js -->
<g id="edge115" class="edge"><title>lib/store/drivers&#45;map/store.js&#45;&gt;lib/store/store&#45;manager.js</title>
<path fill="none" stroke="#757575" d="M1481.75,-122.389C1499.48,-125.681 1517.31,-130.924 1533,-139.099 1600.51,-174.282 1653.82,-250.996 1676.55,-287.717"/>
<polygon fill="#757575" stroke="#757575" points="1673.73,-289.808 1681.91,-296.545 1679.72,-286.18 1673.73,-289.808"/>
</g>
</g>
</svg>
