<?xml version="1.0" encoding="UTF-8" standalone="no"?>
<!DOCTYPE svg PUBLIC "-//W3C//DTD SVG 1.1//EN"
 "http://www.w3.org/Graphics/SVG/1.1/DTD/svg11.dtd">
<!-- Generated by graphviz version 2.38.0 (20140413.2041)
 -->
<!-- Title: G Pages: 1 -->
<svg width="1612pt" height="857pt"
 viewBox="0.00 0.00 1612.20 856.70" xmlns="http://www.w3.org/2000/svg" xmlns:xlink="http://www.w3.org/1999/xlink">
<g id="graph0" class="graph" transform="scale(1 1) rotate(0) translate(21.6 835.1)">
<title>G</title>
<polygon fill="#111111" stroke="none" points="-21.6,21.6 -21.6,-835.1 1590.6,-835.1 1590.6,21.6 -21.6,21.6"/>
<!-- ../adapters/Adapter.js -->
<g id="node1" class="node"><title>../adapters/Adapter.js</title>
<path fill="none" stroke="#cfffac" d="M1272.33,-621C1272.33,-621 1136.67,-621 1136.67,-621 1132.83,-621 1129,-617.167 1129,-613.333 1129,-613.333 1129,-605.667 1129,-605.667 1129,-601.833 1132.83,-598 1136.67,-598 1136.67,-598 1272.33,-598 1272.33,-598 1276.17,-598 1280,-601.833 1280,-605.667 1280,-605.667 1280,-613.333 1280,-613.333 1280,-617.167 1276.17,-621 1272.33,-621"/>
<text text-anchor="middle" x="1204.5" y="-605.8" font-family="Arial" font-size="14.00" fill="#cfffac">../adapters/Adapter.js</text>
</g>
<!-- ../adapters/adapters&#45;controller.js -->
<g id="node2" class="node"><title>../adapters/adapters&#45;controller.js</title>
<path fill="none" stroke="#c6c5fe" d="M317.333,-377C317.333,-377 113.667,-377 113.667,-377 109.833,-377 106,-373.167 106,-369.333 106,-369.333 106,-361.667 106,-361.667 106,-357.833 109.833,-354 113.667,-354 113.667,-354 317.333,-354 317.333,-354 321.167,-354 325,-357.833 325,-361.667 325,-361.667 325,-369.333 325,-369.333 325,-373.167 321.167,-377 317.333,-377"/>
<text text-anchor="middle" x="215.5" y="-361.8" font-family="Arial" font-size="14.00" fill="#c6c5fe">../adapters/adapters&#45;controller.js</text>
</g>
<!-- ../adapters/index.js -->
<g id="node3" class="node"><title>../adapters/index.js</title>
<path fill="none" stroke="#c6c5fe" d="M496.333,-580C496.333,-580 376.667,-580 376.667,-580 372.833,-580 369,-576.167 369,-572.333 369,-572.333 369,-564.667 369,-564.667 369,-560.833 372.833,-557 376.667,-557 376.667,-557 496.333,-557 496.333,-557 500.167,-557 504,-560.833 504,-564.667 504,-564.667 504,-572.333 504,-572.333 504,-576.167 500.167,-580 496.333,-580"/>
<text text-anchor="middle" x="436.5" y="-564.8" font-family="Arial" font-size="14.00" fill="#c6c5fe">../adapters/index.js</text>
</g>
<!-- ../adapters/adapters&#45;controller.js&#45;&gt;../adapters/index.js -->
<g id="edge1" class="edge"><title>../adapters/adapters&#45;controller.js&#45;&gt;../adapters/index.js</title>
<path fill="none" stroke="#757575" d="M229.221,-377.292C265.745,-411.148 371.151,-508.852 415.481,-549.943"/>
<polygon fill="#757575" stroke="#757575" points="413.304,-552.698 423.017,-556.929 418.062,-547.564 413.304,-552.698"/>
</g>
<!-- ../adapters/settings.js -->
<g id="node4" class="node"><title>../adapters/settings.js</title>
<path fill="none" stroke="#cfffac" d="M504.333,-377C504.333,-377 368.667,-377 368.667,-377 364.833,-377 361,-373.167 361,-369.333 361,-369.333 361,-361.667 361,-361.667 361,-357.833 364.833,-354 368.667,-354 368.667,-354 504.333,-354 504.333,-354 508.167,-354 512,-357.833 512,-361.667 512,-361.667 512,-369.333 512,-369.333 512,-373.167 508.167,-377 504.333,-377"/>
<text text-anchor="middle" x="436.5" y="-361.8" font-family="Arial" font-size="14.00" fill="#cfffac">../adapters/settings.js</text>
</g>
<!-- ../adapters/adapters&#45;controller.js&#45;&gt;../adapters/settings.js -->
<g id="edge2" class="edge"><title>../adapters/adapters&#45;controller.js&#45;&gt;../adapters/settings.js</title>
<path fill="none" stroke="#757575" d="M325.038,-365.5C333.678,-365.5 342.327,-365.5 350.768,-365.5"/>
<polygon fill="#757575" stroke="#757575" points="350.948,-369 360.948,-365.5 350.948,-362 350.948,-369"/>
</g>
<!-- ../utils/logger.js -->
<g id="node5" class="node"><title>../utils/logger.js</title>
<path fill="none" stroke="#cfffac" d="M483.833,-336C483.833,-336 389.167,-336 389.167,-336 385.333,-336 381.5,-332.167 381.5,-328.333 381.5,-328.333 381.5,-320.667 381.5,-320.667 381.5,-316.833 385.333,-313 389.167,-313 389.167,-313 483.833,-313 483.833,-313 487.667,-313 491.5,-316.833 491.5,-320.667 491.5,-320.667 491.5,-328.333 491.5,-328.333 491.5,-332.167 487.667,-336 483.833,-336"/>
<text text-anchor="middle" x="436.5" y="-320.8" font-family="Arial" font-size="14.00" fill="#cfffac">../utils/logger.js</text>
</g>
<!-- ../adapters/adapters&#45;controller.js&#45;&gt;../utils/logger.js -->
<g id="edge3" class="edge"><title>../adapters/adapters&#45;controller.js&#45;&gt;../utils/logger.js</title>
<path fill="none" stroke="#757575" d="M278.087,-353.97C307.171,-348.525 341.874,-342.028 371.285,-336.522"/>
<polygon fill="#757575" stroke="#757575" points="372.265,-339.899 381.45,-334.619 370.976,-333.019 372.265,-339.899"/>
</g>
<!-- ../utils/utils.js -->
<g id="node6" class="node"><title>../utils/utils.js</title>
<path fill="none" stroke="#cfffac" d="M1500.33,-178C1500.33,-178 1420.67,-178 1420.67,-178 1416.83,-178 1413,-174.167 1413,-170.333 1413,-170.333 1413,-162.667 1413,-162.667 1413,-158.833 1416.83,-155 1420.67,-155 1420.67,-155 1500.33,-155 1500.33,-155 1504.17,-155 1508,-158.833 1508,-162.667 1508,-162.667 1508,-170.333 1508,-170.333 1508,-174.167 1504.17,-178 1500.33,-178"/>
<text text-anchor="middle" x="1460.5" y="-162.8" font-family="Arial" font-size="14.00" fill="#cfffac">../utils/utils.js</text>
</g>
<!-- ../adapters/adapters&#45;controller.js&#45;&gt;../utils/utils.js -->
<g id="edge4" class="edge"><title>../adapters/adapters&#45;controller.js&#45;&gt;../utils/utils.js</title>
<path fill="none" stroke="#757575" d="M285.39,-377.002C309.26,-380.464 336.239,-383.795 361,-385.5 427.952,-390.111 444.907,-387.043 512,-385.5 690.808,-381.388 1168.54,-449.718 1316,-348.5 1348.82,-325.975 1328.95,-298.949 1352,-266.5 1375.53,-233.371 1411.44,-202.723 1435.19,-184.313"/>
<polygon fill="#757575" stroke="#757575" points="1437.51,-186.947 1443.35,-178.103 1433.27,-181.378 1437.51,-186.947"/>
</g>
<!-- ../adapters/algorithms/index.js -->
<g id="node7" class="node"><title>../adapters/algorithms/index.js</title>
<path fill="none" stroke="#c6c5fe" d="M744.333,-539C744.333,-539 555.667,-539 555.667,-539 551.833,-539 548,-535.167 548,-531.333 548,-531.333 548,-523.667 548,-523.667 548,-519.833 551.833,-516 555.667,-516 555.667,-516 744.333,-516 744.333,-516 748.167,-516 752,-519.833 752,-523.667 752,-523.667 752,-531.333 752,-531.333 752,-535.167 748.167,-539 744.333,-539"/>
<text text-anchor="middle" x="650" y="-523.8" font-family="Arial" font-size="14.00" fill="#c6c5fe">../adapters/algorithms/index.js</text>
</g>
<!-- ../adapters/index.js&#45;&gt;../adapters/algorithms/index.js -->
<g id="edge18" class="edge"><title>../adapters/index.js&#45;&gt;../adapters/algorithms/index.js</title>
<path fill="none" stroke="#757575" d="M496.977,-556.97C522.654,-551.993 552.864,-546.136 579.56,-540.961"/>
<polygon fill="#757575" stroke="#757575" points="580.452,-544.354 589.603,-539.014 579.12,-537.481 580.452,-544.354"/>
</g>
<!-- ../adapters/pipelines/index.js -->
<g id="node15" class="node"><title>../adapters/pipelines/index.js</title>
<path fill="none" stroke="#c6c5fe" d="M740.333,-621C740.333,-621 559.667,-621 559.667,-621 555.833,-621 552,-617.167 552,-613.333 552,-613.333 552,-605.667 552,-605.667 552,-601.833 555.833,-598 559.667,-598 559.667,-598 740.333,-598 740.333,-598 744.167,-598 748,-601.833 748,-605.667 748,-605.667 748,-613.333 748,-613.333 748,-617.167 744.167,-621 740.333,-621"/>
<text text-anchor="middle" x="650" y="-605.8" font-family="Arial" font-size="14.00" fill="#c6c5fe">../adapters/pipelines/index.js</text>
</g>
<!-- ../adapters/index.js&#45;&gt;../adapters/pipelines/index.js -->
<g id="edge19" class="edge"><title>../adapters/index.js&#45;&gt;../adapters/pipelines/index.js</title>
<path fill="none" stroke="#757575" d="M496.977,-580.03C522.654,-585.007 552.864,-590.864 579.56,-596.039"/>
<polygon fill="#757575" stroke="#757575" points="579.12,-599.519 589.603,-597.986 580.452,-592.646 579.12,-599.519"/>
</g>
<!-- ../adapters/resources/index.js -->
<g id="node16" class="node"><title>../adapters/resources/index.js</title>
<path fill="none" stroke="#c6c5fe" d="M743.833,-703C743.833,-703 556.167,-703 556.167,-703 552.333,-703 548.5,-699.167 548.5,-695.333 548.5,-695.333 548.5,-687.667 548.5,-687.667 548.5,-683.833 552.333,-680 556.167,-680 556.167,-680 743.833,-680 743.833,-680 747.667,-680 751.5,-683.833 751.5,-687.667 751.5,-687.667 751.5,-695.333 751.5,-695.333 751.5,-699.167 747.667,-703 743.833,-703"/>
<text text-anchor="middle" x="650" y="-687.8" font-family="Arial" font-size="14.00" fill="#c6c5fe">../adapters/resources/index.js</text>
</g>
<!-- ../adapters/index.js&#45;&gt;../adapters/resources/index.js -->
<g id="edge20" class="edge"><title>../adapters/index.js&#45;&gt;../adapters/resources/index.js</title>
<path fill="none" stroke="#757575" d="M457.397,-580.072C495.031,-601.958 576.757,-649.486 620.315,-674.818"/>
<polygon fill="#757575" stroke="#757575" points="618.597,-677.868 629.001,-679.87 622.116,-671.817 618.597,-677.868"/>
</g>
<!-- ../adapters/algorithms/prometheus.js -->
<g id="node8" class="node"><title>../adapters/algorithms/prometheus.js</title>
<path fill="none" stroke="#c6c5fe" d="M1037.83,-662C1037.83,-662 807.167,-662 807.167,-662 803.333,-662 799.5,-658.167 799.5,-654.333 799.5,-654.333 799.5,-646.667 799.5,-646.667 799.5,-642.833 803.333,-639 807.167,-639 807.167,-639 1037.83,-639 1037.83,-639 1041.67,-639 1045.5,-642.833 1045.5,-646.667 1045.5,-646.667 1045.5,-654.333 1045.5,-654.333 1045.5,-658.167 1041.67,-662 1037.83,-662"/>
<text text-anchor="middle" x="922.5" y="-646.8" font-family="Arial" font-size="14.00" fill="#c6c5fe">../adapters/algorithms/prometheus.js</text>
</g>
<!-- ../adapters/algorithms/index.js&#45;&gt;../adapters/algorithms/prometheus.js -->
<g id="edge5" class="edge"><title>../adapters/algorithms/index.js&#45;&gt;../adapters/algorithms/prometheus.js</title>
<path fill="none" stroke="#757575" d="M674.803,-539.193C696.171,-550.293 727.807,-568.255 752,-588.5 770.597,-604.062 766.755,-617.807 788,-629.5 791.815,-631.6 795.779,-633.506 799.85,-635.235"/>
<polygon fill="#757575" stroke="#757575" points="798.934,-638.632 809.524,-638.955 801.447,-632.099 798.934,-638.632"/>
</g>
<!-- ../adapters/algorithms/queue.js -->
<g id="node9" class="node"><title>../adapters/algorithms/queue.js</title>
<path fill="none" stroke="#c6c5fe" d="M1019.83,-539C1019.83,-539 825.167,-539 825.167,-539 821.333,-539 817.5,-535.167 817.5,-531.333 817.5,-531.333 817.5,-523.667 817.5,-523.667 817.5,-519.833 821.333,-516 825.167,-516 825.167,-516 1019.83,-516 1019.83,-516 1023.67,-516 1027.5,-519.833 1027.5,-523.667 1027.5,-523.667 1027.5,-531.333 1027.5,-531.333 1027.5,-535.167 1023.67,-539 1019.83,-539"/>
<text text-anchor="middle" x="922.5" y="-523.8" font-family="Arial" font-size="14.00" fill="#c6c5fe">../adapters/algorithms/queue.js</text>
</g>
<!-- ../adapters/algorithms/index.js&#45;&gt;../adapters/algorithms/queue.js -->
<g id="edge6" class="edge"><title>../adapters/algorithms/index.js&#45;&gt;../adapters/algorithms/queue.js</title>
<path fill="none" stroke="#757575" d="M752.109,-527.5C770.088,-527.5 788.929,-527.5 807.243,-527.5"/>
<polygon fill="#757575" stroke="#757575" points="807.354,-531 817.354,-527.5 807.354,-524 807.354,-531"/>
</g>
<!-- ../adapters/algorithms/store.js -->
<g id="node10" class="node"><title>../adapters/algorithms/store.js</title>
<path fill="none" stroke="#c6c5fe" d="M1016.33,-457C1016.33,-457 828.667,-457 828.667,-457 824.833,-457 821,-453.167 821,-449.333 821,-449.333 821,-441.667 821,-441.667 821,-437.833 824.833,-434 828.667,-434 828.667,-434 1016.33,-434 1016.33,-434 1020.17,-434 1024,-437.833 1024,-441.667 1024,-441.667 1024,-449.333 1024,-449.333 1024,-453.167 1020.17,-457 1016.33,-457"/>
<text text-anchor="middle" x="922.5" y="-441.8" font-family="Arial" font-size="14.00" fill="#c6c5fe">../adapters/algorithms/store.js</text>
</g>
<!-- ../adapters/algorithms/index.js&#45;&gt;../adapters/algorithms/store.js -->
<g id="edge7" class="edge"><title>../adapters/algorithms/index.js&#45;&gt;../adapters/algorithms/store.js</title>
<path fill="none" stroke="#757575" d="M671.66,-515.958C697.892,-501.825 744.931,-478.204 788,-465.5 796.078,-463.117 804.519,-461.009 813.062,-459.146"/>
<polygon fill="#757575" stroke="#757575" points="814.035,-462.519 823.121,-457.069 812.62,-455.663 814.035,-462.519"/>
</g>
<!-- ../adapters/algorithms/templates&#45;store.js -->
<g id="node11" class="node"><title>../adapters/algorithms/templates&#45;store.js</title>
<path fill="none" stroke="#c6c5fe" d="M1049.33,-498C1049.33,-498 795.667,-498 795.667,-498 791.833,-498 788,-494.167 788,-490.333 788,-490.333 788,-482.667 788,-482.667 788,-478.833 791.833,-475 795.667,-475 795.667,-475 1049.33,-475 1049.33,-475 1053.17,-475 1057,-478.833 1057,-482.667 1057,-482.667 1057,-490.333 1057,-490.333 1057,-494.167 1053.17,-498 1049.33,-498"/>
<text text-anchor="middle" x="922.5" y="-482.8" font-family="Arial" font-size="14.00" fill="#c6c5fe">../adapters/algorithms/templates&#45;store.js</text>
</g>
<!-- ../adapters/algorithms/index.js&#45;&gt;../adapters/algorithms/templates&#45;store.js -->
<g id="edge8" class="edge"><title>../adapters/algorithms/index.js&#45;&gt;../adapters/algorithms/templates&#45;store.js</title>
<path fill="none" stroke="#757575" d="M726.008,-515.955C746.138,-512.87 767.897,-509.547 788,-506.5 802.921,-504.239 818.782,-501.85 834.167,-499.54"/>
<polygon fill="#757575" stroke="#757575" points="834.823,-502.981 844.193,-498.036 833.785,-496.058 834.823,-502.981"/>
</g>
<!-- ../adapters/algorithms/prometheus.js&#45;&gt;../adapters/Adapter.js -->
<g id="edge9" class="edge"><title>../adapters/algorithms/prometheus.js&#45;&gt;../adapters/Adapter.js</title>
<path fill="none" stroke="#757575" d="M1002.24,-638.97C1038.46,-633.666 1081.5,-627.364 1118.47,-621.951"/>
<polygon fill="#757575" stroke="#757575" points="1119.33,-625.362 1128.72,-620.45 1118.32,-618.436 1119.33,-625.362"/>
</g>
<!-- ../helpers/prometheus.js -->
<g id="node12" class="node"><title>../helpers/prometheus.js</title>
<path fill="none" stroke="#c6c5fe" d="M1281.33,-662C1281.33,-662 1127.67,-662 1127.67,-662 1123.83,-662 1120,-658.167 1120,-654.333 1120,-654.333 1120,-646.667 1120,-646.667 1120,-642.833 1123.83,-639 1127.67,-639 1127.67,-639 1281.33,-639 1281.33,-639 1285.17,-639 1289,-642.833 1289,-646.667 1289,-646.667 1289,-654.333 1289,-654.333 1289,-658.167 1285.17,-662 1281.33,-662"/>
<text text-anchor="middle" x="1204.5" y="-646.8" font-family="Arial" font-size="14.00" fill="#c6c5fe">../helpers/prometheus.js</text>
</g>
<!-- ../adapters/algorithms/prometheus.js&#45;&gt;../helpers/prometheus.js -->
<g id="edge10" class="edge"><title>../adapters/algorithms/prometheus.js&#45;&gt;../helpers/prometheus.js</title>
<path fill="none" stroke="#757575" d="M1045.9,-650.5C1067.31,-650.5 1089.26,-650.5 1109.74,-650.5"/>
<polygon fill="#757575" stroke="#757575" points="1109.98,-654 1119.98,-650.5 1109.98,-647 1109.98,-654"/>
</g>
<!-- ../adapters/algorithms/queue.js&#45;&gt;../adapters/Adapter.js -->
<g id="edge11" class="edge"><title>../adapters/algorithms/queue.js&#45;&gt;../adapters/Adapter.js</title>
<path fill="none" stroke="#757575" d="M1020.37,-539.066C1032.8,-541.41 1045.27,-544.196 1057,-547.5 1097.84,-559.003 1142.43,-579.029 1171.55,-593.205"/>
<polygon fill="#757575" stroke="#757575" points="1170.29,-596.486 1180.81,-597.768 1173.38,-590.207 1170.29,-596.486"/>
</g>
<!-- ../state/state&#45;manager.js -->
<g id="node13" class="node"><title>../state/state&#45;manager.js</title>
<path fill="none" stroke="#cfffac" d="M1280.33,-539C1280.33,-539 1128.67,-539 1128.67,-539 1124.83,-539 1121,-535.167 1121,-531.333 1121,-531.333 1121,-523.667 1121,-523.667 1121,-519.833 1124.83,-516 1128.67,-516 1128.67,-516 1280.33,-516 1280.33,-516 1284.17,-516 1288,-519.833 1288,-523.667 1288,-523.667 1288,-531.333 1288,-531.333 1288,-535.167 1284.17,-539 1280.33,-539"/>
<text text-anchor="middle" x="1204.5" y="-523.8" font-family="Arial" font-size="14.00" fill="#cfffac">../state/state&#45;manager.js</text>
</g>
<!-- ../adapters/algorithms/queue.js&#45;&gt;../state/state&#45;manager.js -->
<g id="edge12" class="edge"><title>../adapters/algorithms/queue.js&#45;&gt;../state/state&#45;manager.js</title>
<path fill="none" stroke="#757575" d="M1027.76,-527.5C1054.92,-527.5 1084.01,-527.5 1110.54,-527.5"/>
<polygon fill="#757575" stroke="#757575" points="1110.57,-531 1120.57,-527.5 1110.57,-524 1110.57,-531"/>
</g>
<!-- ../adapters/algorithms/store.js&#45;&gt;../adapters/Adapter.js -->
<g id="edge13" class="edge"><title>../adapters/algorithms/store.js&#45;&gt;../adapters/Adapter.js</title>
<path fill="none" stroke="#757575" d="M1024.27,-449.256C1036.06,-452.876 1047.32,-458.097 1057,-465.5 1088.62,-489.68 1066.26,-518.016 1093,-547.5 1111.75,-568.174 1139.05,-583.585 1161.83,-593.871"/>
<polygon fill="#757575" stroke="#757575" points="1160.71,-597.199 1171.28,-597.966 1163.49,-590.777 1160.71,-597.199"/>
</g>
<!-- ../adapters/algorithms/store.js&#45;&gt;../state/state&#45;manager.js -->
<g id="edge15" class="edge"><title>../adapters/algorithms/store.js&#45;&gt;../state/state&#45;manager.js</title>
<path fill="none" stroke="#757575" d="M1024.02,-453.582C1035.47,-456.523 1046.71,-460.402 1057,-465.5 1077,-475.407 1073.48,-489.694 1093,-500.5 1102.1,-505.537 1112.13,-509.643 1122.33,-512.99"/>
<polygon fill="#757575" stroke="#757575" points="1121.55,-516.41 1132.13,-515.971 1123.58,-509.713 1121.55,-516.41"/>
</g>
<!-- ../consts/components.js -->
<g id="node14" class="node"><title>../consts/components.js</title>
<path fill="none" stroke="#cfffac" d="M1536.33,-538C1536.33,-538 1384.67,-538 1384.67,-538 1380.83,-538 1377,-534.167 1377,-530.333 1377,-530.333 1377,-522.667 1377,-522.667 1377,-518.833 1380.83,-515 1384.67,-515 1384.67,-515 1536.33,-515 1536.33,-515 1540.17,-515 1544,-518.833 1544,-522.667 1544,-522.667 1544,-530.333 1544,-530.333 1544,-534.167 1540.17,-538 1536.33,-538"/>
<text text-anchor="middle" x="1460.5" y="-522.8" font-family="Arial" font-size="14.00" fill="#cfffac">../consts/components.js</text>
</g>
<!-- ../adapters/algorithms/store.js&#45;&gt;../consts/components.js -->
<g id="edge14" class="edge"><title>../adapters/algorithms/store.js&#45;&gt;../consts/components.js</title>
<path fill="none" stroke="#757575" d="M1000.45,-457.005C1018.97,-459.781 1038.69,-462.741 1057,-465.5 1166.24,-481.961 1292.15,-501.063 1373.63,-513.443"/>
<polygon fill="#757575" stroke="#757575" points="1373.43,-516.952 1383.84,-514.994 1374.48,-510.031 1373.43,-516.952"/>
</g>
<!-- ../adapters/algorithms/templates&#45;store.js&#45;&gt;../adapters/Adapter.js -->
<g id="edge16" class="edge"><title>../adapters/algorithms/templates&#45;store.js&#45;&gt;../adapters/Adapter.js</title>
<path fill="none" stroke="#757575" d="M1038.18,-498.11C1044.71,-500.47 1051.03,-503.245 1057,-506.5 1078.29,-518.115 1074.16,-532.237 1093,-547.5 1116.03,-566.156 1145.43,-582.35 1168.12,-593.505"/>
<polygon fill="#757575" stroke="#757575" points="1166.86,-596.785 1177.39,-597.97 1169.9,-590.478 1166.86,-596.785"/>
</g>
<!-- ../adapters/algorithms/templates&#45;store.js&#45;&gt;../state/state&#45;manager.js -->
<g id="edge17" class="edge"><title>../adapters/algorithms/templates&#45;store.js&#45;&gt;../state/state&#45;manager.js</title>
<path fill="none" stroke="#757575" d="M1002.24,-498.03C1037.28,-503.161 1078.7,-509.226 1114.83,-514.516"/>
<polygon fill="#757575" stroke="#757575" points="1114.46,-518 1124.87,-515.986 1115.48,-511.074 1114.46,-518"/>
</g>
<!-- ../helpers/prometheus.js&#45;&gt;../consts/components.js -->
<g id="edge35" class="edge"><title>../helpers/prometheus.js&#45;&gt;../consts/components.js</title>
<path fill="none" stroke="#757575" d="M1287.86,-638.989C1297.54,-636.432 1307.12,-633.31 1316,-629.5 1364.83,-608.557 1413.29,-568.787 1439.52,-545.264"/>
<polygon fill="#757575" stroke="#757575" points="1442.19,-547.564 1447.22,-538.242 1437.48,-542.39 1442.19,-547.564"/>
</g>
<!-- ../adapters/pipelines/prometheus.js -->
<g id="node17" class="node"><title>../adapters/pipelines/prometheus.js</title>
<path fill="none" stroke="#c6c5fe" d="M1033.83,-785C1033.83,-785 811.167,-785 811.167,-785 807.333,-785 803.5,-781.167 803.5,-777.333 803.5,-777.333 803.5,-769.667 803.5,-769.667 803.5,-765.833 807.333,-762 811.167,-762 811.167,-762 1033.83,-762 1033.83,-762 1037.67,-762 1041.5,-765.833 1041.5,-769.667 1041.5,-769.667 1041.5,-777.333 1041.5,-777.333 1041.5,-781.167 1037.67,-785 1033.83,-785"/>
<text text-anchor="middle" x="922.5" y="-769.8" font-family="Arial" font-size="14.00" fill="#c6c5fe">../adapters/pipelines/prometheus.js</text>
</g>
<!-- ../adapters/pipelines/index.js&#45;&gt;../adapters/pipelines/prometheus.js -->
<g id="edge21" class="edge"><title>../adapters/pipelines/index.js&#45;&gt;../adapters/pipelines/prometheus.js</title>
<path fill="none" stroke="#757575" d="M680.015,-621.137C702.233,-631.309 732.316,-647.983 752,-670.5 778.464,-700.773 756.115,-729.002 788,-753.5 790.073,-755.093 792.219,-756.585 794.428,-757.982"/>
<polygon fill="#757575" stroke="#757575" points="792.8,-761.082 803.235,-762.911 796.218,-754.973 792.8,-761.082"/>
</g>
<!-- ../adapters/pipelines/queue.js -->
<g id="node18" class="node"><title>../adapters/pipelines/queue.js</title>
<path fill="none" stroke="#c6c5fe" d="M1015.83,-621C1015.83,-621 829.167,-621 829.167,-621 825.333,-621 821.5,-617.167 821.5,-613.333 821.5,-613.333 821.5,-605.667 821.5,-605.667 821.5,-601.833 825.333,-598 829.167,-598 829.167,-598 1015.83,-598 1015.83,-598 1019.67,-598 1023.5,-601.833 1023.5,-605.667 1023.5,-605.667 1023.5,-613.333 1023.5,-613.333 1023.5,-617.167 1019.67,-621 1015.83,-621"/>
<text text-anchor="middle" x="922.5" y="-605.8" font-family="Arial" font-size="14.00" fill="#c6c5fe">../adapters/pipelines/queue.js</text>
</g>
<!-- ../adapters/pipelines/index.js&#45;&gt;../adapters/pipelines/queue.js -->
<g id="edge22" class="edge"><title>../adapters/pipelines/index.js&#45;&gt;../adapters/pipelines/queue.js</title>
<path fill="none" stroke="#757575" d="M748.275,-609.5C768.71,-609.5 790.405,-609.5 811.276,-609.5"/>
<polygon fill="#757575" stroke="#757575" points="811.446,-613 821.446,-609.5 811.446,-606 811.446,-613"/>
</g>
<!-- ../adapters/pipelines/store.js -->
<g id="node19" class="node"><title>../adapters/pipelines/store.js</title>
<path fill="none" stroke="#c6c5fe" d="M1011.83,-580C1011.83,-580 833.167,-580 833.167,-580 829.333,-580 825.5,-576.167 825.5,-572.333 825.5,-572.333 825.5,-564.667 825.5,-564.667 825.5,-560.833 829.333,-557 833.167,-557 833.167,-557 1011.83,-557 1011.83,-557 1015.67,-557 1019.5,-560.833 1019.5,-564.667 1019.5,-564.667 1019.5,-572.333 1019.5,-572.333 1019.5,-576.167 1015.67,-580 1011.83,-580"/>
<text text-anchor="middle" x="922.5" y="-564.8" font-family="Arial" font-size="14.00" fill="#c6c5fe">../adapters/pipelines/store.js</text>
</g>
<!-- ../adapters/pipelines/index.js&#45;&gt;../adapters/pipelines/store.js -->
<g id="edge23" class="edge"><title>../adapters/pipelines/index.js&#45;&gt;../adapters/pipelines/store.js</title>
<path fill="none" stroke="#757575" d="M726.008,-597.955C746.138,-594.87 767.897,-591.547 788,-588.5 802.921,-586.239 818.782,-583.85 834.167,-581.54"/>
<polygon fill="#757575" stroke="#757575" points="834.823,-584.981 844.193,-580.036 833.785,-578.058 834.823,-584.981"/>
</g>
<!-- ../adapters/pipelines/templates&#45;store.js -->
<g id="node20" class="node"><title>../adapters/pipelines/templates&#45;store.js</title>
<path fill="none" stroke="#c6c5fe" d="M1045.33,-703C1045.33,-703 799.667,-703 799.667,-703 795.833,-703 792,-699.167 792,-695.333 792,-695.333 792,-687.667 792,-687.667 792,-683.833 795.833,-680 799.667,-680 799.667,-680 1045.33,-680 1045.33,-680 1049.17,-680 1053,-683.833 1053,-687.667 1053,-687.667 1053,-695.333 1053,-695.333 1053,-699.167 1049.17,-703 1045.33,-703"/>
<text text-anchor="middle" x="922.5" y="-687.8" font-family="Arial" font-size="14.00" fill="#c6c5fe">../adapters/pipelines/templates&#45;store.js</text>
</g>
<!-- ../adapters/pipelines/index.js&#45;&gt;../adapters/pipelines/templates&#45;store.js -->
<g id="edge24" class="edge"><title>../adapters/pipelines/index.js&#45;&gt;../adapters/pipelines/templates&#45;store.js</title>
<path fill="none" stroke="#757575" d="M672.16,-621.034C698.521,-634.901 745.306,-657.877 788,-670.5 797.534,-673.319 807.57,-675.78 817.68,-677.924"/>
<polygon fill="#757575" stroke="#757575" points="817.304,-681.419 827.798,-679.965 818.687,-674.557 817.304,-681.419"/>
</g>
<!-- ../adapters/resources/k8s.js -->
<g id="node21" class="node"><title>../adapters/resources/k8s.js</title>
<path fill="none" stroke="#c6c5fe" d="M1010.33,-744C1010.33,-744 834.667,-744 834.667,-744 830.833,-744 827,-740.167 827,-736.333 827,-736.333 827,-728.667 827,-728.667 827,-724.833 830.833,-721 834.667,-721 834.667,-721 1010.33,-721 1010.33,-721 1014.17,-721 1018,-724.833 1018,-728.667 1018,-728.667 1018,-736.333 1018,-736.333 1018,-740.167 1014.17,-744 1010.33,-744"/>
<text text-anchor="middle" x="922.5" y="-728.8" font-family="Arial" font-size="14.00" fill="#c6c5fe">../adapters/resources/k8s.js</text>
</g>
<!-- ../adapters/resources/index.js&#45;&gt;../adapters/resources/k8s.js -->
<g id="edge33" class="edge"><title>../adapters/resources/index.js&#45;&gt;../adapters/resources/k8s.js</title>
<path fill="none" stroke="#757575" d="M726.008,-703.045C746.138,-706.13 767.897,-709.453 788,-712.5 802.921,-714.761 818.782,-717.15 834.167,-719.46"/>
<polygon fill="#757575" stroke="#757575" points="833.785,-722.942 844.193,-720.964 834.823,-716.019 833.785,-722.942"/>
</g>
<!-- ../adapters/pipelines/prometheus.js&#45;&gt;../adapters/Adapter.js -->
<g id="edge25" class="edge"><title>../adapters/pipelines/prometheus.js&#45;&gt;../adapters/Adapter.js</title>
<path fill="none" stroke="#757575" d="M1041.73,-763.955C1047.19,-761.044 1052.32,-757.588 1057,-753.5 1100.2,-715.726 1050.38,-667.925 1093,-629.5 1100.49,-622.745 1109.47,-617.903 1119.03,-614.478"/>
<polygon fill="#757575" stroke="#757575" points="1120.21,-617.777 1128.75,-611.506 1118.16,-611.083 1120.21,-617.777"/>
</g>
<!-- ../adapters/pipelines/prometheus.js&#45;&gt;../helpers/prometheus.js -->
<g id="edge26" class="edge"><title>../adapters/pipelines/prometheus.js&#45;&gt;../helpers/prometheus.js</title>
<path fill="none" stroke="#757575" d="M1030.71,-761.982C1039.75,-759.65 1048.62,-756.853 1057,-753.5 1107.49,-733.292 1157.37,-692.617 1183.91,-668.875"/>
<polygon fill="#757575" stroke="#757575" points="1186.33,-671.409 1191.37,-662.092 1181.62,-666.229 1186.33,-671.409"/>
</g>
<!-- ../adapters/pipelines/queue.js&#45;&gt;../adapters/Adapter.js -->
<g id="edge27" class="edge"><title>../adapters/pipelines/queue.js&#45;&gt;../adapters/Adapter.js</title>
<path fill="none" stroke="#757575" d="M1023.8,-609.5C1054.82,-609.5 1088.67,-609.5 1118.55,-609.5"/>
<polygon fill="#757575" stroke="#757575" points="1118.94,-613 1128.94,-609.5 1118.94,-606 1118.94,-613"/>
</g>
<!-- ../adapters/pipelines/queue.js&#45;&gt;../state/state&#45;manager.js -->
<g id="edge28" class="edge"><title>../adapters/pipelines/queue.js&#45;&gt;../state/state&#45;manager.js</title>
<path fill="none" stroke="#757575" d="M1015.69,-597.95C1029.65,-595.353 1043.79,-592.231 1057,-588.5 1097.5,-577.062 1141.82,-557.559 1170.99,-543.686"/>
<polygon fill="#757575" stroke="#757575" points="1172.78,-546.708 1180.27,-539.217 1169.74,-540.401 1172.78,-546.708"/>
</g>
<!-- ../adapters/pipelines/store.js&#45;&gt;../adapters/Adapter.js -->
<g id="edge29" class="edge"><title>../adapters/pipelines/store.js&#45;&gt;../adapters/Adapter.js</title>
<path fill="none" stroke="#757575" d="M1002.24,-580.03C1038.46,-585.334 1081.5,-591.636 1118.47,-597.049"/>
<polygon fill="#757575" stroke="#757575" points="1118.32,-600.564 1128.72,-598.55 1119.33,-593.638 1118.32,-600.564"/>
</g>
<!-- ../adapters/pipelines/store.js&#45;&gt;../state/state&#45;manager.js -->
<g id="edge31" class="edge"><title>../adapters/pipelines/store.js&#45;&gt;../state/state&#45;manager.js</title>
<path fill="none" stroke="#757575" d="M1002.24,-556.97C1037.28,-551.839 1078.7,-545.774 1114.83,-540.484"/>
<polygon fill="#757575" stroke="#757575" points="1115.48,-543.926 1124.87,-539.014 1114.46,-537 1115.48,-543.926"/>
</g>
<!-- ../adapters/pipelines/store.js&#45;&gt;../consts/components.js -->
<g id="edge30" class="edge"><title>../adapters/pipelines/store.js&#45;&gt;../consts/components.js</title>
<path fill="none" stroke="#757575" d="M1019.66,-565.82C1099.24,-563.01 1215.16,-557.554 1316,-547.5 1336.67,-545.439 1358.92,-542.525 1379.59,-539.523"/>
<polygon fill="#757575" stroke="#757575" points="1380.21,-542.969 1389.59,-538.045 1379.19,-536.044 1380.21,-542.969"/>
</g>
<!-- ../adapters/pipelines/templates&#45;store.js&#45;&gt;../adapters/Adapter.js -->
<g id="edge32" class="edge"><title>../adapters/pipelines/templates&#45;store.js&#45;&gt;../adapters/Adapter.js</title>
<path fill="none" stroke="#757575" d="M1035.48,-679.955C1042.96,-677.353 1050.22,-674.233 1057,-670.5 1078.24,-658.807 1071.89,-641.436 1093,-629.5 1101.04,-624.954 1109.89,-621.406 1118.97,-618.642"/>
<polygon fill="#757575" stroke="#757575" points="1120.16,-621.946 1128.88,-615.94 1118.32,-615.192 1120.16,-621.946"/>
</g>
<!-- ../adapters/resources/k8s.js&#45;&gt;../adapters/Adapter.js -->
<g id="edge34" class="edge"><title>../adapters/resources/k8s.js&#45;&gt;../adapters/Adapter.js</title>
<path fill="none" stroke="#757575" d="M1018.14,-730.526C1032.15,-726.905 1045.66,-721.21 1057,-712.5 1088.88,-688.002 1061.49,-654.479 1093,-629.5 1100.65,-623.433 1109.54,-618.974 1118.89,-615.727"/>
<polygon fill="#757575" stroke="#757575" points="1120.2,-618.99 1128.77,-612.765 1118.19,-612.285 1120.2,-618.99"/>
</g>
<!-- ../metrics/Metric.js -->
<g id="node22" class="node"><title>../metrics/Metric.js</title>
<path fill="none" stroke="#cfffac" d="M1262.33,-340C1262.33,-340 1146.67,-340 1146.67,-340 1142.83,-340 1139,-336.167 1139,-332.333 1139,-332.333 1139,-324.667 1139,-324.667 1139,-320.833 1142.83,-317 1146.67,-317 1146.67,-317 1262.33,-317 1262.33,-317 1266.17,-317 1270,-320.833 1270,-324.667 1270,-324.667 1270,-332.333 1270,-332.333 1270,-336.167 1266.17,-340 1262.33,-340"/>
<text text-anchor="middle" x="1204.5" y="-324.8" font-family="Arial" font-size="14.00" fill="#cfffac">../metrics/Metric.js</text>
</g>
<!-- ../metrics/algorithms/cpu&#45;usage.js -->
<g id="node23" class="node"><title>../metrics/algorithms/cpu&#45;usage.js</title>
<path fill="none" stroke="#c6c5fe" d="M1028.83,-226C1028.83,-226 816.167,-226 816.167,-226 812.333,-226 808.5,-222.167 808.5,-218.333 808.5,-218.333 808.5,-210.667 808.5,-210.667 808.5,-206.833 812.333,-203 816.167,-203 816.167,-203 1028.83,-203 1028.83,-203 1032.67,-203 1036.5,-206.833 1036.5,-210.667 1036.5,-210.667 1036.5,-218.333 1036.5,-218.333 1036.5,-222.167 1032.67,-226 1028.83,-226"/>
<text text-anchor="middle" x="922.5" y="-210.8" font-family="Arial" font-size="14.00" fill="#c6c5fe">../metrics/algorithms/cpu&#45;usage.js</text>
</g>
<!-- ../metrics/algorithms/cpu&#45;usage.js&#45;&gt;../utils/utils.js -->
<g id="edge40" class="edge"><title>../metrics/algorithms/cpu&#45;usage.js&#45;&gt;../utils/utils.js</title>
<path fill="none" stroke="#757575" d="M1036.61,-208.452C1115.12,-203.759 1222.07,-196.384 1316,-186.5 1344.6,-183.49 1376.27,-179.18 1402.57,-175.331"/>
<polygon fill="#757575" stroke="#757575" points="1403.36,-178.753 1412.74,-173.827 1402.34,-171.828 1403.36,-178.753"/>
</g>
<!-- ../metrics/algorithms/cpu&#45;usage.js&#45;&gt;../metrics/Metric.js -->
<g id="edge36" class="edge"><title>../metrics/algorithms/cpu&#45;usage.js&#45;&gt;../metrics/Metric.js</title>
<path fill="none" stroke="#757575" d="M1036.7,-223.207C1043.9,-226.222 1050.75,-229.939 1057,-234.5 1086.22,-255.832 1064.21,-285.601 1093,-307.5 1103.47,-315.46 1116.07,-320.685 1128.97,-324.064"/>
<polygon fill="#757575" stroke="#757575" points="1128.33,-327.508 1138.85,-326.302 1129.87,-320.681 1128.33,-327.508"/>
</g>
<!-- ../resources/ratios&#45;allocator.js -->
<g id="node24" class="node"><title>../resources/ratios&#45;allocator.js</title>
<path fill="none" stroke="#cfffac" d="M1297.33,-178C1297.33,-178 1111.67,-178 1111.67,-178 1107.83,-178 1104,-174.167 1104,-170.333 1104,-170.333 1104,-162.667 1104,-162.667 1104,-158.833 1107.83,-155 1111.67,-155 1111.67,-155 1297.33,-155 1297.33,-155 1301.17,-155 1305,-158.833 1305,-162.667 1305,-162.667 1305,-170.333 1305,-170.333 1305,-174.167 1301.17,-178 1297.33,-178"/>
<text text-anchor="middle" x="1204.5" y="-162.8" font-family="Arial" font-size="14.00" fill="#cfffac">../resources/ratios&#45;allocator.js</text>
</g>
<!-- ../metrics/algorithms/cpu&#45;usage.js&#45;&gt;../resources/ratios&#45;allocator.js -->
<g id="edge37" class="edge"><title>../metrics/algorithms/cpu&#45;usage.js&#45;&gt;../resources/ratios&#45;allocator.js</title>
<path fill="none" stroke="#757575" d="M999.1,-202.962C1018.02,-199.976 1038.27,-196.699 1057,-193.5 1081.76,-189.272 1108.82,-184.365 1132.87,-179.904"/>
<polygon fill="#757575" stroke="#757575" points="1133.79,-183.294 1142.98,-178.023 1132.51,-176.412 1133.79,-183.294"/>
</g>
<!-- ../resources/resource&#45;allocator.js -->
<g id="node25" class="node"><title>../resources/resource&#45;allocator.js</title>
<path fill="none" stroke="#c6c5fe" d="M1308.33,-299C1308.33,-299 1100.67,-299 1100.67,-299 1096.83,-299 1093,-295.167 1093,-291.333 1093,-291.333 1093,-283.667 1093,-283.667 1093,-279.833 1096.83,-276 1100.67,-276 1100.67,-276 1308.33,-276 1308.33,-276 1312.17,-276 1316,-279.833 1316,-283.667 1316,-283.667 1316,-291.333 1316,-291.333 1316,-295.167 1312.17,-299 1308.33,-299"/>
<text text-anchor="middle" x="1204.5" y="-283.8" font-family="Arial" font-size="14.00" fill="#c6c5fe">../resources/resource&#45;allocator.js</text>
</g>
<!-- ../metrics/algorithms/cpu&#45;usage.js&#45;&gt;../resources/resource&#45;allocator.js -->
<g id="edge38" class="edge"><title>../metrics/algorithms/cpu&#45;usage.js&#45;&gt;../resources/resource&#45;allocator.js</title>
<path fill="none" stroke="#757575" d="M1034.63,-226.021C1042.35,-228.373 1049.89,-231.172 1057,-234.5 1076.39,-243.573 1073.79,-257.05 1093,-266.5 1097.7,-268.811 1102.62,-270.869 1107.68,-272.701"/>
<polygon fill="#757575" stroke="#757575" points="1106.94,-276.142 1117.53,-275.952 1109.13,-269.494 1106.94,-276.142"/>
</g>
<!-- ../utils/queue.js -->
<g id="node26" class="node"><title>../utils/queue.js</title>
<path fill="none" stroke="#c6c5fe" d="M1251.83,-258C1251.83,-258 1157.17,-258 1157.17,-258 1153.33,-258 1149.5,-254.167 1149.5,-250.333 1149.5,-250.333 1149.5,-242.667 1149.5,-242.667 1149.5,-238.833 1153.33,-235 1157.17,-235 1157.17,-235 1251.83,-235 1251.83,-235 1255.67,-235 1259.5,-238.833 1259.5,-242.667 1259.5,-242.667 1259.5,-250.333 1259.5,-250.333 1259.5,-254.167 1255.67,-258 1251.83,-258"/>
<text text-anchor="middle" x="1204.5" y="-242.8" font-family="Arial" font-size="14.00" fill="#c6c5fe">../utils/queue.js</text>
</g>
<!-- ../metrics/algorithms/cpu&#45;usage.js&#45;&gt;../utils/queue.js -->
<g id="edge39" class="edge"><title>../metrics/algorithms/cpu&#45;usage.js&#45;&gt;../utils/queue.js</title>
<path fill="none" stroke="#757575" d="M1024.19,-226.008C1062.41,-230.376 1104.89,-235.23 1138.9,-239.117"/>
<polygon fill="#757575" stroke="#757575" points="1138.84,-242.633 1149.17,-240.291 1139.63,-235.678 1138.84,-242.633"/>
</g>
<!-- ../resources/resource&#45;counter.js -->
<g id="node39" class="node"><title>../resources/resource&#45;counter.js</title>
<path fill="none" stroke="#cfffac" d="M1561.33,-299C1561.33,-299 1359.67,-299 1359.67,-299 1355.83,-299 1352,-295.167 1352,-291.333 1352,-291.333 1352,-283.667 1352,-283.667 1352,-279.833 1355.83,-276 1359.67,-276 1359.67,-276 1561.33,-276 1561.33,-276 1565.17,-276 1569,-279.833 1569,-283.667 1569,-283.667 1569,-291.333 1569,-291.333 1569,-295.167 1565.17,-299 1561.33,-299"/>
<text text-anchor="middle" x="1460.5" y="-283.8" font-family="Arial" font-size="14.00" fill="#cfffac">../resources/resource&#45;counter.js</text>
</g>
<!-- ../resources/resource&#45;allocator.js&#45;&gt;../resources/resource&#45;counter.js -->
<g id="edge70" class="edge"><title>../resources/resource&#45;allocator.js&#45;&gt;../resources/resource&#45;counter.js</title>
<path fill="none" stroke="#757575" d="M1316.17,-287.5C1324.53,-287.5 1332.99,-287.5 1341.4,-287.5"/>
<polygon fill="#757575" stroke="#757575" points="1341.62,-291 1351.62,-287.5 1341.62,-284 1341.62,-291"/>
</g>
<!-- ../utils/queue.js&#45;&gt;../utils/utils.js -->
<g id="edge71" class="edge"><title>../utils/queue.js&#45;&gt;../utils/utils.js</title>
<path fill="none" stroke="#757575" d="M1259.55,-235.248C1277.63,-231.096 1297.81,-226.038 1316,-220.5 1352.79,-209.301 1393.75,-193.545 1422.47,-181.941"/>
<polygon fill="#757575" stroke="#757575" points="1424.14,-185.038 1432.09,-178.025 1421.5,-178.555 1424.14,-185.038"/>
</g>
<!-- ../metrics/algorithms/index.js -->
<g id="node27" class="node"><title>../metrics/algorithms/index.js</title>
<path fill="none" stroke="#c6c5fe" d="M739.833,-239C739.833,-239 560.167,-239 560.167,-239 556.333,-239 552.5,-235.167 552.5,-231.333 552.5,-231.333 552.5,-223.667 552.5,-223.667 552.5,-219.833 556.333,-216 560.167,-216 560.167,-216 739.833,-216 739.833,-216 743.667,-216 747.5,-219.833 747.5,-223.667 747.5,-223.667 747.5,-231.333 747.5,-231.333 747.5,-235.167 743.667,-239 739.833,-239"/>
<text text-anchor="middle" x="650" y="-223.8" font-family="Arial" font-size="14.00" fill="#c6c5fe">../metrics/algorithms/index.js</text>
</g>
<!-- ../metrics/algorithms/index.js&#45;&gt;../metrics/algorithms/cpu&#45;usage.js -->
<g id="edge41" class="edge"><title>../metrics/algorithms/index.js&#45;&gt;../metrics/algorithms/cpu&#45;usage.js</title>
<path fill="none" stroke="#757575" d="M747.511,-222.862C763.999,-222.069 781.327,-221.237 798.394,-220.416"/>
<polygon fill="#757575" stroke="#757575" points="798.584,-223.911 808.404,-219.935 798.248,-216.919 798.584,-223.911"/>
</g>
<!-- ../metrics/algorithms/queue.js -->
<g id="node28" class="node"><title>../metrics/algorithms/queue.js</title>
<path fill="none" stroke="#c6c5fe" d="M1015.33,-308C1015.33,-308 829.667,-308 829.667,-308 825.833,-308 822,-304.167 822,-300.333 822,-300.333 822,-292.667 822,-292.667 822,-288.833 825.833,-285 829.667,-285 829.667,-285 1015.33,-285 1015.33,-285 1019.17,-285 1023,-288.833 1023,-292.667 1023,-292.667 1023,-300.333 1023,-300.333 1023,-304.167 1019.17,-308 1015.33,-308"/>
<text text-anchor="middle" x="922.5" y="-292.8" font-family="Arial" font-size="14.00" fill="#c6c5fe">../metrics/algorithms/queue.js</text>
</g>
<!-- ../metrics/algorithms/index.js&#45;&gt;../metrics/algorithms/queue.js -->
<g id="edge42" class="edge"><title>../metrics/algorithms/index.js&#45;&gt;../metrics/algorithms/queue.js</title>
<path fill="none" stroke="#757575" d="M679.142,-239.048C706.522,-249.878 749.506,-265.814 788,-275.5 799.376,-278.363 811.402,-280.908 823.388,-283.151"/>
<polygon fill="#757575" stroke="#757575" points="822.97,-286.632 833.432,-284.965 824.213,-279.744 822.97,-286.632"/>
</g>
<!-- ../metrics/algorithms/run&#45;time.js -->
<g id="node29" class="node"><title>../metrics/algorithms/run&#45;time.js</title>
<path fill="none" stroke="#c6c5fe" d="M1020.83,-185C1020.83,-185 824.167,-185 824.167,-185 820.333,-185 816.5,-181.167 816.5,-177.333 816.5,-177.333 816.5,-169.667 816.5,-169.667 816.5,-165.833 820.333,-162 824.167,-162 824.167,-162 1020.83,-162 1020.83,-162 1024.67,-162 1028.5,-165.833 1028.5,-169.667 1028.5,-169.667 1028.5,-177.333 1028.5,-177.333 1028.5,-181.167 1024.67,-185 1020.83,-185"/>
<text text-anchor="middle" x="922.5" y="-169.8" font-family="Arial" font-size="14.00" fill="#c6c5fe">../metrics/algorithms/run&#45;time.js</text>
</g>
<!-- ../metrics/algorithms/index.js&#45;&gt;../metrics/algorithms/run&#45;time.js -->
<g id="edge43" class="edge"><title>../metrics/algorithms/index.js&#45;&gt;../metrics/algorithms/run&#45;time.js</title>
<path fill="none" stroke="#757575" d="M693.044,-215.971C720.033,-208.843 755.91,-199.871 788,-193.5 800.243,-191.069 813.171,-188.784 825.968,-186.69"/>
<polygon fill="#757575" stroke="#757575" points="826.867,-190.09 836.187,-185.051 825.759,-183.178 826.867,-190.09"/>
</g>
<!-- ../metrics/algorithms/templates&#45;store.js -->
<g id="node30" class="node"><title>../metrics/algorithms/templates&#45;store.js</title>
<path fill="none" stroke="#c6c5fe" d="M1044.83,-267C1044.83,-267 800.167,-267 800.167,-267 796.333,-267 792.5,-263.167 792.5,-259.333 792.5,-259.333 792.5,-251.667 792.5,-251.667 792.5,-247.833 796.333,-244 800.167,-244 800.167,-244 1044.83,-244 1044.83,-244 1048.67,-244 1052.5,-247.833 1052.5,-251.667 1052.5,-251.667 1052.5,-259.333 1052.5,-259.333 1052.5,-263.167 1048.67,-267 1044.83,-267"/>
<text text-anchor="middle" x="922.5" y="-251.8" font-family="Arial" font-size="14.00" fill="#c6c5fe">../metrics/algorithms/templates&#45;store.js</text>
</g>
<!-- ../metrics/algorithms/index.js&#45;&gt;../metrics/algorithms/templates&#45;store.js -->
<g id="edge44" class="edge"><title>../metrics/algorithms/index.js&#45;&gt;../metrics/algorithms/templates&#45;store.js</title>
<path fill="none" stroke="#757575" d="M747.511,-237.49C764.507,-239.249 782.394,-241.101 799.969,-242.92"/>
<polygon fill="#757575" stroke="#757575" points="799.964,-246.438 810.271,-243.986 800.685,-239.475 799.964,-246.438"/>
</g>
<!-- ../metrics/algorithms/queue.js&#45;&gt;../consts/components.js -->
<g id="edge45" class="edge"><title>../metrics/algorithms/queue.js&#45;&gt;../consts/components.js</title>
<path fill="none" stroke="#757575" d="M1023.09,-304.862C1034.83,-307.744 1046.39,-311.534 1057,-316.5 1076.39,-325.573 1073.74,-339.149 1093,-348.5 1183.58,-392.485 1226.3,-342.747 1316,-388.5 1372.61,-417.374 1421.92,-475.951 1445.22,-506.675"/>
<polygon fill="#757575" stroke="#757575" points="1442.56,-508.97 1451.34,-514.904 1448.18,-504.792 1442.56,-508.97"/>
</g>
<!-- ../metrics/algorithms/queue.js&#45;&gt;../metrics/Metric.js -->
<g id="edge46" class="edge"><title>../metrics/algorithms/queue.js&#45;&gt;../metrics/Metric.js</title>
<path fill="none" stroke="#757575" d="M1023.01,-307.872C1057.76,-311.844 1096.15,-316.231 1128.56,-319.935"/>
<polygon fill="#757575" stroke="#757575" points="1128.53,-323.454 1138.86,-321.112 1129.32,-316.499 1128.53,-323.454"/>
</g>
<!-- ../metrics/algorithms/queue.js&#45;&gt;../resources/resource&#45;allocator.js -->
<g id="edge47" class="edge"><title>../metrics/algorithms/queue.js&#45;&gt;../resources/resource&#45;allocator.js</title>
<path fill="none" stroke="#757575" d="M1023.01,-293.302C1042.37,-292.679 1062.86,-292.02 1082.82,-291.379"/>
<polygon fill="#757575" stroke="#757575" points="1083,-294.875 1092.89,-291.055 1082.78,-287.879 1083,-294.875"/>
</g>
<!-- ../metrics/algorithms/queue.js&#45;&gt;../utils/queue.js -->
<g id="edge48" class="edge"><title>../metrics/algorithms/queue.js&#45;&gt;../utils/queue.js</title>
<path fill="none" stroke="#757575" d="M1004.19,-284.993C1021.65,-282.171 1039.99,-278.958 1057,-275.5 1073.16,-272.215 1076.88,-269.971 1093,-266.5 1108.01,-263.269 1124.24,-260.134 1139.52,-257.34"/>
<polygon fill="#757575" stroke="#757575" points="1140.19,-260.777 1149.4,-255.557 1138.94,-253.889 1140.19,-260.777"/>
</g>
<!-- ../metrics/algorithms/run&#45;time.js&#45;&gt;../utils/utils.js -->
<g id="edge53" class="edge"><title>../metrics/algorithms/run&#45;time.js&#45;&gt;../utils/utils.js</title>
<path fill="none" stroke="#757575" d="M978.945,-161.987C1011.91,-155.731 1054.65,-148.646 1093,-145.5 1191.78,-137.396 1217.15,-138.305 1316,-145.5 1344.71,-147.59 1376.4,-152.001 1402.67,-156.244"/>
<polygon fill="#757575" stroke="#757575" points="1402.4,-159.745 1412.83,-157.918 1403.54,-152.838 1402.4,-159.745"/>
</g>
<!-- ../metrics/algorithms/run&#45;time.js&#45;&gt;../metrics/Metric.js -->
<g id="edge49" class="edge"><title>../metrics/algorithms/run&#45;time.js&#45;&gt;../metrics/Metric.js</title>
<path fill="none" stroke="#757575" d="M1028.74,-177.541C1039.03,-181.257 1048.71,-186.423 1057,-193.5 1097.4,-228.005 1053.28,-272.212 1093,-307.5 1103.06,-316.44 1115.72,-322.088 1128.84,-325.568"/>
<polygon fill="#757575" stroke="#757575" points="1128.41,-329.058 1138.93,-327.826 1129.94,-322.227 1128.41,-329.058"/>
</g>
<!-- ../metrics/algorithms/run&#45;time.js&#45;&gt;../resources/ratios&#45;allocator.js -->
<g id="edge50" class="edge"><title>../metrics/algorithms/run&#45;time.js&#45;&gt;../resources/ratios&#45;allocator.js</title>
<path fill="none" stroke="#757575" d="M1028.56,-170.874C1049.86,-170.341 1072.31,-169.78 1093.77,-169.243"/>
<polygon fill="#757575" stroke="#757575" points="1093.97,-172.739 1103.88,-168.991 1093.79,-165.742 1093.97,-172.739"/>
</g>
<!-- ../metrics/algorithms/run&#45;time.js&#45;&gt;../resources/resource&#45;allocator.js -->
<g id="edge51" class="edge"><title>../metrics/algorithms/run&#45;time.js&#45;&gt;../resources/resource&#45;allocator.js</title>
<path fill="none" stroke="#757575" d="M1028.72,-179.189C1038.83,-182.631 1048.48,-187.281 1057,-193.5 1086.22,-214.832 1064.21,-244.601 1093,-266.5 1095.14,-268.129 1097.37,-269.644 1099.68,-271.051"/>
<polygon fill="#757575" stroke="#757575" points="1098.43,-274.353 1108.9,-275.967 1101.72,-268.175 1098.43,-274.353"/>
</g>
<!-- ../metrics/algorithms/run&#45;time.js&#45;&gt;../utils/queue.js -->
<g id="edge52" class="edge"><title>../metrics/algorithms/run&#45;time.js&#45;&gt;../utils/queue.js</title>
<path fill="none" stroke="#757575" d="M1016.62,-185.025C1030.25,-187.412 1044.05,-190.222 1057,-193.5 1095.52,-203.249 1138.07,-219.261 1167.34,-231.138"/>
<polygon fill="#757575" stroke="#757575" points="1166.15,-234.434 1176.73,-234.992 1168.81,-227.958 1166.15,-234.434"/>
</g>
<!-- ../metrics/algorithms/templates&#45;store.js&#45;&gt;../metrics/Metric.js -->
<g id="edge54" class="edge"><title>../metrics/algorithms/templates&#45;store.js&#45;&gt;../metrics/Metric.js</title>
<path fill="none" stroke="#757575" d="M1034.63,-267.021C1042.35,-269.373 1049.89,-272.172 1057,-275.5 1076.39,-284.573 1073.79,-298.05 1093,-307.5 1104.13,-312.976 1116.54,-317.027 1128.91,-320.024"/>
<polygon fill="#757575" stroke="#757575" points="1128.27,-323.468 1138.79,-322.208 1129.78,-316.633 1128.27,-323.468"/>
</g>
<!-- ../metrics/algorithms/templates&#45;store.js&#45;&gt;../resources/resource&#45;allocator.js -->
<g id="edge55" class="edge"><title>../metrics/algorithms/templates&#45;store.js&#45;&gt;../resources/resource&#45;allocator.js</title>
<path fill="none" stroke="#757575" d="M1024.19,-267.008C1046.45,-269.552 1070.16,-272.261 1092.79,-274.848"/>
<polygon fill="#757575" stroke="#757575" points="1092.43,-278.329 1102.76,-275.987 1093.22,-271.374 1092.43,-278.329"/>
</g>
<!-- ../metrics/algorithms/templates&#45;store.js&#45;&gt;../utils/queue.js -->
<g id="edge56" class="edge"><title>../metrics/algorithms/templates&#45;store.js&#45;&gt;../utils/queue.js</title>
<path fill="none" stroke="#757575" d="M1052.85,-251.342C1082.69,-250.383 1113.19,-249.403 1138.87,-248.577"/>
<polygon fill="#757575" stroke="#757575" points="1139.31,-252.065 1149.19,-248.246 1139.09,-245.069 1139.31,-252.065"/>
</g>
<!-- ../metrics/index.js -->
<g id="node31" class="node"><title>../metrics/index.js</title>
<path fill="none" stroke="#c6c5fe" d="M491.833,-239C491.833,-239 381.167,-239 381.167,-239 377.333,-239 373.5,-235.167 373.5,-231.333 373.5,-231.333 373.5,-223.667 373.5,-223.667 373.5,-219.833 377.333,-216 381.167,-216 381.167,-216 491.833,-216 491.833,-216 495.667,-216 499.5,-219.833 499.5,-223.667 499.5,-223.667 499.5,-231.333 499.5,-231.333 499.5,-235.167 495.667,-239 491.833,-239"/>
<text text-anchor="middle" x="436.5" y="-223.8" font-family="Arial" font-size="14.00" fill="#c6c5fe">../metrics/index.js</text>
</g>
<!-- ../metrics/index.js&#45;&gt;../metrics/algorithms/index.js -->
<g id="edge57" class="edge"><title>../metrics/index.js&#45;&gt;../metrics/algorithms/index.js</title>
<path fill="none" stroke="#757575" d="M499.528,-227.5C512.997,-227.5 527.614,-227.5 542.257,-227.5"/>
<polygon fill="#757575" stroke="#757575" points="542.384,-231 552.384,-227.5 542.384,-224 542.384,-231"/>
</g>
<!-- ../metrics/pipelines/index.js -->
<g id="node32" class="node"><title>../metrics/pipelines/index.js</title>
<path fill="none" stroke="#c6c5fe" d="M735.833,-316C735.833,-316 564.167,-316 564.167,-316 560.333,-316 556.5,-312.167 556.5,-308.333 556.5,-308.333 556.5,-300.667 556.5,-300.667 556.5,-296.833 560.333,-293 564.167,-293 564.167,-293 735.833,-293 735.833,-293 739.667,-293 743.5,-296.833 743.5,-300.667 743.5,-300.667 743.5,-308.333 743.5,-308.333 743.5,-312.167 739.667,-316 735.833,-316"/>
<text text-anchor="middle" x="650" y="-300.8" font-family="Arial" font-size="14.00" fill="#c6c5fe">../metrics/pipelines/index.js</text>
</g>
<!-- ../metrics/index.js&#45;&gt;../metrics/pipelines/index.js -->
<g id="edge58" class="edge"><title>../metrics/index.js&#45;&gt;../metrics/pipelines/index.js</title>
<path fill="none" stroke="#757575" d="M484.282,-239.045C493.535,-241.613 503.126,-244.478 512,-247.5 547.774,-259.685 587.537,-276.623 614.97,-288.865"/>
<polygon fill="#757575" stroke="#757575" points="613.576,-292.076 624.132,-292.984 616.446,-285.691 613.576,-292.076"/>
</g>
<!-- ../metrics/pipelines/queue.js -->
<g id="node36" class="node"><title>../metrics/pipelines/queue.js</title>
<path fill="none" stroke="#c6c5fe" d="M1011.33,-349C1011.33,-349 833.667,-349 833.667,-349 829.833,-349 826,-345.167 826,-341.333 826,-341.333 826,-333.667 826,-333.667 826,-329.833 829.833,-326 833.667,-326 833.667,-326 1011.33,-326 1011.33,-326 1015.17,-326 1019,-329.833 1019,-333.667 1019,-333.667 1019,-341.333 1019,-341.333 1019,-345.167 1015.17,-349 1011.33,-349"/>
<text text-anchor="middle" x="922.5" y="-333.8" font-family="Arial" font-size="14.00" fill="#c6c5fe">../metrics/pipelines/queue.js</text>
</g>
<!-- ../metrics/pipelines/index.js&#45;&gt;../metrics/pipelines/queue.js -->
<g id="edge64" class="edge"><title>../metrics/pipelines/index.js&#45;&gt;../metrics/pipelines/queue.js</title>
<path fill="none" stroke="#757575" d="M743.712,-315.811C767.265,-318.684 792.733,-321.791 816.834,-324.731"/>
<polygon fill="#757575" stroke="#757575" points="816.72,-328.243 827.07,-325.98 817.568,-321.295 816.72,-328.243"/>
</g>
<!-- ../metrics/metrics&#45;controller.js -->
<g id="node33" class="node"><title>../metrics/metrics&#45;controller.js</title>
<path fill="none" stroke="#c6c5fe" d="M308.333,-239C308.333,-239 122.667,-239 122.667,-239 118.833,-239 115,-235.167 115,-231.333 115,-231.333 115,-223.667 115,-223.667 115,-219.833 118.833,-216 122.667,-216 122.667,-216 308.333,-216 308.333,-216 312.167,-216 316,-219.833 316,-223.667 316,-223.667 316,-231.333 316,-231.333 316,-235.167 312.167,-239 308.333,-239"/>
<text text-anchor="middle" x="215.5" y="-223.8" font-family="Arial" font-size="14.00" fill="#c6c5fe">../metrics/metrics&#45;controller.js</text>
</g>
<!-- ../metrics/metrics&#45;controller.js&#45;&gt;../utils/utils.js -->
<g id="edge62" class="edge"><title>../metrics/metrics&#45;controller.js&#45;&gt;../utils/utils.js</title>
<path fill="none" stroke="#757575" d="M294.08,-215.956C315.729,-212.807 339.272,-209.453 361,-206.5 684.841,-162.495 766.295,-145.063 1093,-136.5 1192.08,-133.903 1217.41,-126.305 1316,-136.5 1346.08,-139.611 1379.15,-146.297 1405.96,-152.569"/>
<polygon fill="#757575" stroke="#757575" points="1405.37,-156.026 1415.91,-154.944 1406.99,-149.217 1405.37,-156.026"/>
</g>
<!-- ../metrics/metrics&#45;controller.js&#45;&gt;../metrics/index.js -->
<g id="edge59" class="edge"><title>../metrics/metrics&#45;controller.js&#45;&gt;../metrics/index.js</title>
<path fill="none" stroke="#757575" d="M316.067,-227.5C331.95,-227.5 348.113,-227.5 363.206,-227.5"/>
<polygon fill="#757575" stroke="#757575" points="363.468,-231 373.468,-227.5 363.468,-224 363.468,-231"/>
</g>
<!-- ../metrics/metrics&#45;reducer.js -->
<g id="node34" class="node"><title>../metrics/metrics&#45;reducer.js</title>
<path fill="none" stroke="#c6c5fe" d="M737.833,-61C737.833,-61 562.167,-61 562.167,-61 558.333,-61 554.5,-57.1667 554.5,-53.3333 554.5,-53.3333 554.5,-45.6667 554.5,-45.6667 554.5,-41.8333 558.333,-38 562.167,-38 562.167,-38 737.833,-38 737.833,-38 741.667,-38 745.5,-41.8333 745.5,-45.6667 745.5,-45.6667 745.5,-53.3333 745.5,-53.3333 745.5,-57.1667 741.667,-61 737.833,-61"/>
<text text-anchor="middle" x="650" y="-45.8" font-family="Arial" font-size="14.00" fill="#c6c5fe">../metrics/metrics&#45;reducer.js</text>
</g>
<!-- ../metrics/metrics&#45;controller.js&#45;&gt;../metrics/metrics&#45;reducer.js -->
<g id="edge60" class="edge"><title>../metrics/metrics&#45;controller.js&#45;&gt;../metrics/metrics&#45;reducer.js</title>
<path fill="none" stroke="#757575" d="M227.98,-215.697C247.866,-195.219 289.951,-151.728 325,-114.5 341.17,-97.3248 339.839,-85.9238 361,-75.5 417.293,-47.7706 487.273,-40.9212 544.155,-41.1727"/>
<polygon fill="#757575" stroke="#757575" points="544.213,-44.6736 554.254,-41.2918 544.296,-37.674 544.213,-44.6736"/>
</g>
<!-- ../metrics/settings.js -->
<g id="node35" class="node"><title>../metrics/settings.js</title>
<path fill="none" stroke="#cfffac" d="M499.833,-280C499.833,-280 373.167,-280 373.167,-280 369.333,-280 365.5,-276.167 365.5,-272.333 365.5,-272.333 365.5,-264.667 365.5,-264.667 365.5,-260.833 369.333,-257 373.167,-257 373.167,-257 499.833,-257 499.833,-257 503.667,-257 507.5,-260.833 507.5,-264.667 507.5,-264.667 507.5,-272.333 507.5,-272.333 507.5,-276.167 503.667,-280 499.833,-280"/>
<text text-anchor="middle" x="436.5" y="-264.8" font-family="Arial" font-size="14.00" fill="#cfffac">../metrics/settings.js</text>
</g>
<!-- ../metrics/metrics&#45;controller.js&#45;&gt;../metrics/settings.js -->
<g id="edge61" class="edge"><title>../metrics/metrics&#45;controller.js&#45;&gt;../metrics/settings.js</title>
<path fill="none" stroke="#757575" d="M278.087,-239.03C304.791,-244.029 336.231,-249.915 363.963,-255.107"/>
<polygon fill="#757575" stroke="#757575" points="363.523,-258.586 373.997,-256.986 364.812,-251.705 363.523,-258.586"/>
</g>
<!-- ../metrics/metrics&#45;reducer.js&#45;&gt;../utils/utils.js -->
<g id="edge63" class="edge"><title>../metrics/metrics&#45;reducer.js&#45;&gt;../utils/utils.js</title>
<path fill="none" stroke="#757575" d="M743.108,-37.9949C873.891,-24.971 1119.36,-12.8431 1316,-74.5 1364.67,-89.7597 1412.85,-126.171 1439.14,-148.338"/>
<polygon fill="#757575" stroke="#757575" points="1437.01,-151.126 1446.88,-154.989 1441.57,-145.817 1437.01,-151.126"/>
</g>
<!-- ../metrics/pipelines/queue.js&#45;&gt;../consts/components.js -->
<g id="edge65" class="edge"><title>../metrics/pipelines/queue.js&#45;&gt;../consts/components.js</title>
<path fill="none" stroke="#757575" d="M960.562,-349.025C1030.51,-370.963 1186.58,-420.801 1316,-468.5 1352.81,-482.067 1394.31,-499.023 1423.17,-511.091"/>
<polygon fill="#757575" stroke="#757575" points="1421.88,-514.343 1432.45,-514.984 1424.58,-507.888 1421.88,-514.343"/>
</g>
<!-- ../metrics/pipelines/queue.js&#45;&gt;../metrics/Metric.js -->
<g id="edge66" class="edge"><title>../metrics/pipelines/queue.js&#45;&gt;../metrics/Metric.js</title>
<path fill="none" stroke="#757575" d="M1019.08,-334.428C1054.83,-333.279 1094.89,-331.991 1128.52,-330.91"/>
<polygon fill="#757575" stroke="#757575" points="1128.85,-334.401 1138.73,-330.582 1128.63,-327.405 1128.85,-334.401"/>
</g>
<!-- ../metrics/pipelines/queue.js&#45;&gt;../resources/resource&#45;allocator.js -->
<g id="edge67" class="edge"><title>../metrics/pipelines/queue.js&#45;&gt;../resources/resource&#45;allocator.js</title>
<path fill="none" stroke="#757575" d="M1004.19,-325.993C1021.65,-323.171 1039.99,-319.958 1057,-316.5 1073.16,-313.215 1076.88,-310.971 1093,-307.5 1103.58,-305.223 1114.77,-302.993 1125.8,-300.897"/>
<polygon fill="#757575" stroke="#757575" points="1126.68,-304.292 1135.87,-299.012 1125.39,-297.412 1126.68,-304.292"/>
</g>
<!-- ../metrics/pipelines/queue.js&#45;&gt;../utils/queue.js -->
<g id="edge68" class="edge"><title>../metrics/pipelines/queue.js&#45;&gt;../utils/queue.js</title>
<path fill="none" stroke="#757575" d="M1019.09,-331.95C1032.44,-328.52 1045.51,-323.567 1057,-316.5 1080.32,-302.155 1069.84,-281.113 1093,-266.5 1106.79,-257.798 1123.36,-252.647 1139.43,-249.656"/>
<polygon fill="#757575" stroke="#757575" points="1140.03,-253.106 1149.34,-248.061 1138.91,-246.195 1140.03,-253.106"/>
</g>
<!-- ../monitoring/const.js -->
<g id="node37" class="node"><title>../monitoring/const.js</title>
<path fill="none" stroke="#cfffac" d="M501.833,-23C501.833,-23 371.167,-23 371.167,-23 367.333,-23 363.5,-19.1667 363.5,-15.3333 363.5,-15.3333 363.5,-7.66667 363.5,-7.66667 363.5,-3.83333 367.333,-0 371.167,-0 371.167,-0 501.833,-0 501.833,-0 505.667,-0 509.5,-3.83333 509.5,-7.66667 509.5,-7.66667 509.5,-15.3333 509.5,-15.3333 509.5,-19.1667 505.667,-23 501.833,-23"/>
<text text-anchor="middle" x="436.5" y="-7.8" font-family="Arial" font-size="14.00" fill="#cfffac">../monitoring/const.js</text>
</g>
<!-- ../monitoring/metrics&#45;provider.js -->
<g id="node38" class="node"><title>../monitoring/metrics&#45;provider.js</title>
<path fill="none" stroke="#c6c5fe" d="M314.833,-106C314.833,-106 116.167,-106 116.167,-106 112.333,-106 108.5,-102.167 108.5,-98.3333 108.5,-98.3333 108.5,-90.6667 108.5,-90.6667 108.5,-86.8333 112.333,-83 116.167,-83 116.167,-83 314.833,-83 314.833,-83 318.667,-83 322.5,-86.8333 322.5,-90.6667 322.5,-90.6667 322.5,-98.3333 322.5,-98.3333 322.5,-102.167 318.667,-106 314.833,-106"/>
<text text-anchor="middle" x="215.5" y="-90.8" font-family="Arial" font-size="14.00" fill="#c6c5fe">../monitoring/metrics&#45;provider.js</text>
</g>
<!-- ../monitoring/metrics&#45;provider.js&#45;&gt;../monitoring/const.js -->
<g id="edge69" class="edge"><title>../monitoring/metrics&#45;provider.js&#45;&gt;../monitoring/const.js</title>
<path fill="none" stroke="#757575" d="M244.885,-82.9151C273.93,-71.1527 320.426,-52.5755 361,-37.5 370.926,-33.8119 381.65,-29.9806 391.785,-26.4289"/>
<polygon fill="#757575" stroke="#757575" points="392.984,-29.7175 401.276,-23.123 390.681,-23.107 392.984,-29.7175"/>
</g>
<!-- runner.js -->
<g id="node40" class="node"><title>runner.js</title>
<path fill="none" stroke="#c6c5fe" d="M62.3333,-336C62.3333,-336 7.66667,-336 7.66667,-336 3.83333,-336 0,-332.167 0,-328.333 0,-328.333 0,-320.667 0,-320.667 0,-316.833 3.83333,-313 7.66667,-313 7.66667,-313 62.3333,-313 62.3333,-313 66.1667,-313 70,-316.833 70,-320.667 70,-320.667 70,-328.333 70,-328.333 70,-332.167 66.1667,-336 62.3333,-336"/>
<text text-anchor="middle" x="35" y="-320.8" font-family="Arial" font-size="14.00" fill="#c6c5fe">runner.js</text>
</g>
<!-- runner.js&#45;&gt;../adapters/adapters&#45;controller.js -->
<g id="edge72" class="edge"><title>runner.js&#45;&gt;../adapters/adapters&#45;controller.js</title>
<path fill="none" stroke="#757575" d="M70.4166,-332.405C94.1466,-337.856 126.32,-345.246 154.245,-351.66"/>
<polygon fill="#757575" stroke="#757575" points="153.788,-355.146 164.318,-353.974 155.355,-348.324 153.788,-355.146"/>
</g>
<!-- runner.js&#45;&gt;../utils/logger.js -->
<g id="edge76" class="edge"><title>runner.js&#45;&gt;../utils/logger.js</title>
<path fill="none" stroke="#757575" d="M70.0611,-324.5C136.697,-324.5 285.262,-324.5 371.037,-324.5"/>
<polygon fill="#757575" stroke="#757575" points="371.177,-328 381.177,-324.5 371.177,-321 371.177,-328"/>
</g>
<!-- runner.js&#45;&gt;../consts/components.js -->
<g id="edge73" class="edge"><title>runner.js&#45;&gt;../consts/components.js</title>
<path fill="none" stroke="#757575" d="M39.0379,-336.105C59.1849,-410.157 180.62,-813.5 435.5,-813.5 435.5,-813.5 435.5,-813.5 923.5,-813.5 1109.16,-813.5 1164.55,-777.896 1316,-670.5 1368.41,-633.337 1418.84,-576.217 1443.61,-546.311"/>
<polygon fill="#757575" stroke="#757575" points="1446.54,-548.251 1450.17,-538.296 1441.13,-543.816 1446.54,-548.251"/>
</g>
<!-- runner.js&#45;&gt;../metrics/metrics&#45;controller.js -->
<g id="edge74" class="edge"><title>runner.js&#45;&gt;../metrics/metrics&#45;controller.js</title>
<path fill="none" stroke="#757575" d="M57.1773,-312.992C88.6283,-295.901 147.846,-263.721 183.976,-244.087"/>
<polygon fill="#757575" stroke="#757575" points="185.957,-246.994 193.073,-239.144 182.615,-240.843 185.957,-246.994"/>
</g>
<!-- runner.js&#45;&gt;../monitoring/metrics&#45;provider.js -->
<g id="edge75" class="edge"><title>runner.js&#45;&gt;../monitoring/metrics&#45;provider.js</title>
<path fill="none" stroke="#757575" d="M41.7311,-312.876C52.7414,-291.045 78.2327,-242.839 106,-206.5 133.348,-170.709 170.979,-134.131 193.975,-112.908"/>
<polygon fill="#757575" stroke="#757575" points="196.438,-115.398 201.457,-106.068 191.715,-110.232 196.438,-115.398"/>
</g>
</g>
</svg>
