<?xml version="1.0" encoding="UTF-8" standalone="no"?>
<!DOCTYPE svg PUBLIC "-//W3C//DTD SVG 1.1//EN"
 "http://www.w3.org/Graphics/SVG/1.1/DTD/svg11.dtd">
<!-- Generated by graphviz version 2.38.0 (20140413.2041)
 -->
<!-- Title: G Pages: 1 -->
<svg width="1649pt" height="1152pt"
 viewBox="0.00 0.00 1649.20 1151.75" xmlns="http://www.w3.org/2000/svg" xmlns:xlink="http://www.w3.org/1999/xlink">
<g id="graph0" class="graph" transform="scale(1 1) rotate(0) translate(21.6 1130.15)">
<title>G</title>
<polygon fill="#111111" stroke="none" points="-21.6,21.6 -21.6,-1130.15 1627.6,-1130.15 1627.6,21.6 -21.6,21.6"/>
<!-- ../adapters/Adapter.js -->
<g id="node1" class="node"><title>../adapters/Adapter.js</title>
<path fill="none" stroke="#cfffac" d="M1357.83,-790.547C1357.83,-790.547 1222.17,-790.547 1222.17,-790.547 1218.33,-790.547 1214.5,-786.714 1214.5,-782.881 1214.5,-782.881 1214.5,-775.214 1214.5,-775.214 1214.5,-771.381 1218.33,-767.547 1222.17,-767.547 1222.17,-767.547 1357.83,-767.547 1357.83,-767.547 1361.67,-767.547 1365.5,-771.381 1365.5,-775.214 1365.5,-775.214 1365.5,-782.881 1365.5,-782.881 1365.5,-786.714 1361.67,-790.547 1357.83,-790.547"/>
<text text-anchor="middle" x="1290" y="-775.347" font-family="Arial" font-size="14.00" fill="#cfffac">../adapters/Adapter.js</text>
</g>
<!-- ../adapters/adapters&#45;controller.js -->
<g id="node2" class="node"><title>../adapters/adapters&#45;controller.js</title>
<path fill="none" stroke="#c6c5fe" d="M317.333,-612.547C317.333,-612.547 113.667,-612.547 113.667,-612.547 109.833,-612.547 106,-608.714 106,-604.881 106,-604.881 106,-597.214 106,-597.214 106,-593.381 109.833,-589.547 113.667,-589.547 113.667,-589.547 317.333,-589.547 317.333,-589.547 321.167,-589.547 325,-593.381 325,-597.214 325,-597.214 325,-604.881 325,-604.881 325,-608.714 321.167,-612.547 317.333,-612.547"/>
<text text-anchor="middle" x="215.5" y="-597.347" font-family="Arial" font-size="14.00" fill="#c6c5fe">../adapters/adapters&#45;controller.js</text>
</g>
<!-- ../adapters/index.js -->
<g id="node3" class="node"><title>../adapters/index.js</title>
<path fill="none" stroke="#c6c5fe" d="M512.833,-734.547C512.833,-734.547 393.167,-734.547 393.167,-734.547 389.333,-734.547 385.5,-730.714 385.5,-726.881 385.5,-726.881 385.5,-719.214 385.5,-719.214 385.5,-715.381 389.333,-711.547 393.167,-711.547 393.167,-711.547 512.833,-711.547 512.833,-711.547 516.667,-711.547 520.5,-715.381 520.5,-719.214 520.5,-719.214 520.5,-726.881 520.5,-726.881 520.5,-730.714 516.667,-734.547 512.833,-734.547"/>
<text text-anchor="middle" x="453" y="-719.347" font-family="Arial" font-size="14.00" fill="#c6c5fe">../adapters/index.js</text>
</g>
<!-- ../adapters/adapters&#45;controller.js&#45;&gt;../adapters/index.js -->
<g id="edge1" class="edge"><title>../adapters/adapters&#45;controller.js&#45;&gt;../adapters/index.js</title>
<path fill="none" stroke="#757575" d="M239.081,-612.745C281.281,-634.607 372.192,-681.703 420.435,-706.695"/>
<polygon fill="#757575" stroke="#757575" points="418.998,-709.893 429.488,-711.385 422.218,-703.677 418.998,-709.893"/>
</g>
<!-- ../utils/logger.js -->
<g id="node4" class="node"><title>../utils/logger.js</title>
<path fill="none" stroke="#cfffac" d="M500.333,-572.547C500.333,-572.547 405.667,-572.547 405.667,-572.547 401.833,-572.547 398,-568.714 398,-564.881 398,-564.881 398,-557.214 398,-557.214 398,-553.381 401.833,-549.547 405.667,-549.547 405.667,-549.547 500.333,-549.547 500.333,-549.547 504.167,-549.547 508,-553.381 508,-557.214 508,-557.214 508,-564.881 508,-564.881 508,-568.714 504.167,-572.547 500.333,-572.547"/>
<text text-anchor="middle" x="453" y="-557.347" font-family="Arial" font-size="14.00" fill="#cfffac">../utils/logger.js</text>
</g>
<!-- ../adapters/adapters&#45;controller.js&#45;&gt;../utils/logger.js -->
<g id="edge2" class="edge"><title>../adapters/adapters&#45;controller.js&#45;&gt;../utils/logger.js</title>
<path fill="none" stroke="#757575" d="M284.3,-589.531C316.793,-584.012 355.514,-577.436 387.558,-571.993"/>
<polygon fill="#757575" stroke="#757575" points="388.438,-575.393 397.711,-570.268 387.266,-568.492 388.438,-575.393"/>
</g>
<!-- ../utils/utils.js -->
<g id="node5" class="node"><title>../utils/utils.js</title>
<path fill="none" stroke="#cfffac" d="M1560.83,-439.547C1560.83,-439.547 1481.17,-439.547 1481.17,-439.547 1477.33,-439.547 1473.5,-435.714 1473.5,-431.881 1473.5,-431.881 1473.5,-424.214 1473.5,-424.214 1473.5,-420.381 1477.33,-416.547 1481.17,-416.547 1481.17,-416.547 1560.83,-416.547 1560.83,-416.547 1564.67,-416.547 1568.5,-420.381 1568.5,-424.214 1568.5,-424.214 1568.5,-431.881 1568.5,-431.881 1568.5,-435.714 1564.67,-439.547 1560.83,-439.547"/>
<text text-anchor="middle" x="1521" y="-424.347" font-family="Arial" font-size="14.00" fill="#cfffac">../utils/utils.js</text>
</g>
<!-- ../adapters/adapters&#45;controller.js&#45;&gt;../utils/utils.js -->
<g id="edge3" class="edge"><title>../adapters/adapters&#45;controller.js&#45;&gt;../utils/utils.js</title>
<path fill="none" stroke="#757575" d="M325.101,-604.946C498.744,-609.753 849.343,-613.603 1144,-580.047 1259.44,-566.9 1295.22,-577.269 1400,-527.047 1441.61,-507.102 1481.13,-469.682 1502.82,-446.997"/>
<polygon fill="#757575" stroke="#757575" points="1505.43,-449.329 1509.72,-439.641 1500.32,-444.54 1505.43,-449.329"/>
</g>
<!-- ../adapters/algorithms/index.js -->
<g id="node6" class="node"><title>../adapters/algorithms/index.js</title>
<path fill="none" stroke="#c6c5fe" d="M792.333,-704.547C792.333,-704.547 603.667,-704.547 603.667,-704.547 599.833,-704.547 596,-700.714 596,-696.881 596,-696.881 596,-689.214 596,-689.214 596,-685.381 599.833,-681.547 603.667,-681.547 603.667,-681.547 792.333,-681.547 792.333,-681.547 796.167,-681.547 800,-685.381 800,-689.214 800,-689.214 800,-696.881 800,-696.881 800,-700.714 796.167,-704.547 792.333,-704.547"/>
<text text-anchor="middle" x="698" y="-689.347" font-family="Arial" font-size="14.00" fill="#c6c5fe">../adapters/algorithms/index.js</text>
</g>
<!-- ../adapters/index.js&#45;&gt;../adapters/algorithms/index.js -->
<g id="edge22" class="edge"><title>../adapters/index.js&#45;&gt;../adapters/algorithms/index.js</title>
<path fill="none" stroke="#757575" d="M520.722,-714.81C543.197,-712.035 568.835,-708.87 593.466,-705.829"/>
<polygon fill="#757575" stroke="#757575" points="594.082,-709.28 603.578,-704.581 593.224,-702.332 594.082,-709.28"/>
</g>
<!-- ../adapters/drivers/index.js -->
<g id="node12" class="node"><title>../adapters/drivers/index.js</title>
<path fill="none" stroke="#c6c5fe" d="M781.333,-837.547C781.333,-837.547 614.667,-837.547 614.667,-837.547 610.833,-837.547 607,-833.714 607,-829.881 607,-829.881 607,-822.214 607,-822.214 607,-818.381 610.833,-814.547 614.667,-814.547 614.667,-814.547 781.333,-814.547 781.333,-814.547 785.167,-814.547 789,-818.381 789,-822.214 789,-822.214 789,-829.881 789,-829.881 789,-833.714 785.167,-837.547 781.333,-837.547"/>
<text text-anchor="middle" x="698" y="-822.347" font-family="Arial" font-size="14.00" fill="#c6c5fe">../adapters/drivers/index.js</text>
</g>
<!-- ../adapters/index.js&#45;&gt;../adapters/drivers/index.js -->
<g id="edge23" class="edge"><title>../adapters/index.js&#45;&gt;../adapters/drivers/index.js</title>
<path fill="none" stroke="#757575" d="M481.403,-734.662C525.272,-753.257 611.312,-789.727 660.397,-810.532"/>
<polygon fill="#757575" stroke="#757575" points="659.124,-813.794 669.697,-814.474 661.856,-807.349 659.124,-813.794"/>
</g>
<!-- ../adapters/resources/index.js -->
<g id="node16" class="node"><title>../adapters/resources/index.js</title>
<path fill="none" stroke="#c6c5fe" d="M791.833,-765.547C791.833,-765.547 604.167,-765.547 604.167,-765.547 600.333,-765.547 596.5,-761.714 596.5,-757.881 596.5,-757.881 596.5,-750.214 596.5,-750.214 596.5,-746.381 600.333,-742.547 604.167,-742.547 604.167,-742.547 791.833,-742.547 791.833,-742.547 795.667,-742.547 799.5,-746.381 799.5,-750.214 799.5,-750.214 799.5,-757.881 799.5,-757.881 799.5,-761.714 795.667,-765.547 791.833,-765.547"/>
<text text-anchor="middle" x="698" y="-750.347" font-family="Arial" font-size="14.00" fill="#c6c5fe">../adapters/resources/index.js</text>
</g>
<!-- ../adapters/index.js&#45;&gt;../adapters/resources/index.js -->
<g id="edge24" class="edge"><title>../adapters/index.js&#45;&gt;../adapters/resources/index.js</title>
<path fill="none" stroke="#757575" d="M520.722,-731.559C544.165,-734.55 571.05,-737.979 596.643,-741.244"/>
<polygon fill="#757575" stroke="#757575" points="596.393,-744.741 606.755,-742.534 597.279,-737.797 596.393,-744.741"/>
</g>
<!-- ../adapters/algorithms/prometheus.js -->
<g id="node7" class="node"><title>../adapters/algorithms/prometheus.js</title>
<path fill="none" stroke="#c6c5fe" d="M1112.83,-652.547C1112.83,-652.547 882.167,-652.547 882.167,-652.547 878.333,-652.547 874.5,-648.714 874.5,-644.881 874.5,-644.881 874.5,-637.214 874.5,-637.214 874.5,-633.381 878.333,-629.547 882.167,-629.547 882.167,-629.547 1112.83,-629.547 1112.83,-629.547 1116.67,-629.547 1120.5,-633.381 1120.5,-637.214 1120.5,-637.214 1120.5,-644.881 1120.5,-644.881 1120.5,-648.714 1116.67,-652.547 1112.83,-652.547"/>
<text text-anchor="middle" x="997.5" y="-637.347" font-family="Arial" font-size="14.00" fill="#c6c5fe">../adapters/algorithms/prometheus.js</text>
</g>
<!-- ../adapters/algorithms/index.js&#45;&gt;../adapters/algorithms/prometheus.js -->
<g id="edge4" class="edge"><title>../adapters/algorithms/index.js&#45;&gt;../adapters/algorithms/prometheus.js</title>
<path fill="none" stroke="#757575" d="M751.617,-681.536C780.816,-675.344 817.833,-667.818 851,-662.047 867.033,-659.258 884.107,-656.555 900.707,-654.069"/>
<polygon fill="#757575" stroke="#757575" points="901.589,-657.476 910.969,-652.55 900.564,-650.552 901.589,-657.476"/>
</g>
<!-- ../adapters/algorithms/queue.js -->
<g id="node8" class="node"><title>../adapters/algorithms/queue.js</title>
<path fill="none" stroke="#c6c5fe" d="M1094.83,-816.547C1094.83,-816.547 900.167,-816.547 900.167,-816.547 896.333,-816.547 892.5,-812.714 892.5,-808.881 892.5,-808.881 892.5,-801.214 892.5,-801.214 892.5,-797.381 896.333,-793.547 900.167,-793.547 900.167,-793.547 1094.83,-793.547 1094.83,-793.547 1098.67,-793.547 1102.5,-797.381 1102.5,-801.214 1102.5,-801.214 1102.5,-808.881 1102.5,-808.881 1102.5,-812.714 1098.67,-816.547 1094.83,-816.547"/>
<text text-anchor="middle" x="997.5" y="-801.347" font-family="Arial" font-size="14.00" fill="#c6c5fe">../adapters/algorithms/queue.js</text>
</g>
<!-- ../adapters/algorithms/index.js&#45;&gt;../adapters/algorithms/queue.js -->
<g id="edge5" class="edge"><title>../adapters/algorithms/index.js&#45;&gt;../adapters/algorithms/queue.js</title>
<path fill="none" stroke="#757575" d="M752.919,-704.617C773.74,-710.916 796.862,-720.318 815,-734.047 837.122,-750.792 827.294,-770.631 851,-785.047 860.689,-790.939 871.402,-795.387 882.492,-798.716"/>
<polygon fill="#757575" stroke="#757575" points="881.752,-802.141 892.318,-801.361 883.572,-795.382 881.752,-802.141"/>
</g>
<!-- ../adapters/algorithms/templates&#45;store.js -->
<g id="node9" class="node"><title>../adapters/algorithms/templates&#45;store.js</title>
<path fill="none" stroke="#c6c5fe" d="M1124.33,-693.547C1124.33,-693.547 870.667,-693.547 870.667,-693.547 866.833,-693.547 863,-689.714 863,-685.881 863,-685.881 863,-678.214 863,-678.214 863,-674.381 866.833,-670.547 870.667,-670.547 870.667,-670.547 1124.33,-670.547 1124.33,-670.547 1128.17,-670.547 1132,-674.381 1132,-678.214 1132,-678.214 1132,-685.881 1132,-685.881 1132,-689.714 1128.17,-693.547 1124.33,-693.547"/>
<text text-anchor="middle" x="997.5" y="-678.347" font-family="Arial" font-size="14.00" fill="#c6c5fe">../adapters/algorithms/templates&#45;store.js</text>
</g>
<!-- ../adapters/algorithms/index.js&#45;&gt;../adapters/algorithms/templates&#45;store.js -->
<g id="edge6" class="edge"><title>../adapters/algorithms/index.js&#45;&gt;../adapters/algorithms/templates&#45;store.js</title>
<path fill="none" stroke="#757575" d="M800.135,-689.308C817.033,-688.683 834.846,-688.024 852.569,-687.369"/>
<polygon fill="#757575" stroke="#757575" points="853.122,-690.851 862.986,-686.984 852.863,-683.856 853.122,-690.851"/>
</g>
<!-- ../adapters/algorithms/prometheus.js&#45;&gt;../adapters/Adapter.js -->
<g id="edge7" class="edge"><title>../adapters/algorithms/prometheus.js&#45;&gt;../adapters/Adapter.js</title>
<path fill="none" stroke="#757575" d="M1120.6,-650.317C1128.84,-653.437 1136.74,-657.297 1144,-662.047 1169.39,-678.657 1157.92,-699.24 1180,-720.047 1199.78,-738.687 1226.58,-753.296 1248.65,-763.314"/>
<polygon fill="#757575" stroke="#757575" points="1247.54,-766.648 1258.1,-767.458 1250.35,-760.237 1247.54,-766.648"/>
</g>
<!-- ../helpers/prometheus.js -->
<g id="node10" class="node"><title>../helpers/prometheus.js</title>
<path fill="none" stroke="#c6c5fe" d="M1366.83,-710.547C1366.83,-710.547 1213.17,-710.547 1213.17,-710.547 1209.33,-710.547 1205.5,-706.714 1205.5,-702.881 1205.5,-702.881 1205.5,-695.214 1205.5,-695.214 1205.5,-691.381 1209.33,-687.547 1213.17,-687.547 1213.17,-687.547 1366.83,-687.547 1366.83,-687.547 1370.67,-687.547 1374.5,-691.381 1374.5,-695.214 1374.5,-695.214 1374.5,-702.881 1374.5,-702.881 1374.5,-706.714 1370.67,-710.547 1366.83,-710.547"/>
<text text-anchor="middle" x="1290" y="-695.347" font-family="Arial" font-size="14.00" fill="#c6c5fe">../helpers/prometheus.js</text>
</g>
<!-- ../adapters/algorithms/prometheus.js&#45;&gt;../helpers/prometheus.js -->
<g id="edge8" class="edge"><title>../adapters/algorithms/prometheus.js&#45;&gt;../helpers/prometheus.js</title>
<path fill="none" stroke="#757575" d="M1093.2,-652.568C1110.19,-655.244 1127.69,-658.4 1144,-662.047 1160.33,-665.697 1163.86,-668.66 1180,-673.047 1195.4,-677.232 1212.12,-681.405 1227.74,-685.143"/>
<polygon fill="#757575" stroke="#757575" points="1227.28,-688.631 1237.82,-687.533 1228.89,-681.82 1227.28,-688.631"/>
</g>
<!-- ../adapters/algorithms/queue.js&#45;&gt;../adapters/Adapter.js -->
<g id="edge9" class="edge"><title>../adapters/algorithms/queue.js&#45;&gt;../adapters/Adapter.js</title>
<path fill="none" stroke="#757575" d="M1102.56,-795.734C1135.9,-792.749 1172.41,-789.482 1204.21,-786.636"/>
<polygon fill="#757575" stroke="#757575" points="1204.71,-790.105 1214.36,-785.728 1204.09,-783.133 1204.71,-790.105"/>
</g>
<!-- ../store/store&#45;manager.js -->
<g id="node11" class="node"><title>../store/store&#45;manager.js</title>
<path fill="none" stroke="#cfffac" d="M1598.33,-972.547C1598.33,-972.547 1443.67,-972.547 1443.67,-972.547 1439.83,-972.547 1436,-968.714 1436,-964.881 1436,-964.881 1436,-957.214 1436,-957.214 1436,-953.381 1439.83,-949.547 1443.67,-949.547 1443.67,-949.547 1598.33,-949.547 1598.33,-949.547 1602.17,-949.547 1606,-953.381 1606,-957.214 1606,-957.214 1606,-964.881 1606,-964.881 1606,-968.714 1602.17,-972.547 1598.33,-972.547"/>
<text text-anchor="middle" x="1521" y="-957.347" font-family="Arial" font-size="14.00" fill="#cfffac">../store/store&#45;manager.js</text>
</g>
<!-- ../adapters/algorithms/queue.js&#45;&gt;../store/store&#45;manager.js -->
<g id="edge10" class="edge"><title>../adapters/algorithms/queue.js&#45;&gt;../store/store&#45;manager.js</title>
<path fill="none" stroke="#757575" d="M1102.55,-804.914C1117.79,-808.971 1132.28,-815.607 1144,-826.047 1190.69,-867.636 1130.45,-923.909 1180,-962.047 1217.18,-990.663 1339.27,-983.357 1426.5,-973.706"/>
<polygon fill="#757575" stroke="#757575" points="1427.14,-977.155 1436.68,-972.55 1426.35,-970.199 1427.14,-977.155"/>
</g>
<!-- ../adapters/algorithms/templates&#45;store.js&#45;&gt;../adapters/Adapter.js -->
<g id="edge11" class="edge"><title>../adapters/algorithms/templates&#45;store.js&#45;&gt;../adapters/Adapter.js</title>
<path fill="none" stroke="#757575" d="M1124.98,-693.675C1131.61,-696.309 1138,-699.408 1144,-703.047 1167.42,-717.244 1157.25,-737.802 1180,-753.047 1187.6,-758.138 1196.08,-762.236 1204.86,-765.534"/>
<polygon fill="#757575" stroke="#757575" points="1203.89,-768.9 1214.48,-768.807 1206.14,-762.273 1203.89,-768.9"/>
</g>
<!-- ../adapters/algorithms/templates&#45;store.js&#45;&gt;../store/store&#45;manager.js -->
<g id="edge12" class="edge"><title>../adapters/algorithms/templates&#45;store.js&#45;&gt;../store/store&#45;manager.js</title>
<path fill="none" stroke="#757575" d="M1104.61,-693.59C1118,-696.147 1131.41,-699.26 1144,-703.047 1160.94,-708.145 1163.14,-714.678 1180,-720.047 1274.62,-750.181 1318.33,-702.559 1400,-759.047 1465.27,-804.193 1500.64,-897.395 1513.86,-939.53"/>
<polygon fill="#757575" stroke="#757575" points="1510.57,-940.746 1516.81,-949.307 1517.27,-938.722 1510.57,-940.746"/>
</g>
<!-- ../consts/components.js -->
<g id="node21" class="node"><title>../consts/components.js</title>
<path fill="none" stroke="#cfffac" d="M1596.83,-770.547C1596.83,-770.547 1445.17,-770.547 1445.17,-770.547 1441.33,-770.547 1437.5,-766.714 1437.5,-762.881 1437.5,-762.881 1437.5,-755.214 1437.5,-755.214 1437.5,-751.381 1441.33,-747.547 1445.17,-747.547 1445.17,-747.547 1596.83,-747.547 1596.83,-747.547 1600.67,-747.547 1604.5,-751.381 1604.5,-755.214 1604.5,-755.214 1604.5,-762.881 1604.5,-762.881 1604.5,-766.714 1600.67,-770.547 1596.83,-770.547"/>
<text text-anchor="middle" x="1521" y="-755.347" font-family="Arial" font-size="14.00" fill="#cfffac">../consts/components.js</text>
</g>
<!-- ../helpers/prometheus.js&#45;&gt;../consts/components.js -->
<g id="edge37" class="edge"><title>../helpers/prometheus.js&#45;&gt;../consts/components.js</title>
<path fill="none" stroke="#757575" d="M1341.3,-710.581C1359.8,-714.945 1380.89,-720.064 1400,-725.047 1423.53,-731.184 1449.51,-738.48 1471.26,-744.736"/>
<polygon fill="#757575" stroke="#757575" points="1470.35,-748.117 1480.93,-747.53 1472.29,-741.392 1470.35,-748.117"/>
</g>
<!-- ../adapters/drivers/prometheus.js -->
<g id="node13" class="node"><title>../adapters/drivers/prometheus.js</title>
<path fill="none" stroke="#c6c5fe" d="M1101.83,-734.547C1101.83,-734.547 893.167,-734.547 893.167,-734.547 889.333,-734.547 885.5,-730.714 885.5,-726.881 885.5,-726.881 885.5,-719.214 885.5,-719.214 885.5,-715.381 889.333,-711.547 893.167,-711.547 893.167,-711.547 1101.83,-711.547 1101.83,-711.547 1105.67,-711.547 1109.5,-715.381 1109.5,-719.214 1109.5,-719.214 1109.5,-726.881 1109.5,-726.881 1109.5,-730.714 1105.67,-734.547 1101.83,-734.547"/>
<text text-anchor="middle" x="997.5" y="-719.347" font-family="Arial" font-size="14.00" fill="#c6c5fe">../adapters/drivers/prometheus.js</text>
</g>
<!-- ../adapters/drivers/index.js&#45;&gt;../adapters/drivers/prometheus.js -->
<g id="edge13" class="edge"><title>../adapters/drivers/index.js&#45;&gt;../adapters/drivers/prometheus.js</title>
<path fill="none" stroke="#757575" d="M732.055,-814.53C756.006,-805.48 788.668,-791.65 815,-775.047 832.861,-763.786 831.782,-752.794 851,-744.047 858.848,-740.475 867.159,-737.48 875.673,-734.972"/>
<polygon fill="#757575" stroke="#757575" points="876.626,-738.34 885.36,-732.343 874.792,-731.585 876.626,-738.34"/>
</g>
<!-- ../adapters/drivers/queue.js -->
<g id="node14" class="node"><title>../adapters/drivers/queue.js</title>
<path fill="none" stroke="#c6c5fe" d="M1083.83,-898.547C1083.83,-898.547 911.167,-898.547 911.167,-898.547 907.333,-898.547 903.5,-894.714 903.5,-890.881 903.5,-890.881 903.5,-883.214 903.5,-883.214 903.5,-879.381 907.333,-875.547 911.167,-875.547 911.167,-875.547 1083.83,-875.547 1083.83,-875.547 1087.67,-875.547 1091.5,-879.381 1091.5,-883.214 1091.5,-883.214 1091.5,-890.881 1091.5,-890.881 1091.5,-894.714 1087.67,-898.547 1083.83,-898.547"/>
<text text-anchor="middle" x="997.5" y="-883.347" font-family="Arial" font-size="14.00" fill="#c6c5fe">../adapters/drivers/queue.js</text>
</g>
<!-- ../adapters/drivers/index.js&#45;&gt;../adapters/drivers/queue.js -->
<g id="edge14" class="edge"><title>../adapters/drivers/index.js&#45;&gt;../adapters/drivers/queue.js</title>
<path fill="none" stroke="#757575" d="M736.475,-837.582C767.048,-846.646 811.489,-859.037 851,-867.047 864.705,-869.826 879.216,-872.332 893.558,-874.555"/>
<polygon fill="#757575" stroke="#757575" points="893.038,-878.016 903.449,-876.048 894.083,-871.094 893.038,-878.016"/>
</g>
<!-- ../adapters/drivers/templates&#45;store.js -->
<g id="node15" class="node"><title>../adapters/drivers/templates&#45;store.js</title>
<path fill="none" stroke="#c6c5fe" d="M1113.33,-857.547C1113.33,-857.547 881.667,-857.547 881.667,-857.547 877.833,-857.547 874,-853.714 874,-849.881 874,-849.881 874,-842.214 874,-842.214 874,-838.381 877.833,-834.547 881.667,-834.547 881.667,-834.547 1113.33,-834.547 1113.33,-834.547 1117.17,-834.547 1121,-838.381 1121,-842.214 1121,-842.214 1121,-849.881 1121,-849.881 1121,-853.714 1117.17,-857.547 1113.33,-857.547"/>
<text text-anchor="middle" x="997.5" y="-842.347" font-family="Arial" font-size="14.00" fill="#c6c5fe">../adapters/drivers/templates&#45;store.js</text>
</g>
<!-- ../adapters/drivers/index.js&#45;&gt;../adapters/drivers/templates&#45;store.js -->
<g id="edge15" class="edge"><title>../adapters/drivers/index.js&#45;&gt;../adapters/drivers/templates&#45;store.js</title>
<path fill="none" stroke="#757575" d="M789.067,-832.102C812.62,-833.685 838.51,-835.426 863.776,-837.125"/>
<polygon fill="#757575" stroke="#757575" points="863.586,-840.62 873.798,-837.798 864.055,-833.635 863.586,-840.62"/>
</g>
<!-- ../adapters/drivers/prometheus.js&#45;&gt;../adapters/Adapter.js -->
<g id="edge16" class="edge"><title>../adapters/drivers/prometheus.js&#45;&gt;../adapters/Adapter.js</title>
<path fill="none" stroke="#757575" d="M1088.39,-734.561C1106.84,-737.334 1126.09,-740.526 1144,-744.047 1160.18,-747.229 1163.98,-749.134 1180,-753.047 1196.28,-757.023 1213.94,-761.266 1230.21,-765.147"/>
<polygon fill="#757575" stroke="#757575" points="1229.6,-768.6 1240.14,-767.511 1231.22,-761.79 1229.6,-768.6"/>
</g>
<!-- ../adapters/drivers/prometheus.js&#45;&gt;../helpers/prometheus.js -->
<g id="edge17" class="edge"><title>../adapters/drivers/prometheus.js&#45;&gt;../helpers/prometheus.js</title>
<path fill="none" stroke="#757575" d="M1109.57,-713.871C1137.69,-711.548 1167.63,-709.075 1194.82,-706.828"/>
<polygon fill="#757575" stroke="#757575" points="1195.42,-710.29 1205.1,-705.979 1194.85,-703.314 1195.42,-710.29"/>
</g>
<!-- ../adapters/drivers/queue.js&#45;&gt;../adapters/Adapter.js -->
<g id="edge18" class="edge"><title>../adapters/drivers/queue.js&#45;&gt;../adapters/Adapter.js</title>
<path fill="none" stroke="#757575" d="M1091.55,-886.89C1110.07,-883.494 1128.54,-877.413 1144,-867.047 1170.47,-849.302 1154.43,-824.062 1180,-805.047 1187.45,-799.505 1195.91,-795.126 1204.75,-791.669"/>
<polygon fill="#757575" stroke="#757575" points="1206.18,-794.878 1214.46,-788.268 1203.86,-788.272 1206.18,-794.878"/>
</g>
<!-- ../adapters/drivers/queue.js&#45;&gt;../store/store&#45;manager.js -->
<g id="edge19" class="edge"><title>../adapters/drivers/queue.js&#45;&gt;../store/store&#45;manager.js</title>
<path fill="none" stroke="#757575" d="M1052.65,-898.548C1082.83,-907.382 1119.2,-922.382 1144,-947.047 1173.38,-976.269 1145.5,-1010.09 1180,-1033.05 1261.4,-1087.22 1305.77,-1059.15 1400,-1033.05 1437.79,-1022.58 1475.62,-996.697 1498.43,-978.994"/>
<polygon fill="#757575" stroke="#757575" points="1500.75,-981.62 1506.4,-972.659 1496.39,-976.14 1500.75,-981.62"/>
</g>
<!-- ../adapters/drivers/templates&#45;store.js&#45;&gt;../adapters/Adapter.js -->
<g id="edge20" class="edge"><title>../adapters/drivers/templates&#45;store.js&#45;&gt;../adapters/Adapter.js</title>
<path fill="none" stroke="#757575" d="M1113.86,-834.466C1124.18,-832.151 1134.36,-829.375 1144,-826.047 1161.51,-820.004 1162.81,-811.937 1180,-805.047 1191.61,-800.394 1204.27,-796.437 1216.71,-793.122"/>
<polygon fill="#757575" stroke="#757575" points="1217.8,-796.458 1226.62,-790.599 1216.07,-789.674 1217.8,-796.458"/>
</g>
<!-- ../adapters/drivers/templates&#45;store.js&#45;&gt;../store/store&#45;manager.js -->
<g id="edge21" class="edge"><title>../adapters/drivers/templates&#45;store.js&#45;&gt;../store/store&#45;manager.js</title>
<path fill="none" stroke="#757575" d="M1121.22,-852.651C1129.47,-856.352 1137.19,-861.073 1144,-867.047 1188.43,-906.014 1132.89,-959.362 1180,-995.047 1272.88,-1065.41 1423.38,-1007.78 1488.41,-977.149"/>
<polygon fill="#757575" stroke="#757575" points="1490.24,-980.155 1497.73,-972.666 1487.2,-973.847 1490.24,-980.155"/>
</g>
<!-- ../adapters/resources/k8s.js -->
<g id="node17" class="node"><title>../adapters/resources/k8s.js</title>
<path fill="none" stroke="#c6c5fe" d="M1085.33,-775.547C1085.33,-775.547 909.667,-775.547 909.667,-775.547 905.833,-775.547 902,-771.714 902,-767.881 902,-767.881 902,-760.214 902,-760.214 902,-756.381 905.833,-752.547 909.667,-752.547 909.667,-752.547 1085.33,-752.547 1085.33,-752.547 1089.17,-752.547 1093,-756.381 1093,-760.214 1093,-760.214 1093,-767.881 1093,-767.881 1093,-771.714 1089.17,-775.547 1085.33,-775.547"/>
<text text-anchor="middle" x="997.5" y="-760.347" font-family="Arial" font-size="14.00" fill="#c6c5fe">../adapters/resources/k8s.js</text>
</g>
<!-- ../adapters/resources/index.js&#45;&gt;../adapters/resources/k8s.js -->
<g id="edge25" class="edge"><title>../adapters/resources/index.js&#45;&gt;../adapters/resources/k8s.js</title>
<path fill="none" stroke="#757575" d="M799.72,-757.433C829.404,-758.431 861.946,-759.524 891.87,-760.53"/>
<polygon fill="#757575" stroke="#757575" points="891.797,-764.03 901.909,-760.868 892.033,-757.034 891.797,-764.03"/>
</g>
<!-- ../adapters/resources/k8s.js&#45;&gt;../adapters/Adapter.js -->
<g id="edge26" class="edge"><title>../adapters/resources/k8s.js&#45;&gt;../adapters/Adapter.js</title>
<path fill="none" stroke="#757575" d="M1093.22,-768.938C1128.93,-770.782 1169.31,-772.867 1204.07,-774.662"/>
<polygon fill="#757575" stroke="#757575" points="1204.03,-778.164 1214.19,-775.185 1204.39,-771.173 1204.03,-778.164"/>
</g>
<!-- ../adapters/settings.js -->
<g id="node18" class="node"><title>../adapters/settings.js</title>
<path fill="none" stroke="#cfffac" d="M283.333,-491.547C283.333,-491.547 147.667,-491.547 147.667,-491.547 143.833,-491.547 140,-487.714 140,-483.881 140,-483.881 140,-476.214 140,-476.214 140,-472.381 143.833,-468.547 147.667,-468.547 147.667,-468.547 283.333,-468.547 283.333,-468.547 287.167,-468.547 291,-472.381 291,-476.214 291,-476.214 291,-483.881 291,-483.881 291,-487.714 287.167,-491.547 283.333,-491.547"/>
<text text-anchor="middle" x="215.5" y="-476.347" font-family="Arial" font-size="14.00" fill="#cfffac">../adapters/settings.js</text>
</g>
<!-- ../allocators/ratios&#45;allocator.js -->
<g id="node19" class="node"><title>../allocators/ratios&#45;allocator.js</title>
<path fill="none" stroke="#cfffac" d="M1381.33,-163.547C1381.33,-163.547 1198.67,-163.547 1198.67,-163.547 1194.83,-163.547 1191,-159.714 1191,-155.881 1191,-155.881 1191,-148.214 1191,-148.214 1191,-144.381 1194.83,-140.547 1198.67,-140.547 1198.67,-140.547 1381.33,-140.547 1381.33,-140.547 1385.17,-140.547 1389,-144.381 1389,-148.214 1389,-148.214 1389,-155.881 1389,-155.881 1389,-159.714 1385.17,-163.547 1381.33,-163.547"/>
<text text-anchor="middle" x="1290" y="-148.347" font-family="Arial" font-size="14.00" fill="#cfffac">../allocators/ratios&#45;allocator.js</text>
</g>
<!-- ../allocators/resource&#45;allocator.js -->
<g id="node20" class="node"><title>../allocators/resource&#45;allocator.js</title>
<path fill="none" stroke="#cfffac" d="M1392.33,-243.547C1392.33,-243.547 1187.67,-243.547 1187.67,-243.547 1183.83,-243.547 1180,-239.714 1180,-235.881 1180,-235.881 1180,-228.214 1180,-228.214 1180,-224.381 1183.83,-220.547 1187.67,-220.547 1187.67,-220.547 1392.33,-220.547 1392.33,-220.547 1396.17,-220.547 1400,-224.381 1400,-228.214 1400,-228.214 1400,-235.881 1400,-235.881 1400,-239.714 1396.17,-243.547 1392.33,-243.547"/>
<text text-anchor="middle" x="1290" y="-228.347" font-family="Arial" font-size="14.00" fill="#cfffac">../allocators/resource&#45;allocator.js</text>
</g>
<!-- ../factory/metrics&#45;factory.js -->
<g id="node22" class="node"><title>../factory/metrics&#45;factory.js</title>
<path fill="none" stroke="#c6c5fe" d="M536.333,-468.547C536.333,-468.547 369.667,-468.547 369.667,-468.547 365.833,-468.547 362,-464.714 362,-460.881 362,-460.881 362,-453.214 362,-453.214 362,-449.381 365.833,-445.547 369.667,-445.547 369.667,-445.547 536.333,-445.547 536.333,-445.547 540.167,-445.547 544,-449.381 544,-453.214 544,-453.214 544,-460.881 544,-460.881 544,-464.714 540.167,-468.547 536.333,-468.547"/>
<text text-anchor="middle" x="453" y="-453.347" font-family="Arial" font-size="14.00" fill="#c6c5fe">../factory/metrics&#45;factory.js</text>
</g>
<!-- ../metrics/algorithms&#45;flat/index.js -->
<g id="node23" class="node"><title>../metrics/algorithms&#45;flat/index.js</title>
<path fill="none" stroke="#c6c5fe" d="M799.333,-468.547C799.333,-468.547 596.667,-468.547 596.667,-468.547 592.833,-468.547 589,-464.714 589,-460.881 589,-460.881 589,-453.214 589,-453.214 589,-449.381 592.833,-445.547 596.667,-445.547 596.667,-445.547 799.333,-445.547 799.333,-445.547 803.167,-445.547 807,-449.381 807,-453.214 807,-453.214 807,-460.881 807,-460.881 807,-464.714 803.167,-468.547 799.333,-468.547"/>
<text text-anchor="middle" x="698" y="-453.347" font-family="Arial" font-size="14.00" fill="#c6c5fe">../metrics/algorithms&#45;flat/index.js</text>
</g>
<!-- ../factory/metrics&#45;factory.js&#45;&gt;../metrics/algorithms&#45;flat/index.js -->
<g id="edge27" class="edge"><title>../factory/metrics&#45;factory.js&#45;&gt;../metrics/algorithms&#45;flat/index.js</title>
<path fill="none" stroke="#757575" d="M544.139,-457.047C555.421,-457.047 567.091,-457.047 578.722,-457.047"/>
<polygon fill="#757575" stroke="#757575" points="578.921,-460.547 588.921,-457.047 578.921,-453.547 578.921,-460.547"/>
</g>
<!-- ../metrics/algorithms&#45;map/index.js -->
<g id="node24" class="node"><title>../metrics/algorithms&#45;map/index.js</title>
<path fill="none" stroke="#c6c5fe" d="M803.833,-283.547C803.833,-283.547 592.167,-283.547 592.167,-283.547 588.333,-283.547 584.5,-279.714 584.5,-275.881 584.5,-275.881 584.5,-268.214 584.5,-268.214 584.5,-264.381 588.333,-260.547 592.167,-260.547 592.167,-260.547 803.833,-260.547 803.833,-260.547 807.667,-260.547 811.5,-264.381 811.5,-268.214 811.5,-268.214 811.5,-275.881 811.5,-275.881 811.5,-279.714 807.667,-283.547 803.833,-283.547"/>
<text text-anchor="middle" x="698" y="-268.347" font-family="Arial" font-size="14.00" fill="#c6c5fe">../metrics/algorithms&#45;map/index.js</text>
</g>
<!-- ../factory/metrics&#45;factory.js&#45;&gt;../metrics/algorithms&#45;map/index.js -->
<g id="edge28" class="edge"><title>../factory/metrics&#45;factory.js&#45;&gt;../metrics/algorithms&#45;map/index.js</title>
<path fill="none" stroke="#757575" d="M467.893,-445.468C491.038,-426.275 539.09,-386.832 581,-355.047 611.792,-331.694 648.151,-305.968 671.846,-289.441"/>
<polygon fill="#757575" stroke="#757575" points="674.059,-292.166 680.269,-283.582 670.061,-286.419 674.059,-292.166"/>
</g>
<!-- ../metrics/drivers&#45;flat/index.js -->
<g id="node25" class="node"><title>../metrics/drivers&#45;flat/index.js</title>
<path fill="none" stroke="#c6c5fe" d="M788.333,-550.547C788.333,-550.547 607.667,-550.547 607.667,-550.547 603.833,-550.547 600,-546.714 600,-542.881 600,-542.881 600,-535.214 600,-535.214 600,-531.381 603.833,-527.547 607.667,-527.547 607.667,-527.547 788.333,-527.547 788.333,-527.547 792.167,-527.547 796,-531.381 796,-535.214 796,-535.214 796,-542.881 796,-542.881 796,-546.714 792.167,-550.547 788.333,-550.547"/>
<text text-anchor="middle" x="698" y="-535.347" font-family="Arial" font-size="14.00" fill="#c6c5fe">../metrics/drivers&#45;flat/index.js</text>
</g>
<!-- ../factory/metrics&#45;factory.js&#45;&gt;../metrics/drivers&#45;flat/index.js -->
<g id="edge29" class="edge"><title>../factory/metrics&#45;factory.js&#45;&gt;../metrics/drivers&#45;flat/index.js</title>
<path fill="none" stroke="#757575" d="M488.301,-468.622C531.538,-483.212 605.913,-508.31 653.213,-524.271"/>
<polygon fill="#757575" stroke="#757575" points="652.28,-527.65 662.874,-527.531 654.518,-521.018 652.28,-527.65"/>
</g>
<!-- ../metrics/drivers&#45;map/index.js -->
<g id="node26" class="node"><title>../metrics/drivers&#45;map/index.js</title>
<path fill="none" stroke="#c6c5fe" d="M792.833,-386.547C792.833,-386.547 603.167,-386.547 603.167,-386.547 599.333,-386.547 595.5,-382.714 595.5,-378.881 595.5,-378.881 595.5,-371.214 595.5,-371.214 595.5,-367.381 599.333,-363.547 603.167,-363.547 603.167,-363.547 792.833,-363.547 792.833,-363.547 796.667,-363.547 800.5,-367.381 800.5,-371.214 800.5,-371.214 800.5,-378.881 800.5,-378.881 800.5,-382.714 796.667,-386.547 792.833,-386.547"/>
<text text-anchor="middle" x="698" y="-371.347" font-family="Arial" font-size="14.00" fill="#c6c5fe">../metrics/drivers&#45;map/index.js</text>
</g>
<!-- ../factory/metrics&#45;factory.js&#45;&gt;../metrics/drivers&#45;map/index.js -->
<g id="edge30" class="edge"><title>../factory/metrics&#45;factory.js&#45;&gt;../metrics/drivers&#45;map/index.js</title>
<path fill="none" stroke="#757575" d="M488.301,-445.473C531.538,-430.882 605.913,-405.784 653.213,-389.823"/>
<polygon fill="#757575" stroke="#757575" points="654.518,-393.077 662.874,-386.563 652.28,-386.444 654.518,-393.077"/>
</g>
<!-- ../metrics/algorithms&#45;flat/cpu&#45;usage.js -->
<g id="node36" class="node"><title>../metrics/algorithms&#45;flat/cpu&#45;usage.js</title>
<path fill="none" stroke="#c6c5fe" d="M1115.33,-447.547C1115.33,-447.547 879.667,-447.547 879.667,-447.547 875.833,-447.547 872,-443.714 872,-439.881 872,-439.881 872,-432.214 872,-432.214 872,-428.381 875.833,-424.547 879.667,-424.547 879.667,-424.547 1115.33,-424.547 1115.33,-424.547 1119.17,-424.547 1123,-428.381 1123,-432.214 1123,-432.214 1123,-439.881 1123,-439.881 1123,-443.714 1119.17,-447.547 1115.33,-447.547"/>
<text text-anchor="middle" x="997.5" y="-432.347" font-family="Arial" font-size="14.00" fill="#c6c5fe">../metrics/algorithms&#45;flat/cpu&#45;usage.js</text>
</g>
<!-- ../metrics/algorithms&#45;flat/index.js&#45;&gt;../metrics/algorithms&#45;flat/cpu&#45;usage.js -->
<g id="edge41" class="edge"><title>../metrics/algorithms&#45;flat/index.js&#45;&gt;../metrics/algorithms&#45;flat/cpu&#45;usage.js</title>
<path fill="none" stroke="#757575" d="M807.246,-449.406C824.979,-448.155 843.542,-446.844 861.82,-445.554"/>
<polygon fill="#757575" stroke="#757575" points="862.21,-449.035 871.938,-444.84 861.717,-442.053 862.21,-449.035"/>
</g>
<!-- ../metrics/algorithms&#45;flat/queue.js -->
<g id="node38" class="node"><title>../metrics/algorithms&#45;flat/queue.js</title>
<path fill="none" stroke="#c6c5fe" d="M1101.83,-529.547C1101.83,-529.547 893.167,-529.547 893.167,-529.547 889.333,-529.547 885.5,-525.714 885.5,-521.881 885.5,-521.881 885.5,-514.214 885.5,-514.214 885.5,-510.381 889.333,-506.547 893.167,-506.547 893.167,-506.547 1101.83,-506.547 1101.83,-506.547 1105.67,-506.547 1109.5,-510.381 1109.5,-514.214 1109.5,-514.214 1109.5,-521.881 1109.5,-521.881 1109.5,-525.714 1105.67,-529.547 1101.83,-529.547"/>
<text text-anchor="middle" x="997.5" y="-514.347" font-family="Arial" font-size="14.00" fill="#c6c5fe">../metrics/algorithms&#45;flat/queue.js</text>
</g>
<!-- ../metrics/algorithms&#45;flat/index.js&#45;&gt;../metrics/algorithms&#45;flat/queue.js -->
<g id="edge42" class="edge"><title>../metrics/algorithms&#45;flat/index.js&#45;&gt;../metrics/algorithms&#45;flat/queue.js</title>
<path fill="none" stroke="#757575" d="M736.475,-468.582C767.048,-477.646 811.489,-490.037 851,-498.047 863.546,-500.591 876.766,-502.906 889.915,-504.984"/>
<polygon fill="#757575" stroke="#757575" points="889.527,-508.466 899.943,-506.527 890.591,-501.547 889.527,-508.466"/>
</g>
<!-- ../metrics/algorithms&#45;flat/run&#45;time.js -->
<g id="node39" class="node"><title>../metrics/algorithms&#45;flat/run&#45;time.js</title>
<path fill="none" stroke="#c6c5fe" d="M1107.83,-406.547C1107.83,-406.547 887.167,-406.547 887.167,-406.547 883.333,-406.547 879.5,-402.714 879.5,-398.881 879.5,-398.881 879.5,-391.214 879.5,-391.214 879.5,-387.381 883.333,-383.547 887.167,-383.547 887.167,-383.547 1107.83,-383.547 1107.83,-383.547 1111.67,-383.547 1115.5,-387.381 1115.5,-391.214 1115.5,-391.214 1115.5,-398.881 1115.5,-398.881 1115.5,-402.714 1111.67,-406.547 1107.83,-406.547"/>
<text text-anchor="middle" x="997.5" y="-391.347" font-family="Arial" font-size="14.00" fill="#c6c5fe">../metrics/algorithms&#45;flat/run&#45;time.js</text>
</g>
<!-- ../metrics/algorithms&#45;flat/index.js&#45;&gt;../metrics/algorithms&#45;flat/run&#45;time.js -->
<g id="edge43" class="edge"><title>../metrics/algorithms&#45;flat/index.js&#45;&gt;../metrics/algorithms&#45;flat/run&#45;time.js</title>
<path fill="none" stroke="#757575" d="M736.801,-445.492C767.373,-436.477 811.65,-424.163 851,-416.047 865.013,-413.157 879.867,-410.525 894.521,-408.178"/>
<polygon fill="#757575" stroke="#757575" points="895.282,-411.601 904.621,-406.598 894.2,-404.686 895.282,-411.601"/>
</g>
<!-- ../metrics/algorithms&#45;flat/templates&#45;store.js -->
<g id="node40" class="node"><title>../metrics/algorithms&#45;flat/templates&#45;store.js</title>
<path fill="none" stroke="#c6c5fe" d="M1131.83,-488.547C1131.83,-488.547 863.167,-488.547 863.167,-488.547 859.333,-488.547 855.5,-484.714 855.5,-480.881 855.5,-480.881 855.5,-473.214 855.5,-473.214 855.5,-469.381 859.333,-465.547 863.167,-465.547 863.167,-465.547 1131.83,-465.547 1131.83,-465.547 1135.67,-465.547 1139.5,-469.381 1139.5,-473.214 1139.5,-473.214 1139.5,-480.881 1139.5,-480.881 1139.5,-484.714 1135.67,-488.547 1131.83,-488.547"/>
<text text-anchor="middle" x="997.5" y="-473.347" font-family="Arial" font-size="14.00" fill="#c6c5fe">../metrics/algorithms&#45;flat/templates&#45;store.js</text>
</g>
<!-- ../metrics/algorithms&#45;flat/index.js&#45;&gt;../metrics/algorithms&#45;flat/templates&#45;store.js -->
<g id="edge44" class="edge"><title>../metrics/algorithms&#45;flat/index.js&#45;&gt;../metrics/algorithms&#45;flat/templates&#45;store.js</title>
<path fill="none" stroke="#757575" d="M807.246,-464.324C819.569,-465.153 832.293,-466.008 845.044,-466.865"/>
<polygon fill="#757575" stroke="#757575" points="845.056,-470.374 855.268,-467.553 845.525,-463.39 845.056,-470.374"/>
</g>
<!-- ../metrics/algorithms&#45;map/cpu&#45;usage.js -->
<g id="node41" class="node"><title>../metrics/algorithms&#45;map/cpu&#45;usage.js</title>
<path fill="none" stroke="#c6c5fe" d="M1119.83,-201.547C1119.83,-201.547 875.167,-201.547 875.167,-201.547 871.333,-201.547 867.5,-197.714 867.5,-193.881 867.5,-193.881 867.5,-186.214 867.5,-186.214 867.5,-182.381 871.333,-178.547 875.167,-178.547 875.167,-178.547 1119.83,-178.547 1119.83,-178.547 1123.67,-178.547 1127.5,-182.381 1127.5,-186.214 1127.5,-186.214 1127.5,-193.881 1127.5,-193.881 1127.5,-197.714 1123.67,-201.547 1119.83,-201.547"/>
<text text-anchor="middle" x="997.5" y="-186.347" font-family="Arial" font-size="14.00" fill="#c6c5fe">../metrics/algorithms&#45;map/cpu&#45;usage.js</text>
</g>
<!-- ../metrics/algorithms&#45;map/index.js&#45;&gt;../metrics/algorithms&#45;map/cpu&#45;usage.js -->
<g id="edge59" class="edge"><title>../metrics/algorithms&#45;map/index.js&#45;&gt;../metrics/algorithms&#45;map/cpu&#45;usage.js</title>
<path fill="none" stroke="#757575" d="M726.627,-260.544C766.951,-243.819 838.505,-214.404 851,-211.047 861.771,-208.153 873.104,-205.635 884.494,-203.449"/>
<polygon fill="#757575" stroke="#757575" points="885.301,-206.86 894.506,-201.613 884.038,-199.975 885.301,-206.86"/>
</g>
<!-- ../metrics/algorithms&#45;map/queue.js -->
<g id="node42" class="node"><title>../metrics/algorithms&#45;map/queue.js</title>
<path fill="none" stroke="#c6c5fe" d="M1106.33,-324.547C1106.33,-324.547 888.667,-324.547 888.667,-324.547 884.833,-324.547 881,-320.714 881,-316.881 881,-316.881 881,-309.214 881,-309.214 881,-305.381 884.833,-301.547 888.667,-301.547 888.667,-301.547 1106.33,-301.547 1106.33,-301.547 1110.17,-301.547 1114,-305.381 1114,-309.214 1114,-309.214 1114,-316.881 1114,-316.881 1114,-320.714 1110.17,-324.547 1106.33,-324.547"/>
<text text-anchor="middle" x="997.5" y="-309.347" font-family="Arial" font-size="14.00" fill="#c6c5fe">../metrics/algorithms&#45;map/queue.js</text>
</g>
<!-- ../metrics/algorithms&#45;map/index.js&#45;&gt;../metrics/algorithms&#45;map/queue.js -->
<g id="edge60" class="edge"><title>../metrics/algorithms&#45;map/index.js&#45;&gt;../metrics/algorithms&#45;map/queue.js</title>
<path fill="none" stroke="#757575" d="M782.227,-283.556C804.561,-286.642 828.7,-289.974 851,-293.047 867.681,-295.346 885.438,-297.79 902.606,-300.15"/>
<polygon fill="#757575" stroke="#757575" points="902.25,-303.634 912.634,-301.529 903.204,-296.7 902.25,-303.634"/>
</g>
<!-- ../metrics/algorithms&#45;map/run&#45;time.js -->
<g id="node43" class="node"><title>../metrics/algorithms&#45;map/run&#45;time.js</title>
<path fill="none" stroke="#c6c5fe" d="M1112.33,-242.547C1112.33,-242.547 882.667,-242.547 882.667,-242.547 878.833,-242.547 875,-238.714 875,-234.881 875,-234.881 875,-227.214 875,-227.214 875,-223.381 878.833,-219.547 882.667,-219.547 882.667,-219.547 1112.33,-219.547 1112.33,-219.547 1116.17,-219.547 1120,-223.381 1120,-227.214 1120,-227.214 1120,-234.881 1120,-234.881 1120,-238.714 1116.17,-242.547 1112.33,-242.547"/>
<text text-anchor="middle" x="997.5" y="-227.347" font-family="Arial" font-size="14.00" fill="#c6c5fe">../metrics/algorithms&#45;map/run&#45;time.js</text>
</g>
<!-- ../metrics/algorithms&#45;map/index.js&#45;&gt;../metrics/algorithms&#45;map/run&#45;time.js -->
<g id="edge61" class="edge"><title>../metrics/algorithms&#45;map/index.js&#45;&gt;../metrics/algorithms&#45;map/run&#45;time.js</title>
<path fill="none" stroke="#757575" d="M782.662,-260.517C820.052,-255.364 864.276,-249.27 902.776,-243.964"/>
<polygon fill="#757575" stroke="#757575" points="903.522,-247.394 912.951,-242.562 902.567,-240.46 903.522,-247.394"/>
</g>
<!-- ../metrics/algorithms&#45;map/templates&#45;store.js -->
<g id="node44" class="node"><title>../metrics/algorithms&#45;map/templates&#45;store.js</title>
<path fill="none" stroke="#c6c5fe" d="M1136.33,-283.547C1136.33,-283.547 858.667,-283.547 858.667,-283.547 854.833,-283.547 851,-279.714 851,-275.881 851,-275.881 851,-268.214 851,-268.214 851,-264.381 854.833,-260.547 858.667,-260.547 858.667,-260.547 1136.33,-260.547 1136.33,-260.547 1140.17,-260.547 1144,-264.381 1144,-268.214 1144,-268.214 1144,-275.881 1144,-275.881 1144,-279.714 1140.17,-283.547 1136.33,-283.547"/>
<text text-anchor="middle" x="997.5" y="-268.347" font-family="Arial" font-size="14.00" fill="#c6c5fe">../metrics/algorithms&#45;map/templates&#45;store.js</text>
</g>
<!-- ../metrics/algorithms&#45;map/index.js&#45;&gt;../metrics/algorithms&#45;map/templates&#45;store.js -->
<g id="edge62" class="edge"><title>../metrics/algorithms&#45;map/index.js&#45;&gt;../metrics/algorithms&#45;map/templates&#45;store.js</title>
<path fill="none" stroke="#757575" d="M811.896,-272.047C821.351,-272.047 831.011,-272.047 840.712,-272.047"/>
<polygon fill="#757575" stroke="#757575" points="840.828,-275.547 850.828,-272.047 840.828,-268.547 840.828,-275.547"/>
</g>
<!-- ../metrics/drivers&#45;flat/queue.js -->
<g id="node45" class="node"><title>../metrics/drivers&#45;flat/queue.js</title>
<path fill="none" stroke="#c6c5fe" d="M1090.83,-570.547C1090.83,-570.547 904.167,-570.547 904.167,-570.547 900.333,-570.547 896.5,-566.714 896.5,-562.881 896.5,-562.881 896.5,-555.214 896.5,-555.214 896.5,-551.381 900.333,-547.547 904.167,-547.547 904.167,-547.547 1090.83,-547.547 1090.83,-547.547 1094.67,-547.547 1098.5,-551.381 1098.5,-555.214 1098.5,-555.214 1098.5,-562.881 1098.5,-562.881 1098.5,-566.714 1094.67,-570.547 1090.83,-570.547"/>
<text text-anchor="middle" x="997.5" y="-555.347" font-family="Arial" font-size="14.00" fill="#c6c5fe">../metrics/drivers&#45;flat/queue.js</text>
</g>
<!-- ../metrics/drivers&#45;flat/index.js&#45;&gt;../metrics/drivers&#45;flat/queue.js -->
<g id="edge76" class="edge"><title>../metrics/drivers&#45;flat/index.js&#45;&gt;../metrics/drivers&#45;flat/queue.js</title>
<path fill="none" stroke="#757575" d="M796.001,-545.568C824.744,-547.501 856.432,-549.631 885.965,-551.616"/>
<polygon fill="#757575" stroke="#757575" points="886.1,-555.133 896.313,-552.312 886.57,-548.149 886.1,-555.133"/>
</g>
<!-- ../metrics/drivers&#45;map/queue.js -->
<g id="node46" class="node"><title>../metrics/drivers&#45;map/queue.js</title>
<path fill="none" stroke="#c6c5fe" d="M1095.33,-365.547C1095.33,-365.547 899.667,-365.547 899.667,-365.547 895.833,-365.547 892,-361.714 892,-357.881 892,-357.881 892,-350.214 892,-350.214 892,-346.381 895.833,-342.547 899.667,-342.547 899.667,-342.547 1095.33,-342.547 1095.33,-342.547 1099.17,-342.547 1103,-346.381 1103,-350.214 1103,-350.214 1103,-357.881 1103,-357.881 1103,-361.714 1099.17,-365.547 1095.33,-365.547"/>
<text text-anchor="middle" x="997.5" y="-350.347" font-family="Arial" font-size="14.00" fill="#c6c5fe">../metrics/drivers&#45;map/queue.js</text>
</g>
<!-- ../metrics/drivers&#45;map/index.js&#45;&gt;../metrics/drivers&#45;map/queue.js -->
<g id="edge80" class="edge"><title>../metrics/drivers&#45;map/index.js&#45;&gt;../metrics/drivers&#45;map/queue.js</title>
<path fill="none" stroke="#757575" d="M800.551,-367.879C826.671,-366.035 854.957,-364.038 881.698,-362.151"/>
<polygon fill="#757575" stroke="#757575" points="882.134,-365.629 891.863,-361.433 881.641,-358.646 882.134,-365.629"/>
</g>
<!-- ../factory/reducer&#45;factory.js -->
<g id="node27" class="node"><title>../factory/reducer&#45;factory.js</title>
<path fill="none" stroke="#c6c5fe" d="M537.333,-214.547C537.333,-214.547 368.667,-214.547 368.667,-214.547 364.833,-214.547 361,-210.714 361,-206.881 361,-206.881 361,-199.214 361,-199.214 361,-195.381 364.833,-191.547 368.667,-191.547 368.667,-191.547 537.333,-191.547 537.333,-191.547 541.167,-191.547 545,-195.381 545,-199.214 545,-199.214 545,-206.881 545,-206.881 545,-210.714 541.167,-214.547 537.333,-214.547"/>
<text text-anchor="middle" x="453" y="-199.347" font-family="Arial" font-size="14.00" fill="#c6c5fe">../factory/reducer&#45;factory.js</text>
</g>
<!-- ../reducers/metrics&#45;reducer&#45;flat.js -->
<g id="node28" class="node"><title>../reducers/metrics&#45;reducer&#45;flat.js</title>
<path fill="none" stroke="#cfffac" d="M802.833,-214.547C802.833,-214.547 593.167,-214.547 593.167,-214.547 589.333,-214.547 585.5,-210.714 585.5,-206.881 585.5,-206.881 585.5,-199.214 585.5,-199.214 585.5,-195.381 589.333,-191.547 593.167,-191.547 593.167,-191.547 802.833,-191.547 802.833,-191.547 806.667,-191.547 810.5,-195.381 810.5,-199.214 810.5,-199.214 810.5,-206.881 810.5,-206.881 810.5,-210.714 806.667,-214.547 802.833,-214.547"/>
<text text-anchor="middle" x="698" y="-199.347" font-family="Arial" font-size="14.00" fill="#cfffac">../reducers/metrics&#45;reducer&#45;flat.js</text>
</g>
<!-- ../factory/reducer&#45;factory.js&#45;&gt;../reducers/metrics&#45;reducer&#45;flat.js -->
<g id="edge31" class="edge"><title>../factory/reducer&#45;factory.js&#45;&gt;../reducers/metrics&#45;reducer&#45;flat.js</title>
<path fill="none" stroke="#757575" d="M545.176,-203.047C554.973,-203.047 565.051,-203.047 575.133,-203.047"/>
<polygon fill="#757575" stroke="#757575" points="575.206,-206.547 585.206,-203.047 575.206,-199.547 575.206,-206.547"/>
</g>
<!-- ../reducers/metrics&#45;reducer&#45;map.js -->
<g id="node29" class="node"><title>../reducers/metrics&#45;reducer&#45;map.js</title>
<path fill="none" stroke="#c6c5fe" d="M807.333,-116.547C807.333,-116.547 588.667,-116.547 588.667,-116.547 584.833,-116.547 581,-112.714 581,-108.881 581,-108.881 581,-101.214 581,-101.214 581,-97.3805 584.833,-93.5472 588.667,-93.5472 588.667,-93.5472 807.333,-93.5472 807.333,-93.5472 811.167,-93.5472 815,-97.3805 815,-101.214 815,-101.214 815,-108.881 815,-108.881 815,-112.714 811.167,-116.547 807.333,-116.547"/>
<text text-anchor="middle" x="698" y="-101.347" font-family="Arial" font-size="14.00" fill="#c6c5fe">../reducers/metrics&#45;reducer&#45;map.js</text>
</g>
<!-- ../factory/reducer&#45;factory.js&#45;&gt;../reducers/metrics&#45;reducer&#45;map.js -->
<g id="edge32" class="edge"><title>../factory/reducer&#45;factory.js&#45;&gt;../reducers/metrics&#45;reducer&#45;map.js</title>
<path fill="none" stroke="#757575" d="M482.83,-191.42C526.583,-173.775 609.81,-140.21 658.632,-120.521"/>
<polygon fill="#757575" stroke="#757575" points="660.243,-123.645 668.208,-116.659 657.625,-117.153 660.243,-123.645"/>
</g>
<!-- ../reducers/metrics&#45;reducer&#45;map.js&#45;&gt;../utils/utils.js -->
<g id="edge89" class="edge"><title>../reducers/metrics&#45;reducer&#45;map.js&#45;&gt;../utils/utils.js</title>
<path fill="none" stroke="#757575" d="M771.555,-93.5141C929.98,-69.9547 1300.63,-24.1583 1400,-94.0472 1505.57,-168.292 1518.72,-344.645 1520.01,-406.308"/>
<polygon fill="#757575" stroke="#757575" points="1516.51,-406.48 1520.13,-416.437 1523.51,-406.395 1516.51,-406.48"/>
</g>
<!-- ../factory/store&#45;factory.js -->
<g id="node30" class="node"><title>../factory/store&#45;factory.js</title>
<path fill="none" stroke="#c6c5fe" d="M773.833,-1019.55C773.833,-1019.55 622.167,-1019.55 622.167,-1019.55 618.333,-1019.55 614.5,-1015.71 614.5,-1011.88 614.5,-1011.88 614.5,-1004.21 614.5,-1004.21 614.5,-1000.38 618.333,-996.547 622.167,-996.547 622.167,-996.547 773.833,-996.547 773.833,-996.547 777.667,-996.547 781.5,-1000.38 781.5,-1004.21 781.5,-1004.21 781.5,-1011.88 781.5,-1011.88 781.5,-1015.71 777.667,-1019.55 773.833,-1019.55"/>
<text text-anchor="middle" x="698" y="-1004.35" font-family="Arial" font-size="14.00" fill="#c6c5fe">../factory/store&#45;factory.js</text>
</g>
<!-- ../store/algorithms&#45;flat/index.js -->
<g id="node31" class="node"><title>../store/algorithms&#45;flat/index.js</title>
<path fill="none" stroke="#c6c5fe" d="M1091.83,-1019.55C1091.83,-1019.55 903.167,-1019.55 903.167,-1019.55 899.333,-1019.55 895.5,-1015.71 895.5,-1011.88 895.5,-1011.88 895.5,-1004.21 895.5,-1004.21 895.5,-1000.38 899.333,-996.547 903.167,-996.547 903.167,-996.547 1091.83,-996.547 1091.83,-996.547 1095.67,-996.547 1099.5,-1000.38 1099.5,-1004.21 1099.5,-1004.21 1099.5,-1011.88 1099.5,-1011.88 1099.5,-1015.71 1095.67,-1019.55 1091.83,-1019.55"/>
<text text-anchor="middle" x="997.5" y="-1004.35" font-family="Arial" font-size="14.00" fill="#c6c5fe">../store/algorithms&#45;flat/index.js</text>
</g>
<!-- ../factory/store&#45;factory.js&#45;&gt;../store/algorithms&#45;flat/index.js -->
<g id="edge33" class="edge"><title>../factory/store&#45;factory.js&#45;&gt;../store/algorithms&#45;flat/index.js</title>
<path fill="none" stroke="#757575" d="M781.87,-1008.05C813.871,-1008.05 850.969,-1008.05 885.23,-1008.05"/>
<polygon fill="#757575" stroke="#757575" points="885.285,-1011.55 895.285,-1008.05 885.285,-1004.55 885.285,-1011.55"/>
</g>
<!-- ../store/algorithms&#45;map/index.js -->
<g id="node32" class="node"><title>../store/algorithms&#45;map/index.js</title>
<path fill="none" stroke="#c6c5fe" d="M1096.33,-1060.55C1096.33,-1060.55 898.667,-1060.55 898.667,-1060.55 894.833,-1060.55 891,-1056.71 891,-1052.88 891,-1052.88 891,-1045.21 891,-1045.21 891,-1041.38 894.833,-1037.55 898.667,-1037.55 898.667,-1037.55 1096.33,-1037.55 1096.33,-1037.55 1100.17,-1037.55 1104,-1041.38 1104,-1045.21 1104,-1045.21 1104,-1052.88 1104,-1052.88 1104,-1056.71 1100.17,-1060.55 1096.33,-1060.55"/>
<text text-anchor="middle" x="997.5" y="-1045.35" font-family="Arial" font-size="14.00" fill="#c6c5fe">../store/algorithms&#45;map/index.js</text>
</g>
<!-- ../factory/store&#45;factory.js&#45;&gt;../store/algorithms&#45;map/index.js -->
<g id="edge34" class="edge"><title>../factory/store&#45;factory.js&#45;&gt;../store/algorithms&#45;map/index.js</title>
<path fill="none" stroke="#757575" d="M781.83,-1019.5C804.276,-1022.6 828.568,-1025.96 851,-1029.05 867.681,-1031.35 885.438,-1033.79 902.606,-1036.15"/>
<polygon fill="#757575" stroke="#757575" points="902.25,-1039.63 912.634,-1037.53 903.204,-1032.7 902.25,-1039.63"/>
</g>
<!-- ../store/drivers&#45;flat/index.js -->
<g id="node33" class="node"><title>../store/drivers&#45;flat/index.js</title>
<path fill="none" stroke="#c6c5fe" d="M1080.83,-978.547C1080.83,-978.547 914.167,-978.547 914.167,-978.547 910.333,-978.547 906.5,-974.714 906.5,-970.881 906.5,-970.881 906.5,-963.214 906.5,-963.214 906.5,-959.381 910.333,-955.547 914.167,-955.547 914.167,-955.547 1080.83,-955.547 1080.83,-955.547 1084.67,-955.547 1088.5,-959.381 1088.5,-963.214 1088.5,-963.214 1088.5,-970.881 1088.5,-970.881 1088.5,-974.714 1084.67,-978.547 1080.83,-978.547"/>
<text text-anchor="middle" x="997.5" y="-963.347" font-family="Arial" font-size="14.00" fill="#c6c5fe">../store/drivers&#45;flat/index.js</text>
</g>
<!-- ../factory/store&#45;factory.js&#45;&gt;../store/drivers&#45;flat/index.js -->
<g id="edge35" class="edge"><title>../factory/store&#45;factory.js&#45;&gt;../store/drivers&#45;flat/index.js</title>
<path fill="none" stroke="#757575" d="M781.87,-996.626C819.433,-991.45 864.019,-985.305 902.795,-979.961"/>
<polygon fill="#757575" stroke="#757575" points="903.614,-983.381 913.042,-978.549 902.658,-976.447 903.614,-983.381"/>
</g>
<!-- ../store/drivers&#45;map/index.js -->
<g id="node34" class="node"><title>../store/drivers&#45;map/index.js</title>
<path fill="none" stroke="#c6c5fe" d="M1085.33,-1105.55C1085.33,-1105.55 909.667,-1105.55 909.667,-1105.55 905.833,-1105.55 902,-1101.71 902,-1097.88 902,-1097.88 902,-1090.21 902,-1090.21 902,-1086.38 905.833,-1082.55 909.667,-1082.55 909.667,-1082.55 1085.33,-1082.55 1085.33,-1082.55 1089.17,-1082.55 1093,-1086.38 1093,-1090.21 1093,-1090.21 1093,-1097.88 1093,-1097.88 1093,-1101.71 1089.17,-1105.55 1085.33,-1105.55"/>
<text text-anchor="middle" x="997.5" y="-1090.35" font-family="Arial" font-size="14.00" fill="#c6c5fe">../store/drivers&#45;map/index.js</text>
</g>
<!-- ../factory/store&#45;factory.js&#45;&gt;../store/drivers&#45;map/index.js -->
<g id="edge36" class="edge"><title>../factory/store&#45;factory.js&#45;&gt;../store/drivers&#45;map/index.js</title>
<path fill="none" stroke="#757575" d="M722.633,-1019.63C752.037,-1033.58 804.102,-1056.8 851,-1070.05 865.652,-1074.19 881.349,-1077.7 896.815,-1080.65"/>
<polygon fill="#757575" stroke="#757575" points="896.463,-1084.15 906.931,-1082.51 897.729,-1077.26 896.463,-1084.15"/>
</g>
<!-- ../store/algorithms&#45;flat/store.js -->
<g id="node49" class="node"><title>../store/algorithms&#45;flat/store.js</title>
<path fill="none" stroke="#c6c5fe" d="M1383.83,-911.547C1383.83,-911.547 1196.17,-911.547 1196.17,-911.547 1192.33,-911.547 1188.5,-907.714 1188.5,-903.881 1188.5,-903.881 1188.5,-896.214 1188.5,-896.214 1188.5,-892.381 1192.33,-888.547 1196.17,-888.547 1196.17,-888.547 1383.83,-888.547 1383.83,-888.547 1387.67,-888.547 1391.5,-892.381 1391.5,-896.214 1391.5,-896.214 1391.5,-903.881 1391.5,-903.881 1391.5,-907.714 1387.67,-911.547 1383.83,-911.547"/>
<text text-anchor="middle" x="1290" y="-896.347" font-family="Arial" font-size="14.00" fill="#c6c5fe">../store/algorithms&#45;flat/store.js</text>
</g>
<!-- ../store/algorithms&#45;flat/index.js&#45;&gt;../store/algorithms&#45;flat/store.js -->
<g id="edge90" class="edge"><title>../store/algorithms&#45;flat/index.js&#45;&gt;../store/algorithms&#45;flat/store.js</title>
<path fill="none" stroke="#757575" d="M1099.79,-1006.63C1115.54,-1002.98 1130.91,-997.14 1144,-988.047 1171.76,-968.76 1152.77,-941.073 1180,-921.047 1182.37,-919.308 1184.84,-917.701 1187.39,-916.218"/>
<polygon fill="#757575" stroke="#757575" points="1189.05,-919.3 1196.36,-911.633 1185.86,-913.066 1189.05,-919.3"/>
</g>
<!-- ../store/algorithms&#45;map/store.js -->
<g id="node50" class="node"><title>../store/algorithms&#45;map/store.js</title>
<path fill="none" stroke="#c6c5fe" d="M1388.33,-952.547C1388.33,-952.547 1191.67,-952.547 1191.67,-952.547 1187.83,-952.547 1184,-948.714 1184,-944.881 1184,-944.881 1184,-937.214 1184,-937.214 1184,-933.381 1187.83,-929.547 1191.67,-929.547 1191.67,-929.547 1388.33,-929.547 1388.33,-929.547 1392.17,-929.547 1396,-933.381 1396,-937.214 1396,-937.214 1396,-944.881 1396,-944.881 1396,-948.714 1392.17,-952.547 1388.33,-952.547"/>
<text text-anchor="middle" x="1290" y="-937.347" font-family="Arial" font-size="14.00" fill="#c6c5fe">../store/algorithms&#45;map/store.js</text>
</g>
<!-- ../store/algorithms&#45;map/index.js&#45;&gt;../store/algorithms&#45;map/store.js -->
<g id="edge94" class="edge"><title>../store/algorithms&#45;map/index.js&#45;&gt;../store/algorithms&#45;map/store.js</title>
<path fill="none" stroke="#757575" d="M1104.24,-1039.71C1117.82,-1037.01 1131.38,-1033.52 1144,-1029.05 1190.83,-1012.43 1238.92,-979.485 1266.27,-958.958"/>
<polygon fill="#757575" stroke="#757575" points="1268.56,-961.612 1274.39,-952.766 1264.31,-956.046 1268.56,-961.612"/>
</g>
<!-- ../store/drivers&#45;flat/store.js -->
<g id="node51" class="node"><title>../store/drivers&#45;flat/store.js</title>
<path fill="none" stroke="#c6c5fe" d="M1372.33,-870.547C1372.33,-870.547 1207.67,-870.547 1207.67,-870.547 1203.83,-870.547 1200,-866.714 1200,-862.881 1200,-862.881 1200,-855.214 1200,-855.214 1200,-851.381 1203.83,-847.547 1207.67,-847.547 1207.67,-847.547 1372.33,-847.547 1372.33,-847.547 1376.17,-847.547 1380,-851.381 1380,-855.214 1380,-855.214 1380,-862.881 1380,-862.881 1380,-866.714 1376.17,-870.547 1372.33,-870.547"/>
<text text-anchor="middle" x="1290" y="-855.347" font-family="Arial" font-size="14.00" fill="#c6c5fe">../store/drivers&#45;flat/store.js</text>
</g>
<!-- ../store/drivers&#45;flat/index.js&#45;&gt;../store/drivers&#45;flat/store.js -->
<g id="edge97" class="edge"><title>../store/drivers&#45;flat/index.js&#45;&gt;../store/drivers&#45;flat/store.js</title>
<path fill="none" stroke="#757575" d="M1088.63,-963.225C1108.15,-959.166 1127.77,-952.321 1144,-941.047 1169.85,-923.085 1154.27,-898.184 1180,-880.047 1183.32,-877.709 1186.82,-875.614 1190.47,-873.737"/>
<polygon fill="#757575" stroke="#757575" points="1192.13,-876.829 1199.79,-869.508 1189.23,-870.455 1192.13,-876.829"/>
</g>
<!-- ../store/drivers&#45;map/store.js -->
<g id="node52" class="node"><title>../store/drivers&#45;map/store.js</title>
<path fill="none" stroke="#c6c5fe" d="M1376.83,-1108.55C1376.83,-1108.55 1203.17,-1108.55 1203.17,-1108.55 1199.33,-1108.55 1195.5,-1104.71 1195.5,-1100.88 1195.5,-1100.88 1195.5,-1093.21 1195.5,-1093.21 1195.5,-1089.38 1199.33,-1085.55 1203.17,-1085.55 1203.17,-1085.55 1376.83,-1085.55 1376.83,-1085.55 1380.67,-1085.55 1384.5,-1089.38 1384.5,-1093.21 1384.5,-1093.21 1384.5,-1100.88 1384.5,-1100.88 1384.5,-1104.71 1380.67,-1108.55 1376.83,-1108.55"/>
<text text-anchor="middle" x="1290" y="-1093.35" font-family="Arial" font-size="14.00" fill="#c6c5fe">../store/drivers&#45;map/store.js</text>
</g>
<!-- ../store/drivers&#45;map/index.js&#45;&gt;../store/drivers&#45;map/store.js -->
<g id="edge101" class="edge"><title>../store/drivers&#45;map/index.js&#45;&gt;../store/drivers&#45;map/store.js</title>
<path fill="none" stroke="#757575" d="M1093.22,-1095.03C1122.67,-1095.33 1155.29,-1095.67 1185.32,-1095.98"/>
<polygon fill="#757575" stroke="#757575" points="1185.37,-1099.48 1195.4,-1096.08 1185.44,-1092.48 1185.37,-1099.48"/>
</g>
<!-- ../metrics/Metric.js -->
<g id="node35" class="node"><title>../metrics/Metric.js</title>
<path fill="none" stroke="#cfffac" d="M1347.83,-440.547C1347.83,-440.547 1232.17,-440.547 1232.17,-440.547 1228.33,-440.547 1224.5,-436.714 1224.5,-432.881 1224.5,-432.881 1224.5,-425.214 1224.5,-425.214 1224.5,-421.381 1228.33,-417.547 1232.17,-417.547 1232.17,-417.547 1347.83,-417.547 1347.83,-417.547 1351.67,-417.547 1355.5,-421.381 1355.5,-425.214 1355.5,-425.214 1355.5,-432.881 1355.5,-432.881 1355.5,-436.714 1351.67,-440.547 1347.83,-440.547"/>
<text text-anchor="middle" x="1290" y="-425.347" font-family="Arial" font-size="14.00" fill="#cfffac">../metrics/Metric.js</text>
</g>
<!-- ../metrics/algorithms&#45;flat/cpu&#45;usage.js&#45;&gt;../utils/utils.js -->
<g id="edge40" class="edge"><title>../metrics/algorithms&#45;flat/cpu&#45;usage.js&#45;&gt;../utils/utils.js</title>
<path fill="none" stroke="#757575" d="M1114.62,-447.59C1124.73,-450.153 1134.65,-453.267 1144,-457.047 1162.3,-464.449 1161.22,-476.975 1180,-483.047 1273.03,-513.13 1304.47,-503.896 1400,-483.047 1433.6,-475.713 1469.05,-458.076 1492.63,-444.736"/>
<polygon fill="#757575" stroke="#757575" points="1494.46,-447.723 1501.36,-439.685 1490.95,-441.663 1494.46,-447.723"/>
</g>
<!-- ../metrics/algorithms&#45;flat/cpu&#45;usage.js&#45;&gt;../metrics/Metric.js -->
<g id="edge38" class="edge"><title>../metrics/algorithms&#45;flat/cpu&#45;usage.js&#45;&gt;../metrics/Metric.js</title>
<path fill="none" stroke="#757575" d="M1123.38,-433.038C1154.2,-432.295 1186.27,-431.523 1213.88,-430.857"/>
<polygon fill="#757575" stroke="#757575" points="1214.32,-434.348 1224.24,-430.608 1214.15,-427.35 1214.32,-434.348"/>
</g>
<!-- ../utils/queue.js -->
<g id="node37" class="node"><title>../utils/queue.js</title>
<path fill="none" stroke="#c6c5fe" d="M1337.33,-399.547C1337.33,-399.547 1242.67,-399.547 1242.67,-399.547 1238.83,-399.547 1235,-395.714 1235,-391.881 1235,-391.881 1235,-384.214 1235,-384.214 1235,-380.381 1238.83,-376.547 1242.67,-376.547 1242.67,-376.547 1337.33,-376.547 1337.33,-376.547 1341.17,-376.547 1345,-380.381 1345,-384.214 1345,-384.214 1345,-391.881 1345,-391.881 1345,-395.714 1341.17,-399.547 1337.33,-399.547"/>
<text text-anchor="middle" x="1290" y="-384.347" font-family="Arial" font-size="14.00" fill="#c6c5fe">../utils/queue.js</text>
</g>
<!-- ../metrics/algorithms&#45;flat/cpu&#45;usage.js&#45;&gt;../utils/queue.js -->
<g id="edge39" class="edge"><title>../metrics/algorithms&#45;flat/cpu&#45;usage.js&#45;&gt;../utils/queue.js</title>
<path fill="none" stroke="#757575" d="M1088.26,-424.503C1106.73,-421.906 1126.01,-419.03 1144,-416.047 1160.08,-413.381 1164,-412.145 1180,-409.047 1194.53,-406.235 1210.15,-403.221 1224.89,-400.379"/>
<polygon fill="#757575" stroke="#757575" points="1225.78,-403.772 1234.94,-398.443 1224.46,-396.898 1225.78,-403.772"/>
</g>
<!-- ../utils/queue.js&#45;&gt;../utils/utils.js -->
<g id="edge105" class="edge"><title>../utils/queue.js&#45;&gt;../utils/utils.js</title>
<path fill="none" stroke="#757575" d="M1345.27,-397.527C1380.93,-403.756 1427.5,-411.89 1463.59,-418.193"/>
<polygon fill="#757575" stroke="#757575" points="1463.02,-421.647 1473.47,-419.92 1464.22,-414.751 1463.02,-421.647"/>
</g>
<!-- ../metrics/algorithms&#45;flat/queue.js&#45;&gt;../consts/components.js -->
<g id="edge45" class="edge"><title>../metrics/algorithms&#45;flat/queue.js&#45;&gt;../consts/components.js</title>
<path fill="none" stroke="#757575" d="M1100.23,-529.572C1202.44,-542.679 1351.57,-566.428 1400,-598.047 1454.73,-633.78 1493.66,-703.532 1510.58,-738.305"/>
<polygon fill="#757575" stroke="#757575" points="1507.49,-739.974 1514.94,-747.514 1513.82,-736.978 1507.49,-739.974"/>
</g>
<!-- ../metrics/algorithms&#45;flat/queue.js&#45;&gt;../metrics/Metric.js -->
<g id="edge46" class="edge"><title>../metrics/algorithms&#45;flat/queue.js&#45;&gt;../metrics/Metric.js</title>
<path fill="none" stroke="#757575" d="M1108.91,-506.532C1120.86,-504.202 1132.76,-501.405 1144,-498.047 1186.48,-485.354 1232.13,-461.805 1260.63,-445.786"/>
<polygon fill="#757575" stroke="#757575" points="1262.65,-448.662 1269.6,-440.668 1259.18,-442.58 1262.65,-448.662"/>
</g>
<!-- ../metrics/algorithms&#45;flat/queue.js&#45;&gt;../utils/queue.js -->
<g id="edge47" class="edge"><title>../metrics/algorithms&#45;flat/queue.js&#45;&gt;../utils/queue.js</title>
<path fill="none" stroke="#757575" d="M1109.61,-515.366C1122.03,-511.525 1133.84,-505.957 1144,-498.047 1177.67,-471.835 1147.05,-436.154 1180,-409.047 1192.63,-398.655 1208.87,-392.846 1224.94,-389.723"/>
<polygon fill="#757575" stroke="#757575" points="1225.57,-393.165 1234.88,-388.108 1224.45,-386.256 1225.57,-393.165"/>
</g>
<!-- ../metrics/algorithms&#45;flat/run&#45;time.js&#45;&gt;../utils/utils.js -->
<g id="edge50" class="edge"><title>../metrics/algorithms&#45;flat/run&#45;time.js&#45;&gt;../utils/utils.js</title>
<path fill="none" stroke="#757575" d="M1115.58,-405.399C1125.43,-408.219 1135.04,-411.717 1144,-416.047 1163.82,-425.622 1159.55,-441.916 1180,-450.047 1270.86,-486.171 1302.62,-458.9 1400,-450.047 1420.84,-448.152 1443.47,-444.443 1463.4,-440.602"/>
<polygon fill="#757575" stroke="#757575" points="1464.12,-444.027 1473.25,-438.652 1462.76,-437.161 1464.12,-444.027"/>
</g>
<!-- ../metrics/algorithms&#45;flat/run&#45;time.js&#45;&gt;../metrics/Metric.js -->
<g id="edge48" class="edge"><title>../metrics/algorithms&#45;flat/run&#45;time.js&#45;&gt;../metrics/Metric.js</title>
<path fill="none" stroke="#757575" d="M1096.85,-406.558C1135.05,-411.029 1178.1,-416.068 1213.76,-420.241"/>
<polygon fill="#757575" stroke="#757575" points="1213.75,-423.764 1224.09,-421.45 1214.56,-416.811 1213.75,-423.764"/>
</g>
<!-- ../metrics/algorithms&#45;flat/run&#45;time.js&#45;&gt;../utils/queue.js -->
<g id="edge49" class="edge"><title>../metrics/algorithms&#45;flat/run&#45;time.js&#45;&gt;../utils/queue.js</title>
<path fill="none" stroke="#757575" d="M1115.82,-392.22C1153.05,-391.323 1192.82,-390.365 1224.85,-389.593"/>
<polygon fill="#757575" stroke="#757575" points="1225.05,-393.089 1234.96,-389.349 1224.88,-386.091 1225.05,-393.089"/>
</g>
<!-- ../metrics/algorithms&#45;flat/templates&#45;store.js&#45;&gt;../utils/utils.js -->
<g id="edge53" class="edge"><title>../metrics/algorithms&#45;flat/templates&#45;store.js&#45;&gt;../utils/utils.js</title>
<path fill="none" stroke="#757575" d="M1086,-488.585C1105.16,-491.415 1125.3,-494.624 1144,-498.047 1160.12,-500.998 1163.71,-504.259 1180,-506.047 1277.19,-516.716 1306.25,-533.837 1400,-506.047 1439.08,-494.462 1477.35,-465.696 1499.8,-446.525"/>
<polygon fill="#757575" stroke="#757575" points="1502.38,-448.922 1507.6,-439.704 1497.77,-443.653 1502.38,-448.922"/>
</g>
<!-- ../metrics/algorithms&#45;flat/templates&#45;store.js&#45;&gt;../metrics/Metric.js -->
<g id="edge51" class="edge"><title>../metrics/algorithms&#45;flat/templates&#45;store.js&#45;&gt;../metrics/Metric.js</title>
<path fill="none" stroke="#757575" d="M1087.87,-465.54C1106.45,-462.929 1125.89,-460.039 1144,-457.047 1169.9,-452.769 1198.28,-447.434 1223.01,-442.572"/>
<polygon fill="#757575" stroke="#757575" points="1223.88,-445.968 1233.01,-440.593 1222.52,-439.101 1223.88,-445.968"/>
</g>
<!-- ../metrics/algorithms&#45;flat/templates&#45;store.js&#45;&gt;../utils/queue.js -->
<g id="edge52" class="edge"><title>../metrics/algorithms&#45;flat/templates&#45;store.js&#45;&gt;../utils/queue.js</title>
<path fill="none" stroke="#757575" d="M1126.69,-465.48C1132.7,-463.073 1138.51,-460.28 1144,-457.047 1166.98,-443.522 1157.39,-423.185 1180,-409.047 1193.34,-400.708 1209.25,-395.551 1224.74,-392.396"/>
<polygon fill="#757575" stroke="#757575" points="1225.6,-395.798 1234.83,-390.598 1224.37,-388.907 1225.6,-395.798"/>
</g>
<!-- ../metrics/algorithms&#45;map/cpu&#45;usage.js&#45;&gt;../utils/utils.js -->
<g id="edge58" class="edge"><title>../metrics/algorithms&#45;map/cpu&#45;usage.js&#45;&gt;../utils/utils.js</title>
<path fill="none" stroke="#757575" d="M1018.15,-178.51C1080.26,-143.701 1275.59,-47.1322 1400,-131.047 1495.31,-195.332 1514.94,-349.456 1518.97,-406.413"/>
<polygon fill="#757575" stroke="#757575" points="1515.48,-406.686 1519.58,-416.453 1522.46,-406.258 1515.48,-406.686"/>
</g>
<!-- ../metrics/algorithms&#45;map/cpu&#45;usage.js&#45;&gt;../allocators/ratios&#45;allocator.js -->
<g id="edge54" class="edge"><title>../metrics/algorithms&#45;map/cpu&#45;usage.js&#45;&gt;../allocators/ratios&#45;allocator.js</title>
<path fill="none" stroke="#757575" d="M1086.45,-178.543C1119.29,-174.247 1156.78,-169.342 1190.51,-164.93"/>
<polygon fill="#757575" stroke="#757575" points="1191.39,-168.346 1200.85,-163.578 1190.48,-161.405 1191.39,-168.346"/>
</g>
<!-- ../metrics/algorithms&#45;map/cpu&#45;usage.js&#45;&gt;../allocators/resource&#45;allocator.js -->
<g id="edge55" class="edge"><title>../metrics/algorithms&#45;map/cpu&#45;usage.js&#45;&gt;../allocators/resource&#45;allocator.js</title>
<path fill="none" stroke="#757575" d="M1078.55,-201.594C1099.82,-204.664 1122.78,-207.98 1144,-211.047 1161.95,-213.642 1181.15,-216.421 1199.51,-219.079"/>
<polygon fill="#757575" stroke="#757575" points="1199.21,-222.572 1209.61,-220.542 1200.21,-215.644 1199.21,-222.572"/>
</g>
<!-- ../metrics/algorithms&#45;map/cpu&#45;usage.js&#45;&gt;../metrics/Metric.js -->
<g id="edge56" class="edge"><title>../metrics/algorithms&#45;map/cpu&#45;usage.js&#45;&gt;../metrics/Metric.js</title>
<path fill="none" stroke="#757575" d="M1127.58,-198.914C1133.51,-202.257 1139.04,-206.264 1144,-211.047 1208.39,-273.128 1116.81,-345.751 1180,-409.047 1189.37,-418.432 1201.6,-424.213 1214.46,-427.651"/>
<polygon fill="#757575" stroke="#757575" points="1213.87,-431.104 1224.39,-429.843 1215.38,-424.269 1213.87,-431.104"/>
</g>
<!-- ../metrics/algorithms&#45;map/cpu&#45;usage.js&#45;&gt;../utils/queue.js -->
<g id="edge57" class="edge"><title>../metrics/algorithms&#45;map/cpu&#45;usage.js&#45;&gt;../utils/queue.js</title>
<path fill="none" stroke="#757575" d="M1123.25,-201.583C1130.47,-204.219 1137.44,-207.346 1144,-211.047 1148.38,-213.518 1236.52,-322.778 1273.2,-368.379"/>
<polygon fill="#757575" stroke="#757575" points="1270.62,-370.756 1279.61,-376.356 1276.07,-366.37 1270.62,-370.756"/>
</g>
<!-- ../metrics/algorithms&#45;map/queue.js&#45;&gt;../allocators/resource&#45;allocator.js -->
<g id="edge63" class="edge"><title>../metrics/algorithms&#45;map/queue.js&#45;&gt;../allocators/resource&#45;allocator.js</title>
<path fill="none" stroke="#757575" d="M1106.02,-301.511C1118.92,-299.175 1131.83,-296.382 1144,-293.047 1184.47,-281.961 1228.59,-262.211 1257.4,-248.19"/>
<polygon fill="#757575" stroke="#757575" points="1259.13,-251.236 1266.56,-243.675 1256.04,-244.958 1259.13,-251.236"/>
</g>
<!-- ../metrics/algorithms&#45;map/queue.js&#45;&gt;../consts/components.js -->
<g id="edge64" class="edge"><title>../metrics/algorithms&#45;map/queue.js&#45;&gt;../consts/components.js</title>
<path fill="none" stroke="#757575" d="M1114.47,-304.944C1217.24,-300.297 1357.42,-300.972 1400,-335.047 1408.24,-341.644 1491.55,-652.336 1514.29,-737.601"/>
<polygon fill="#757575" stroke="#757575" points="1510.96,-738.708 1516.92,-747.469 1517.73,-736.905 1510.96,-738.708"/>
</g>
<!-- ../metrics/algorithms&#45;map/queue.js&#45;&gt;../metrics/Metric.js -->
<g id="edge65" class="edge"><title>../metrics/algorithms&#45;map/queue.js&#45;&gt;../metrics/Metric.js</title>
<path fill="none" stroke="#757575" d="M1114.33,-318.853C1124.94,-322.533 1135.05,-327.477 1144,-334.047 1173.8,-355.929 1150.62,-386.601 1180,-409.047 1190.01,-416.697 1202.04,-421.741 1214.39,-425.013"/>
<polygon fill="#757575" stroke="#757575" points="1213.8,-428.469 1224.33,-427.273 1215.35,-421.643 1213.8,-428.469"/>
</g>
<!-- ../metrics/algorithms&#45;map/queue.js&#45;&gt;../utils/queue.js -->
<g id="edge66" class="edge"><title>../metrics/algorithms&#45;map/queue.js&#45;&gt;../utils/queue.js</title>
<path fill="none" stroke="#757575" d="M1098.46,-324.599C1113.82,-327.2 1129.41,-330.323 1144,-334.047 1182.47,-343.866 1224.85,-360.346 1253.8,-372.523"/>
<polygon fill="#757575" stroke="#757575" points="1252.51,-375.776 1263.08,-376.472 1255.25,-369.335 1252.51,-375.776"/>
</g>
<!-- ../metrics/algorithms&#45;map/run&#45;time.js&#45;&gt;../utils/utils.js -->
<g id="edge71" class="edge"><title>../metrics/algorithms&#45;map/run&#45;time.js&#45;&gt;../utils/utils.js</title>
<path fill="none" stroke="#757575" d="M1090.69,-219.516C1119.26,-216.448 1150.89,-213.567 1180,-212.047 1277.64,-206.95 1315.73,-162.461 1400,-212.047 1473.27,-255.157 1505.01,-360.95 1515.61,-406.554"/>
<polygon fill="#757575" stroke="#757575" points="1512.24,-407.527 1517.81,-416.537 1519.08,-406.018 1512.24,-407.527"/>
</g>
<!-- ../metrics/algorithms&#45;map/run&#45;time.js&#45;&gt;../allocators/ratios&#45;allocator.js -->
<g id="edge67" class="edge"><title>../metrics/algorithms&#45;map/run&#45;time.js&#45;&gt;../allocators/ratios&#45;allocator.js</title>
<path fill="none" stroke="#757575" d="M1120.03,-220.105C1128.31,-217.614 1136.38,-214.626 1144,-211.047 1163.64,-201.816 1160.83,-188.225 1180,-178.047 1188.7,-173.429 1198.22,-169.621 1207.9,-166.482"/>
<polygon fill="#757575" stroke="#757575" points="1209.04,-169.795 1217.6,-163.562 1207.02,-163.092 1209.04,-169.795"/>
</g>
<!-- ../metrics/algorithms&#45;map/run&#45;time.js&#45;&gt;../allocators/resource&#45;allocator.js -->
<g id="edge68" class="edge"><title>../metrics/algorithms&#45;map/run&#45;time.js&#45;&gt;../allocators/resource&#45;allocator.js</title>
<path fill="none" stroke="#757575" d="M1120.01,-231.465C1136.37,-231.522 1153.13,-231.579 1169.45,-231.636"/>
<polygon fill="#757575" stroke="#757575" points="1169.53,-235.136 1179.54,-231.67 1169.56,-228.136 1169.53,-235.136"/>
</g>
<!-- ../metrics/algorithms&#45;map/run&#45;time.js&#45;&gt;../metrics/Metric.js -->
<g id="edge69" class="edge"><title>../metrics/algorithms&#45;map/run&#45;time.js&#45;&gt;../metrics/Metric.js</title>
<path fill="none" stroke="#757575" d="M1120.16,-236.656C1128.86,-240.528 1136.96,-245.563 1144,-252.047 1196.65,-300.549 1128.28,-359.55 1180,-409.047 1189.53,-418.163 1201.76,-423.832 1214.58,-427.246"/>
<polygon fill="#757575" stroke="#757575" points="1213.93,-430.688 1224.45,-429.436 1215.45,-423.854 1213.93,-430.688"/>
</g>
<!-- ../metrics/algorithms&#45;map/run&#45;time.js&#45;&gt;../utils/queue.js -->
<g id="edge70" class="edge"><title>../metrics/algorithms&#45;map/run&#45;time.js&#45;&gt;../utils/queue.js</title>
<path fill="none" stroke="#757575" d="M1119.34,-242.548C1127.87,-245.153 1136.18,-248.286 1144,-252.047 1201.18,-279.554 1251.02,-337.696 1274.57,-368.284"/>
<polygon fill="#757575" stroke="#757575" points="1271.93,-370.607 1280.75,-376.48 1277.52,-366.39 1271.93,-370.607"/>
</g>
<!-- ../metrics/algorithms&#45;map/templates&#45;store.js&#45;&gt;../utils/utils.js -->
<g id="edge75" class="edge"><title>../metrics/algorithms&#45;map/templates&#45;store.js&#45;&gt;../utils/utils.js</title>
<path fill="none" stroke="#757575" d="M1071.82,-260.523C1155.58,-250.848 1294.65,-245.633 1400,-296.047 1450.92,-320.416 1490.16,-377.001 1508.54,-407.572"/>
<polygon fill="#757575" stroke="#757575" points="1505.7,-409.642 1513.77,-416.51 1511.74,-406.11 1505.7,-409.642"/>
</g>
<!-- ../metrics/algorithms&#45;map/templates&#45;store.js&#45;&gt;../allocators/resource&#45;allocator.js -->
<g id="edge72" class="edge"><title>../metrics/algorithms&#45;map/templates&#45;store.js&#45;&gt;../allocators/resource&#45;allocator.js</title>
<path fill="none" stroke="#757575" d="M1082.37,-260.526C1102.55,-257.751 1124.04,-254.795 1144,-252.047 1160.62,-249.758 1178.32,-247.319 1195.43,-244.96"/>
<polygon fill="#757575" stroke="#757575" points="1196,-248.415 1205.42,-243.582 1195.04,-241.481 1196,-248.415"/>
</g>
<!-- ../metrics/algorithms&#45;map/templates&#45;store.js&#45;&gt;../metrics/Metric.js -->
<g id="edge73" class="edge"><title>../metrics/algorithms&#45;map/templates&#45;store.js&#45;&gt;../metrics/Metric.js</title>
<path fill="none" stroke="#757575" d="M1130.59,-283.66C1135.33,-286.372 1139.83,-289.485 1144,-293.047 1185.06,-328.095 1139.62,-373.223 1180,-409.047 1189.75,-417.696 1201.97,-423.168 1214.67,-426.539"/>
<polygon fill="#757575" stroke="#757575" points="1213.92,-429.958 1224.45,-428.725 1215.45,-423.126 1213.92,-429.958"/>
</g>
<!-- ../metrics/algorithms&#45;map/templates&#45;store.js&#45;&gt;../utils/queue.js -->
<g id="edge74" class="edge"><title>../metrics/algorithms&#45;map/templates&#45;store.js&#45;&gt;../utils/queue.js</title>
<path fill="none" stroke="#757575" d="M1112.52,-283.586C1123.32,-286.141 1133.97,-289.254 1144,-293.047 1192.26,-311.304 1240.91,-347.716 1267.79,-369.777"/>
<polygon fill="#757575" stroke="#757575" points="1265.8,-372.676 1275.72,-376.394 1270.28,-367.301 1265.8,-372.676"/>
</g>
<!-- ../metrics/drivers&#45;flat/queue.js&#45;&gt;../consts/components.js -->
<g id="edge77" class="edge"><title>../metrics/drivers&#45;flat/queue.js&#45;&gt;../consts/components.js</title>
<path fill="none" stroke="#757575" d="M1055.97,-570.561C1135.72,-587.784 1283.29,-624.213 1400,-679.047 1436.37,-696.135 1474.3,-723.241 1497.54,-741.087"/>
<polygon fill="#757575" stroke="#757575" points="1495.66,-744.053 1505.7,-747.433 1499.96,-738.529 1495.66,-744.053"/>
</g>
<!-- ../metrics/drivers&#45;flat/queue.js&#45;&gt;../metrics/Metric.js -->
<g id="edge78" class="edge"><title>../metrics/drivers&#45;flat/queue.js&#45;&gt;../metrics/Metric.js</title>
<path fill="none" stroke="#757575" d="M1098.53,-552.201C1114.11,-549.183 1129.75,-544.952 1144,-539.047 1195.59,-517.673 1245.05,-473.391 1270.74,-448.013"/>
<polygon fill="#757575" stroke="#757575" points="1273.35,-450.348 1277.92,-440.79 1268.39,-445.411 1273.35,-450.348"/>
</g>
<!-- ../metrics/drivers&#45;flat/queue.js&#45;&gt;../utils/queue.js -->
<g id="edge79" class="edge"><title>../metrics/drivers&#45;flat/queue.js&#45;&gt;../utils/queue.js</title>
<path fill="none" stroke="#757575" d="M1098.67,-560.745C1115.29,-556.923 1131.24,-550.21 1144,-539.047 1189.13,-499.578 1135.95,-449.715 1180,-409.047 1192.2,-397.789 1208.52,-391.728 1224.82,-388.643"/>
<polygon fill="#757575" stroke="#757575" points="1225.58,-392.068 1234.93,-387.087 1224.51,-385.15 1225.58,-392.068"/>
</g>
<!-- ../metrics/drivers&#45;map/queue.js&#45;&gt;../allocators/resource&#45;allocator.js -->
<g id="edge81" class="edge"><title>../metrics/drivers&#45;map/queue.js&#45;&gt;../allocators/resource&#45;allocator.js</title>
<path fill="none" stroke="#757575" d="M1103.38,-345.757C1117.31,-342.892 1131.19,-339.088 1144,-334.047 1193.88,-314.424 1243,-274.295 1269.31,-250.642"/>
<polygon fill="#757575" stroke="#757575" points="1272,-252.919 1277.02,-243.588 1267.28,-247.754 1272,-252.919"/>
</g>
<!-- ../metrics/drivers&#45;map/queue.js&#45;&gt;../consts/components.js -->
<g id="edge82" class="edge"><title>../metrics/drivers&#45;map/queue.js&#45;&gt;../consts/components.js</title>
<path fill="none" stroke="#757575" d="M1103.01,-344.423C1206.29,-337.203 1355.16,-333.68 1400,-368.047 1415.41,-379.856 1492.08,-656.882 1514.08,-737.33"/>
<polygon fill="#757575" stroke="#757575" points="1510.8,-738.604 1516.82,-747.329 1517.56,-736.76 1510.8,-738.604"/>
</g>
<!-- ../metrics/drivers&#45;map/queue.js&#45;&gt;../metrics/Metric.js -->
<g id="edge83" class="edge"><title>../metrics/drivers&#45;map/queue.js&#45;&gt;../metrics/Metric.js</title>
<path fill="none" stroke="#757575" d="M1103.36,-361.262C1117.44,-364.488 1131.36,-368.94 1144,-375.047 1163.82,-384.622 1160.37,-399.097 1180,-409.047 1190.66,-414.45 1202.56,-418.408 1214.48,-421.305"/>
<polygon fill="#757575" stroke="#757575" points="1213.94,-424.772 1224.46,-423.497 1215.45,-417.934 1213.94,-424.772"/>
</g>
<!-- ../metrics/drivers&#45;map/queue.js&#45;&gt;../utils/queue.js -->
<g id="edge84" class="edge"><title>../metrics/drivers&#45;map/queue.js&#45;&gt;../utils/queue.js</title>
<path fill="none" stroke="#757575" d="M1096.85,-365.558C1138.98,-370.489 1187,-376.109 1224.5,-380.498"/>
<polygon fill="#757575" stroke="#757575" points="1224.45,-384.016 1234.79,-381.702 1225.26,-377.063 1224.45,-384.016"/>
</g>
<!-- ../metrics/metrics&#45;controller.js -->
<g id="node47" class="node"><title>../metrics/metrics&#45;controller.js</title>
<path fill="none" stroke="#c6c5fe" d="M308.333,-532.547C308.333,-532.547 122.667,-532.547 122.667,-532.547 118.833,-532.547 115,-528.714 115,-524.881 115,-524.881 115,-517.214 115,-517.214 115,-513.381 118.833,-509.547 122.667,-509.547 122.667,-509.547 308.333,-509.547 308.333,-509.547 312.167,-509.547 316,-513.381 316,-517.214 316,-517.214 316,-524.881 316,-524.881 316,-528.714 312.167,-532.547 308.333,-532.547"/>
<text text-anchor="middle" x="215.5" y="-517.347" font-family="Arial" font-size="14.00" fill="#c6c5fe">../metrics/metrics&#45;controller.js</text>
</g>
<!-- ../metrics/metrics&#45;controller.js&#45;&gt;../utils/logger.js -->
<g id="edge87" class="edge"><title>../metrics/metrics&#45;controller.js&#45;&gt;../utils/logger.js</title>
<path fill="none" stroke="#757575" d="M284.3,-532.563C316.793,-538.082 355.514,-544.659 387.558,-550.102"/>
<polygon fill="#757575" stroke="#757575" points="387.266,-553.602 397.711,-551.826 388.438,-546.701 387.266,-553.602"/>
</g>
<!-- ../metrics/metrics&#45;controller.js&#45;&gt;../utils/utils.js -->
<g id="edge88" class="edge"><title>../metrics/metrics&#45;controller.js&#45;&gt;../utils/utils.js</title>
<path fill="none" stroke="#757575" d="M315.062,-509.509C318.654,-507.073 321.995,-504.269 325,-501.047 422.018,-397.035 277.164,-297.95 361,-183.047 457.075,-51.3712 534,-36.0472 697,-36.0472 697,-36.0472 697,-36.0472 998.5,-36.0472 1177.1,-36.0472 1258,55.2839 1400,-53.0472 1515.08,-140.841 1521.88,-339.963 1520.8,-406.177"/>
<polygon fill="#757575" stroke="#757575" points="1517.3,-406.204 1520.55,-416.287 1524.29,-406.376 1517.3,-406.204"/>
</g>
<!-- ../metrics/metrics&#45;controller.js&#45;&gt;../factory/metrics&#45;factory.js -->
<g id="edge85" class="edge"><title>../metrics/metrics&#45;controller.js&#45;&gt;../factory/metrics&#45;factory.js</title>
<path fill="none" stroke="#757575" d="M287.754,-509.506C300.24,-507.031 313.054,-504.198 325,-501.047 355.177,-493.087 388.487,-481.435 413.419,-472.121"/>
<polygon fill="#757575" stroke="#757575" points="414.759,-475.356 422.878,-468.549 412.287,-468.807 414.759,-475.356"/>
</g>
<!-- ../metrics/metrics&#45;controller.js&#45;&gt;../factory/reducer&#45;factory.js -->
<g id="edge86" class="edge"><title>../metrics/metrics&#45;controller.js&#45;&gt;../factory/reducer&#45;factory.js</title>
<path fill="none" stroke="#757575" d="M311.942,-509.427C316.57,-507.052 320.963,-504.279 325,-501.047 348.341,-482.361 420.542,-289.078 444.32,-224.171"/>
<polygon fill="#757575" stroke="#757575" points="447.681,-225.17 447.824,-214.576 441.106,-222.769 447.681,-225.17"/>
</g>
<!-- ../metrics/settings.js -->
<g id="node48" class="node"><title>../metrics/settings.js</title>
<path fill="none" stroke="#cfffac" d="M278.833,-450.547C278.833,-450.547 152.167,-450.547 152.167,-450.547 148.333,-450.547 144.5,-446.714 144.5,-442.881 144.5,-442.881 144.5,-435.214 144.5,-435.214 144.5,-431.381 148.333,-427.547 152.167,-427.547 152.167,-427.547 278.833,-427.547 278.833,-427.547 282.667,-427.547 286.5,-431.381 286.5,-435.214 286.5,-435.214 286.5,-442.881 286.5,-442.881 286.5,-446.714 282.667,-450.547 278.833,-450.547"/>
<text text-anchor="middle" x="215.5" y="-435.347" font-family="Arial" font-size="14.00" fill="#cfffac">../metrics/settings.js</text>
</g>
<!-- ../store/algorithms&#45;flat/store.js&#45;&gt;../utils/utils.js -->
<g id="edge93" class="edge"><title>../store/algorithms&#45;flat/store.js&#45;&gt;../utils/utils.js</title>
<path fill="none" stroke="#757575" d="M1388.99,-888.306C1392.92,-885.935 1396.63,-883.199 1400,-880.047 1447.27,-835.907 1419.57,-801.602 1436,-739.047 1464.66,-629.942 1500.3,-499.703 1514.13,-449.361"/>
<polygon fill="#757575" stroke="#757575" points="1517.54,-450.18 1516.81,-439.61 1510.79,-448.325 1517.54,-450.18"/>
</g>
<!-- ../store/algorithms&#45;flat/store.js&#45;&gt;../store/store&#45;manager.js -->
<g id="edge92" class="edge"><title>../store/algorithms&#45;flat/store.js&#45;&gt;../store/store&#45;manager.js</title>
<path fill="none" stroke="#757575" d="M1358.18,-911.552C1372.08,-914.335 1386.58,-917.533 1400,-921.047 1426.77,-928.055 1456.26,-937.854 1479.3,-946"/>
<polygon fill="#757575" stroke="#757575" points="1478.16,-949.309 1488.76,-949.376 1480.52,-942.717 1478.16,-949.309"/>
</g>
<!-- ../store/algorithms&#45;flat/store.js&#45;&gt;../consts/components.js -->
<g id="edge91" class="edge"><title>../store/algorithms&#45;flat/store.js&#45;&gt;../consts/components.js</title>
<path fill="none" stroke="#757575" d="M1380,-888.473C1386.95,-886.149 1393.7,-883.369 1400,-880.047 1446.55,-855.487 1486.35,-806.633 1506.3,-779.107"/>
<polygon fill="#757575" stroke="#757575" points="1509.37,-780.839 1512.29,-770.656 1503.65,-776.793 1509.37,-780.839"/>
</g>
<!-- ../store/algorithms&#45;map/store.js&#45;&gt;../store/store&#45;manager.js -->
<g id="edge96" class="edge"><title>../store/algorithms&#45;map/store.js&#45;&gt;../store/store&#45;manager.js</title>
<path fill="none" stroke="#757575" d="M1396.12,-950.228C1405.98,-951.089 1415.93,-951.958 1425.68,-952.81"/>
<polygon fill="#757575" stroke="#757575" points="1425.5,-956.307 1435.76,-953.69 1426.11,-949.333 1425.5,-956.307"/>
</g>
<!-- ../store/algorithms&#45;map/store.js&#45;&gt;../consts/components.js -->
<g id="edge95" class="edge"><title>../store/algorithms&#45;map/store.js&#45;&gt;../consts/components.js</title>
<path fill="none" stroke="#757575" d="M1383.04,-929.495C1388.98,-927.145 1394.69,-924.355 1400,-921.047 1455.69,-886.336 1494.17,-815.573 1510.78,-780.185"/>
<polygon fill="#757575" stroke="#757575" points="1514.09,-781.359 1515.06,-770.808 1507.73,-778.456 1514.09,-781.359"/>
</g>
<!-- ../store/drivers&#45;flat/store.js&#45;&gt;../utils/utils.js -->
<g id="edge100" class="edge"><title>../store/drivers&#45;flat/store.js&#45;&gt;../utils/utils.js</title>
<path fill="none" stroke="#757575" d="M1327.29,-847.453C1351.05,-838.135 1381.09,-822.803 1400,-800.047 1446.52,-744.065 1499.34,-520.683 1515.23,-449.769"/>
<polygon fill="#757575" stroke="#757575" points="1518.71,-450.267 1517.46,-439.746 1511.88,-448.749 1518.71,-450.267"/>
</g>
<!-- ../store/drivers&#45;flat/store.js&#45;&gt;../store/store&#45;manager.js -->
<g id="edge99" class="edge"><title>../store/drivers&#45;flat/store.js&#45;&gt;../store/store&#45;manager.js</title>
<path fill="none" stroke="#757575" d="M1370.98,-870.58C1380.94,-873.139 1390.83,-876.255 1400,-880.047 1437.69,-895.631 1475.82,-924.003 1498.68,-942.69"/>
<polygon fill="#757575" stroke="#757575" points="1496.74,-945.627 1506.66,-949.331 1501.21,-940.245 1496.74,-945.627"/>
</g>
<!-- ../store/drivers&#45;flat/store.js&#45;&gt;../consts/components.js -->
<g id="edge98" class="edge"><title>../store/drivers&#45;flat/store.js&#45;&gt;../consts/components.js</title>
<path fill="none" stroke="#757575" d="M1354.34,-847.536C1369.59,-843.789 1385.63,-839.013 1400,-833.047 1435.68,-818.239 1472.98,-793.561 1496.34,-776.813"/>
<polygon fill="#757575" stroke="#757575" points="1498.55,-779.533 1504.58,-770.819 1494.43,-773.873 1498.55,-779.533"/>
</g>
<!-- ../store/drivers&#45;map/store.js&#45;&gt;../store/store&#45;manager.js -->
<g id="edge103" class="edge"><title>../store/drivers&#45;map/store.js&#45;&gt;../store/store&#45;manager.js</title>
<path fill="none" stroke="#757575" d="M1362.4,-1085.53C1375.34,-1081.92 1388.4,-1077.2 1400,-1071.05 1443.51,-1047.95 1483.4,-1005.31 1504.43,-980.45"/>
<polygon fill="#757575" stroke="#757575" points="1507.12,-982.685 1510.81,-972.754 1501.74,-978.214 1507.12,-982.685"/>
</g>
<!-- ../store/drivers&#45;map/store.js&#45;&gt;../consts/components.js -->
<g id="edge102" class="edge"><title>../store/drivers&#45;map/store.js&#45;&gt;../consts/components.js</title>
<path fill="none" stroke="#757575" d="M1301.53,-1085.22C1321.74,-1062.29 1366.86,-1009.81 1400,-962.047 1444.35,-898.13 1488.97,-817.256 1509.03,-779.813"/>
<polygon fill="#757575" stroke="#757575" points="1512.19,-781.33 1513.8,-770.859 1506.01,-778.038 1512.19,-781.33"/>
</g>
<!-- ../store/store&#45;controller.js -->
<g id="node53" class="node"><title>../store/store&#45;controller.js</title>
<path fill="none" stroke="#c6c5fe" d="M294.333,-988.547C294.333,-988.547 136.667,-988.547 136.667,-988.547 132.833,-988.547 129,-984.714 129,-980.881 129,-980.881 129,-973.214 129,-973.214 129,-969.381 132.833,-965.547 136.667,-965.547 136.667,-965.547 294.333,-965.547 294.333,-965.547 298.167,-965.547 302,-969.381 302,-973.214 302,-973.214 302,-980.881 302,-980.881 302,-984.714 298.167,-988.547 294.333,-988.547"/>
<text text-anchor="middle" x="215.5" y="-973.347" font-family="Arial" font-size="14.00" fill="#c6c5fe">../store/store&#45;controller.js</text>
</g>
<!-- ../store/store&#45;controller.js&#45;&gt;../factory/store&#45;factory.js -->
<g id="edge104" class="edge"><title>../store/store&#45;controller.js&#45;&gt;../factory/store&#45;factory.js</title>
<path fill="none" stroke="#757575" d="M302.127,-982.571C386.995,-988.047 516.62,-996.41 603.978,-1002.05"/>
<polygon fill="#757575" stroke="#757575" points="603.946,-1005.55 614.151,-1002.7 604.397,-998.565 603.946,-1005.55"/>
</g>
<!-- runner.js -->
<g id="node54" class="node"><title>runner.js</title>
<path fill="none" stroke="#c6c5fe" d="M62.3333,-572.547C62.3333,-572.547 7.66667,-572.547 7.66667,-572.547 3.83333,-572.547 0,-568.714 0,-564.881 0,-564.881 0,-557.214 0,-557.214 0,-553.381 3.83333,-549.547 7.66667,-549.547 7.66667,-549.547 62.3333,-549.547 62.3333,-549.547 66.1667,-549.547 70,-553.381 70,-557.214 70,-557.214 70,-564.881 70,-564.881 70,-568.714 66.1667,-572.547 62.3333,-572.547"/>
<text text-anchor="middle" x="35" y="-557.347" font-family="Arial" font-size="14.00" fill="#c6c5fe">runner.js</text>
</g>
<!-- runner.js&#45;&gt;../adapters/adapters&#45;controller.js -->
<g id="edge106" class="edge"><title>runner.js&#45;&gt;../adapters/adapters&#45;controller.js</title>
<path fill="none" stroke="#757575" d="M70.4166,-568.76C93.7857,-573.996 125.344,-581.068 152.968,-587.259"/>
<polygon fill="#757575" stroke="#757575" points="152.422,-590.723 162.945,-589.494 153.953,-583.892 152.422,-590.723"/>
</g>
<!-- runner.js&#45;&gt;../utils/logger.js -->
<g id="edge112" class="edge"><title>runner.js&#45;&gt;../utils/logger.js</title>
<path fill="none" stroke="#757575" d="M70.043,-561.047C139.457,-561.047 298.32,-561.047 387.761,-561.047"/>
<polygon fill="#757575" stroke="#757575" points="387.784,-564.547 397.784,-561.047 387.784,-557.547 387.784,-564.547"/>
</g>
<!-- runner.js&#45;&gt;../adapters/settings.js -->
<g id="edge107" class="edge"><title>runner.js&#45;&gt;../adapters/settings.js</title>
<path fill="none" stroke="#757575" d="M46.096,-549.289C58.6687,-535.456 81.4973,-512.88 106,-501.047 113.575,-497.389 121.738,-494.368 130.065,-491.873"/>
<polygon fill="#757575" stroke="#757575" points="131.172,-495.199 139.89,-489.179 129.321,-488.448 131.172,-495.199"/>
</g>
<!-- runner.js&#45;&gt;../consts/components.js -->
<g id="edge108" class="edge"><title>runner.js&#45;&gt;../consts/components.js</title>
<path fill="none" stroke="#757575" d="M41.7605,-572.81C73.3504,-635.457 232.193,-927.047 452,-927.047 452,-927.047 452,-927.047 699,-927.047 797.979,-927.047 1060.47,-961.15 1144,-908.047 1173.19,-889.49 1152.11,-859.5 1180,-839.047 1260.08,-780.329 1303.84,-824.84 1400,-800.047 1427.42,-792.977 1457.58,-782.661 1480.8,-774.146"/>
<polygon fill="#757575" stroke="#757575" points="1482.15,-777.381 1490.31,-770.622 1479.71,-770.818 1482.15,-777.381"/>
</g>
<!-- runner.js&#45;&gt;../metrics/metrics&#45;controller.js -->
<g id="edge109" class="edge"><title>runner.js&#45;&gt;../metrics/metrics&#45;controller.js</title>
<path fill="none" stroke="#757575" d="M70.4166,-553.335C93.7857,-548.098 125.344,-541.026 152.968,-534.836"/>
<polygon fill="#757575" stroke="#757575" points="153.953,-538.202 162.945,-532.6 152.422,-531.372 153.953,-538.202"/>
</g>
<!-- runner.js&#45;&gt;../metrics/settings.js -->
<g id="edge110" class="edge"><title>runner.js&#45;&gt;../metrics/settings.js</title>
<path fill="none" stroke="#757575" d="M40.5046,-549.462C49.4705,-528.049 71.6911,-482.425 106,-460.047 114.646,-454.407 124.451,-450.211 134.545,-447.1"/>
<polygon fill="#757575" stroke="#757575" points="135.56,-450.451 144.284,-444.438 133.715,-443.698 135.56,-450.451"/>
</g>
<!-- runner.js&#45;&gt;../store/store&#45;controller.js -->
<g id="edge111" class="edge"><title>runner.js&#45;&gt;../store/store&#45;controller.js</title>
<path fill="none" stroke="#757575" d="M36.5872,-572.74C39.707,-630.373 56.1179,-883.747 106,-941.047 113.61,-949.788 123.393,-956.415 133.963,-961.437"/>
<polygon fill="#757575" stroke="#757575" points="132.846,-964.765 143.418,-965.449 135.58,-958.321 132.846,-964.765"/>
</g>
</g>
</svg>
