<?xml version="1.0" encoding="UTF-8" standalone="no"?>
<!DOCTYPE svg PUBLIC "-//W3C//DTD SVG 1.1//EN"
 "http://www.w3.org/Graphics/SVG/1.1/DTD/svg11.dtd">
<!-- Generated by graphviz version 2.38.0 (20140413.2041)
 -->
<!-- Title: G Pages: 1 -->
<svg width="1602pt" height="843pt"
 viewBox="0.00 0.00 1602.20 842.70" xmlns="http://www.w3.org/2000/svg" xmlns:xlink="http://www.w3.org/1999/xlink">
<g id="graph0" class="graph" transform="scale(1 1) rotate(0) translate(21.6 821.1)">
<title>G</title>
<polygon fill="#111111" stroke="none" points="-21.6,21.6 -21.6,-821.1 1580.6,-821.1 1580.6,21.6 -21.6,21.6"/>
<!-- ../adapters/Adapter.js -->
<g id="node1" class="node"><title>../adapters/Adapter.js</title>
<path fill="none" stroke="#cfffac" d="M1312.33,-607C1312.33,-607 1176.67,-607 1176.67,-607 1172.83,-607 1169,-603.167 1169,-599.333 1169,-599.333 1169,-591.667 1169,-591.667 1169,-587.833 1172.83,-584 1176.67,-584 1176.67,-584 1312.33,-584 1312.33,-584 1316.17,-584 1320,-587.833 1320,-591.667 1320,-591.667 1320,-599.333 1320,-599.333 1320,-603.167 1316.17,-607 1312.33,-607"/>
<text text-anchor="middle" x="1244.5" y="-591.8" font-family="Arial" font-size="14.00" fill="#cfffac">../adapters/Adapter.js</text>
</g>
<!-- ../adapters/adapters&#45;controller.js -->
<g id="node2" class="node"><title>../adapters/adapters&#45;controller.js</title>
<path fill="none" stroke="#c6c5fe" d="M317.333,-393C317.333,-393 113.667,-393 113.667,-393 109.833,-393 106,-389.167 106,-385.333 106,-385.333 106,-377.667 106,-377.667 106,-373.833 109.833,-370 113.667,-370 113.667,-370 317.333,-370 317.333,-370 321.167,-370 325,-373.833 325,-377.667 325,-377.667 325,-385.333 325,-385.333 325,-389.167 321.167,-393 317.333,-393"/>
<text text-anchor="middle" x="215.5" y="-377.8" font-family="Arial" font-size="14.00" fill="#c6c5fe">../adapters/adapters&#45;controller.js</text>
</g>
<!-- ../adapters/index.js -->
<g id="node3" class="node"><title>../adapters/index.js</title>
<path fill="none" stroke="#c6c5fe" d="M516.333,-566C516.333,-566 396.667,-566 396.667,-566 392.833,-566 389,-562.167 389,-558.333 389,-558.333 389,-550.667 389,-550.667 389,-546.833 392.833,-543 396.667,-543 396.667,-543 516.333,-543 516.333,-543 520.167,-543 524,-546.833 524,-550.667 524,-550.667 524,-558.333 524,-558.333 524,-562.167 520.167,-566 516.333,-566"/>
<text text-anchor="middle" x="456.5" y="-550.8" font-family="Arial" font-size="14.00" fill="#c6c5fe">../adapters/index.js</text>
</g>
<!-- ../adapters/adapters&#45;controller.js&#45;&gt;../adapters/index.js -->
<g id="edge1" class="edge"><title>../adapters/adapters&#45;controller.js&#45;&gt;../adapters/index.js</title>
<path fill="none" stroke="#757575" d="M232.553,-393.12C273.541,-422.789 382.264,-501.488 431.121,-536.853"/>
<polygon fill="#757575" stroke="#757575" points="429.364,-539.903 439.517,-542.931 433.469,-534.232 429.364,-539.903"/>
</g>
<!-- ../utils/logger.js -->
<g id="node4" class="node"><title>../utils/logger.js</title>
<path fill="none" stroke="#cfffac" d="M503.833,-343C503.833,-343 409.167,-343 409.167,-343 405.333,-343 401.5,-339.167 401.5,-335.333 401.5,-335.333 401.5,-327.667 401.5,-327.667 401.5,-323.833 405.333,-320 409.167,-320 409.167,-320 503.833,-320 503.833,-320 507.667,-320 511.5,-323.833 511.5,-327.667 511.5,-327.667 511.5,-335.333 511.5,-335.333 511.5,-339.167 507.667,-343 503.833,-343"/>
<text text-anchor="middle" x="456.5" y="-327.8" font-family="Arial" font-size="14.00" fill="#cfffac">../utils/logger.js</text>
</g>
<!-- ../adapters/adapters&#45;controller.js&#45;&gt;../utils/logger.js -->
<g id="edge2" class="edge"><title>../adapters/adapters&#45;controller.js&#45;&gt;../utils/logger.js</title>
<path fill="none" stroke="#757575" d="M271.632,-369.966C307.445,-362.474 354.252,-352.682 391.676,-344.852"/>
<polygon fill="#757575" stroke="#757575" points="392.398,-348.277 401.47,-342.803 390.965,-341.425 392.398,-348.277"/>
</g>
<!-- ../utils/utils.js -->
<g id="node5" class="node"><title>../utils/utils.js</title>
<path fill="none" stroke="#cfffac" d="M1515.33,-181C1515.33,-181 1435.67,-181 1435.67,-181 1431.83,-181 1428,-177.167 1428,-173.333 1428,-173.333 1428,-165.667 1428,-165.667 1428,-161.833 1431.83,-158 1435.67,-158 1435.67,-158 1515.33,-158 1515.33,-158 1519.17,-158 1523,-161.833 1523,-165.667 1523,-165.667 1523,-173.333 1523,-173.333 1523,-177.167 1519.17,-181 1515.33,-181"/>
<text text-anchor="middle" x="1475.5" y="-165.8" font-family="Arial" font-size="14.00" fill="#cfffac">../utils/utils.js</text>
</g>
<!-- ../adapters/adapters&#45;controller.js&#45;&gt;../utils/utils.js -->
<g id="edge3" class="edge"><title>../adapters/adapters&#45;controller.js&#45;&gt;../utils/utils.js</title>
<path fill="none" stroke="#757575" d="M325.236,-384.6C593.018,-391.396 1268.93,-403.146 1356,-351.5 1418.38,-314.499 1453.92,-230.342 1467.74,-190.788"/>
<polygon fill="#757575" stroke="#757575" points="1471.12,-191.699 1470.99,-181.105 1464.49,-189.468 1471.12,-191.699"/>
</g>
<!-- ../adapters/algorithms/index.js -->
<g id="node6" class="node"><title>../adapters/algorithms/index.js</title>
<path fill="none" stroke="#c6c5fe" d="M784.333,-607C784.333,-607 595.667,-607 595.667,-607 591.833,-607 588,-603.167 588,-599.333 588,-599.333 588,-591.667 588,-591.667 588,-587.833 591.833,-584 595.667,-584 595.667,-584 784.333,-584 784.333,-584 788.167,-584 792,-587.833 792,-591.667 792,-591.667 792,-599.333 792,-599.333 792,-603.167 788.167,-607 784.333,-607"/>
<text text-anchor="middle" x="690" y="-591.8" font-family="Arial" font-size="14.00" fill="#c6c5fe">../adapters/algorithms/index.js</text>
</g>
<!-- ../adapters/index.js&#45;&gt;../adapters/algorithms/index.js -->
<g id="edge30" class="edge"><title>../adapters/index.js&#45;&gt;../adapters/algorithms/index.js</title>
<path fill="none" stroke="#757575" d="M522.602,-566.03C550.954,-571.051 584.356,-576.967 613.765,-582.175"/>
<polygon fill="#757575" stroke="#757575" points="613.529,-585.688 623.986,-583.986 614.75,-578.795 613.529,-585.688"/>
</g>
<!-- ../adapters/drivers/index.js -->
<g id="node14" class="node"><title>../adapters/drivers/index.js</title>
<path fill="none" stroke="#c6c5fe" d="M773.333,-525C773.333,-525 606.667,-525 606.667,-525 602.833,-525 599,-521.167 599,-517.333 599,-517.333 599,-509.667 599,-509.667 599,-505.833 602.833,-502 606.667,-502 606.667,-502 773.333,-502 773.333,-502 777.167,-502 781,-505.833 781,-509.667 781,-509.667 781,-517.333 781,-517.333 781,-521.167 777.167,-525 773.333,-525"/>
<text text-anchor="middle" x="690" y="-509.8" font-family="Arial" font-size="14.00" fill="#c6c5fe">../adapters/drivers/index.js</text>
</g>
<!-- ../adapters/index.js&#45;&gt;../adapters/drivers/index.js -->
<g id="edge31" class="edge"><title>../adapters/index.js&#45;&gt;../adapters/drivers/index.js</title>
<path fill="none" stroke="#757575" d="M522.602,-542.97C550.954,-537.949 584.356,-532.033 613.765,-526.825"/>
<polygon fill="#757575" stroke="#757575" points="614.75,-530.205 623.986,-525.014 613.529,-523.312 614.75,-530.205"/>
</g>
<!-- ../adapters/resources/index.js -->
<g id="node19" class="node"><title>../adapters/resources/index.js</title>
<path fill="none" stroke="#c6c5fe" d="M783.833,-689C783.833,-689 596.167,-689 596.167,-689 592.333,-689 588.5,-685.167 588.5,-681.333 588.5,-681.333 588.5,-673.667 588.5,-673.667 588.5,-669.833 592.333,-666 596.167,-666 596.167,-666 783.833,-666 783.833,-666 787.667,-666 791.5,-669.833 791.5,-673.667 791.5,-673.667 791.5,-681.333 791.5,-681.333 791.5,-685.167 787.667,-689 783.833,-689"/>
<text text-anchor="middle" x="690" y="-673.8" font-family="Arial" font-size="14.00" fill="#c6c5fe">../adapters/resources/index.js</text>
</g>
<!-- ../adapters/index.js&#45;&gt;../adapters/resources/index.js -->
<g id="edge32" class="edge"><title>../adapters/index.js&#45;&gt;../adapters/resources/index.js</title>
<path fill="none" stroke="#757575" d="M479.279,-566.072C520.643,-588.049 610.675,-635.885 658.199,-661.135"/>
<polygon fill="#757575" stroke="#757575" points="656.637,-664.268 667.11,-665.87 659.922,-658.087 656.637,-664.268"/>
</g>
<!-- ../adapters/algorithms/prometheus.js -->
<g id="node7" class="node"><title>../adapters/algorithms/prometheus.js</title>
<path fill="none" stroke="#c6c5fe" d="M1077.83,-771C1077.83,-771 847.167,-771 847.167,-771 843.333,-771 839.5,-767.167 839.5,-763.333 839.5,-763.333 839.5,-755.667 839.5,-755.667 839.5,-751.833 843.333,-748 847.167,-748 847.167,-748 1077.83,-748 1077.83,-748 1081.67,-748 1085.5,-751.833 1085.5,-755.667 1085.5,-755.667 1085.5,-763.333 1085.5,-763.333 1085.5,-767.167 1081.67,-771 1077.83,-771"/>
<text text-anchor="middle" x="962.5" y="-755.8" font-family="Arial" font-size="14.00" fill="#c6c5fe">../adapters/algorithms/prometheus.js</text>
</g>
<!-- ../adapters/algorithms/index.js&#45;&gt;../adapters/algorithms/prometheus.js -->
<g id="edge4" class="edge"><title>../adapters/algorithms/index.js&#45;&gt;../adapters/algorithms/prometheus.js</title>
<path fill="none" stroke="#757575" d="M720.015,-607.137C742.233,-617.309 772.316,-633.983 792,-656.5 818.464,-686.773 796.115,-715.002 828,-739.5 829.437,-740.604 830.91,-741.66 832.414,-742.67"/>
<polygon fill="#757575" stroke="#757575" points="830.96,-745.876 841.348,-747.955 834.523,-739.851 830.96,-745.876"/>
</g>
<!-- ../adapters/algorithms/queue.js -->
<g id="node8" class="node"><title>../adapters/algorithms/queue.js</title>
<path fill="none" stroke="#c6c5fe" d="M1059.83,-566C1059.83,-566 865.167,-566 865.167,-566 861.333,-566 857.5,-562.167 857.5,-558.333 857.5,-558.333 857.5,-550.667 857.5,-550.667 857.5,-546.833 861.333,-543 865.167,-543 865.167,-543 1059.83,-543 1059.83,-543 1063.67,-543 1067.5,-546.833 1067.5,-550.667 1067.5,-550.667 1067.5,-558.333 1067.5,-558.333 1067.5,-562.167 1063.67,-566 1059.83,-566"/>
<text text-anchor="middle" x="962.5" y="-550.8" font-family="Arial" font-size="14.00" fill="#c6c5fe">../adapters/algorithms/queue.js</text>
</g>
<!-- ../adapters/algorithms/index.js&#45;&gt;../adapters/algorithms/queue.js -->
<g id="edge5" class="edge"><title>../adapters/algorithms/index.js&#45;&gt;../adapters/algorithms/queue.js</title>
<path fill="none" stroke="#757575" d="M766.008,-583.955C786.138,-580.87 807.897,-577.547 828,-574.5 842.921,-572.239 858.782,-569.85 874.167,-567.54"/>
<polygon fill="#757575" stroke="#757575" points="874.823,-570.981 884.193,-566.036 873.785,-564.058 874.823,-570.981"/>
</g>
<!-- ../adapters/algorithms/store.js -->
<g id="node9" class="node"><title>../adapters/algorithms/store.js</title>
<path fill="none" stroke="#c6c5fe" d="M1056.33,-648C1056.33,-648 868.667,-648 868.667,-648 864.833,-648 861,-644.167 861,-640.333 861,-640.333 861,-632.667 861,-632.667 861,-628.833 864.833,-625 868.667,-625 868.667,-625 1056.33,-625 1056.33,-625 1060.17,-625 1064,-628.833 1064,-632.667 1064,-632.667 1064,-640.333 1064,-640.333 1064,-644.167 1060.17,-648 1056.33,-648"/>
<text text-anchor="middle" x="962.5" y="-632.8" font-family="Arial" font-size="14.00" fill="#c6c5fe">../adapters/algorithms/store.js</text>
</g>
<!-- ../adapters/algorithms/index.js&#45;&gt;../adapters/algorithms/store.js -->
<g id="edge6" class="edge"><title>../adapters/algorithms/index.js&#45;&gt;../adapters/algorithms/store.js</title>
<path fill="none" stroke="#757575" d="M767.069,-607.03C800.776,-612.139 840.592,-618.174 875.387,-623.448"/>
<polygon fill="#757575" stroke="#757575" points="875.122,-626.947 885.534,-624.986 876.171,-620.027 875.122,-626.947"/>
</g>
<!-- ../adapters/algorithms/templates&#45;store.js -->
<g id="node10" class="node"><title>../adapters/algorithms/templates&#45;store.js</title>
<path fill="none" stroke="#c6c5fe" d="M1089.33,-607C1089.33,-607 835.667,-607 835.667,-607 831.833,-607 828,-603.167 828,-599.333 828,-599.333 828,-591.667 828,-591.667 828,-587.833 831.833,-584 835.667,-584 835.667,-584 1089.33,-584 1089.33,-584 1093.17,-584 1097,-587.833 1097,-591.667 1097,-591.667 1097,-599.333 1097,-599.333 1097,-603.167 1093.17,-607 1089.33,-607"/>
<text text-anchor="middle" x="962.5" y="-591.8" font-family="Arial" font-size="14.00" fill="#c6c5fe">../adapters/algorithms/templates&#45;store.js</text>
</g>
<!-- ../adapters/algorithms/index.js&#45;&gt;../adapters/algorithms/templates&#45;store.js -->
<g id="edge7" class="edge"><title>../adapters/algorithms/index.js&#45;&gt;../adapters/algorithms/templates&#45;store.js</title>
<path fill="none" stroke="#757575" d="M792.109,-595.5C800.522,-595.5 809.123,-595.5 817.771,-595.5"/>
<polygon fill="#757575" stroke="#757575" points="817.936,-599 827.936,-595.5 817.935,-592 817.936,-599"/>
</g>
<!-- ../adapters/algorithms/prometheus.js&#45;&gt;../adapters/Adapter.js -->
<g id="edge8" class="edge"><title>../adapters/algorithms/prometheus.js&#45;&gt;../adapters/Adapter.js</title>
<path fill="none" stroke="#757575" d="M1083.65,-747.955C1088.34,-745.515 1092.82,-742.713 1097,-739.5 1128.88,-715.002 1105.95,-686.252 1133,-656.5 1151.51,-636.141 1178.44,-621.079 1201.09,-611.015"/>
<polygon fill="#757575" stroke="#757575" points="1202.66,-614.147 1210.49,-607.007 1199.92,-607.708 1202.66,-614.147"/>
</g>
<!-- ../helpers/prometheus.js -->
<g id="node11" class="node"><title>../helpers/prometheus.js</title>
<path fill="none" stroke="#c6c5fe" d="M1321.33,-689C1321.33,-689 1167.67,-689 1167.67,-689 1163.83,-689 1160,-685.167 1160,-681.333 1160,-681.333 1160,-673.667 1160,-673.667 1160,-669.833 1163.83,-666 1167.67,-666 1167.67,-666 1321.33,-666 1321.33,-666 1325.17,-666 1329,-669.833 1329,-673.667 1329,-673.667 1329,-681.333 1329,-681.333 1329,-685.167 1325.17,-689 1321.33,-689"/>
<text text-anchor="middle" x="1244.5" y="-673.8" font-family="Arial" font-size="14.00" fill="#c6c5fe">../helpers/prometheus.js</text>
</g>
<!-- ../adapters/algorithms/prometheus.js&#45;&gt;../helpers/prometheus.js -->
<g id="edge9" class="edge"><title>../adapters/algorithms/prometheus.js&#45;&gt;../helpers/prometheus.js</title>
<path fill="none" stroke="#757575" d="M1060.37,-747.934C1072.8,-745.59 1085.27,-742.804 1097,-739.5 1137.84,-727.997 1182.43,-707.971 1211.55,-693.795"/>
<polygon fill="#757575" stroke="#757575" points="1213.38,-696.793 1220.81,-689.232 1210.29,-690.514 1213.38,-696.793"/>
</g>
<!-- ../adapters/algorithms/queue.js&#45;&gt;../adapters/Adapter.js -->
<g id="edge10" class="edge"><title>../adapters/algorithms/queue.js&#45;&gt;../adapters/Adapter.js</title>
<path fill="none" stroke="#757575" d="M1042.24,-566.03C1078.46,-571.334 1121.5,-577.636 1158.47,-583.049"/>
<polygon fill="#757575" stroke="#757575" points="1158.32,-586.564 1168.72,-584.55 1159.33,-579.638 1158.32,-586.564"/>
</g>
<!-- ../state/state&#45;manager.js -->
<g id="node12" class="node"><title>../state/state&#45;manager.js</title>
<path fill="none" stroke="#cfffac" d="M1320.33,-565C1320.33,-565 1168.67,-565 1168.67,-565 1164.83,-565 1161,-561.167 1161,-557.333 1161,-557.333 1161,-549.667 1161,-549.667 1161,-545.833 1164.83,-542 1168.67,-542 1168.67,-542 1320.33,-542 1320.33,-542 1324.17,-542 1328,-545.833 1328,-549.667 1328,-549.667 1328,-557.333 1328,-557.333 1328,-561.167 1324.17,-565 1320.33,-565"/>
<text text-anchor="middle" x="1244.5" y="-549.8" font-family="Arial" font-size="14.00" fill="#cfffac">../state/state&#45;manager.js</text>
</g>
<!-- ../adapters/algorithms/queue.js&#45;&gt;../state/state&#45;manager.js -->
<g id="edge11" class="edge"><title>../adapters/algorithms/queue.js&#45;&gt;../state/state&#45;manager.js</title>
<path fill="none" stroke="#757575" d="M1067.76,-554.128C1094.92,-554.031 1124.01,-553.927 1150.54,-553.832"/>
<polygon fill="#757575" stroke="#757575" points="1150.59,-557.332 1160.57,-553.796 1150.56,-550.332 1150.59,-557.332"/>
</g>
<!-- ../adapters/algorithms/store.js&#45;&gt;../adapters/Adapter.js -->
<g id="edge12" class="edge"><title>../adapters/algorithms/store.js&#45;&gt;../adapters/Adapter.js</title>
<path fill="none" stroke="#757575" d="M1042.24,-624.97C1078.46,-619.666 1121.5,-613.364 1158.47,-607.951"/>
<polygon fill="#757575" stroke="#757575" points="1159.33,-611.362 1168.72,-606.45 1158.32,-604.436 1159.33,-611.362"/>
</g>
<!-- ../adapters/algorithms/store.js&#45;&gt;../state/state&#45;manager.js -->
<g id="edge14" class="edge"><title>../adapters/algorithms/store.js&#45;&gt;../state/state&#45;manager.js</title>
<path fill="none" stroke="#757575" d="M1064.1,-628.483C1075.59,-625.319 1086.83,-621.1 1097,-615.5 1118.24,-603.807 1111.94,-586.529 1133,-574.5 1138.62,-571.29 1144.64,-568.559 1150.85,-566.237"/>
<polygon fill="#757575" stroke="#757575" points="1152.39,-569.413 1160.76,-562.915 1150.16,-562.777 1152.39,-569.413"/>
</g>
<!-- ../consts/components.js -->
<g id="node13" class="node"><title>../consts/components.js</title>
<path fill="none" stroke="#cfffac" d="M1551.33,-567C1551.33,-567 1399.67,-567 1399.67,-567 1395.83,-567 1392,-563.167 1392,-559.333 1392,-559.333 1392,-551.667 1392,-551.667 1392,-547.833 1395.83,-544 1399.67,-544 1399.67,-544 1551.33,-544 1551.33,-544 1555.17,-544 1559,-547.833 1559,-551.667 1559,-551.667 1559,-559.333 1559,-559.333 1559,-563.167 1555.17,-567 1551.33,-567"/>
<text text-anchor="middle" x="1475.5" y="-551.8" font-family="Arial" font-size="14.00" fill="#cfffac">../consts/components.js</text>
</g>
<!-- ../adapters/algorithms/store.js&#45;&gt;../consts/components.js -->
<g id="edge13" class="edge"><title>../adapters/algorithms/store.js&#45;&gt;../consts/components.js</title>
<path fill="none" stroke="#757575" d="M1064.08,-642.413C1144.45,-644.463 1259.25,-641.349 1356,-615.5 1390.02,-606.409 1425.63,-586.81 1448.82,-572.477"/>
<polygon fill="#757575" stroke="#757575" points="1450.77,-575.381 1457.36,-567.084 1447.04,-569.461 1450.77,-575.381"/>
</g>
<!-- ../adapters/algorithms/templates&#45;store.js&#45;&gt;../adapters/Adapter.js -->
<g id="edge15" class="edge"><title>../adapters/algorithms/templates&#45;store.js&#45;&gt;../adapters/Adapter.js</title>
<path fill="none" stroke="#757575" d="M1097.35,-595.5C1118.3,-595.5 1139.44,-595.5 1158.88,-595.5"/>
<polygon fill="#757575" stroke="#757575" points="1158.88,-599 1168.88,-595.5 1158.88,-592 1158.88,-599"/>
</g>
<!-- ../adapters/algorithms/templates&#45;store.js&#45;&gt;../state/state&#45;manager.js -->
<g id="edge16" class="edge"><title>../adapters/algorithms/templates&#45;store.js&#45;&gt;../state/state&#45;manager.js</title>
<path fill="none" stroke="#757575" d="M1040.38,-583.968C1076.34,-578.574 1119.33,-572.126 1156.48,-566.553"/>
<polygon fill="#757575" stroke="#757575" points="1157.42,-569.951 1166.79,-565.007 1156.38,-563.029 1157.42,-569.951"/>
</g>
<!-- ../helpers/prometheus.js&#45;&gt;../consts/components.js -->
<g id="edge35" class="edge"><title>../helpers/prometheus.js&#45;&gt;../consts/components.js</title>
<path fill="none" stroke="#757575" d="M1310.25,-665.948C1325.7,-661.887 1341.81,-656.52 1356,-649.5 1395.41,-630.004 1433.96,-595.799 1455.92,-574.466"/>
<polygon fill="#757575" stroke="#757575" points="1458.57,-576.76 1463.23,-567.24 1453.65,-571.782 1458.57,-576.76"/>
</g>
<!-- ../adapters/drivers/prometheus.js -->
<g id="node15" class="node"><title>../adapters/drivers/prometheus.js</title>
<path fill="none" stroke="#c6c5fe" d="M1066.83,-689C1066.83,-689 858.167,-689 858.167,-689 854.333,-689 850.5,-685.167 850.5,-681.333 850.5,-681.333 850.5,-673.667 850.5,-673.667 850.5,-669.833 854.333,-666 858.167,-666 858.167,-666 1066.83,-666 1066.83,-666 1070.67,-666 1074.5,-669.833 1074.5,-673.667 1074.5,-673.667 1074.5,-681.333 1074.5,-681.333 1074.5,-685.167 1070.67,-689 1066.83,-689"/>
<text text-anchor="middle" x="962.5" y="-673.8" font-family="Arial" font-size="14.00" fill="#c6c5fe">../adapters/drivers/prometheus.js</text>
</g>
<!-- ../adapters/drivers/index.js&#45;&gt;../adapters/drivers/prometheus.js -->
<g id="edge17" class="edge"><title>../adapters/drivers/index.js&#45;&gt;../adapters/drivers/prometheus.js</title>
<path fill="none" stroke="#757575" d="M719.988,-525.161C742.191,-535.346 772.266,-552.027 792,-574.5 818.262,-604.408 796.473,-632.205 828,-656.5 832.134,-659.685 836.557,-662.476 841.188,-664.916"/>
<polygon fill="#757575" stroke="#757575" points="839.787,-668.124 850.328,-669.188 842.751,-661.783 839.787,-668.124"/>
</g>
<!-- ../adapters/drivers/queue.js -->
<g id="node16" class="node"><title>../adapters/drivers/queue.js</title>
<path fill="none" stroke="#c6c5fe" d="M1048.83,-484C1048.83,-484 876.167,-484 876.167,-484 872.333,-484 868.5,-480.167 868.5,-476.333 868.5,-476.333 868.5,-468.667 868.5,-468.667 868.5,-464.833 872.333,-461 876.167,-461 876.167,-461 1048.83,-461 1048.83,-461 1052.67,-461 1056.5,-464.833 1056.5,-468.667 1056.5,-468.667 1056.5,-476.333 1056.5,-476.333 1056.5,-480.167 1052.67,-484 1048.83,-484"/>
<text text-anchor="middle" x="962.5" y="-468.8" font-family="Arial" font-size="14.00" fill="#c6c5fe">../adapters/drivers/queue.js</text>
</g>
<!-- ../adapters/drivers/index.js&#45;&gt;../adapters/drivers/queue.js -->
<g id="edge18" class="edge"><title>../adapters/drivers/index.js&#45;&gt;../adapters/drivers/queue.js</title>
<path fill="none" stroke="#757575" d="M766.008,-501.955C786.138,-498.87 807.897,-495.547 828,-492.5 842.921,-490.239 858.782,-487.85 874.167,-485.54"/>
<polygon fill="#757575" stroke="#757575" points="874.823,-488.981 884.193,-484.036 873.785,-482.058 874.823,-488.981"/>
</g>
<!-- ../adapters/drivers/store.js -->
<g id="node17" class="node"><title>../adapters/drivers/store.js</title>
<path fill="none" stroke="#c6c5fe" d="M1044.83,-443C1044.83,-443 880.167,-443 880.167,-443 876.333,-443 872.5,-439.167 872.5,-435.333 872.5,-435.333 872.5,-427.667 872.5,-427.667 872.5,-423.833 876.333,-420 880.167,-420 880.167,-420 1044.83,-420 1044.83,-420 1048.67,-420 1052.5,-423.833 1052.5,-427.667 1052.5,-427.667 1052.5,-435.333 1052.5,-435.333 1052.5,-439.167 1048.67,-443 1044.83,-443"/>
<text text-anchor="middle" x="962.5" y="-427.8" font-family="Arial" font-size="14.00" fill="#c6c5fe">../adapters/drivers/store.js</text>
</g>
<!-- ../adapters/drivers/index.js&#45;&gt;../adapters/drivers/store.js -->
<g id="edge19" class="edge"><title>../adapters/drivers/index.js&#45;&gt;../adapters/drivers/store.js</title>
<path fill="none" stroke="#757575" d="M711.66,-501.958C737.892,-487.825 784.931,-464.204 828,-451.5 839.063,-448.237 850.808,-445.489 862.562,-443.179"/>
<polygon fill="#757575" stroke="#757575" points="863.234,-446.614 872.422,-441.34 861.95,-439.732 863.234,-446.614"/>
</g>
<!-- ../adapters/drivers/templates&#45;store.js -->
<g id="node18" class="node"><title>../adapters/drivers/templates&#45;store.js</title>
<path fill="none" stroke="#c6c5fe" d="M1078.33,-525C1078.33,-525 846.667,-525 846.667,-525 842.833,-525 839,-521.167 839,-517.333 839,-517.333 839,-509.667 839,-509.667 839,-505.833 842.833,-502 846.667,-502 846.667,-502 1078.33,-502 1078.33,-502 1082.17,-502 1086,-505.833 1086,-509.667 1086,-509.667 1086,-517.333 1086,-517.333 1086,-521.167 1082.17,-525 1078.33,-525"/>
<text text-anchor="middle" x="962.5" y="-509.8" font-family="Arial" font-size="14.00" fill="#c6c5fe">../adapters/drivers/templates&#45;store.js</text>
</g>
<!-- ../adapters/drivers/index.js&#45;&gt;../adapters/drivers/templates&#45;store.js -->
<g id="edge20" class="edge"><title>../adapters/drivers/index.js&#45;&gt;../adapters/drivers/templates&#45;store.js</title>
<path fill="none" stroke="#757575" d="M781.073,-513.5C796.345,-513.5 812.487,-513.5 828.584,-513.5"/>
<polygon fill="#757575" stroke="#757575" points="828.592,-517 838.592,-513.5 828.592,-510 828.592,-517"/>
</g>
<!-- ../adapters/drivers/prometheus.js&#45;&gt;../adapters/Adapter.js -->
<g id="edge21" class="edge"><title>../adapters/drivers/prometheus.js&#45;&gt;../adapters/Adapter.js</title>
<path fill="none" stroke="#757575" d="M1055.69,-665.95C1069.65,-663.353 1083.79,-660.231 1097,-656.5 1137.5,-645.062 1181.82,-625.559 1210.99,-611.686"/>
<polygon fill="#757575" stroke="#757575" points="1212.78,-614.708 1220.27,-607.217 1209.74,-608.401 1212.78,-614.708"/>
</g>
<!-- ../adapters/drivers/prometheus.js&#45;&gt;../helpers/prometheus.js -->
<g id="edge22" class="edge"><title>../adapters/drivers/prometheus.js&#45;&gt;../helpers/prometheus.js</title>
<path fill="none" stroke="#757575" d="M1074.57,-677.5C1099.41,-677.5 1125.54,-677.5 1149.61,-677.5"/>
<polygon fill="#757575" stroke="#757575" points="1149.79,-681 1159.79,-677.5 1149.79,-674 1149.79,-681"/>
</g>
<!-- ../adapters/drivers/queue.js&#45;&gt;../adapters/Adapter.js -->
<g id="edge23" class="edge"><title>../adapters/drivers/queue.js&#45;&gt;../adapters/Adapter.js</title>
<path fill="none" stroke="#757575" d="M1056.69,-474.214C1071.2,-477.805 1085.25,-483.557 1097,-492.5 1128.35,-516.362 1102.23,-548.896 1133,-573.5 1140.73,-579.685 1149.73,-584.283 1159.19,-587.682"/>
<polygon fill="#757575" stroke="#757575" points="1158.18,-591.034 1168.77,-590.695 1160.28,-584.356 1158.18,-591.034"/>
</g>
<!-- ../adapters/drivers/queue.js&#45;&gt;../state/state&#45;manager.js -->
<g id="edge24" class="edge"><title>../adapters/drivers/queue.js&#45;&gt;../state/state&#45;manager.js</title>
<path fill="none" stroke="#757575" d="M1056.76,-483.467C1070.38,-485.934 1084.13,-488.914 1097,-492.5 1113.7,-497.153 1117,-500.836 1133,-507.5 1157.45,-517.684 1184.95,-529.132 1206.4,-538.06"/>
<polygon fill="#757575" stroke="#757575" points="1205.22,-541.359 1215.8,-541.971 1207.91,-534.897 1205.22,-541.359"/>
</g>
<!-- ../adapters/drivers/store.js&#45;&gt;../adapters/Adapter.js -->
<g id="edge25" class="edge"><title>../adapters/drivers/store.js&#45;&gt;../adapters/Adapter.js</title>
<path fill="none" stroke="#757575" d="M1052.57,-430.697C1068.82,-434.262 1084.54,-440.652 1097,-451.5 1139.64,-488.619 1091.26,-535.372 1133,-573.5 1140.53,-580.376 1149.57,-585.365 1159.2,-588.949"/>
<polygon fill="#757575" stroke="#757575" points="1158.4,-592.367 1168.99,-592.082 1160.54,-585.7 1158.4,-592.367"/>
</g>
<!-- ../adapters/drivers/store.js&#45;&gt;../state/state&#45;manager.js -->
<g id="edge27" class="edge"><title>../adapters/drivers/store.js&#45;&gt;../state/state&#45;manager.js</title>
<path fill="none" stroke="#757575" d="M1052.79,-434.164C1068.39,-437.539 1083.82,-442.973 1097,-451.5 1121.84,-467.568 1110.31,-488.508 1133,-507.5 1149.43,-521.25 1170.54,-531.385 1189.9,-538.587"/>
<polygon fill="#757575" stroke="#757575" points="1188.94,-541.959 1199.54,-541.99 1191.27,-535.359 1188.94,-541.959"/>
</g>
<!-- ../adapters/drivers/store.js&#45;&gt;../consts/components.js -->
<g id="edge26" class="edge"><title>../adapters/drivers/store.js&#45;&gt;../consts/components.js</title>
<path fill="none" stroke="#757575" d="M1052.83,-441.767C1067.71,-444.364 1082.89,-447.568 1097,-451.5 1113.7,-456.153 1116.57,-460.967 1133,-466.5 1228.33,-498.606 1341.84,-526.136 1411,-541.755"/>
<polygon fill="#757575" stroke="#757575" points="1410.35,-545.196 1420.88,-543.972 1411.89,-538.366 1410.35,-545.196"/>
</g>
<!-- ../adapters/drivers/templates&#45;store.js&#45;&gt;../adapters/Adapter.js -->
<g id="edge28" class="edge"><title>../adapters/drivers/templates&#45;store.js&#45;&gt;../adapters/Adapter.js</title>
<path fill="none" stroke="#757575" d="M1077.79,-525.076C1084.45,-527.441 1090.91,-530.226 1097,-533.5 1118.07,-544.827 1112.21,-561.673 1133,-573.5 1141.14,-578.13 1150.1,-581.798 1159.29,-584.702"/>
<polygon fill="#757575" stroke="#757575" points="1158.34,-588.072 1168.92,-587.459 1160.27,-581.342 1158.34,-588.072"/>
</g>
<!-- ../adapters/drivers/templates&#45;store.js&#45;&gt;../state/state&#45;manager.js -->
<g id="edge29" class="edge"><title>../adapters/drivers/templates&#45;store.js&#45;&gt;../state/state&#45;manager.js</title>
<path fill="none" stroke="#757575" d="M1044.11,-525.016C1078.08,-529.868 1117.77,-535.539 1152.76,-540.537"/>
<polygon fill="#757575" stroke="#757575" points="1152.58,-544.047 1162.97,-541.996 1153.57,-537.117 1152.58,-544.047"/>
</g>
<!-- ../adapters/resources/k8s.js -->
<g id="node20" class="node"><title>../adapters/resources/k8s.js</title>
<path fill="none" stroke="#c6c5fe" d="M1050.33,-730C1050.33,-730 874.667,-730 874.667,-730 870.833,-730 867,-726.167 867,-722.333 867,-722.333 867,-714.667 867,-714.667 867,-710.833 870.833,-707 874.667,-707 874.667,-707 1050.33,-707 1050.33,-707 1054.17,-707 1058,-710.833 1058,-714.667 1058,-714.667 1058,-722.333 1058,-722.333 1058,-726.167 1054.17,-730 1050.33,-730"/>
<text text-anchor="middle" x="962.5" y="-714.8" font-family="Arial" font-size="14.00" fill="#c6c5fe">../adapters/resources/k8s.js</text>
</g>
<!-- ../adapters/resources/index.js&#45;&gt;../adapters/resources/k8s.js -->
<g id="edge33" class="edge"><title>../adapters/resources/index.js&#45;&gt;../adapters/resources/k8s.js</title>
<path fill="none" stroke="#757575" d="M766.008,-689.045C786.138,-692.13 807.897,-695.453 828,-698.5 842.921,-700.761 858.782,-703.15 874.167,-705.46"/>
<polygon fill="#757575" stroke="#757575" points="873.785,-708.942 884.193,-706.964 874.823,-702.019 873.785,-708.942"/>
</g>
<!-- ../adapters/resources/k8s.js&#45;&gt;../adapters/Adapter.js -->
<g id="edge34" class="edge"><title>../adapters/resources/k8s.js&#45;&gt;../adapters/Adapter.js</title>
<path fill="none" stroke="#757575" d="M1058.2,-712.926C1071.75,-709.707 1085.11,-705.081 1097,-698.5 1118.51,-686.596 1113.93,-672.022 1133,-656.5 1155.6,-638.1 1184.54,-622.354 1207.14,-611.471"/>
<polygon fill="#757575" stroke="#757575" points="1208.84,-614.538 1216.4,-607.111 1205.86,-608.205 1208.84,-614.538"/>
</g>
<!-- ../adapters/settings.js -->
<g id="node21" class="node"><title>../adapters/settings.js</title>
<path fill="none" stroke="#cfffac" d="M283.333,-262C283.333,-262 147.667,-262 147.667,-262 143.833,-262 140,-258.167 140,-254.333 140,-254.333 140,-246.667 140,-246.667 140,-242.833 143.833,-239 147.667,-239 147.667,-239 283.333,-239 283.333,-239 287.167,-239 291,-242.833 291,-246.667 291,-246.667 291,-254.333 291,-254.333 291,-258.167 287.167,-262 283.333,-262"/>
<text text-anchor="middle" x="215.5" y="-246.8" font-family="Arial" font-size="14.00" fill="#cfffac">../adapters/settings.js</text>
</g>
<!-- ../metrics/Metric.js -->
<g id="node22" class="node"><title>../metrics/Metric.js</title>
<path fill="none" stroke="#cfffac" d="M1302.33,-302C1302.33,-302 1186.67,-302 1186.67,-302 1182.83,-302 1179,-298.167 1179,-294.333 1179,-294.333 1179,-286.667 1179,-286.667 1179,-282.833 1182.83,-279 1186.67,-279 1186.67,-279 1302.33,-279 1302.33,-279 1306.17,-279 1310,-282.833 1310,-286.667 1310,-286.667 1310,-294.333 1310,-294.333 1310,-298.167 1306.17,-302 1302.33,-302"/>
<text text-anchor="middle" x="1244.5" y="-286.8" font-family="Arial" font-size="14.00" fill="#cfffac">../metrics/Metric.js</text>
</g>
<!-- ../metrics/algorithms/cpu&#45;usage.js -->
<g id="node23" class="node"><title>../metrics/algorithms/cpu&#45;usage.js</title>
<path fill="none" stroke="#c6c5fe" d="M1068.83,-199C1068.83,-199 856.167,-199 856.167,-199 852.333,-199 848.5,-195.167 848.5,-191.333 848.5,-191.333 848.5,-183.667 848.5,-183.667 848.5,-179.833 852.333,-176 856.167,-176 856.167,-176 1068.83,-176 1068.83,-176 1072.67,-176 1076.5,-179.833 1076.5,-183.667 1076.5,-183.667 1076.5,-191.333 1076.5,-191.333 1076.5,-195.167 1072.67,-199 1068.83,-199"/>
<text text-anchor="middle" x="962.5" y="-183.8" font-family="Arial" font-size="14.00" fill="#c6c5fe">../metrics/algorithms/cpu&#45;usage.js</text>
</g>
<!-- ../metrics/algorithms/cpu&#45;usage.js&#45;&gt;../utils/utils.js -->
<g id="edge40" class="edge"><title>../metrics/algorithms/cpu&#45;usage.js&#45;&gt;../utils/utils.js</title>
<path fill="none" stroke="#757575" d="M1002.11,-175.984C1036.19,-166.457 1087.4,-153.679 1133,-148.5 1231.48,-137.317 1257.27,-139.819 1356,-148.5 1376.29,-150.284 1398.32,-153.756 1417.81,-157.37"/>
<polygon fill="#757575" stroke="#757575" points="1417.27,-160.831 1427.75,-159.265 1418.59,-153.955 1417.27,-160.831"/>
</g>
<!-- ../metrics/algorithms/cpu&#45;usage.js&#45;&gt;../metrics/Metric.js -->
<g id="edge36" class="edge"><title>../metrics/algorithms/cpu&#45;usage.js&#45;&gt;../metrics/Metric.js</title>
<path fill="none" stroke="#757575" d="M1076.68,-196.828C1083.85,-199.704 1090.7,-203.22 1097,-207.5 1123.36,-225.405 1107,-251.083 1133,-269.5 1143.6,-277.01 1156.16,-282.035 1168.94,-285.359"/>
<polygon fill="#757575" stroke="#757575" points="1168.2,-288.78 1178.72,-287.582 1169.75,-281.954 1168.2,-288.78"/>
</g>
<!-- ../resources/ratios&#45;allocator.js -->
<g id="node24" class="node"><title>../resources/ratios&#45;allocator.js</title>
<path fill="none" stroke="#cfffac" d="M1337.33,-181C1337.33,-181 1151.67,-181 1151.67,-181 1147.83,-181 1144,-177.167 1144,-173.333 1144,-173.333 1144,-165.667 1144,-165.667 1144,-161.833 1147.83,-158 1151.67,-158 1151.67,-158 1337.33,-158 1337.33,-158 1341.17,-158 1345,-161.833 1345,-165.667 1345,-165.667 1345,-173.333 1345,-173.333 1345,-177.167 1341.17,-181 1337.33,-181"/>
<text text-anchor="middle" x="1244.5" y="-165.8" font-family="Arial" font-size="14.00" fill="#cfffac">../resources/ratios&#45;allocator.js</text>
</g>
<!-- ../metrics/algorithms/cpu&#45;usage.js&#45;&gt;../resources/ratios&#45;allocator.js -->
<g id="edge37" class="edge"><title>../metrics/algorithms/cpu&#45;usage.js&#45;&gt;../resources/ratios&#45;allocator.js</title>
<path fill="none" stroke="#757575" d="M1076.58,-180.231C1095.49,-179.015 1115.09,-177.755 1133.91,-176.545"/>
<polygon fill="#757575" stroke="#757575" points="1134.22,-180.033 1143.97,-175.898 1133.77,-173.047 1134.22,-180.033"/>
</g>
<!-- ../resources/resource&#45;allocator.js -->
<g id="node25" class="node"><title>../resources/resource&#45;allocator.js</title>
<path fill="none" stroke="#cfffac" d="M1348.33,-343C1348.33,-343 1140.67,-343 1140.67,-343 1136.83,-343 1133,-339.167 1133,-335.333 1133,-335.333 1133,-327.667 1133,-327.667 1133,-323.833 1136.83,-320 1140.67,-320 1140.67,-320 1348.33,-320 1348.33,-320 1352.17,-320 1356,-323.833 1356,-327.667 1356,-327.667 1356,-335.333 1356,-335.333 1356,-339.167 1352.17,-343 1348.33,-343"/>
<text text-anchor="middle" x="1244.5" y="-327.8" font-family="Arial" font-size="14.00" fill="#cfffac">../resources/resource&#45;allocator.js</text>
</g>
<!-- ../metrics/algorithms/cpu&#45;usage.js&#45;&gt;../resources/resource&#45;allocator.js -->
<g id="edge38" class="edge"><title>../metrics/algorithms/cpu&#45;usage.js&#45;&gt;../resources/resource&#45;allocator.js</title>
<path fill="none" stroke="#757575" d="M1076.72,-195.07C1084,-198.333 1090.86,-202.418 1097,-207.5 1134.35,-238.429 1096.26,-278.847 1133,-310.5 1134.74,-312.002 1136.56,-313.41 1138.44,-314.729"/>
<polygon fill="#757575" stroke="#757575" points="1136.69,-317.762 1147.05,-319.966 1140.33,-311.78 1136.69,-317.762"/>
</g>
<!-- ../utils/queue.js -->
<g id="node26" class="node"><title>../utils/queue.js</title>
<path fill="none" stroke="#c6c5fe" d="M1291.83,-261C1291.83,-261 1197.17,-261 1197.17,-261 1193.33,-261 1189.5,-257.167 1189.5,-253.333 1189.5,-253.333 1189.5,-245.667 1189.5,-245.667 1189.5,-241.833 1193.33,-238 1197.17,-238 1197.17,-238 1291.83,-238 1291.83,-238 1295.67,-238 1299.5,-241.833 1299.5,-245.667 1299.5,-245.667 1299.5,-253.333 1299.5,-253.333 1299.5,-257.167 1295.67,-261 1291.83,-261"/>
<text text-anchor="middle" x="1244.5" y="-245.8" font-family="Arial" font-size="14.00" fill="#c6c5fe">../utils/queue.js</text>
</g>
<!-- ../metrics/algorithms/cpu&#45;usage.js&#45;&gt;../utils/queue.js -->
<g id="edge39" class="edge"><title>../metrics/algorithms/cpu&#45;usage.js&#45;&gt;../utils/queue.js</title>
<path fill="none" stroke="#757575" d="M1051.41,-199.001C1066.67,-201.473 1082.34,-204.315 1097,-207.5 1131.35,-214.963 1169.49,-225.989 1198.25,-234.872"/>
<polygon fill="#757575" stroke="#757575" points="1197.42,-238.279 1208.01,-237.915 1199.5,-231.596 1197.42,-238.279"/>
</g>
<!-- ../utils/queue.js&#45;&gt;../utils/utils.js -->
<g id="edge70" class="edge"><title>../utils/queue.js&#45;&gt;../utils/utils.js</title>
<path fill="none" stroke="#757575" d="M1299.78,-238.961C1317.87,-234.859 1338,-229.651 1356,-223.5 1386.46,-213.089 1419.69,-197.555 1443.19,-185.816"/>
<polygon fill="#757575" stroke="#757575" points="1444.97,-188.838 1452.32,-181.204 1441.82,-182.591 1444.97,-188.838"/>
</g>
<!-- ../metrics/algorithms/index.js -->
<g id="node27" class="node"><title>../metrics/algorithms/index.js</title>
<path fill="none" stroke="#c6c5fe" d="M779.833,-281C779.833,-281 600.167,-281 600.167,-281 596.333,-281 592.5,-277.167 592.5,-273.333 592.5,-273.333 592.5,-265.667 592.5,-265.667 592.5,-261.833 596.333,-258 600.167,-258 600.167,-258 779.833,-258 779.833,-258 783.667,-258 787.5,-261.833 787.5,-265.667 787.5,-265.667 787.5,-273.333 787.5,-273.333 787.5,-277.167 783.667,-281 779.833,-281"/>
<text text-anchor="middle" x="690" y="-265.8" font-family="Arial" font-size="14.00" fill="#c6c5fe">../metrics/algorithms/index.js</text>
</g>
<!-- ../metrics/algorithms/index.js&#45;&gt;../metrics/algorithms/cpu&#45;usage.js -->
<g id="edge41" class="edge"><title>../metrics/algorithms/index.js&#45;&gt;../metrics/algorithms/cpu&#45;usage.js</title>
<path fill="none" stroke="#757575" d="M711.66,-257.958C737.892,-243.825 784.931,-220.204 828,-207.5 836.078,-205.117 844.519,-203.009 853.062,-201.146"/>
<polygon fill="#757575" stroke="#757575" points="854.035,-204.519 863.121,-199.069 852.62,-197.663 854.035,-204.519"/>
</g>
<!-- ../metrics/algorithms/queue.js -->
<g id="node28" class="node"><title>../metrics/algorithms/queue.js</title>
<path fill="none" stroke="#c6c5fe" d="M1055.33,-322C1055.33,-322 869.667,-322 869.667,-322 865.833,-322 862,-318.167 862,-314.333 862,-314.333 862,-306.667 862,-306.667 862,-302.833 865.833,-299 869.667,-299 869.667,-299 1055.33,-299 1055.33,-299 1059.17,-299 1063,-302.833 1063,-306.667 1063,-306.667 1063,-314.333 1063,-314.333 1063,-318.167 1059.17,-322 1055.33,-322"/>
<text text-anchor="middle" x="962.5" y="-306.8" font-family="Arial" font-size="14.00" fill="#c6c5fe">../metrics/algorithms/queue.js</text>
</g>
<!-- ../metrics/algorithms/index.js&#45;&gt;../metrics/algorithms/queue.js -->
<g id="edge42" class="edge"><title>../metrics/algorithms/index.js&#45;&gt;../metrics/algorithms/queue.js</title>
<path fill="none" stroke="#757575" d="M767.069,-281.03C800.776,-286.139 840.592,-292.174 875.387,-297.448"/>
<polygon fill="#757575" stroke="#757575" points="875.122,-300.947 885.534,-298.986 876.171,-294.027 875.122,-300.947"/>
</g>
<!-- ../metrics/algorithms/run&#45;time.js -->
<g id="node29" class="node"><title>../metrics/algorithms/run&#45;time.js</title>
<path fill="none" stroke="#c6c5fe" d="M1060.83,-240C1060.83,-240 864.167,-240 864.167,-240 860.333,-240 856.5,-236.167 856.5,-232.333 856.5,-232.333 856.5,-224.667 856.5,-224.667 856.5,-220.833 860.333,-217 864.167,-217 864.167,-217 1060.83,-217 1060.83,-217 1064.67,-217 1068.5,-220.833 1068.5,-224.667 1068.5,-224.667 1068.5,-232.333 1068.5,-232.333 1068.5,-236.167 1064.67,-240 1060.83,-240"/>
<text text-anchor="middle" x="962.5" y="-224.8" font-family="Arial" font-size="14.00" fill="#c6c5fe">../metrics/algorithms/run&#45;time.js</text>
</g>
<!-- ../metrics/algorithms/index.js&#45;&gt;../metrics/algorithms/run&#45;time.js -->
<g id="edge43" class="edge"><title>../metrics/algorithms/index.js&#45;&gt;../metrics/algorithms/run&#45;time.js</title>
<path fill="none" stroke="#757575" d="M766.008,-257.955C786.138,-254.87 807.897,-251.547 828,-248.5 842.921,-246.239 858.782,-243.85 874.167,-241.54"/>
<polygon fill="#757575" stroke="#757575" points="874.823,-244.981 884.193,-240.036 873.785,-238.058 874.823,-244.981"/>
</g>
<!-- ../metrics/algorithms/templates&#45;store.js -->
<g id="node30" class="node"><title>../metrics/algorithms/templates&#45;store.js</title>
<path fill="none" stroke="#c6c5fe" d="M1084.83,-281C1084.83,-281 840.167,-281 840.167,-281 836.333,-281 832.5,-277.167 832.5,-273.333 832.5,-273.333 832.5,-265.667 832.5,-265.667 832.5,-261.833 836.333,-258 840.167,-258 840.167,-258 1084.83,-258 1084.83,-258 1088.67,-258 1092.5,-261.833 1092.5,-265.667 1092.5,-265.667 1092.5,-273.333 1092.5,-273.333 1092.5,-277.167 1088.67,-281 1084.83,-281"/>
<text text-anchor="middle" x="962.5" y="-265.8" font-family="Arial" font-size="14.00" fill="#c6c5fe">../metrics/algorithms/templates&#45;store.js</text>
</g>
<!-- ../metrics/algorithms/index.js&#45;&gt;../metrics/algorithms/templates&#45;store.js -->
<g id="edge44" class="edge"><title>../metrics/algorithms/index.js&#45;&gt;../metrics/algorithms/templates&#45;store.js</title>
<path fill="none" stroke="#757575" d="M787.511,-269.5C798.777,-269.5 810.434,-269.5 822.132,-269.5"/>
<polygon fill="#757575" stroke="#757575" points="822.415,-273 832.415,-269.5 822.415,-266 822.415,-273"/>
</g>
<!-- ../metrics/algorithms/queue.js&#45;&gt;../consts/components.js -->
<g id="edge45" class="edge"><title>../metrics/algorithms/queue.js&#45;&gt;../consts/components.js</title>
<path fill="none" stroke="#757575" d="M1063.31,-321.181C1074.83,-323.665 1086.28,-326.727 1097,-330.5 1114.47,-336.649 1115.54,-345.328 1133,-351.5 1227.53,-384.905 1270.88,-332.528 1356,-385.5 1414.07,-421.64 1451.25,-497.866 1466.53,-534.702"/>
<polygon fill="#757575" stroke="#757575" points="1463.29,-536.009 1470.26,-543.982 1469.78,-533.398 1463.29,-536.009"/>
</g>
<!-- ../metrics/algorithms/queue.js&#45;&gt;../metrics/Metric.js -->
<g id="edge46" class="edge"><title>../metrics/algorithms/queue.js&#45;&gt;../metrics/Metric.js</title>
<path fill="none" stroke="#757575" d="M1063.01,-303.392C1097.76,-300.91 1136.15,-298.168 1168.56,-295.853"/>
<polygon fill="#757575" stroke="#757575" points="1169.13,-299.321 1178.86,-295.117 1168.63,-292.339 1169.13,-299.321"/>
</g>
<!-- ../metrics/algorithms/queue.js&#45;&gt;../resources/resource&#45;allocator.js -->
<g id="edge47" class="edge"><title>../metrics/algorithms/queue.js&#45;&gt;../resources/resource&#45;allocator.js</title>
<path fill="none" stroke="#757575" d="M1063.01,-317.963C1082.37,-319.415 1102.86,-320.952 1122.82,-322.449"/>
<polygon fill="#757575" stroke="#757575" points="1122.65,-325.946 1132.89,-323.204 1123.18,-318.966 1122.65,-325.946"/>
</g>
<!-- ../metrics/algorithms/queue.js&#45;&gt;../utils/queue.js -->
<g id="edge48" class="edge"><title>../metrics/algorithms/queue.js&#45;&gt;../utils/queue.js</title>
<path fill="none" stroke="#757575" d="M1062.52,-298.931C1074.29,-296.384 1086.02,-293.281 1097,-289.5 1114.31,-283.542 1115.76,-275.657 1133,-269.5 1147.68,-264.255 1163.98,-260.335 1179.44,-257.424"/>
<polygon fill="#757575" stroke="#757575" points="1180.22,-260.841 1189.46,-255.653 1179.01,-253.947 1180.22,-260.841"/>
</g>
<!-- ../metrics/algorithms/run&#45;time.js&#45;&gt;../utils/utils.js -->
<g id="edge53" class="edge"><title>../metrics/algorithms/run&#45;time.js&#45;&gt;../utils/utils.js</title>
<path fill="none" stroke="#757575" d="M1068.68,-220.009C1147.85,-213.143 1258.94,-202.497 1356,-189.5 1376.25,-186.788 1398.35,-183.224 1417.92,-179.857"/>
<polygon fill="#757575" stroke="#757575" points="1418.65,-183.283 1427.9,-178.12 1417.45,-176.387 1418.65,-183.283"/>
</g>
<!-- ../metrics/algorithms/run&#45;time.js&#45;&gt;../metrics/Metric.js -->
<g id="edge49" class="edge"><title>../metrics/algorithms/run&#45;time.js&#45;&gt;../metrics/Metric.js</title>
<path fill="none" stroke="#757575" d="M1067.22,-240.049C1077.42,-242.369 1087.49,-245.155 1097,-248.5 1114.47,-254.649 1115.65,-263.01 1133,-269.5 1144.29,-273.722 1156.56,-277.129 1168.68,-279.869"/>
<polygon fill="#757575" stroke="#757575" points="1168.29,-283.364 1178.8,-282.016 1169.74,-276.517 1168.29,-283.364"/>
</g>
<!-- ../metrics/algorithms/run&#45;time.js&#45;&gt;../resources/ratios&#45;allocator.js -->
<g id="edge50" class="edge"><title>../metrics/algorithms/run&#45;time.js&#45;&gt;../resources/ratios&#45;allocator.js</title>
<path fill="none" stroke="#757575" d="M1050.45,-216.962C1066.04,-214.287 1082.07,-211.136 1097,-207.5 1113.39,-203.509 1116.77,-200.103 1133,-195.5 1148.16,-191.198 1164.64,-187.047 1180.12,-183.371"/>
<polygon fill="#757575" stroke="#757575" points="1181.2,-186.715 1190.13,-181.028 1179.6,-179.899 1181.2,-186.715"/>
</g>
<!-- ../metrics/algorithms/run&#45;time.js&#45;&gt;../resources/resource&#45;allocator.js -->
<g id="edge51" class="edge"><title>../metrics/algorithms/run&#45;time.js&#45;&gt;../resources/resource&#45;allocator.js</title>
<path fill="none" stroke="#757575" d="M1068.64,-234.897C1078.71,-238.212 1088.37,-242.64 1097,-248.5 1123.36,-266.405 1107,-292.083 1133,-310.5 1135.55,-312.304 1138.21,-313.965 1140.96,-315.493"/>
<polygon fill="#757575" stroke="#757575" points="1139.49,-318.671 1150.01,-319.936 1142.57,-312.387 1139.49,-318.671"/>
</g>
<!-- ../metrics/algorithms/run&#45;time.js&#45;&gt;../utils/queue.js -->
<g id="edge52" class="edge"><title>../metrics/algorithms/run&#45;time.js&#45;&gt;../utils/queue.js</title>
<path fill="none" stroke="#757575" d="M1068.56,-236.379C1105.66,-239.162 1146.27,-242.208 1179.01,-244.663"/>
<polygon fill="#757575" stroke="#757575" points="1179.12,-248.181 1189.35,-245.439 1179.64,-241.201 1179.12,-248.181"/>
</g>
<!-- ../metrics/algorithms/templates&#45;store.js&#45;&gt;../metrics/Metric.js -->
<g id="edge54" class="edge"><title>../metrics/algorithms/templates&#45;store.js&#45;&gt;../metrics/Metric.js</title>
<path fill="none" stroke="#757575" d="M1092.85,-279.201C1118.81,-281.148 1145.26,-283.132 1168.61,-284.883"/>
<polygon fill="#757575" stroke="#757575" points="1168.52,-288.386 1178.76,-285.644 1169.05,-281.406 1168.52,-288.386"/>
</g>
<!-- ../metrics/algorithms/templates&#45;store.js&#45;&gt;../resources/resource&#45;allocator.js -->
<g id="edge55" class="edge"><title>../metrics/algorithms/templates&#45;store.js&#45;&gt;../resources/resource&#45;allocator.js</title>
<path fill="none" stroke="#757575" d="M1067.22,-281.049C1077.42,-283.369 1087.49,-286.155 1097,-289.5 1114.47,-295.649 1115.65,-304.01 1133,-310.5 1139.99,-313.116 1147.36,-315.42 1154.84,-317.445"/>
<polygon fill="#757575" stroke="#757575" points="1154.16,-320.882 1164.71,-319.95 1155.88,-314.098 1154.16,-320.882"/>
</g>
<!-- ../metrics/algorithms/templates&#45;store.js&#45;&gt;../utils/queue.js -->
<g id="edge56" class="edge"><title>../metrics/algorithms/templates&#45;store.js&#45;&gt;../utils/queue.js</title>
<path fill="none" stroke="#757575" d="M1092.85,-260.261C1122.83,-258.12 1153.46,-255.931 1179.21,-254.092"/>
<polygon fill="#757575" stroke="#757575" points="1179.47,-257.583 1189.19,-253.379 1178.97,-250.601 1179.47,-257.583"/>
</g>
<!-- ../metrics/drivers/index.js -->
<g id="node31" class="node"><title>../metrics/drivers/index.js</title>
<path fill="none" stroke="#c6c5fe" d="M768.833,-343C768.833,-343 611.167,-343 611.167,-343 607.333,-343 603.5,-339.167 603.5,-335.333 603.5,-335.333 603.5,-327.667 603.5,-327.667 603.5,-323.833 607.333,-320 611.167,-320 611.167,-320 768.833,-320 768.833,-320 772.667,-320 776.5,-323.833 776.5,-327.667 776.5,-327.667 776.5,-335.333 776.5,-335.333 776.5,-339.167 772.667,-343 768.833,-343"/>
<text text-anchor="middle" x="690" y="-327.8" font-family="Arial" font-size="14.00" fill="#c6c5fe">../metrics/drivers/index.js</text>
</g>
<!-- ../metrics/drivers/queue.js -->
<g id="node32" class="node"><title>../metrics/drivers/queue.js</title>
<path fill="none" stroke="#c6c5fe" d="M1044.33,-363C1044.33,-363 880.667,-363 880.667,-363 876.833,-363 873,-359.167 873,-355.333 873,-355.333 873,-347.667 873,-347.667 873,-343.833 876.833,-340 880.667,-340 880.667,-340 1044.33,-340 1044.33,-340 1048.17,-340 1052,-343.833 1052,-347.667 1052,-347.667 1052,-355.333 1052,-355.333 1052,-359.167 1048.17,-363 1044.33,-363"/>
<text text-anchor="middle" x="962.5" y="-347.8" font-family="Arial" font-size="14.00" fill="#c6c5fe">../metrics/drivers/queue.js</text>
</g>
<!-- ../metrics/drivers/index.js&#45;&gt;../metrics/drivers/queue.js -->
<g id="edge57" class="edge"><title>../metrics/drivers/index.js&#45;&gt;../metrics/drivers/queue.js</title>
<path fill="none" stroke="#757575" d="M776.588,-337.828C803.883,-339.846 834.311,-342.096 862.476,-344.178"/>
<polygon fill="#757575" stroke="#757575" points="862.51,-347.69 872.741,-344.937 863.026,-340.709 862.51,-347.69"/>
</g>
<!-- ../metrics/drivers/queue.js&#45;&gt;../consts/components.js -->
<g id="edge58" class="edge"><title>../metrics/drivers/queue.js&#45;&gt;../consts/components.js</title>
<path fill="none" stroke="#757575" d="M1028.33,-363.052C1108.38,-378.964 1247.29,-412.016 1356,-466.5 1394.1,-485.597 1432.51,-517.246 1454.88,-537.206"/>
<polygon fill="#757575" stroke="#757575" points="1452.6,-539.865 1462.36,-543.986 1457.3,-534.678 1452.6,-539.865"/>
</g>
<!-- ../metrics/drivers/queue.js&#45;&gt;../metrics/Metric.js -->
<g id="edge59" class="edge"><title>../metrics/drivers/queue.js&#45;&gt;../metrics/Metric.js</title>
<path fill="none" stroke="#757575" d="M1052.18,-342.03C1067.36,-339.144 1082.8,-335.388 1097,-330.5 1114.31,-324.542 1115.76,-316.657 1133,-310.5 1144.33,-306.452 1156.62,-303.194 1168.75,-300.58"/>
<polygon fill="#757575" stroke="#757575" points="1169.77,-303.945 1178.87,-298.532 1168.38,-297.084 1169.77,-303.945"/>
</g>
<!-- ../metrics/drivers/queue.js&#45;&gt;../resources/resource&#45;allocator.js -->
<g id="edge60" class="edge"><title>../metrics/drivers/queue.js&#45;&gt;../resources/resource&#45;allocator.js</title>
<path fill="none" stroke="#757575" d="M1052.09,-345.172C1074.52,-343.57 1099,-341.821 1122.72,-340.127"/>
<polygon fill="#757575" stroke="#757575" points="1123.11,-343.608 1132.84,-339.405 1122.61,-336.626 1123.11,-343.608"/>
</g>
<!-- ../metrics/drivers/queue.js&#45;&gt;../utils/queue.js -->
<g id="edge61" class="edge"><title>../metrics/drivers/queue.js&#45;&gt;../utils/queue.js</title>
<path fill="none" stroke="#757575" d="M1052.05,-348.742C1067.97,-345.235 1083.71,-339.533 1097,-330.5 1123.04,-312.807 1107.17,-287.491 1133,-269.5 1146.51,-260.088 1163.14,-254.71 1179.35,-251.728"/>
<polygon fill="#757575" stroke="#757575" points="1180.02,-255.166 1189.36,-250.167 1178.94,-248.25 1180.02,-255.166"/>
</g>
<!-- ../metrics/index.js -->
<g id="node33" class="node"><title>../metrics/index.js</title>
<path fill="none" stroke="#c6c5fe" d="M511.833,-302C511.833,-302 401.167,-302 401.167,-302 397.333,-302 393.5,-298.167 393.5,-294.333 393.5,-294.333 393.5,-286.667 393.5,-286.667 393.5,-282.833 397.333,-279 401.167,-279 401.167,-279 511.833,-279 511.833,-279 515.667,-279 519.5,-282.833 519.5,-286.667 519.5,-286.667 519.5,-294.333 519.5,-294.333 519.5,-298.167 515.667,-302 511.833,-302"/>
<text text-anchor="middle" x="456.5" y="-286.8" font-family="Arial" font-size="14.00" fill="#c6c5fe">../metrics/index.js</text>
</g>
<!-- ../metrics/index.js&#45;&gt;../metrics/algorithms/index.js -->
<g id="edge62" class="edge"><title>../metrics/index.js&#45;&gt;../metrics/algorithms/index.js</title>
<path fill="none" stroke="#757575" d="M519.538,-284.872C538.846,-283.121 560.717,-281.137 582.177,-279.19"/>
<polygon fill="#757575" stroke="#757575" points="582.687,-282.658 592.329,-278.269 582.054,-275.687 582.687,-282.658"/>
</g>
<!-- ../metrics/index.js&#45;&gt;../metrics/drivers/index.js -->
<g id="edge63" class="edge"><title>../metrics/index.js&#45;&gt;../metrics/drivers/index.js</title>
<path fill="none" stroke="#757575" d="M519.538,-301.487C548.537,-306.623 583.316,-312.783 613.8,-318.182"/>
<polygon fill="#757575" stroke="#757575" points="613.501,-321.683 623.959,-319.981 614.722,-314.79 613.501,-321.683"/>
</g>
<!-- ../metrics/metrics&#45;controller.js -->
<g id="node34" class="node"><title>../metrics/metrics&#45;controller.js</title>
<path fill="none" stroke="#c6c5fe" d="M308.333,-303C308.333,-303 122.667,-303 122.667,-303 118.833,-303 115,-299.167 115,-295.333 115,-295.333 115,-287.667 115,-287.667 115,-283.833 118.833,-280 122.667,-280 122.667,-280 308.333,-280 308.333,-280 312.167,-280 316,-283.833 316,-287.667 316,-287.667 316,-295.333 316,-295.333 316,-299.167 312.167,-303 308.333,-303"/>
<text text-anchor="middle" x="215.5" y="-287.8" font-family="Arial" font-size="14.00" fill="#c6c5fe">../metrics/metrics&#45;controller.js</text>
</g>
<!-- ../metrics/metrics&#45;controller.js&#45;&gt;../utils/logger.js -->
<g id="edge66" class="edge"><title>../metrics/metrics&#45;controller.js&#45;&gt;../utils/logger.js</title>
<path fill="none" stroke="#757575" d="M285.308,-303.016C318.676,-308.601 358.516,-315.268 391.259,-320.748"/>
<polygon fill="#757575" stroke="#757575" points="390.737,-324.21 401.178,-322.408 391.893,-317.306 390.737,-324.21"/>
</g>
<!-- ../metrics/metrics&#45;controller.js&#45;&gt;../utils/utils.js -->
<g id="edge67" class="edge"><title>../metrics/metrics&#45;controller.js&#45;&gt;../utils/utils.js</title>
<path fill="none" stroke="#757575" d="M276.787,-279.973C292.49,-276.931 309.385,-273.625 325,-270.5 681.866,-199.075 769.465,-154.744 1133,-137.5 1232,-132.804 1257.75,-124.468 1356,-137.5 1381.46,-140.878 1409.22,-148.169 1431.46,-154.94"/>
<polygon fill="#757575" stroke="#757575" points="1430.68,-158.362 1441.27,-157.998 1432.76,-151.679 1430.68,-158.362"/>
</g>
<!-- ../metrics/metrics&#45;controller.js&#45;&gt;../metrics/index.js -->
<g id="edge64" class="edge"><title>../metrics/metrics&#45;controller.js&#45;&gt;../metrics/index.js</title>
<path fill="none" stroke="#757575" d="M316.127,-291.083C338.582,-290.989 361.999,-290.891 383.088,-290.803"/>
<polygon fill="#757575" stroke="#757575" points="383.254,-294.302 393.239,-290.761 383.225,-287.302 383.254,-294.302"/>
</g>
<!-- ../metrics/metrics&#45;reducer.js -->
<g id="node35" class="node"><title>../metrics/metrics&#45;reducer.js</title>
<path fill="none" stroke="#c6c5fe" d="M544.333,-64C544.333,-64 368.667,-64 368.667,-64 364.833,-64 361,-60.1667 361,-56.3333 361,-56.3333 361,-48.6667 361,-48.6667 361,-44.8333 364.833,-41 368.667,-41 368.667,-41 544.333,-41 544.333,-41 548.167,-41 552,-44.8333 552,-48.6667 552,-48.6667 552,-56.3333 552,-56.3333 552,-60.1667 548.167,-64 544.333,-64"/>
<text text-anchor="middle" x="456.5" y="-48.8" font-family="Arial" font-size="14.00" fill="#c6c5fe">../metrics/metrics&#45;reducer.js</text>
</g>
<!-- ../metrics/metrics&#45;controller.js&#45;&gt;../metrics/metrics&#45;reducer.js -->
<g id="edge65" class="edge"><title>../metrics/metrics&#45;controller.js&#45;&gt;../metrics/metrics&#45;reducer.js</title>
<path fill="none" stroke="#757575" d="M312.866,-279.97C317.259,-277.306 321.348,-274.174 325,-270.5 386.212,-208.93 302.213,-142.39 361,-78.5 364.197,-75.0252 367.812,-71.9983 371.715,-69.3629"/>
<polygon fill="#757575" stroke="#757575" points="373.759,-72.2246 380.674,-64.1972 370.262,-66.1606 373.759,-72.2246"/>
</g>
<!-- ../metrics/metrics&#45;reducer.js&#45;&gt;../utils/utils.js -->
<g id="edge68" class="edge"><title>../metrics/metrics&#45;reducer.js&#45;&gt;../utils/utils.js</title>
<path fill="none" stroke="#757575" d="M522.079,-40.9982C673.303,-16.8598 1059.98,28.5443 1356,-77.5 1397.71,-92.4419 1436.31,-128.149 1457.52,-150.427"/>
<polygon fill="#757575" stroke="#757575" points="1455.15,-153.018 1464.52,-157.963 1460.28,-148.254 1455.15,-153.018"/>
</g>
<!-- ../metrics/settings.js -->
<g id="node36" class="node"><title>../metrics/settings.js</title>
<path fill="none" stroke="#cfffac" d="M278.833,-221C278.833,-221 152.167,-221 152.167,-221 148.333,-221 144.5,-217.167 144.5,-213.333 144.5,-213.333 144.5,-205.667 144.5,-205.667 144.5,-201.833 148.333,-198 152.167,-198 152.167,-198 278.833,-198 278.833,-198 282.667,-198 286.5,-201.833 286.5,-205.667 286.5,-205.667 286.5,-213.333 286.5,-213.333 286.5,-217.167 282.667,-221 278.833,-221"/>
<text text-anchor="middle" x="215.5" y="-205.8" font-family="Arial" font-size="14.00" fill="#cfffac">../metrics/settings.js</text>
</g>
<!-- ../monitoring/const.js -->
<g id="node37" class="node"><title>../monitoring/const.js</title>
<path fill="none" stroke="#cfffac" d="M521.833,-23C521.833,-23 391.167,-23 391.167,-23 387.333,-23 383.5,-19.1667 383.5,-15.3333 383.5,-15.3333 383.5,-7.66667 383.5,-7.66667 383.5,-3.83333 387.333,-0 391.167,-0 391.167,-0 521.833,-0 521.833,-0 525.667,-0 529.5,-3.83333 529.5,-7.66667 529.5,-7.66667 529.5,-15.3333 529.5,-15.3333 529.5,-19.1667 525.667,-23 521.833,-23"/>
<text text-anchor="middle" x="456.5" y="-7.8" font-family="Arial" font-size="14.00" fill="#cfffac">../monitoring/const.js</text>
</g>
<!-- ../monitoring/metrics&#45;provider.js -->
<g id="node38" class="node"><title>../monitoring/metrics&#45;provider.js</title>
<path fill="none" stroke="#c6c5fe" d="M314.833,-101C314.833,-101 116.167,-101 116.167,-101 112.333,-101 108.5,-97.1667 108.5,-93.3333 108.5,-93.3333 108.5,-85.6667 108.5,-85.6667 108.5,-81.8333 112.333,-78 116.167,-78 116.167,-78 314.833,-78 314.833,-78 318.667,-78 322.5,-81.8333 322.5,-85.6667 322.5,-85.6667 322.5,-93.3333 322.5,-93.3333 322.5,-97.1667 318.667,-101 314.833,-101"/>
<text text-anchor="middle" x="215.5" y="-85.8" font-family="Arial" font-size="14.00" fill="#c6c5fe">../monitoring/metrics&#45;provider.js</text>
</g>
<!-- ../monitoring/metrics&#45;provider.js&#45;&gt;../monitoring/const.js -->
<g id="edge69" class="edge"><title>../monitoring/metrics&#45;provider.js&#45;&gt;../monitoring/const.js</title>
<path fill="none" stroke="#757575" d="M241.346,-77.9898C269.765,-65.1882 317.937,-44.5914 361,-31.5 368.196,-29.3125 375.77,-27.2776 383.37,-25.409"/>
<polygon fill="#757575" stroke="#757575" points="384.421,-28.7573 393.347,-23.0495 382.809,-21.9452 384.421,-28.7573"/>
</g>
<!-- runner.js -->
<g id="node39" class="node"><title>runner.js</title>
<path fill="none" stroke="#c6c5fe" d="M62.3333,-303C62.3333,-303 7.66667,-303 7.66667,-303 3.83333,-303 0,-299.167 0,-295.333 0,-295.333 0,-287.667 0,-287.667 0,-283.833 3.83333,-280 7.66667,-280 7.66667,-280 62.3333,-280 62.3333,-280 66.1667,-280 70,-283.833 70,-287.667 70,-287.667 70,-295.333 70,-295.333 70,-299.167 66.1667,-303 62.3333,-303"/>
<text text-anchor="middle" x="35" y="-287.8" font-family="Arial" font-size="14.00" fill="#c6c5fe">runner.js</text>
</g>
<!-- runner.js&#45;&gt;../adapters/adapters&#45;controller.js -->
<g id="edge71" class="edge"><title>runner.js&#45;&gt;../adapters/adapters&#45;controller.js</title>
<path fill="none" stroke="#757575" d="M48.5027,-303.273C61.8459,-315.303 84.046,-333.826 106,-345.5 122.333,-354.185 141.155,-361.318 158.49,-366.878"/>
<polygon fill="#757575" stroke="#757575" points="157.906,-370.361 168.494,-369.969 159.973,-363.673 157.906,-370.361"/>
</g>
<!-- runner.js&#45;&gt;../utils/logger.js -->
<g id="edge77" class="edge"><title>runner.js&#45;&gt;../utils/logger.js</title>
<path fill="none" stroke="#757575" d="M70.1879,-302.903C81.4695,-306.224 94.1614,-309.495 106,-311.5 204.665,-328.206 320.991,-331.696 391.445,-332.059"/>
<polygon fill="#757575" stroke="#757575" points="391.488,-335.559 401.499,-332.091 391.511,-328.559 391.488,-335.559"/>
</g>
<!-- runner.js&#45;&gt;../consts/components.js -->
<g id="edge73" class="edge"><title>runner.js&#45;&gt;../consts/components.js</title>
<path fill="none" stroke="#757575" d="M39.0965,-303.065C60.1057,-378.681 188.998,-799.5 455.5,-799.5 455.5,-799.5 455.5,-799.5 963.5,-799.5 1143.63,-799.5 1206.6,-799.122 1356,-698.5 1404.96,-665.528 1444.49,-606.589 1463.05,-575.68"/>
<polygon fill="#757575" stroke="#757575" points="1466.07,-577.442 1468.12,-567.047 1460.03,-573.896 1466.07,-577.442"/>
</g>
<!-- runner.js&#45;&gt;../adapters/settings.js -->
<g id="edge72" class="edge"><title>runner.js&#45;&gt;../adapters/settings.js</title>
<path fill="none" stroke="#757575" d="M70.3324,-280.386C81.6226,-276.95 94.2831,-273.328 106,-270.5 115.566,-268.191 125.662,-266.003 135.69,-263.981"/>
<polygon fill="#757575" stroke="#757575" points="136.538,-267.381 145.674,-262.015 135.186,-260.513 136.538,-267.381"/>
</g>
<!-- runner.js&#45;&gt;../metrics/metrics&#45;controller.js -->
<g id="edge74" class="edge"><title>runner.js&#45;&gt;../metrics/metrics&#45;controller.js</title>
<path fill="none" stroke="#757575" d="M70.4166,-291.5C80.6488,-291.5 92.4509,-291.5 104.805,-291.5"/>
<polygon fill="#757575" stroke="#757575" points="104.812,-295 114.812,-291.5 104.812,-288 104.812,-295"/>
</g>
<!-- runner.js&#45;&gt;../metrics/settings.js -->
<g id="edge75" class="edge"><title>runner.js&#45;&gt;../metrics/settings.js</title>
<path fill="none" stroke="#757575" d="M45.5569,-279.807C57.9293,-265.517 80.9005,-241.735 106,-229.5 114.91,-225.157 124.651,-221.752 134.524,-219.084"/>
<polygon fill="#757575" stroke="#757575" points="135.538,-222.439 144.415,-216.654 133.868,-215.641 135.538,-222.439"/>
</g>
<!-- runner.js&#45;&gt;../monitoring/metrics&#45;provider.js -->
<g id="edge76" class="edge"><title>runner.js&#45;&gt;../monitoring/metrics&#45;provider.js</title>
<path fill="none" stroke="#757575" d="M42.7441,-279.745C54.3761,-259.93 79.5226,-219.055 106,-188.5 132.92,-157.435 168.96,-126.237 191.959,-107.392"/>
<polygon fill="#757575" stroke="#757575" points="194.24,-110.049 199.802,-101.031 189.83,-104.612 194.24,-110.049"/>
</g>
</g>
</svg>
